<svg width="100" height="70" viewBox="0 0 100 70" fill="none" xmlns="http://www.w3.org/2000/svg">
<g clip-path="url(#clip0_724_1356)">
<path d="M29.2911 69.0829L9.63672 35.0466L29.2911 0.980957H68.5998L88.2835 35.0466L68.5998 69.0829H29.2911Z" fill="url(#paint0_linear_724_1356)"/>
<path d="M31.2534 65.6853L13.5615 35.0467L31.2534 4.37891H66.6371L84.3289 35.0467L66.6371 65.6853H31.2534Z" fill="url(#paint1_linear_724_1356)"/>
<path d="M32.6306 63.2829L16.3447 35.0462L32.6306 6.78027H65.261L81.5468 35.0462L65.261 63.2829H32.6306Z" fill="url(#paint2_linear_724_1356)"/>
<path d="M90.8026 55.9311L91.9743 69.1707C79.3919 61.2914 64.8458 57.1128 50 57.1128C35.1542 57.1128 20.6081 61.2914 8.02579 69.1707L9.16815 55.9311L0 54.4959C15.0566 45.3002 32.3574 40.4348 50 40.4348C67.6426 40.4348 84.9435 45.3002 100 54.4959L90.8026 55.9311Z" fill="url(#paint3_linear_724_1356)"/>
<path d="M37.6981 35.0176C37.6919 34.68 37.5816 34.3526 37.3824 34.08C37.1832 33.8074 36.9048 33.6029 36.585 33.4944C36.8525 33.3932 37.0827 33.2127 37.2449 32.9772C37.4072 32.7417 37.4937 32.4623 37.4931 32.1763C37.4931 30.7997 36.4679 30.1846 35.1498 30.1846H31.8984V37.0094H35.1498C36.5557 37.0094 37.6981 36.6286 37.6981 35.0176ZM33.158 31.3562H35.1498C35.2752 31.3399 35.4027 31.3492 35.5245 31.3835C35.6463 31.4178 35.7598 31.4764 35.8583 31.5558C35.9569 31.6352 36.0383 31.7337 36.0978 31.8453C36.1572 31.957 36.1934 32.0796 36.2042 32.2057C36.2042 32.5865 35.9406 32.9379 35.1498 32.9379H33.158V31.3562ZM33.158 34.051H35.1498C35.677 34.051 36.4093 34.3732 36.4093 34.9883C36.4093 35.6034 35.677 35.8085 35.1498 35.8085H33.158V34.051Z" fill="url(#paint4_linear_724_1356)"/>
<path d="M40.0114 34.7245H41.2416L43.2335 37.0092H45.8696L46.4262 35.7204H49.9997L50.5855 37.0092H51.9915L48.7988 30.1844H47.3928L44.4637 36.8335L42.4719 34.6073C42.9765 34.5346 43.435 34.2739 43.7555 33.8773C44.076 33.4808 44.2348 32.9778 44.2 32.4691C44.2007 32.1563 44.1371 31.8467 44.0132 31.5596C43.8894 31.2724 43.7079 31.0137 43.4799 30.7995C43.252 30.5853 42.9825 30.4202 42.6882 30.3144C42.3939 30.2086 42.081 30.1643 41.7689 30.1844H38.5176V37.0092H40.0114V34.7245ZM48.3301 31.6196L49.6189 34.5487H47.0706L48.3301 31.6196ZM40.0114 31.3853H41.9739C42.1332 31.3592 42.2962 31.3681 42.4517 31.4113C42.6073 31.4544 42.7515 31.531 42.8745 31.6354C42.9975 31.7399 43.0963 31.8699 43.1641 32.0164C43.2319 32.1629 43.2669 32.3224 43.2669 32.4838C43.2669 32.6451 43.2319 32.8046 43.1641 32.9511C43.0963 33.0976 42.9975 33.2275 42.8745 33.332C42.7515 33.4365 42.6073 33.513 42.4517 33.5562C42.2962 33.5994 42.1332 33.6083 41.9739 33.5822H40.0114V31.3853Z" fill="url(#paint5_linear_724_1356)"/>
<path d="M53.9539 32.4107L57.5274 37.0094H58.3182V30.1846H57.0587V34.4318L53.7195 30.1846H52.665V37.0094H53.9539V32.4107Z" fill="url(#paint6_linear_724_1356)"/>
<path d="M65.4949 33.6991C65.5161 33.2487 65.4425 32.7987 65.2789 32.3785C65.1152 31.9583 64.8651 31.577 64.5449 31.2595C64.2246 30.942 63.8412 30.6953 63.4196 30.5353C62.998 30.3753 62.5474 30.3056 62.0971 30.3307H59.4023V37.1555H62.0971C62.5553 37.1818 63.0137 37.11 63.4419 36.9447C63.87 36.7795 64.2578 36.5248 64.5795 36.1975C64.9012 35.8703 65.1493 35.4781 65.3071 35.0472C65.465 34.6164 65.529 34.1568 65.4949 33.6991ZM60.6912 31.5609H62.0971C62.6323 31.623 63.1261 31.8796 63.4844 32.282C63.8428 32.6843 64.0407 33.2043 64.0407 33.7431C64.0407 34.2819 63.8428 34.8019 63.4844 35.2042C63.1261 35.6065 62.6323 35.8631 62.0971 35.9253H60.6912V31.5609Z" fill="url(#paint7_linear_724_1356)"/>
<path d="M34.3874 52.8556L29.8472 54.0566L29.525 55.9019L27.7676 56.3706L29.32 46.6459L31.1068 46.1479L37.3458 53.7929L35.559 54.2909L34.3874 52.8556ZM30.726 48.3448L30.0816 52.4748L33.3329 51.5961L30.726 48.3448Z" fill="#774320"/>
<path d="M46.1043 52.8849H44.669L43.263 50.1901L42.0621 47.4367L41.3884 50.3658L40.5975 53.295H39.1623L34.9736 44.6541L36.8775 44.4783L39.6309 50.7173L41.1541 44.0389H42.2671L45.1963 50.3072L46.6022 43.6289L48.5061 43.4531L46.1043 52.8849Z" fill="#774320"/>
<path d="M56.5317 51.6255L51.728 51.274L50.8199 52.885H49.0039L53.7491 44.0977L55.5944 44.2441L58.9043 53.5587L57.059 53.3829L56.5317 51.6255ZM54.5985 46.0309L52.636 49.7216L55.9752 49.9852L54.5985 46.0309Z" fill="#774320"/>
<path d="M67.2524 55.3746L65.2899 54.9353L63.3567 51.4496L61.7749 51.0981L61.1306 54.0273L59.4609 53.6758L61.3942 44.8884L65.5828 45.8257C65.9961 45.8722 66.3947 46.0061 66.7522 46.2186C67.1097 46.4311 67.4179 46.7173 67.6562 47.0581C67.8945 47.3989 68.0575 47.7866 68.1343 48.1953C68.2112 48.604 68.2001 49.0244 68.1018 49.4285C67.9999 50.1124 67.6391 50.731 67.0939 51.1562C66.5487 51.5815 65.8608 51.7809 65.1727 51.7132L67.1938 55.2868L67.2524 55.3746ZM62.7123 46.7923L62.0971 49.7215L64.6162 50.278C65.0046 50.3596 65.4095 50.2835 65.7418 50.0665C66.0742 49.8495 66.3067 49.5094 66.3883 49.121C66.4699 48.7326 66.3938 48.3276 66.1768 47.9953C65.9598 47.663 65.6197 47.4304 65.2313 47.3489L62.7123 46.7923Z" fill="#774320"/>
<path d="M76.6847 53.8219C76.5349 54.4262 76.2559 54.9909 75.8668 55.4769C75.4777 55.9629 74.9879 56.3588 74.431 56.6373C73.8741 56.9157 73.2635 57.07 72.6412 57.0897C72.019 57.1093 71.3998 56.9938 70.8265 56.751L67.4873 55.5794L70.4164 47.085L73.7556 48.2273C74.3277 48.3828 74.8615 48.6546 75.3237 49.026C75.7858 49.3973 76.1663 49.8601 76.4412 50.3853C76.7162 50.9105 76.8798 51.4868 76.9217 52.0782C76.9636 52.6695 76.8829 53.2632 76.6847 53.8219ZM69.7134 54.4956L71.4416 55.1107C72.122 55.2231 72.8203 55.0918 73.4134 54.7399C74.0065 54.388 74.4565 53.8381 74.684 53.187C74.9115 52.536 74.902 51.8256 74.6571 51.1808C74.4123 50.5361 73.9478 49.9985 73.3455 49.6626L71.588 49.0475L69.7134 54.4956Z" fill="#774320"/>
<path d="M47.6858 16.5345V13.6054C47.6858 13.0489 47.6858 12.7559 47.3636 12.7559C46.4255 13.0486 45.5142 13.421 44.6395 13.869H44.3173C44.2682 13.8517 44.2252 13.8202 44.1939 13.7785C44.1627 13.7368 44.1444 13.6867 44.1416 13.6347C44.1504 13.5618 44.1762 13.4921 44.2169 13.431C44.2576 13.37 44.3121 13.3193 44.3759 13.2832C44.3759 13.2832 48.9453 10.3541 49.7655 9.70966C49.9705 9.70966 50.1756 9.38745 50.3513 9.38745C50.5271 9.38745 50.6442 9.65109 50.6442 9.88542C50.6442 10.1197 50.6442 12.3752 50.6442 15.9487V20.2838C50.6442 22.5099 50.6442 24.5017 50.6442 25.5269C50.6442 26.5521 50.8493 26.6107 51.5815 26.7864L53.134 26.9329C53.1635 26.9326 53.1929 26.9387 53.2199 26.9507C53.2469 26.9628 53.2709 26.9806 53.2904 27.0029C53.3099 27.0251 53.3243 27.0513 53.3327 27.0797C53.3411 27.1081 53.3432 27.1379 53.339 27.1672C53.339 27.3137 53.339 27.3722 52.9582 27.3722C51.2008 27.3722 49.7069 27.3722 49.0625 27.3722C48.4181 27.3722 46.5727 27.3722 45.0789 27.3722C44.8153 27.3722 44.6688 27.3722 44.6688 27.1672C44.6688 26.9622 44.6688 26.9329 44.8739 26.9329C45.4919 26.9098 46.108 26.8511 46.7192 26.7571C47.4808 26.5814 47.5979 26.2592 47.6565 25.5269C47.7151 24.7946 47.6565 22.5978 47.6565 20.2838L47.6858 16.5345Z" fill="url(#paint8_linear_724_1356)"/>
<path style="mix-blend-mode:multiply" d="M16.8715 51.2739L18.3947 53.09L20.7965 52.8849L19.5077 54.906L20.4743 57.1029L18.1603 56.517L16.3443 58.1281L16.1978 55.7262L14.1182 54.496L16.3443 53.6172L16.8715 51.2739Z" fill="url(#paint9_linear_724_1356)"/>
<path style="mix-blend-mode:multiply" d="M84.0949 51.2739L82.5425 53.09L80.1406 52.8849L81.4294 54.906L80.4628 57.1029L82.8061 56.517L84.5929 58.1281L84.7686 55.7262L86.819 54.496L84.5929 53.6172L84.0949 51.2739Z" fill="url(#paint10_linear_724_1356)"/>
<path d="M56.5611 18.2041C59.9588 18.2041 61.277 21.9241 63.6496 21.2797C63.9168 21.2084 64.1652 21.0798 64.3777 20.9027C64.5901 20.7257 64.7615 20.5045 64.8798 20.2545C64.9773 20.0513 65.0072 19.8222 64.965 19.6008C64.9229 19.3794 64.8109 19.1773 64.6455 19.0243C64.5025 18.915 64.3275 18.8558 64.1475 18.8558C63.9675 18.8558 63.7926 18.915 63.6496 19.0243C63.386 19.2293 63.298 19.5808 63.4738 19.7565C63.512 19.7955 63.5576 19.8265 63.6079 19.8476C63.6582 19.8687 63.7122 19.8796 63.7667 19.8796C63.8213 19.8796 63.8753 19.8687 63.9256 19.8476C63.9759 19.8265 64.0215 19.7955 64.0596 19.7565C64.0596 19.7565 64.2354 19.7565 64.0596 19.7565C64.0102 19.8177 63.9477 19.867 63.8768 19.9009C63.8058 19.9348 63.7282 19.9524 63.6496 19.9524C63.5709 19.9524 63.4933 19.9348 63.4223 19.9009C63.3514 19.867 63.2889 19.8177 63.2395 19.7565C63.1732 19.6832 63.1239 19.5962 63.095 19.5017C63.0662 19.4072 63.0585 19.3075 63.0724 19.2096C63.0864 19.1118 63.1217 19.0182 63.1759 18.9356C63.2301 18.8529 63.3018 18.7832 63.3859 18.7313C63.5612 18.5808 63.7847 18.498 64.0157 18.498C64.2468 18.498 64.4702 18.5808 64.6455 18.7313C64.8172 18.9178 64.9286 19.1518 64.9652 19.4027C65.0017 19.6535 64.9618 19.9096 64.8505 20.1373C64.6865 20.4469 64.448 20.7108 64.1565 20.9051C63.865 21.0995 63.5297 21.2181 63.1809 21.2504C60.5447 21.6605 59.7245 18.3213 56.4732 18.3213C56.0518 18.2265 55.6111 18.2692 55.2158 18.4432C54.8204 18.6171 54.4912 18.9132 54.2764 19.2879C54.6572 18.6142 55.3894 18.2041 56.5611 18.2041Z" fill="url(#paint11_linear_724_1356)"/>
<path d="M61.8048 21.6607C58.4363 21.6607 57.1182 17.9114 54.7456 18.7316C54.478 18.8011 54.2279 18.9255 54.011 19.097C53.7942 19.2684 53.6154 19.4832 53.4861 19.7275C53.3984 19.9396 53.3766 20.1732 53.4236 20.3979C53.4707 20.6225 53.5843 20.8278 53.7497 20.987C53.8905 21.1011 54.0663 21.1634 54.2476 21.1634C54.4289 21.1634 54.6047 21.1011 54.7456 20.987C54.8057 20.9509 54.8581 20.9032 54.8996 20.8467C54.9411 20.7902 54.9709 20.7259 54.9873 20.6577C55.0036 20.5896 55.0062 20.5188 54.9949 20.4496C54.9836 20.3804 54.9586 20.3141 54.9213 20.2547C54.8408 20.1827 54.7365 20.1428 54.6284 20.1428C54.5204 20.1428 54.4161 20.1827 54.3355 20.2547C54.3355 20.2547 54.1305 20.2547 54.3355 20.2547C54.3877 20.193 54.4528 20.1434 54.5262 20.1094C54.5995 20.0754 54.6794 20.0578 54.7602 20.0578C54.8411 20.0578 54.9209 20.0754 54.9943 20.1094C55.0676 20.1434 55.1327 20.193 55.1849 20.2547C55.255 20.3205 55.3108 20.3999 55.349 20.488C55.3872 20.5762 55.4068 20.6712 55.4068 20.7673C55.4068 20.8634 55.3872 20.9584 55.349 21.0466C55.3108 21.1347 55.255 21.2142 55.1849 21.2799C55.0125 21.4363 54.788 21.523 54.5552 21.523C54.3223 21.523 54.0979 21.4363 53.9254 21.2799C53.7514 21.1012 53.6358 20.8739 53.594 20.628C53.5521 20.3822 53.586 20.1294 53.6911 19.9032C53.8647 19.5988 54.1052 19.3378 54.3944 19.1399C54.6837 18.942 55.0141 18.8124 55.3607 18.7609C57.9969 18.3801 58.8463 21.69 62.0976 21.69C62.519 21.7847 62.9597 21.742 63.3551 21.5681C63.7504 21.3941 64.0796 21.0981 64.2945 20.7234C63.7086 21.2506 63.0057 21.6607 61.8048 21.6607Z" fill="url(#paint12_linear_724_1356)"/>
<path d="M40.8321 21.6604C37.4343 21.6604 36.1162 17.9112 33.7436 18.7313C33.4799 18.8011 33.2339 18.9259 33.0219 19.0976C32.8099 19.2692 32.6366 19.4838 32.5134 19.7272C32.4135 19.9348 32.3824 20.1688 32.4245 20.3953C32.4667 20.6218 32.5799 20.829 32.7477 20.9867C32.8886 21.1009 33.0644 21.1632 33.2457 21.1632C33.427 21.1632 33.6028 21.1009 33.7436 20.9867C33.8038 20.9507 33.8561 20.903 33.8976 20.8465C33.9391 20.7899 33.969 20.7257 33.9853 20.6575C34.0017 20.5893 34.0042 20.5185 33.9929 20.4493C33.9816 20.3801 33.9566 20.3139 33.9194 20.2545C33.8388 20.1824 33.7345 20.1426 33.6265 20.1426C33.5184 20.1426 33.4141 20.1824 33.3335 20.2545C33.3335 20.2545 33.1578 20.2545 33.3335 20.2545C33.383 20.1933 33.4454 20.144 33.5164 20.1101C33.5873 20.0762 33.665 20.0586 33.7436 20.0586C33.8222 20.0586 33.8999 20.0762 33.9708 20.1101C34.0418 20.144 34.1043 20.1933 34.1537 20.2545C34.2199 20.3278 34.2692 20.4148 34.2981 20.5093C34.327 20.6038 34.3347 20.7035 34.3207 20.8014C34.3067 20.8992 34.2714 20.9928 34.2172 21.0754C34.1631 21.1581 34.0914 21.2278 34.0072 21.2797C33.8348 21.4361 33.6103 21.5227 33.3775 21.5227C33.1446 21.5227 32.9202 21.4361 32.7477 21.2797C32.5748 21.0999 32.4622 20.8708 32.4254 20.6241C32.3887 20.3773 32.4296 20.1253 32.5427 19.903C32.7128 19.5957 32.9524 19.3324 33.2422 19.1341C33.5321 18.9358 33.8643 18.8079 34.2123 18.7606C36.8485 18.3798 37.6686 21.6897 40.9199 21.6897C41.3413 21.7845 41.782 21.7418 42.1774 21.5678C42.5727 21.3939 42.9019 21.0978 43.1168 20.7231C42.736 21.2504 42.0037 21.6604 40.8321 21.6604Z" fill="url(#paint13_linear_724_1356)"/>
<path d="M35.5884 18.2041C38.9569 18.2041 40.275 21.9241 42.6476 21.2797C42.9185 21.2086 43.1711 21.0803 43.3884 20.9035C43.6056 20.7267 43.7825 20.5054 43.9071 20.2545C43.9924 20.0468 44.0128 19.8181 43.9658 19.5986C43.9187 19.379 43.8064 19.1788 43.6435 19.0243C43.5005 18.915 43.3255 18.8558 43.1455 18.8558C42.9656 18.8558 42.7906 18.915 42.6476 19.0243C42.5318 19.1021 42.4496 19.2205 42.417 19.3562C42.3845 19.4918 42.404 19.6346 42.4718 19.7565C42.51 19.7955 42.5556 19.8265 42.6059 19.8476C42.6561 19.8687 42.7102 19.8796 42.7647 19.8796C42.8193 19.8796 42.8733 19.8687 42.9236 19.8476C42.9739 19.8265 43.0194 19.7955 43.0576 19.7565C43.0576 19.7565 43.2627 19.7565 43.2041 19.7565C43.1518 19.8182 43.0868 19.8678 43.0135 19.9018C42.9401 19.9358 42.8602 19.9534 42.7794 19.9534C42.6986 19.9534 42.6186 19.9358 42.5453 19.9018C42.4719 19.8678 42.4069 19.8182 42.3547 19.7565C42.2846 19.6908 42.2288 19.6114 42.1906 19.5232C42.1524 19.4351 42.1328 19.34 42.1328 19.2439C42.1328 19.1479 42.1524 19.0528 42.1906 18.9646C42.2288 18.8765 42.2846 18.7971 42.3547 18.7313C42.53 18.5808 42.7534 18.498 42.9844 18.498C43.2155 18.498 43.4389 18.5808 43.6142 18.7313C43.7907 18.9146 43.9075 19.147 43.9494 19.398C43.9912 19.649 43.956 19.9067 43.8485 20.1373C43.6786 20.4421 43.4386 20.7021 43.1482 20.8956C42.8579 21.0892 42.5256 21.2108 42.1789 21.2504C39.5427 21.6605 38.6933 18.3213 35.442 18.3213C35.0206 18.2265 34.5799 18.2692 34.1845 18.4432C33.7892 18.6171 33.4599 18.9132 33.2451 19.2879C33.6845 18.6142 34.3875 18.2041 35.5884 18.2041Z" fill="url(#paint14_linear_724_1356)"/>
</g>
<defs>
<linearGradient id="paint0_linear_724_1356" x1="22.0855" y1="8.18658" x2="75.8054" y2="61.8773" gradientUnits="userSpaceOnUse">
<stop stop-color="#B07515"/>
<stop offset="0.09" stop-color="#E1BA60"/>
<stop offset="0.14" stop-color="#F5D77F"/>
<stop offset="0.26" stop-color="#FFFFD7"/>
<stop offset="0.36" stop-color="#F5D77F"/>
<stop offset="0.49" stop-color="#B07515"/>
<stop offset="0.57" stop-color="#E1BA60"/>
<stop offset="0.61" stop-color="#F5D77F"/>
<stop offset="0.74" stop-color="#FFFFD7"/>
<stop offset="0.84" stop-color="#F5D77F"/>
<stop offset="1" stop-color="#B07515"/>
</linearGradient>
<linearGradient id="paint1_linear_724_1356" x1="24.78" y1="10.8523" x2="73.1104" y2="59.2119" gradientUnits="userSpaceOnUse">
<stop stop-color="#B07515"/>
<stop offset="0.36" stop-color="#F5D77F"/>
<stop offset="0.72" stop-color="#B07515"/>
<stop offset="0.95" stop-color="#F5D77F"/>
</linearGradient>
<linearGradient id="paint2_linear_724_1356" x1="16.3447" y1="35.0462" x2="81.5468" y2="35.0462" gradientUnits="userSpaceOnUse">
<stop stop-color="#0F1115"/>
<stop offset="0.29" stop-color="#484749"/>
<stop offset="0.39" stop-color="#38383A"/>
<stop offset="0.62" stop-color="#191B1E"/>
<stop offset="0.84" stop-color="#535253"/>
<stop offset="0.88" stop-color="#474648"/>
<stop offset="0.95" stop-color="#26272A"/>
<stop offset="1" stop-color="#0F1115"/>
</linearGradient>
<linearGradient id="paint3_linear_724_1356" x1="76.655" y1="31.1508" x2="23.3451" y2="84.49" gradientUnits="userSpaceOnUse">
<stop stop-color="#B07515"/>
<stop offset="0.36" stop-color="#F5D77F"/>
<stop offset="0.72" stop-color="#B07515"/>
<stop offset="0.95" stop-color="#F5D77F"/>
</linearGradient>
<linearGradient id="paint4_linear_724_1356" x1="31.3126" y1="30.7997" x2="37.0537" y2="36.5115" gradientUnits="userSpaceOnUse">
<stop stop-color="#B07515"/>
<stop offset="0.36" stop-color="#F5D77F"/>
<stop offset="0.72" stop-color="#B07515"/>
<stop offset="0.95" stop-color="#F5D77F"/>
</linearGradient>
<linearGradient id="paint5_linear_724_1356" x1="39.4842" y1="29.3057" x2="49.5603" y2="39.4111" gradientUnits="userSpaceOnUse">
<stop stop-color="#B07515"/>
<stop offset="0.36" stop-color="#F5D77F"/>
<stop offset="0.72" stop-color="#B07515"/>
<stop offset="0.95" stop-color="#F5D77F"/>
</linearGradient>
<linearGradient id="paint6_linear_724_1356" x1="52.3721" y1="30.4775" x2="58.6111" y2="36.7165" gradientUnits="userSpaceOnUse">
<stop stop-color="#B07515"/>
<stop offset="0.36" stop-color="#F5D77F"/>
<stop offset="0.72" stop-color="#B07515"/>
<stop offset="0.95" stop-color="#F5D77F"/>
</linearGradient>
<linearGradient id="paint7_linear_724_1356" x1="58.7579" y1="30.8579" x2="64.2939" y2="36.3647" gradientUnits="userSpaceOnUse">
<stop stop-color="#B07515"/>
<stop offset="0.36" stop-color="#F5D77F"/>
<stop offset="0.72" stop-color="#B07515"/>
<stop offset="0.95" stop-color="#F5D77F"/>
</linearGradient>
<linearGradient id="paint8_linear_724_1356" x1="43.4386" y1="14.1912" x2="54.8622" y2="25.6147" gradientUnits="userSpaceOnUse">
<stop stop-color="#B07515"/>
<stop offset="0.36" stop-color="#F5D77F"/>
<stop offset="0.72" stop-color="#B07515"/>
<stop offset="0.95" stop-color="#F5D77F"/>
</linearGradient>
<linearGradient id="paint9_linear_724_1356" x1="14.8781" y1="53.2964" x2="20.6587" y2="56.8256" gradientUnits="userSpaceOnUse">
<stop stop-color="#AC6127"/>
<stop offset="0.13" stop-color="#C78A45"/>
<stop offset="0.26" stop-color="#DDAC5F"/>
<stop offset="0.37" stop-color="#EBC16E"/>
<stop offset="0.44" stop-color="#F0C974"/>
<stop offset="0.97" stop-color="#FFF38B"/>
</linearGradient>
<linearGradient id="paint10_linear_724_1356" x1="85.9977" y1="51.6919" x2="80.1851" y2="55.1986" gradientUnits="userSpaceOnUse">
<stop stop-color="#AC6127"/>
<stop offset="0.13" stop-color="#C78A45"/>
<stop offset="0.26" stop-color="#DDAC5F"/>
<stop offset="0.37" stop-color="#EBC16E"/>
<stop offset="0.44" stop-color="#F0C974"/>
<stop offset="0.97" stop-color="#FFF38B"/>
</linearGradient>
<linearGradient id="paint11_linear_724_1356" x1="57.0004" y1="16.5345" x2="62.9173" y2="22.4513" gradientUnits="userSpaceOnUse">
<stop stop-color="#B07515"/>
<stop offset="0.36" stop-color="#F5D77F"/>
<stop offset="0.72" stop-color="#B07515"/>
<stop offset="0.95" stop-color="#F5D77F"/>
</linearGradient>
<linearGradient id="paint12_linear_724_1356" x1="55.4486" y1="17.3842" x2="61.3947" y2="23.3303" gradientUnits="userSpaceOnUse">
<stop stop-color="#B07515"/>
<stop offset="0.36" stop-color="#F5D77F"/>
<stop offset="0.72" stop-color="#B07515"/>
<stop offset="0.95" stop-color="#F5D77F"/>
</linearGradient>
<linearGradient id="paint13_linear_724_1356" x1="34.4759" y1="17.3839" x2="40.3927" y2="23.33" gradientUnits="userSpaceOnUse">
<stop stop-color="#B07515"/>
<stop offset="0.36" stop-color="#F5D77F"/>
<stop offset="0.72" stop-color="#B07515"/>
<stop offset="0.95" stop-color="#F5D77F"/>
</linearGradient>
<linearGradient id="paint14_linear_724_1356" x1="35.9985" y1="16.5345" x2="41.9446" y2="22.4513" gradientUnits="userSpaceOnUse">
<stop stop-color="#B07515"/>
<stop offset="0.36" stop-color="#F5D77F"/>
<stop offset="0.72" stop-color="#B07515"/>
<stop offset="0.95" stop-color="#F5D77F"/>
</linearGradient>
<clipPath id="clip0_724_1356">
<rect width="100" height="68.1898" fill="white" transform="translate(0 0.980957)"/>
</clipPath>
</defs>
</svg>
