<svg width="13" height="14" viewBox="0 0 13 14" fill="none" xmlns="http://www.w3.org/2000/svg">
<mask id="mask0_2906_904" style="mask-type:alpha" maskUnits="userSpaceOnUse" x="0" y="0" width="13" height="14">
<rect width="13" height="14" fill="#D9D9D9"/>
</mask>
<g mask="url(#mask0_2906_904)">
<path d="M3.93546 0.783689L6.42791 9.3925H6.5263L9.03515 0.783689H12.7738L8.73999 13H4.21422L0.180375 0.783689H3.93546ZM13.5937 13V3.83367H16.8897V13H13.5937ZM15.2335 2.899C14.7853 2.899 14.4027 2.75142 14.0857 2.45626C13.7686 2.1611 13.6101 1.80581 13.6101 1.3904C13.6101 0.96953 13.7686 0.614245 14.0857 0.324552C14.4027 0.029393 14.7853 -0.118187 15.2335 -0.118187C15.6817 -0.118187 16.0643 0.029393 16.3813 0.324552C16.6984 0.614245 16.8569 0.966797 16.8569 1.38221C16.8569 1.80308 16.6984 2.1611 16.3813 2.45626C16.0643 2.75142 15.6817 2.899 15.2335 2.899ZM21.0055 3.83367L22.3337 6.68687L23.7439 3.83367H27.0235L24.5638 8.42503L27.1382 13H23.8915L22.3337 10.0976L20.8415 13H17.5456L20.1528 8.42503L17.7096 3.83367H21.0055ZM30.2866 13.1476C29.7018 13.1476 29.1825 13.0519 28.7288 12.8606C28.2806 12.6638 27.9308 12.3687 27.6794 11.9751C27.4279 11.5816 27.3022 11.0815 27.3022 10.4747C27.3022 9.97189 27.3869 9.54281 27.5564 9.18753C27.7258 8.83224 27.9636 8.54255 28.2697 8.31845C28.5758 8.08888 28.9311 7.91397 29.3355 7.79372C29.7455 7.668 30.1882 7.58875 30.6638 7.55595C31.1776 7.51769 31.5875 7.47123 31.8936 7.41657C32.2051 7.36191 32.4292 7.28266 32.5659 7.1788C32.708 7.06949 32.7791 6.92737 32.7791 6.75246V6.71967C32.7791 6.48463 32.6889 6.30426 32.5085 6.17854C32.3281 6.04736 32.0958 5.98177 31.8116 5.98177C31.4946 5.98177 31.2377 6.05009 31.0409 6.18674C30.8441 6.32339 30.7239 6.53383 30.6802 6.81805H27.663C27.7012 6.26053 27.8761 5.74674 28.1877 5.27667C28.5047 4.8066 28.9666 4.42945 29.5733 4.14522C30.1855 3.861 30.948 3.71888 31.8608 3.71888C32.5112 3.71888 33.0961 3.79541 33.6154 3.94845C34.1346 4.1015 34.5774 4.31467 34.9436 4.58796C35.3098 4.86126 35.5885 5.18101 35.7799 5.54723C35.9766 5.90798 36.075 6.29879 36.075 6.71967V13H32.9922V11.7046H32.9266C32.7408 12.0489 32.5167 12.3277 32.2543 12.5409C31.9974 12.7486 31.705 12.9016 31.3771 13C31.0491 13.0984 30.6856 13.1476 30.2866 13.1476ZM31.3525 11.0651C31.6039 11.0651 31.8389 11.0131 32.0576 10.9093C32.2817 10.8054 32.462 10.6579 32.5987 10.4666C32.7408 10.2698 32.8119 10.032 32.8119 9.75325V8.99895C32.7244 9.03175 32.6315 9.06454 32.5331 9.09734C32.4347 9.13013 32.3281 9.1602 32.2133 9.18753C32.104 9.21486 31.9892 9.23945 31.869 9.26132C31.7542 9.28318 31.6312 9.30504 31.5 9.32691C31.2431 9.36517 31.0327 9.43076 30.8687 9.52368C30.7102 9.61114 30.5927 9.72045 30.5162 9.85164C30.4397 9.97735 30.4014 10.1195 30.4014 10.278C30.4014 10.5349 30.4889 10.7316 30.6638 10.8683C30.8441 10.9995 31.0737 11.0651 31.3525 11.0651ZM40.65 7.85111V13H37.354V3.83367H40.6172V5.58822H40.6828C40.885 5.00337 41.2157 4.54697 41.6748 4.21901C42.1394 3.88559 42.7106 3.71888 43.3884 3.71888C44.0388 3.71888 44.6018 3.86646 45.0774 4.16162C45.5584 4.45678 45.93 4.86399 46.1924 5.38325C46.4548 5.90251 46.586 6.49557 46.586 7.16241V13H43.29V7.85111C43.29 7.39744 43.1752 7.04216 42.9457 6.78526C42.7161 6.5229 42.3936 6.39171 41.9782 6.39171C41.7104 6.39171 41.4753 6.45184 41.2731 6.57209C41.0763 6.68687 40.9233 6.85358 40.814 7.07222C40.7046 7.28539 40.65 7.54502 40.65 7.85111Z" fill="#FF6B00"/>
</g>
</svg>
