<svg width="94" height="35" viewBox="0 0 94 35" fill="none" xmlns="http://www.w3.org/2000/svg">
<path d="M89 27.0195C87.5985 27.0195 86.4148 26.5406 85.4489 25.5827C84.483 24.6249 84 23.4372 84 22.0195C84 20.6019 84.483 19.4142 85.4489 18.4563C86.4148 17.4985 87.5985 17.0195 89 17.0195C90.4015 17.0195 91.5852 17.4985 92.5511 18.4563C93.517 19.4142 94 20.6019 94 22.0195C94 23.4372 93.517 24.6249 92.5511 25.5827C91.5852 26.5406 90.4015 27.0195 89 27.0195Z" fill="#FF6B00"/>
<path d="M6.5625 6.64844L10.7188 21.0039H10.8828L15.0664 6.64844H21.3008L14.5742 27.0195H7.02734L0.300781 6.64844H6.5625ZM22.668 27.0195V11.7344H28.1641V27.0195H22.668ZM25.4023 10.1758C24.6549 10.1758 24.0169 9.92969 23.4883 9.4375C22.9596 8.94531 22.6953 8.35286 22.6953 7.66016C22.6953 6.95833 22.9596 6.36589 23.4883 5.88281C24.0169 5.39062 24.6549 5.14453 25.4023 5.14453C26.1497 5.14453 26.7878 5.39062 27.3164 5.88281C27.8451 6.36589 28.1094 6.95378 28.1094 7.64648C28.1094 8.34831 27.8451 8.94531 27.3164 9.4375C26.7878 9.92969 26.1497 10.1758 25.4023 10.1758ZM35.0273 11.7344L37.2422 16.4922L39.5938 11.7344H45.0625L40.9609 19.3906L45.2539 27.0195H39.8398L37.2422 22.1797L34.7539 27.0195H29.2578L33.6055 19.3906L29.5312 11.7344H35.0273ZM50.5039 27.2656C49.5286 27.2656 48.6628 27.1061 47.9062 26.7871C47.1589 26.459 46.5755 25.9668 46.1562 25.3105C45.737 24.6543 45.5273 23.8203 45.5273 22.8086C45.5273 21.9701 45.6686 21.2546 45.9512 20.6621C46.2337 20.0697 46.6302 19.5866 47.1406 19.2129C47.651 18.8301 48.2435 18.5384 48.918 18.3379C49.6016 18.1283 50.3398 17.9961 51.1328 17.9414C51.9896 17.8776 52.6732 17.8001 53.1836 17.709C53.7031 17.6178 54.0768 17.4857 54.3047 17.3125C54.5417 17.1302 54.6602 16.8932 54.6602 16.6016V16.5469C54.6602 16.1549 54.5098 15.8542 54.209 15.6445C53.9082 15.4258 53.5208 15.3164 53.0469 15.3164C52.5182 15.3164 52.0898 15.4303 51.7617 15.6582C51.4336 15.8861 51.2331 16.237 51.1602 16.7109H46.1289C46.1927 15.7812 46.4844 14.9245 47.0039 14.1406C47.5326 13.3568 48.3027 12.7279 49.3145 12.2539C50.3353 11.7799 51.6068 11.543 53.1289 11.543C54.2135 11.543 55.1888 11.6706 56.0547 11.9258C56.9206 12.181 57.6589 12.5365 58.2695 12.9922C58.8802 13.4479 59.3451 13.9811 59.6641 14.5918C59.9922 15.1934 60.1562 15.8451 60.1562 16.5469V27.0195H55.0156V24.8594H54.9062C54.5964 25.4336 54.2227 25.8984 53.7852 26.2539C53.3568 26.6003 52.8691 26.8555 52.3223 27.0195C51.7754 27.1836 51.1693 27.2656 50.5039 27.2656ZM52.2812 23.793C52.7005 23.793 53.0924 23.7064 53.457 23.5332C53.8307 23.36 54.1315 23.1139 54.3594 22.7949C54.5964 22.4668 54.7148 22.0703 54.7148 21.6055V20.3477C54.569 20.4023 54.4141 20.457 54.25 20.5117C54.0859 20.5664 53.9082 20.6165 53.7168 20.6621C53.5345 20.7077 53.3431 20.7487 53.1426 20.7852C52.9512 20.8216 52.7461 20.8581 52.5273 20.8945C52.099 20.9583 51.748 21.0677 51.4746 21.2227C51.2103 21.3685 51.0143 21.5508 50.8867 21.7695C50.7591 21.9792 50.6953 22.2161 50.6953 22.4805C50.6953 22.9089 50.8411 23.237 51.1328 23.4648C51.4336 23.6836 51.8164 23.793 52.2812 23.793ZM67.7852 18.4336V27.0195H62.2891V11.7344H67.7305V14.6602H67.8398C68.1771 13.6849 68.7285 12.9238 69.4941 12.377C70.2689 11.821 71.2214 11.543 72.3516 11.543C73.4362 11.543 74.375 11.7891 75.168 12.2812C75.9701 12.7734 76.5898 13.4525 77.0273 14.3184C77.4648 15.1842 77.6836 16.1732 77.6836 17.2852V27.0195H72.1875V18.4336C72.1875 17.6771 71.9961 17.0846 71.6133 16.6562C71.2305 16.2188 70.6927 16 70 16C69.5534 16 69.1615 16.1003 68.8242 16.3008C68.4961 16.4922 68.2409 16.7702 68.0586 17.1348C67.8763 17.4902 67.7852 17.9232 67.7852 18.4336Z" fill="white"/>
</svg>
