<svg width="248" height="199" viewBox="0 0 248 199" fill="none" xmlns="http://www.w3.org/2000/svg">
<path d="M9.27148 130.57C12.7617 126.308 16.2851 122.732 20.3071 119.66C24.4105 116.526 28.8428 113.849 33.5256 111.675C37.2751 109.897 41.2227 108.572 45.2851 107.726C53.8411 106.043 62.607 105.703 71.2677 106.718C87.7436 108.52 103.606 112.823 119.178 118.341C130.675 122.404 142.128 126.61 153.666 130.559C163.739 134.068 174.33 135.858 184.996 135.855C194.669 135.814 204.202 134.492 213.328 131.175C226.077 126.54 235.805 118.33 241.925 106.153C244.965 100.243 246.685 93.743 246.967 87.1029C246.967 86.5415 246.893 85.8915 247.539 85.3301C248.278 88.6541 248.008 91.8857 247.565 95.0805C245.412 110.592 237.56 122.817 225.571 132.549C220.992 136.28 215.913 139.234 210.72 142.037C206.011 144.593 201.007 146.329 195.984 147.847C190.112 149.588 184.06 150.652 177.946 151.02C172.975 151.364 167.985 151.318 163.021 150.879C157.756 150.352 152.542 149.405 147.428 148.046C136.093 145.144 125.308 140.712 114.398 136.601C99.4256 130.961 84.3864 125.462 68.7636 121.916C59.4343 119.804 49.9609 118.537 40.325 119.578C38.7184 119.752 37.1118 119.948 35.5015 120.118C34.6336 120.202 24.5212 121.846 18.3128 125.41C15.9712 126.498 13.7679 127.862 11.7497 129.473C11.1551 129.949 10.5531 130.496 9.27148 130.57Z" fill="#F2C587"/>
<path d="M9.27148 130.57C12.7617 126.308 16.2851 122.732 20.3071 119.66C24.4105 116.526 28.8428 113.849 33.5256 111.675C37.2751 109.897 41.2227 108.572 45.2851 107.726C53.8411 106.043 62.607 105.703 71.2677 106.718C87.7436 108.52 103.606 112.823 119.178 118.341C130.675 122.404 142.128 126.61 153.666 130.559C163.739 134.068 174.33 135.858 184.996 135.855C194.669 135.814 204.202 134.492 213.328 131.175C226.077 126.54 235.805 118.33 241.925 106.153C244.965 100.243 246.685 93.743 246.967 87.1029C246.967 86.5415 246.893 85.8915 247.539 85.3301C248.278 88.6541 248.008 91.8857 247.565 95.0805C245.412 110.592 237.56 122.817 225.571 132.549C220.992 136.28 215.913 139.234 210.72 142.037C206.011 144.593 201.007 146.329 195.984 147.847C190.112 149.588 184.06 150.652 177.946 151.02C172.975 151.364 167.985 151.318 163.021 150.879C157.756 150.352 152.542 149.405 147.428 148.046C136.093 145.144 125.308 140.712 114.398 136.601C99.4256 130.961 84.3864 125.462 68.7636 121.916C59.4343 119.804 49.9609 118.537 40.325 119.578C38.7184 119.752 37.1118 119.948 35.5015 120.118C34.6336 120.202 24.5212 121.846 18.3128 125.41C15.9712 126.498 13.7679 127.862 11.7497 129.473C11.1551 129.949 10.5531 130.496 9.27148 130.57Z" fill="url(#paint0_linear_13_245)"/>
<path d="M0.178993 152.582C-0.0721531 148.556 -0.12386 144.734 0.455993 140.941C2.64983 126.621 9.74471 115.087 20.5182 105.614C26.1482 100.71 32.4039 96.5741 39.1214 93.3151C46.4045 89.71 54.1966 87.2414 62.2269 85.9949C70.9764 84.6394 79.6816 84.2295 88.4495 85.3707C97.6828 86.5747 106.621 88.9754 115.411 91.9411C116.947 92.4582 118.565 92.8091 120.016 93.5034C122.882 94.8773 139.299 100.096 141.589 100.82C152.784 104.351 164 107.774 175.498 110.175C184.831 112.125 194.245 113.185 203.803 112.373C211.97 111.677 219.944 109.517 227.345 105.994C230.576 104.513 233.546 102.518 236.138 100.085C236.618 100.657 236.238 100.971 236.002 101.27C231.383 107.141 225.829 112.211 219.563 116.276C213.177 120.454 206.119 123.021 198.751 124.598C193.511 125.681 188.167 126.177 182.818 126.075C174.072 125.964 165.43 124.871 156.854 123.209C143.776 120.672 131.019 116.989 118.391 112.753C107.156 108.978 95.9211 105.145 84.3573 102.471C77.5394 100.894 70.5886 100.38 63.575 100.373C55.3823 100.351 47.2301 101.524 39.3763 103.856C19.8607 109.643 5.71898 122.418 1.36824 144.951C0.998912 146.835 0.973058 148.781 0.817939 150.698C0.766232 151.297 0.814246 151.899 0.178993 152.582Z" fill="#F2C587"/>
<path d="M0.178993 152.582C-0.0721531 148.556 -0.12386 144.734 0.455993 140.941C2.64983 126.621 9.74471 115.087 20.5182 105.614C26.1482 100.71 32.4039 96.5741 39.1214 93.3151C46.4045 89.71 54.1966 87.2414 62.2269 85.9949C70.9764 84.6394 79.6816 84.2295 88.4495 85.3707C97.6828 86.5747 106.621 88.9754 115.411 91.9411C116.947 92.4582 118.565 92.8091 120.016 93.5034C122.882 94.8773 139.299 100.096 141.589 100.82C152.784 104.351 164 107.774 175.498 110.175C184.831 112.125 194.245 113.185 203.803 112.373C211.97 111.677 219.944 109.517 227.345 105.994C230.576 104.513 233.546 102.518 236.138 100.085C236.618 100.657 236.238 100.971 236.002 101.27C231.383 107.141 225.829 112.211 219.563 116.276C213.177 120.454 206.119 123.021 198.751 124.598C193.511 125.681 188.167 126.177 182.818 126.075C174.072 125.964 165.43 124.871 156.854 123.209C143.776 120.672 131.019 116.989 118.391 112.753C107.156 108.978 95.9211 105.145 84.3573 102.471C77.5394 100.894 70.5886 100.38 63.575 100.373C55.3823 100.351 47.2301 101.524 39.3763 103.856C19.8607 109.643 5.71898 122.418 1.36824 144.951C0.998912 146.835 0.973058 148.781 0.817939 150.698C0.766232 151.297 0.814246 151.899 0.178993 152.582Z" fill="url(#paint1_linear_13_245)"/>
<path d="M113.217 83.207C114.325 81.1129 115.462 79.052 116.596 77.0871L127.639 57.9262L138.678 77.0871C142.106 83.0297 145.482 89.7257 148.772 96.2924C158.907 100.724 178.083 103.812 189.31 105.334C165.378 64.2159 141.016 22.581 127.632 0C117.15 17.6873 100.046 46.9016 81.6904 78.3503C93.7307 78.7639 108.36 82.0436 113.217 83.207Z" fill="#F2C587"/>
<path d="M113.217 83.207C114.325 81.1129 115.462 79.052 116.596 77.0871L127.639 57.9262L138.678 77.0871C142.106 83.0297 145.482 89.7257 148.772 96.2924C158.907 100.724 178.083 103.812 189.31 105.334C165.378 64.2159 141.016 22.581 127.632 0C117.15 17.6873 100.046 46.9016 81.6904 78.3503C93.7307 78.7639 108.36 82.0436 113.217 83.207Z" fill="url(#paint2_linear_13_245)"/>
<path d="M80.4542 132.805C73.9539 130.327 59.79 127.125 54.0395 125.869C37.5155 154.308 22.155 180.9 11.9355 198.72C31.0633 193.527 61.6625 178.436 86.4632 135.003C84.8086 134.434 82.8438 133.714 80.4542 132.805Z" fill="#F2C587"/>
<path d="M80.4542 132.805C73.9539 130.327 59.79 127.125 54.0395 125.869C37.5155 154.308 22.155 180.9 11.9355 198.72C31.0633 193.527 61.6625 178.436 86.4632 135.003C84.8086 134.434 82.8438 133.714 80.4542 132.805Z" fill="url(#paint3_linear_13_245)"/>
<path d="M213.481 146.95C210.456 148.819 205.33 151.752 200.274 153.661C195.291 155.53 188.111 156.449 183.506 156.874C204.864 183.835 227.866 194.513 243.338 198.72C235.704 185.372 225.196 167.164 213.481 146.95Z" fill="#F2C587"/>
<path d="M213.481 146.95C210.456 148.819 205.33 151.752 200.274 153.661C195.291 155.53 188.111 156.449 183.506 156.874C204.864 183.835 227.866 194.513 243.338 198.72C235.704 185.372 225.196 167.164 213.481 146.95Z" fill="url(#paint4_linear_13_245)"/>
<defs>
<linearGradient id="paint0_linear_13_245" x1="9.27148" y1="25.6661" x2="9.27148" y2="381.35" gradientUnits="userSpaceOnUse">
<stop stop-color="#7E5924"/>
<stop offset="0.142" stop-color="#AD8136"/>
<stop offset="0.3" stop-color="#D8AF55"/>
<stop offset="0.473" stop-color="#E7D780"/>
<stop offset="0.591" stop-color="#D1B562"/>
<stop offset="0.744" stop-color="#C29345"/>
<stop offset="0.9" stop-color="#D2B360"/>
<stop offset="1" stop-color="#E9DC80"/>
</linearGradient>
<linearGradient id="paint1_linear_13_245" x1="0" y1="23.2712" x2="0" y2="389.518" gradientUnits="userSpaceOnUse">
<stop stop-color="#7E5924"/>
<stop offset="0.142" stop-color="#AD8136"/>
<stop offset="0.3" stop-color="#D8AF55"/>
<stop offset="0.473" stop-color="#E7D780"/>
<stop offset="0.591" stop-color="#D1B562"/>
<stop offset="0.744" stop-color="#C29345"/>
<stop offset="0.9" stop-color="#D2B360"/>
<stop offset="1" stop-color="#E9DC80"/>
</linearGradient>
<linearGradient id="paint2_linear_13_245" x1="81.6904" y1="-95.3411" x2="81.6904" y2="473.03" gradientUnits="userSpaceOnUse">
<stop stop-color="#7E5924"/>
<stop offset="0.142" stop-color="#AD8136"/>
<stop offset="0.3" stop-color="#D8AF55"/>
<stop offset="0.473" stop-color="#E7D780"/>
<stop offset="0.591" stop-color="#D1B562"/>
<stop offset="0.744" stop-color="#C29345"/>
<stop offset="0.9" stop-color="#D2B360"/>
<stop offset="1" stop-color="#E9DC80"/>
</linearGradient>
<linearGradient id="paint3_linear_13_245" x1="11.9355" y1="59.9293" x2="11.9355" y2="453.026" gradientUnits="userSpaceOnUse">
<stop stop-color="#7E5924"/>
<stop offset="0.142" stop-color="#AD8136"/>
<stop offset="0.3" stop-color="#D8AF55"/>
<stop offset="0.473" stop-color="#E7D780"/>
<stop offset="0.591" stop-color="#D1B562"/>
<stop offset="0.744" stop-color="#C29345"/>
<stop offset="0.9" stop-color="#D2B360"/>
<stop offset="1" stop-color="#E9DC80"/>
</linearGradient>
<linearGradient id="paint4_linear_13_245" x1="183.506" y1="100.092" x2="183.506" y2="379.435" gradientUnits="userSpaceOnUse">
<stop stop-color="#7E5924"/>
<stop offset="0.142" stop-color="#AD8136"/>
<stop offset="0.3" stop-color="#D8AF55"/>
<stop offset="0.473" stop-color="#E7D780"/>
<stop offset="0.591" stop-color="#D1B562"/>
<stop offset="0.744" stop-color="#C29345"/>
<stop offset="0.9" stop-color="#D2B360"/>
<stop offset="1" stop-color="#E9DC80"/>
</linearGradient>
</defs>
</svg>
