<svg width="90" height="52" viewBox="0 0 191 98" fill="none" xmlns="http://www.w3.org/2000/svg">
    <path
        d="M54.2816 48.6999V49.1699C53.0806 49.8487 52.219 50.5537 51.6968 51.2847C51.2268 52.0158 50.8874 53.3474 50.6785 55.2795C50.4696 57.1594 50.3652 60.1881 50.3652 64.3656V77.2115H50.0519L41.2791 71.0235C39.5559 72.4334 37.7021 73.4778 35.7178 74.1567C33.7335 74.8355 31.3053 75.1749 28.4332 75.1749C23.368 75.1749 18.851 74.0783 14.8824 71.8851C10.966 69.6397 7.88506 66.4283 5.63965 62.2507C3.44645 58.021 2.34985 53.008 2.34985 47.2117C2.34985 41.7809 3.55089 36.8201 5.95296 32.3293C8.40725 27.8384 11.7232 24.3137 15.9007 21.7549C20.0782 19.1962 24.6474 17.9168 29.6082 17.9168C37.911 17.9168 44.6472 19.875 49.8169 23.7915L40.7308 42.9819H40.3392C40.2347 34.418 39.0859 28.4912 36.8927 25.2014C34.6995 21.9116 31.6186 20.2667 27.6499 20.2667C23.2635 20.2667 20.0521 22.2771 18.0155 26.298C16.0312 30.2666 15.0391 35.7235 15.0391 42.6686C15.0391 52.5902 16.2401 60.1359 18.6422 65.3055C21.0965 70.4752 25.0129 73.0601 30.3914 73.0601C32.5846 73.0601 34.5167 72.6945 36.1877 71.9635C37.8587 71.2324 39.0598 70.5013 39.7909 69.7703V64.6006C39.7909 60.4231 39.6603 57.5249 39.3992 55.9061C39.1381 54.2873 38.5115 53.1385 37.5193 52.4597C36.5272 51.7286 34.6995 51.0237 32.0363 50.3448L26.71 49.1699V48.6999H54.2816ZM102.217 61.4674C103.575 65.3839 104.724 68.2037 105.664 69.9269C106.656 71.5979 107.935 72.799 109.502 73.53V74H85.2984V73.53L88.9799 72.7467C90.2331 72.3812 91.1209 71.9635 91.6431 71.4935C92.2175 70.9713 92.5047 70.2141 92.5047 69.222C92.5047 68.2298 92.2436 66.9504 91.7214 65.3839L87.0217 50.9714C80.1288 50.6581 74.698 50.5015 70.7294 50.5015C68.2751 57.6032 67.0479 62.7207 67.0479 65.8538C67.0479 67.8904 67.5179 69.4569 68.4578 70.5535C69.3978 71.5979 70.886 72.329 72.9226 72.7467L76.839 73.53V74H55.9253V73.6084C57.5441 72.7206 58.9018 71.5718 59.9984 70.1619C61.095 68.752 62.5571 65.9583 64.3848 61.7808C66.2646 57.551 68.9539 50.7887 72.4526 41.4937L78.5622 25.2797L76.2907 19.3267V19.0134H88.9016C89.1104 20.6844 89.5804 22.8254 90.3115 25.4364C91.0425 28.0473 92.2436 31.8071 93.9146 36.7157L102.217 61.4674ZM71.1993 49.0916C74.8547 49.0916 79.8677 48.9349 86.2384 48.6216L79.1888 27.0813L71.7476 47.6033L71.1993 49.0916ZM117.361 37.9689C117.361 32.9037 117.257 29.2483 117.048 27.0029C116.839 24.7575 116.473 23.2171 115.951 22.3816C115.429 21.4938 114.541 20.815 113.288 20.345L111.095 19.6401V19.1701H134.672V19.6401L132.478 20.345C131.225 20.8672 130.338 21.5983 129.815 22.5382C129.293 23.4781 128.928 25.2275 128.719 27.7862C128.51 30.3449 128.379 34.6008 128.327 40.5538L128.405 52.6163C128.405 58.5693 128.484 62.8251 128.64 65.3839C128.849 67.9426 129.215 69.6919 129.737 70.6319C130.259 71.5196 131.173 72.2246 132.478 72.7467L134.672 73.53V74H111.095V73.53L113.288 72.7467C114.593 72.2768 115.507 71.5718 116.03 70.6319C116.552 69.6919 116.917 67.9426 117.126 65.3839C117.335 62.8251 117.439 58.5693 117.439 52.6163L117.361 40.5538V37.9689ZM182.535 61.4674C183.892 65.3839 185.041 68.2037 185.981 69.9269C186.973 71.5979 188.253 72.799 189.819 73.53V74H165.616V73.53L169.297 72.7467C170.55 72.3812 171.438 71.9635 171.96 71.4935C172.535 70.9713 172.822 70.2141 172.822 69.222C172.822 68.2298 172.561 66.9504 172.039 65.3839L167.339 50.9714C160.446 50.6581 155.015 50.5015 151.047 50.5015C148.592 57.6032 147.365 62.7207 147.365 65.8538C147.365 67.8904 147.835 69.4569 148.775 70.5535C149.715 71.5979 151.203 72.329 153.24 72.7467L157.156 73.53V74H136.243V73.6084C137.861 72.7206 139.219 71.5718 140.316 70.1619C141.412 68.752 142.874 65.9583 144.702 61.7808C146.582 57.551 149.271 50.7887 152.77 41.4937L158.879 25.2797L156.608 19.3267V19.0134H169.219C169.428 20.6844 169.898 22.8254 170.629 25.4364C171.36 28.0473 172.561 31.8071 174.232 36.7157L182.535 61.4674ZM151.517 49.0916C155.172 49.0916 160.185 48.9349 166.556 48.6216L159.506 27.0813L152.065 47.6033L151.517 49.0916Z"
        fill="#219653" />
    <path
        d="M9.48861 93.9923C8.84442 93.9923 8.24483 93.918 7.68984 93.7693C7.13484 93.6107 6.68887 93.4423 6.35191 93.2639L6.60463 89.6663H6.67896C7.02583 90.6772 7.34297 91.4651 7.63037 92.03C7.91778 92.585 8.22006 92.9864 8.5372 93.2341C8.85433 93.4819 9.23094 93.6058 9.667 93.6058C10.2517 93.6058 10.7126 93.4522 11.0495 93.1449C11.3865 92.8278 11.555 92.367 11.555 91.7624C11.555 91.1579 11.3617 90.6524 10.9752 90.2461C10.5986 89.8398 10.0188 89.4582 9.23589 89.1014C8.26465 88.6753 7.55109 88.2095 7.0952 87.704C6.63931 87.1887 6.41137 86.5445 6.41137 85.7715C6.41137 84.9885 6.68887 84.3542 7.24386 83.8686C7.80877 83.383 8.6363 83.1402 9.72647 83.1402C10.3013 83.1402 10.9257 83.2443 11.5996 83.4524C12.2735 83.6605 12.7542 83.8736 13.0416 84.0916L11.8523 87.3175H11.7631C11.7036 86.3562 11.5847 85.598 11.4063 85.043C11.2378 84.488 11.0049 84.0966 10.7076 83.8686C10.4202 83.6308 10.0436 83.5118 9.57781 83.5118C9.11201 83.5118 8.73541 83.6605 8.448 83.9578C8.1705 84.2551 8.03175 84.6763 8.03175 85.2214C8.03175 85.6872 8.16059 86.0886 8.41827 86.4256C8.68585 86.7526 9.13679 87.0549 9.77107 87.3324C10.5936 87.709 11.2279 88.0459 11.6739 88.3433C12.1298 88.6307 12.4915 88.9874 12.7591 89.4136C13.0267 89.8398 13.1605 90.37 13.1605 91.0043C13.1605 91.5196 13.0217 92.0052 12.7442 92.4611C12.4767 92.917 12.0654 93.2886 11.5104 93.5761C10.9554 93.8536 10.2815 93.9923 9.48861 93.9923ZM33.8171 91.584C33.9856 92.0895 34.1293 92.4661 34.2482 92.7138C34.3672 92.9616 34.501 93.1648 34.6496 93.3233C34.8082 93.472 35.0163 93.5959 35.274 93.695V93.7842H30.725V93.695L31.6616 93.5166C31.8895 93.4571 32.0481 93.3927 32.1373 93.3233C32.2364 93.2441 32.2859 93.1251 32.2859 92.9666C32.2859 92.8476 32.2463 92.6544 32.167 92.3868L31.1859 89.369C29.9569 89.3095 28.9114 89.2798 28.0492 89.2798C27.7419 90.1123 27.5189 90.7763 27.3802 91.2718C27.2414 91.7674 27.1721 92.1638 27.1721 92.4611C27.1721 92.7783 27.2563 93.0161 27.4248 93.1747C27.5933 93.3233 27.8609 93.4373 28.2275 93.5166L29.1046 93.695V93.7842H25.1206V93.7099C25.4774 93.5513 25.7598 93.3481 25.9679 93.1003C26.186 92.8427 26.4635 92.3323 26.8004 91.5692C27.1374 90.806 27.6676 89.4929 28.3911 87.6297L29.5952 84.5376L29.1641 83.4078V83.3483H31.2305C31.2602 83.6456 31.3444 84.047 31.4832 84.5525C31.6219 85.048 31.8499 85.7665 32.167 86.708L33.8171 91.584ZM28.1384 89.042C29.1096 89.042 30.0808 89.0172 31.0521 88.9676L29.6993 84.82L28.1532 89.0122L28.1384 89.042ZM57.2214 83.378V83.4672L56.8646 83.5564C56.5673 83.6357 56.3592 83.7596 56.2403 83.9281C56.1312 84.0966 56.047 84.4831 55.9875 85.0876C55.938 85.6823 55.9132 86.6882 55.9132 88.1054V94.0666H55.7943L48.5546 84.8944L48.733 89.0568C48.7825 90.3254 48.8569 91.2421 48.956 91.807C49.065 92.3719 49.2533 92.7832 49.5209 93.0409C49.7885 93.2986 50.2196 93.4819 50.8142 93.5909L51.3642 93.695V93.7842H47.1423V93.695L47.4694 93.6058C47.7667 93.5265 47.9748 93.4026 48.0937 93.2341C48.2127 93.0657 48.2969 92.6841 48.3465 92.0895C48.396 91.4948 48.4208 90.4839 48.4208 89.0568V88.1054C48.4208 86.6882 48.4059 85.7269 48.3762 85.2214C48.3564 84.7061 48.2919 84.3394 48.1829 84.1213C48.0838 83.9033 47.8955 83.7398 47.618 83.6308L47.1572 83.4672V83.378H49.7141L55.7348 91.0191L55.6159 88.1054C55.5564 86.817 55.4821 85.9003 55.3929 85.3552C55.3037 84.8002 55.1253 84.3939 54.8577 84.1362C54.5901 83.8785 54.1491 83.6902 53.5347 83.5713L52.9846 83.4672V83.378H57.2214ZM74.1562 94.022C73.2444 94.022 72.4268 93.804 71.7033 93.3679C70.9799 92.9319 70.415 92.3273 70.0086 91.5543C69.6122 90.7714 69.414 89.8794 69.414 88.8784C69.414 87.7883 69.637 86.8071 70.083 85.935C70.5388 85.0529 71.1533 84.3691 71.9263 83.8835C72.6994 83.388 73.5616 83.1402 74.513 83.1402C75.2167 83.1402 75.8608 83.2393 76.4456 83.4375C77.0402 83.6357 77.5556 83.8736 77.9916 84.1511L76.505 87.7338H76.4307C76.4109 86.2769 76.1978 85.2264 75.7915 84.5822C75.3851 83.9281 74.8004 83.601 74.0373 83.601C73.5021 83.601 73.0215 83.7745 72.5953 84.1213C72.1791 84.4583 71.852 84.939 71.6141 85.5633C71.3862 86.1778 71.2722 86.8914 71.2722 87.704C71.2722 88.7347 71.4209 89.6118 71.7182 90.3353C72.0254 91.0489 72.4466 91.589 72.9818 91.9557C73.5269 92.3125 74.1513 92.4908 74.8549 92.4908C75.727 92.4908 76.4505 92.2084 77.0253 91.6435C77.6002 91.0786 77.9569 90.2362 78.0957 89.1163H78.1849C78.1551 90.5434 77.8281 91.7178 77.2037 92.6395C76.5794 93.5612 75.5635 94.022 74.1562 94.022ZM99.3611 83.1253L99.1381 87.7784H99.0341C98.7368 86.5197 98.4939 85.6377 98.3056 85.1322C98.1273 84.6268 97.8944 84.27 97.6069 84.0619C97.3195 83.8538 96.8736 83.715 96.269 83.6456L95.7338 83.5862C95.6942 84.1015 95.6744 85.2412 95.6744 87.0053V89.5325C95.6744 90.7912 95.6992 91.6782 95.7487 92.1935C95.7983 92.699 95.8825 93.026 96.0014 93.1747C96.1303 93.3233 96.3582 93.4423 96.6853 93.5315L97.384 93.695V93.7842H92.1809V93.695L92.8647 93.5315C93.1918 93.4423 93.4197 93.3233 93.5486 93.1747C93.6774 93.026 93.7666 92.699 93.8161 92.1935C93.8657 91.6782 93.8905 90.7912 93.8905 89.5325V87.0053C93.8905 85.162 93.8707 84.0222 93.831 83.5862L93.281 83.6456C92.7656 83.715 92.3791 83.8389 92.1214 84.0173C91.8737 84.1858 91.6358 84.5376 91.4079 85.0728C91.1898 85.598 90.8876 86.4999 90.501 87.7784H90.397L90.5605 83.1253H90.5902C91.056 83.2938 91.725 83.378 92.5971 83.378H96.9677C98.0579 83.378 98.8458 83.2938 99.3314 83.1253H99.3611ZM116.632 94.022C115.453 94.022 114.501 93.7049 113.778 93.0706C113.054 92.4363 112.693 91.366 112.693 89.8596V87.7635C112.693 86.4751 112.673 85.5683 112.633 85.043C112.604 84.5178 112.534 84.1758 112.425 84.0173C112.326 83.8488 112.148 83.72 111.89 83.6308L111.355 83.4672V83.378H115.815V83.4672L115.279 83.6308C115.022 83.7101 114.843 83.8339 114.744 84.0024C114.645 84.1709 114.576 84.5227 114.536 85.0579C114.496 85.5832 114.477 86.485 114.477 87.7635V89.8596C114.477 91.0984 114.705 92.0151 115.16 92.6098C115.616 93.2044 116.355 93.5017 117.375 93.5017C118.208 93.5017 118.857 93.1796 119.323 92.5354C119.789 91.8813 120.022 90.8705 120.022 89.5028C120.022 87.8973 119.967 86.708 119.858 85.935C119.749 85.152 119.541 84.5921 119.234 84.2551C118.936 83.9083 118.471 83.6754 117.836 83.5564L117.39 83.4672V83.378H121.36V83.4672L121.226 83.5267C120.869 83.6655 120.626 83.8686 120.497 84.1362C120.368 84.3939 120.289 84.8696 120.259 85.5633C120.23 86.2571 120.215 87.5801 120.215 89.5325C120.215 91.1083 119.908 92.253 119.293 92.9666C118.689 93.6702 117.802 94.022 116.632 94.022ZM141.081 91.584C141.249 92.0895 141.393 92.4661 141.512 92.7138C141.631 92.9616 141.765 93.1648 141.913 93.3233C142.072 93.472 142.28 93.5959 142.538 93.695V93.7842H137.989V93.695L138.925 93.5166C139.153 93.4571 139.312 93.3927 139.401 93.3233C139.5 93.2441 139.55 93.1251 139.55 92.9666C139.55 92.8476 139.51 92.6544 139.431 92.3868L138.45 89.369C137.221 89.3095 136.175 89.2798 135.313 89.2798C135.006 90.1123 134.783 90.7763 134.644 91.2718C134.505 91.7674 134.436 92.1638 134.436 92.4611C134.436 92.7783 134.52 93.0161 134.689 93.1747C134.857 93.3233 135.125 93.4373 135.491 93.5166L136.369 93.695V93.7842H132.384V93.7099C132.741 93.5513 133.024 93.3481 133.232 93.1003C133.45 92.8427 133.727 92.3323 134.064 91.5692C134.401 90.806 134.931 89.4929 135.655 87.6297L136.859 84.5376L136.428 83.4078V83.3483H138.494C138.524 83.6456 138.608 84.047 138.747 84.5525C138.886 85.048 139.114 85.7665 139.431 86.708L141.081 91.584ZM135.402 89.042C136.373 89.042 137.345 89.0172 138.316 88.9676L136.963 84.82L135.417 89.0122L135.402 89.042ZM162.88 92.5652C163.078 92.8229 163.276 93.0211 163.474 93.1598C163.683 93.2986 163.95 93.4324 164.277 93.5612V93.6355C163.742 93.8238 163.227 93.918 162.731 93.918C162.315 93.918 161.958 93.8189 161.661 93.6207C161.373 93.4224 161.081 93.0954 160.784 92.6395C159.872 91.2917 159.134 90.0627 158.569 88.9528H158.39H157.498V89.5325C157.498 90.7912 157.518 91.6782 157.558 92.1935C157.597 92.699 157.662 93.026 157.751 93.1747C157.85 93.3233 158.029 93.4423 158.286 93.5315L158.821 93.695V93.7842H154.406V93.695L154.926 93.5315C155.184 93.4522 155.363 93.3382 155.462 93.1895C155.561 93.031 155.625 92.699 155.655 92.1935C155.695 91.6881 155.714 90.8011 155.714 89.5325V87.6148C155.714 86.3562 155.695 85.4741 155.655 84.9687C155.625 84.4633 155.561 84.1362 155.462 83.9875C155.363 83.829 155.184 83.7101 154.926 83.6308L154.406 83.4672V83.378H158.94C160.159 83.378 161.121 83.6209 161.824 84.1065C162.528 84.5921 162.88 85.2611 162.88 86.1134C162.88 86.7377 162.677 87.2927 162.27 87.7784C161.864 88.2541 161.2 88.5861 160.278 88.7744C161.022 90.033 161.889 91.2966 162.88 92.5652ZM158.45 88.6703C159.243 88.6703 159.837 88.4771 160.234 88.0905C160.63 87.6941 160.828 87.1292 160.828 86.3958C160.828 85.4543 160.585 84.7655 160.1 84.3295C159.624 83.8934 158.891 83.6754 157.9 83.6754H157.602C157.533 83.8835 157.498 84.9439 157.498 86.8567V88.6703H158.45ZM184.525 83.378V83.4672C184.238 83.5663 183.985 83.7001 183.767 83.8686C183.559 84.0272 183.336 84.2799 183.098 84.6268C182.87 84.9737 182.593 85.4741 182.266 86.1282L180.705 89.2203V89.5325C180.705 90.8011 180.724 91.6881 180.764 92.1935C180.814 92.699 180.903 93.031 181.032 93.1895C181.161 93.3382 181.389 93.4522 181.716 93.5315L182.414 93.695V93.7842H177.196V93.695L177.895 93.5315C178.222 93.4423 178.45 93.3233 178.579 93.1747C178.708 93.026 178.797 92.699 178.846 92.1935C178.896 91.6782 178.921 90.7912 178.921 89.5325V89.2352L176.512 84.8795C176.235 84.384 176.012 84.052 175.844 83.8835C175.675 83.715 175.442 83.5763 175.145 83.4672V83.378H179.724V83.4672L178.832 83.6456C178.435 83.7348 178.237 83.9083 178.237 84.1659C178.237 84.3245 178.316 84.5525 178.475 84.8498L180.675 88.9676L181.834 86.2323C182.191 85.3998 182.37 84.8101 182.37 84.4633C182.37 84.2155 182.295 84.0321 182.147 83.9132C182.008 83.7844 181.78 83.6902 181.463 83.6308L180.63 83.4672V83.378H184.525Z"
        fill="#219653" />
</svg>