<svg width="97" height="56" viewBox="0 0 326 156" fill="none" xmlns="http://www.w3.org/2000/svg">
    <path
        d="M86.7889 88.1719L123.39 63.4835C129.597 83.831 122.169 106.62 103.614 119.1C80.8868 134.429 50.0186 128.426 34.6861 105.671C19.3539 82.9493 25.3918 52.0888 48.1189 36.7601C64.6385 25.6368 85.4321 25.7385 101.409 35.3697L124.611 19.7359C99.3398 -1.42564 62.1624 -4.34214 33.465 14.9881C-1.27025 38.4557 -10.4628 85.6284 12.9766 120.355C36.4161 155.116 83.5665 164.272 118.302 140.872C148.933 120.22 159.719 81.1858 145.778 48.3923C143.912 43.9836 141.606 39.6765 138.824 35.5393C136.653 32.3176 134.312 29.3333 131.734 26.5864L72.3047 66.6712C66.3684 70.6729 64.8082 78.7442 68.8108 84.6789C72.8135 90.5796 80.8529 92.1736 86.7889 88.1719Z"
        fill="#174FFC" />
    <path
        d="M58.9732 70.4221L78.0392 98.7092C78.2766 99.0824 78.7854 99.1502 79.1247 98.9128L94.4589 88.568C94.8321 88.3304 94.8999 87.8218 94.6625 87.4825L75.5965 59.1956C75.3592 58.8224 74.8501 58.7546 74.511 58.992L59.1767 69.3368C58.8376 69.5741 58.7356 70.0491 58.9732 70.4221Z"
        fill="#174FFC" />
    <path
        d="M51.0049 85.1689C51.6488 86.1189 52.9707 86.3902 53.9198 85.7457L65.4107 77.9763C66.3597 77.3319 66.631 76.0086 65.9868 75.0587C65.3429 74.1087 64.021 73.8373 63.0717 74.482L51.581 82.2512C50.632 82.8959 50.3608 84.185 51.0049 85.1689Z"
        fill="#174FFC" />
    <path
        d="M61.8767 88.8869C62.5205 89.8369 63.8417 90.1082 64.7902 89.4638L76.2746 81.6945C77.2231 81.0498 77.494 79.7268 76.8504 78.7768C76.2066 77.8269 74.8854 77.5553 73.9369 78.2L62.4528 85.9692C61.4702 86.6139 61.2332 87.903 61.8767 88.8869Z"
        fill="#174FFC" />
    <path
        d="M61.3547 100.562C62.0007 101.512 63.3267 101.784 64.2788 101.139L75.8057 93.3701C76.7577 92.7254 77.0298 91.4023 76.3837 90.4523C75.7377 89.5024 74.4116 89.2308 73.4596 89.8755L61.9327 97.6448C60.9467 98.2894 60.7086 99.5786 61.3547 100.562Z"
        fill="#174FFC" />
    <path
        d="M83.011 72.3301L74.8888 75.8222L76.5201 78.3989L69.0098 81.4501L80.9379 80.0602L79.2387 77.4835L85.7976 76.6698L83.011 72.3301Z"
        fill="#0245B8" />
    <path
        d="M288.324 0C267.763 0 251.089 16.6739 251.089 37.2353C251.089 57.7968 267.763 74.4706 288.324 74.4706C308.893 74.4706 325.567 57.7968 325.567 37.2353C325.567 16.6739 308.893 0 288.324 0ZM288.324 61.6019C274.871 61.6019 263.965 50.6883 263.965 37.2428C263.965 23.7899 274.879 12.8837 288.324 12.8837C301.785 12.8837 312.683 23.7973 312.683 37.2428C312.683 50.6883 301.777 61.6019 288.324 61.6019Z"
        fill="#174FFC" />
    <path
        d="M208.67 44.3731L230.333 44.2982C227.314 54.283 218.063 61.5638 207.09 61.6013C193.637 61.6462 182.693 50.785 182.641 37.3245C182.596 23.8716 193.464 12.9279 206.917 12.8755C216.685 12.8381 225.134 18.5608 229.037 26.8528L242.759 26.8079C238.235 11.2726 223.861 -0.0530956 206.872 0.00682847C186.311 0.0817335 169.69 16.808 169.764 37.377C169.839 57.9459 186.566 74.5598 207.135 74.4849C225.269 74.425 240.318 61.429 243.583 44.2607C244.033 41.9537 244.258 39.5642 244.25 37.1223C244.243 35.2197 244.093 33.3546 243.808 31.5344L208.625 31.6542C205.112 31.6692 202.273 34.5231 202.281 38.0361C202.303 41.5417 205.157 44.3806 208.67 44.3731Z"
        fill="#13F2AD" />
    <path
        d="M325.749 124.995C322.73 142.53 307.45 155.871 289.045 155.871C268.484 155.871 251.81 139.197 251.81 118.636C251.81 98.0743 268.484 81.4004 289.045 81.4004C307.45 81.4004 322.738 94.741 325.749 112.276H312.566C309.764 101.909 300.296 94.2766 289.045 94.2766C275.592 94.2766 264.686 105.19 264.686 118.636C264.686 132.089 275.6 142.995 289.045 142.995C300.296 142.995 309.764 135.369 312.566 124.995H325.749Z"
        fill="#0BF1A7" />
    <path
        d="M208.655 111.331H230.325C227.269 101.346 217.996 94.103 207.014 94.103C193.561 94.103 182.64 105.009 182.64 118.477C182.64 131.93 193.554 142.851 207.014 142.851C216.79 142.851 225.224 137.098 229.096 128.792H242.827C238.355 144.349 224.01 155.727 207.014 155.727C186.446 155.727 169.764 139.046 169.764 118.477C169.764 97.8932 186.446 81.2268 207.014 81.2268C225.156 81.2268 240.257 94.1779 243.583 111.339C244.04 113.646 244.272 116.035 244.272 118.477C244.272 120.38 244.13 122.245 243.845 124.065H208.647C205.134 124.065 202.28 121.219 202.28 117.698C202.295 114.178 205.142 111.331 208.655 111.331Z"
        fill="#174FFC" />
</svg>