<svg width="117" height="72" viewBox="0 0 117 72" fill="none" xmlns="http://www.w3.org/2000/svg">
<path d="M88.6173 58.1955C86.1863 58.1955 83.7554 59.639 81.9201 56.8056C81.3084 56.8056 82.5104 51.1281 81.9201 48.2839H79.4678C78.8345 44.0338 80.0419 39.7676 79.4087 35.5122C79.4087 35.3941 79.3658 35.2975 79.3443 35.1902L88.6441 35.0346H79.2907C78.5394 31.5089 76.2694 33.9935 75.6631 31.2782C73.7849 28.4501 76.8705 27.0173 78.7272 26.9851C78.094 24.1464 79.9614 26.9851 79.9507 24.141C79.9239 18.4635 79.9024 12.7859 77.3856 8.53584C76.7524 7.11914 77.3534 2.8583 77.3373 0.0195312C69.8245 0.0570953 61.6356 0.0731933 54.2623 5.80439C48.1555 10.1565 40.5675 4.16231 34.5304 8.94367C33.6182 9.66812 32.3839 8.6217 31.198 8.28362C30.9275 8.16702 30.6277 8.13691 30.3394 8.19744C30.0512 8.25797 29.7888 8.40615 29.5881 8.62169C29.089 9.11539 28.6329 10.1028 28.327 11.8844L30.275 11.8468C28.5631 16.1399 26.2342 11.9059 23.5886 13.5104C23.7925 16.3438 23.8784 17.7605 23.1539 19.2416C24.8604 19.0913 27.1142 17.5888 28.488 18.984L28.5846 23.2341C27.9406 23.9639 27.082 23.6312 26.1644 23.3146C25.2468 22.998 24.2486 22.7082 23.5188 23.481C23.6369 24.8977 23.8784 27.7311 23.9964 29.1424C24.1145 30.5537 23.4276 30.6128 22.7246 30.6986C23.433 30.6074 24.8121 30.4947 25.4775 30.4571C25.558 31.745 25.7029 34.2135 25.7888 35.6839C24.3951 35.759 23.0067 35.9113 21.6299 36.14L25.8156 36.0703V36.1239C25.8961 37.546 25.3058 37.5782 24.7423 37.6265C24.957 40.4599 24.7423 43.3309 25.3434 44.6993C25.8317 44.6563 26.3415 44.6241 26.8674 44.5973C25.8371 45.3593 25.3004 47.5488 25.2092 50.0602C25.1636 52.5517 25.3215 55.0428 25.6814 57.5086C25.7351 56.0704 26.2181 60.2991 26.2825 58.8663C26.2102 59.9956 26.2102 61.1284 26.2825 62.2578C26.3415 63.4115 26.4595 64.5653 26.6044 65.6171C26.6957 66.1537 26.7118 66.6581 26.7654 67.1303C26.8161 67.5687 26.9133 68.0004 27.0552 68.4183C27.1196 68.7724 27.2162 69.2715 27.3825 70.1623C27.2323 70.6989 28.6329 70.9673 31.4878 71.1819C34.3426 71.3966 36.9238 71.4663 39.6552 71.4341C45.1021 71.3392 50.5386 70.9235 55.9366 70.1891C66.6691 68.9012 77.4017 66.7332 88.0055 65.2736C89.229 63.873 88.6226 61.0396 88.6173 58.1955Z" fill="#C3D8CC"/>
<path d="M13.677 34.75C13.8545 34.8819 14.0496 34.9885 14.2565 35.0666C15.6451 35.8629 16.9394 36.8134 18.1149 37.9C19.8883 39.4858 21.1431 41.569 21.7157 43.8781C22.1024 45.7556 21.7569 47.7099 20.7497 49.3409C20.4258 50.0327 20.0146 50.6801 19.5262 51.2674C19.2848 51.5991 19.0056 51.9017 18.6944 52.169C17.5211 53.2616 16.1445 54.1131 14.6429 54.675C13.9704 55.0207 13.2091 55.1554 12.4588 55.0614C11.876 55.0362 11.2973 55.1697 10.7845 55.4478C10.2869 55.6804 9.77196 55.8742 9.24441 56.0273C8.04825 56.3391 6.80099 56.403 5.57923 56.2152C3.84592 55.9576 2.17164 55.4478 1.08228 54.2887C0.11635 53.2583 -0.141231 51.9114 0.438329 50.1137C0.908756 48.942 1.5351 47.8391 2.30043 46.8349C3.0321 45.7455 3.89746 44.7522 4.87625 43.8781C5.06086 43.7142 5.21367 43.5178 5.32701 43.2985C5.86364 42.3326 6.09976 42.1394 7.0657 42.2682C7.4467 42.1394 7.70429 41.5598 8.21945 41.7315C7.96187 41.8603 7.76868 41.9891 7.38767 42.1823C7.59761 42.2386 7.8109 42.2816 8.02626 42.3111C8.01562 42.613 8.03721 42.9153 8.09065 43.2127C8.11582 43.3276 8.11129 43.447 8.07749 43.5597C8.04369 43.6723 7.98173 43.7745 7.89747 43.8566C7.5111 44.3664 7.19449 44.8816 6.74372 45.4665C6.10848 46.1953 5.68529 47.0844 5.5202 48.0369C5.42051 48.612 5.35599 49.1927 5.32701 49.7756C5.30424 49.8726 5.30128 49.9732 5.31831 50.0714C5.33534 50.1696 5.37201 50.2633 5.42612 50.347C5.48024 50.4307 5.55068 50.5026 5.63324 50.5584C5.71579 50.6142 5.80876 50.6528 5.90658 50.6718C6.48266 50.8788 7.10457 50.9233 7.70428 50.8006C8.91866 50.6298 10.1068 50.3071 11.2407 49.84C12.3998 49.3034 13.6179 48.8741 14.7771 48.2945C15.6892 47.8881 16.5343 47.3453 17.2831 46.6846C17.8627 46.2339 18.0559 45.7187 17.8627 45.3323C17.4119 43.8566 16.8323 42.5687 15.6142 41.6028C13.5171 39.9861 11.3037 38.5261 8.99219 37.2346C7.61058 36.4232 6.29852 35.4988 5.06944 34.471C3.7206 33.3903 2.62211 32.03 1.84966 30.4838C0.373932 28.0421 1.72087 24.6989 3.78152 22.1929C5.64363 19.88 8.14968 18.3345 10.7201 16.9232C11.4929 16.6012 12.2656 16.3866 12.974 16.086C16.8914 14.6693 20.5565 14.5406 24.0929 14.7981C25.1662 14.9269 26.2126 15.1201 27.3127 15.2489C28.4156 15.3065 29.4821 15.6626 30.3983 16.2792C30.5725 16.3769 30.7028 16.5373 30.7627 16.7278C30.8225 16.9183 30.8073 17.1245 30.7203 17.3042C30.6668 17.4481 30.6449 17.6018 30.6559 17.755C30.6226 18.0824 30.5579 18.4059 30.4627 18.7209C29.9361 19.7428 29.6083 20.8555 29.4968 21.9997C29.3605 22.5749 29.1205 23.1205 28.7884 23.6096C28.5309 24.1462 28.1498 24.5111 27.8923 24.9619C27.6523 25.3952 27.2952 25.7522 26.8619 25.9922C26.2219 26.3229 25.5561 26.6011 24.871 26.824C24.7162 26.9194 24.5378 26.97 24.3559 26.97C24.174 26.97 23.9956 26.9194 23.8407 26.824C22.8686 26.4588 21.8529 26.2225 20.8195 26.121C18.7155 25.7746 16.5874 25.5952 14.4551 25.5844C13.7828 25.6287 13.1162 25.7365 12.4642 25.9064C11.6914 26.0351 10.9831 26.223 10.2801 26.3518C5.64899 27.5109 8.34824 30.8541 10.6611 32.523C11.7091 33.2057 12.7161 33.9493 13.677 34.75V34.75Z" fill="#101010"/>
<path d="M36.4995 42.1397C36.4711 42.1204 36.4385 42.1085 36.4045 42.1048C36.3705 42.1011 36.336 42.1058 36.3043 42.1185C36.2725 42.1313 36.2443 42.1516 36.2222 42.1777C36.2001 42.2038 36.1847 42.235 36.1775 42.2684C36.1131 42.2684 36.1131 42.3328 36.1131 42.3972C35.8555 43.0412 35.5335 43.4276 34.954 43.2988C34.632 43.6207 34.5032 43.9427 34.2456 44.1949C34.078 44.2704 33.9318 44.3864 33.8203 44.5326C33.7087 44.6788 33.6355 44.8504 33.607 45.0321C33.607 45.1609 33.5426 45.2253 33.4782 45.3541C33.1563 45.8048 32.8343 46.1268 32.5767 46.5132C32.3176 47.0752 31.9185 47.5611 31.4176 47.9245C31.1356 48.1859 30.8965 48.4902 30.7092 48.826C30.6909 48.8972 30.6503 48.9606 30.5933 49.007C30.5364 49.0533 30.466 49.0802 30.3926 49.0836C30.0318 49.2032 29.702 49.4011 29.4267 49.6632C28.7592 50.0664 28.0156 50.3276 27.2426 50.4306C26.5558 50.4648 25.8708 50.3322 25.2463 50.0442C24.2214 49.47 23.835 48.3753 23.7062 46.9639C23.6854 46.6366 23.7292 46.3084 23.835 45.998C23.9909 43.9779 24.3341 41.9766 24.86 40.02C25.182 38.9467 25.5683 37.9647 25.9332 36.9987C26.7704 35.2601 27.4787 33.398 28.3105 31.6646C28.3359 31.4983 28.3962 31.3392 28.4876 31.1978C28.9445 29.705 29.5939 28.2781 30.4195 26.953C30.6568 26.5382 30.8701 26.11 31.058 25.6705C31.2121 25.6208 31.3764 25.6126 31.5347 25.6465C31.6929 25.6804 31.8394 25.7553 31.9596 25.8637C32.6679 26.3145 33.3763 26.8243 34.1437 27.275C34.2724 27.3394 34.4656 27.4682 34.4656 27.597C34.9985 28.5342 35.4302 29.5254 35.7535 30.5538C35.8823 31.1978 35.9467 31.7773 36.0755 32.4159C36.2226 33.1405 36.1323 33.8932 35.8179 34.5625C35.5604 35.0991 35.4316 35.6357 35.174 36.1723C35.1096 36.4943 34.9808 36.8163 34.9164 37.1383C34.5508 38.452 34.1009 39.7408 33.5695 40.9966C33.5355 41.0299 33.513 41.0732 33.5051 41.1201C33.5051 41.1201 33.5051 41.1845 33.3763 41.3132C33.3066 41.828 33.1544 42.3281 32.9255 42.7943C33.0543 42.7299 33.1831 42.7299 33.2475 42.6655C33.8861 41.9572 34.5944 41.1201 35.2384 40.3527C36.3975 39.0648 37.4225 37.7822 38.5172 36.4943C38.9579 36.0321 39.365 35.5389 39.7353 35.0186C40.9584 33.4052 42.2679 31.8593 43.6581 30.3875C43.8542 30.1611 44.0955 29.9784 44.3664 29.8508C44.8691 29.6183 45.4262 29.5291 45.9763 29.5933C46.1839 29.6723 46.3791 29.7807 46.5559 29.9152C47.0925 30.4519 47.5218 30.9885 48.037 31.4607C48.3719 31.7742 48.6149 32.1731 48.74 32.6145C48.8849 33.0555 48.9926 33.5078 49.0619 33.9668C49.2008 34.626 49.1787 35.3089 48.9975 35.9577C48.6048 37.3762 48.1336 38.7718 47.5862 40.138C47.4574 40.7176 47.1998 41.2918 47.0496 42.0001C47.2147 41.9435 47.3677 41.8561 47.5003 41.7425C48.8215 40.967 50.0145 39.9912 51.0367 38.8501C52.0245 37.8855 53.1255 37.044 54.3155 36.3441C54.5142 36.2584 54.6892 36.1258 54.8253 35.9577C54.8858 35.8892 54.9601 35.8343 55.0434 35.7967C55.1266 35.7591 55.2169 35.7397 55.3083 35.7397C55.3997 35.7397 55.49 35.7591 55.5732 35.7967C55.6565 35.8343 55.7308 35.8892 55.7913 35.9577C56.1132 36.2153 56.242 36.666 56.6928 36.8592C57.0148 36.988 57.2294 37.31 57.4655 37.632C57.4007 38.1666 57.4007 38.7072 57.4655 39.2419C57.4442 39.7296 57.3352 40.2095 57.1436 40.6586C56.7572 40.8517 57.0148 41.3615 56.7572 41.6835C56.6928 42.4563 56.564 43.229 56.4352 43.9374C56.3708 44.6209 56.3708 45.3091 56.4352 45.9926C56.4352 46.4434 56.564 46.6366 56.886 46.7654C57.8466 46.9586 61.179 44.5759 61.8337 43.7442C62.9842 42.4196 63.9965 40.9812 64.8549 39.4511C64.9034 39.1416 65.0372 38.8517 65.2413 38.614C65.3701 38.8072 65.4345 38.8072 65.3701 38.8716C65.1769 39.8375 65.4989 39.258 65.3701 40.3527C65.3701 40.0951 65.0481 41.4259 64.8335 41.3132C64.7047 41.3132 64.7047 41.5064 64.5759 41.6352C64.1793 42.3307 63.8211 43.0472 63.5026 43.7817C63.4713 43.9922 63.3843 44.1905 63.2504 44.3559C62.7343 44.7343 62.2595 45.166 61.8337 45.6438C61.8337 45.837 61.6405 45.9014 61.5117 45.9658C61.1898 46.6742 58.4905 48.6007 57.7553 48.6007C57.4387 48.6007 55.8932 48.4719 55.5713 48.2143C54.9273 47.6347 53.9023 46.9318 53.516 46.0302C53.206 45.1661 53.1834 44.225 53.4516 43.3471C53.7529 41.7501 54.1818 40.1799 54.7341 38.6516C54.8077 38.4461 54.8511 38.2309 54.8629 38.013C54.9273 37.8842 54.8629 37.8198 54.8629 37.6266C54.4819 37.691 54.2243 38.1632 53.9023 38.2062C53.583 38.3131 53.2798 38.463 53.0008 38.6516C53.0079 39.1013 52.8472 39.5375 52.55 39.8751C52.3203 40.1645 52.1053 40.4654 51.9061 40.7766C51.5841 40.5834 51.2675 40.7766 50.9455 41.0342C50.4089 41.4796 49.9796 41.866 49.4 42.3167C49.2712 42.4455 49.078 42.5099 48.9493 42.7675C48.3432 43.4516 47.6526 44.0556 46.894 44.5652C46.8296 44.694 46.7008 44.694 46.572 44.8872C46.1856 45.6599 45.4182 46.0463 44.8387 46.6903C44.6446 46.9626 44.4293 47.2192 44.1947 47.4576C43.7468 47.843 43.225 48.133 42.6613 48.3102C42.0976 48.4873 41.5038 48.5478 40.9159 48.488C40.3765 48.3873 39.8942 48.0887 39.5636 47.6508C39.3236 47.3898 39.1482 47.0762 39.0513 46.7351C38.9543 46.394 38.9387 46.035 39.0055 45.6868C39.0084 44.9839 39.1393 44.2874 39.3919 43.6315C40.4242 40.5124 41.9183 37.5658 43.8244 34.8898C44.2752 34.0527 44.8548 33.2799 45.3055 32.3784C45.4461 32.2664 45.5509 32.1159 45.6071 31.9453C45.6634 31.7747 45.6686 31.5914 45.6221 31.4178C45.4343 31.2246 45.1767 31.2246 44.9192 31.4822C44.7578 31.6926 44.5618 31.8741 44.3396 32.0188C43.6956 32.6574 43.0517 33.3014 42.4131 33.8165C42.0204 34.2345 41.6946 34.7105 41.4472 35.2279C41.1555 35.9579 40.7418 36.6329 40.2237 37.2241C39.6632 37.7398 39.1676 38.3219 38.7479 38.9574C38.3616 39.4941 38.104 40.0307 37.782 40.5673C37.6135 40.9379 37.4199 41.2965 37.2024 41.6406C37.0737 41.8338 36.8805 42.0914 36.7517 42.2845C36.6926 42.2684 36.5638 42.1397 36.4995 42.1397Z" fill="#101010"/>
<path d="M65.1016 33.5913L65.166 33.5269C65.3096 33.3391 65.4928 33.1852 65.7026 33.0762C66.4056 32.9474 68.0155 31.7936 68.6595 32.18C68.8473 32.4322 69.4912 32.7542 69.7327 33.0118C69.8718 33.2179 69.9566 33.4559 69.9791 33.7036C70.0016 33.9513 69.9612 34.2006 69.8615 34.4285C69.4751 35.2603 69.0244 36.0384 68.5146 37.0633C68.3858 37.4497 68.257 37.7717 68.1926 38.0239C67.935 38.6034 67.656 39.3762 67.3554 39.9558C67.0979 40.7285 68.257 38.2815 68.1282 38.9254C68.1068 39.117 68.0406 39.3008 67.935 39.4621C67.3984 40.75 67.3984 40.4924 67.3554 41.6461C67.3554 42.2901 67.0979 45.5689 67.1623 46.1484C67.2445 46.5138 67.4309 46.8474 67.6989 47.109C68.0052 47.3147 68.3283 47.4942 68.6648 47.6456C68.9814 47.9032 69.3034 47.7744 69.6898 47.71C75.0239 45.7835 73.0974 45.0752 76.183 41.8071C76.7626 40.9753 77.4709 40.1972 77.7929 39.1723C77.7929 39.1079 77.7929 39.1079 77.9861 38.7859C78.308 39.4299 77.6051 40.3314 78.5227 40.5246C77.1758 42.9662 76.2098 46.5026 74.0257 47.7852C73.3818 48.6223 69.0083 52.4807 66.1802 51.3859C65.2841 51.7079 64.4469 50.8064 63.4971 50.42C62.7779 50.096 62.1414 49.6135 61.635 49.0087C61.271 48.1963 61.053 47.3262 60.991 46.4382C60.888 46.0609 60.8446 45.6698 60.8622 45.2791C61.0554 44.5064 60.9266 43.0306 61.1842 42.5155C61.2854 42.18 61.3502 41.8345 61.3774 41.4851C61.5062 41.4207 61.3774 41.1041 61.8282 41.0397C61.8926 41.0397 61.957 40.7822 62.0214 40.7178C62.3433 40.267 62.4077 39.8806 62.7297 39.4299C62.7297 39.4299 61.3774 40.7822 62.1501 39.4943C62.6868 38.2117 63.8191 36.8111 64.2054 35.8935C64.2241 35.778 64.2681 35.668 64.3342 35.5715C64.5274 35.1905 64.7206 34.9329 64.5918 34.4982C64.5417 34.1841 64.6106 33.8627 64.785 33.5967C64.8353 33.6176 64.8894 33.6279 64.9439 33.6269C64.9983 33.626 65.052 33.6139 65.1016 33.5913V33.5913ZM71.0045 26.583C70.86 26.753 70.7506 26.95 70.6825 27.1625C70.6853 27.2223 70.6753 27.2819 70.6531 27.3375C70.6308 27.393 70.597 27.4431 70.5538 27.4845C70.3606 27.6777 70.1674 27.9353 69.9098 28.2572C69.6453 28.5242 69.3102 28.7103 68.9439 28.7939C68.8151 28.7295 68.6273 28.8583 68.4985 28.9871C68.3719 29.0868 68.2183 29.1463 68.0576 29.1577C67.8969 29.1692 67.7364 29.1322 67.5969 29.0515C67.44 28.9439 67.2489 28.8981 67.0603 28.9227C66.8224 28.9332 66.5841 28.9116 66.3519 28.8583C66.4163 28.7939 66.4807 28.6651 66.5451 28.6007C66.5885 28.3803 66.6532 28.1646 66.7383 27.9567C66.8633 27.6648 67.0142 27.3846 67.1891 27.1196C67.1891 26.9908 67.3823 26.862 67.3823 26.7976C67.3823 26.4112 67.7043 26.0946 67.9189 25.7244L68.3053 25.1448C68.4341 25.016 68.5629 24.8872 68.6863 24.8872C68.7339 24.8554 68.79 24.8384 68.8473 24.8384C68.9046 24.8384 68.9606 24.8554 69.0083 24.8872C69.0083 25.016 69.1371 25.016 69.2658 24.9516C69.3946 24.8872 69.459 24.8228 69.5234 24.8872C69.7926 25.0023 70.0732 25.0886 70.3606 25.1448C70.8031 25.3413 71.1662 25.6817 71.3909 26.1107C71.2084 26.261 71.144 26.4542 71.0153 26.583H71.0045Z" fill="#101010"/>
<path d="M95.7594 42.0757C95.4374 42.7197 94.3481 44.131 94.3481 44.8394C94.233 44.9622 94.1033 45.0703 93.9617 45.1613C93.7319 45.3795 93.5493 45.6425 93.4251 45.9341C93.2896 46.1793 93.1391 46.4158 92.9743 46.6424C92.2279 48.1127 91.2268 49.439 90.0175 50.5598C89.6311 50.8818 86.2235 54.1606 85.9713 54.4826C84.1038 56.0281 81.5978 55.3197 79.7357 55.3841C79.2706 55.4114 78.8059 55.3229 78.3834 55.1265C77.8038 54.8045 76.5213 54.2894 76.1349 53.7098C75.5553 52.2985 74.0796 51.3326 73.9508 49.3417C73.8864 48.805 73.6288 48.5045 73.5645 47.9894C73.6288 45.9341 73.9508 43.8788 74.203 41.7537C74.5894 40.278 74.9114 38.6681 75.169 37.1924C75.8129 34.4287 76.0061 34.1068 77.2243 31.6007C77.8682 29.9264 78.4478 29.7976 79.0917 28.1287C79.5311 27.2428 80.024 26.3844 80.5675 25.5583C81.0291 24.5748 81.5674 23.6292 82.1773 22.7302C83.298 20.7474 84.6333 18.8938 86.1591 17.203C87.1251 16.237 88.1554 15.2067 89.116 14.3696C89.6339 13.8994 90.2202 13.5104 90.8546 13.2158C91.0349 13.1034 91.23 13.0167 91.4342 12.9582C91.8582 12.891 92.2919 12.9198 92.7033 13.0424C93.1147 13.165 93.4934 13.3783 93.8115 13.6666C94.4554 14.2461 94.6486 15.1423 94.4554 16.3497C94.3266 17.1171 94.2622 17.8898 94.069 18.5982C93.96 19.2099 93.7419 19.797 93.4251 20.3315C92.9832 21.4383 92.4237 22.4943 91.7562 23.4815C91.3054 24.3187 90.7902 25.1558 90.3395 25.9929C89.5667 27.1467 88.9281 28.3702 88.1554 29.4596C86.8031 31.2626 85.6493 33.216 84.4258 34.9922C82.4349 38.3944 82.6281 38.974 81.9198 42.3816C81.6622 43.7339 81.791 44.5013 81.7266 45.8536C81.791 46.2399 81.9842 48.746 82.0486 49.0036C82.2097 49.7212 82.4697 50.4129 82.8213 51.0589C82.9501 51.3165 83.8463 51.5096 84.1682 51.6384C84.619 51.9604 88.0266 49.6475 88.4613 49.3256C89.4843 48.6347 90.4132 47.814 91.2249 46.8839C92.1855 45.9824 92.6362 44.952 93.4734 43.7339C94.6325 42.1884 95.0135 40.9059 96.237 39.2316C97.1761 39.1189 96.6395 40.4712 95.7594 42.0757ZM85.4776 30.506C87.0168 28.1395 88.4319 25.6945 89.717 23.181C90.4253 21.8287 91.0049 20.4979 91.7132 19.1294C92.0176 18.1878 92.2314 17.2193 92.3518 16.237C92.4806 15.915 92.4806 15.7004 92.1586 15.8506C91.9039 15.9064 91.6642 16.0162 91.4557 16.1726C90.5468 16.5454 89.7801 17.1975 89.2662 18.0347C88.8208 18.5714 88.4988 19.108 87.9837 19.6446C87.4468 20.3065 87.0522 21.0719 86.8246 21.8931C86.5026 22.537 86.1806 23.3044 85.864 23.9484C85.3665 25.3327 84.7859 26.6857 84.1253 27.9999C83.8677 28.6439 83.6745 29.3469 83.417 29.9908C82.6496 32.1803 82.9716 31.0641 82.2632 33.2696C82.07 33.8063 82.1988 35.2605 83.0306 34.3429C83.9965 32.9476 84.6405 31.9871 85.4776 30.506Z" fill="#101010"/>
<path d="M98.9736 39.1835C98.9612 39.2545 98.931 39.3212 98.886 39.3775C98.841 39.4337 98.7825 39.4778 98.716 39.5055C98.6601 39.5394 98.6133 39.5865 98.5796 39.6426C98.5459 39.6987 98.5265 39.7622 98.5228 39.8275C98.4585 40.0851 98.3941 40.1495 98.2009 40.2139C98.0077 40.2783 98.0721 40.3427 98.0077 40.7505C98.1365 40.7505 98.2009 40.7505 98.2653 40.8149V40.8578H97.8145C97.866 40.6839 97.8878 40.5024 97.8789 40.3212H97.7501L97.5569 41.6681C97.6857 41.7325 97.7501 41.7969 97.8145 41.7969C97.8681 42.224 97.8896 42.6545 97.8789 43.0848C97.8879 43.4826 97.9755 43.8747 98.1365 44.2386C98.3297 44.4962 98.8448 45.9129 99.038 46.1704C99.9395 47.0666 101.029 48.2257 102.059 48.2901C102.902 48.2463 103.739 48.1387 104.565 47.9682C106.18 47.4599 107.685 46.6536 109.003 45.5909C110.076 44.7538 111.123 43.7932 112.223 42.9078L112.416 42.7146C112.803 42.2638 113.189 41.8774 113.575 41.4267C114.288 40.7404 114.933 39.9875 115.502 39.1782C115.654 38.833 115.929 38.5573 116.275 38.4054C116.164 38.9626 115.984 39.5035 115.738 40.0153C115.672 40.2162 115.562 40.3996 115.416 40.5519C115.041 40.9591 114.718 41.4116 114.455 41.8989C114.262 42.1565 114.005 42.4355 113.811 42.6716C113.718 42.7951 113.632 42.9241 113.554 43.058C113.747 42.9936 113.876 42.9292 114.09 42.8648C114.026 43.2512 113.704 43.3156 113.64 43.6376C113.704 43.702 113.704 43.7664 113.833 43.8308C113.653 44.1135 113.436 44.3715 113.189 44.5981C112.799 44.9228 112.44 45.282 112.116 45.6714C111.542 46.28 110.917 46.8383 110.248 47.3403C109.964 47.5961 109.662 47.8327 109.347 48.0487C109.094 48.2418 108.837 48.3706 108.579 48.5853C108.18 48.7751 107.792 48.9902 107.42 49.2292C106.791 49.6284 106.095 49.9102 105.365 50.061L104.785 50.2542C104.035 50.497 103.259 50.6483 102.472 50.705C101.571 50.8338 97.7769 50.1308 96.9452 49.8088C94.6913 48.9073 94.262 47.8125 93.2156 46.9164C92.8081 46.5469 92.4983 46.0823 92.314 45.5641C92.0305 44.6972 91.8786 43.7928 91.8633 42.8809C91.8906 40.8982 92.3522 38.9455 93.2156 37.1605C93.4088 36.7741 93.4088 36.7741 93.3444 36.1945C93.1931 36.2605 93.0576 36.3577 92.9466 36.4798C92.8356 36.6019 92.7517 36.7461 92.7004 36.9029C92.4975 37.4829 92.2387 38.0418 91.9277 38.5718C91.9705 38.0736 92.1245 37.5913 92.3784 37.1605C92.8768 36.0141 93.4804 34.9165 94.1815 33.8816C94.8641 32.8126 95.6613 31.8211 96.5588 30.9248C97.4114 29.9874 98.384 29.1664 99.4512 28.4832C99.6721 28.3889 99.8872 28.2813 100.095 28.1612C100.412 28.0324 100.734 27.968 100.927 28.29C101.12 28.4832 101.378 28.4188 101.507 28.5476C101.635 28.6763 101.764 28.9339 101.893 29.0842C102.537 29.4008 104.978 30.0448 105.558 30.4311C105.758 30.6061 105.913 30.8271 106.009 31.0751C106.258 31.6654 106.604 32.2096 107.034 32.685C107.157 32.8592 107.245 33.0562 107.291 33.2645C107.452 34.0271 107.452 34.8149 107.291 35.5774C107.135 36.4665 106.808 37.3173 106.331 38.0835C106.057 38.5132 105.82 38.9656 105.622 39.4358C105.46 39.8893 105.244 40.3217 104.978 40.7237C104.861 40.9547 104.698 41.1592 104.499 41.3244C104.299 41.4897 104.068 41.6121 103.819 41.6842C103.443 41.8728 103.017 41.9403 102.601 41.8774C102.408 41.813 102.215 41.8774 102.065 41.6198C102.065 41.6028 102.058 41.5864 102.046 41.5743C102.034 41.5622 102.017 41.5554 102 41.5554C101.464 41.6198 101.163 41.0456 100.777 40.8525C100.707 40.758 100.662 40.6471 100.648 40.5305C100.777 40.2729 100.648 40.1441 100.584 39.9509C100.326 39.4143 100.074 38.8777 99.7517 38.341C99.6873 38.1532 99.4941 38.0835 99.301 38.2766C99.2312 38.5396 98.9736 38.7972 98.9736 39.1835ZM92.8829 44.9684C92.9473 45.1616 93.0117 45.2904 93.0761 45.505C93.1404 45.7197 93.2693 45.827 93.1405 46.0846C93.0761 46.0202 93.0117 46.0202 93.0117 45.9558C92.7063 45.2174 92.511 44.4381 92.4321 43.6429C92.3677 43.5785 92.4321 43.5141 92.4321 43.4497C92.3896 42.4997 92.4763 41.5484 92.6897 40.6217C92.7631 40.4366 92.8065 40.2409 92.8185 40.0421V39.5914C92.6584 39.8775 92.5289 40.1797 92.4321 40.4929C92.3677 40.8149 92.3033 41.0725 92.2389 41.3891C91.9813 43.0634 92.0457 44.6089 92.7755 45.9558C92.9327 46.2076 93.1123 46.4447 93.3122 46.6642C93.4381 46.7869 93.5933 46.8755 93.763 46.9217C93.763 46.9861 93.8273 46.9217 93.9561 46.9217C93.753 46.6363 93.5736 46.3348 93.4195 46.0202C93.2263 45.6338 93.2263 45.2474 93.0331 44.9469C92.9821 44.9365 92.929 44.9441 92.8829 44.9684ZM92.8829 40.8578C92.6167 41.821 92.5726 42.832 92.7541 43.8147C92.7541 43.8791 92.8185 43.879 92.8829 43.9434C92.9473 43.2351 93.0117 42.5911 93.0761 41.9472C93.186 41.5231 93.1635 41.0756 93.0117 40.6646C92.9312 40.729 92.8829 40.7934 92.8829 40.8578V40.8578ZM100.981 35.7169C100.816 35.9435 100.665 36.1801 100.53 36.4253C100.272 36.876 100.337 37.198 100.659 37.3912C100.878 37.5045 101.074 37.6574 101.238 37.842C101.625 38.2874 102.14 38.223 102.655 38.1639C103.113 37.9597 103.478 37.5925 103.68 37.1336C104.131 36.0604 104.388 35.8457 104.753 34.7564C105.783 32.3093 103.723 32.8889 102.762 33.6831C102.084 34.2849 101.48 34.9659 100.965 35.7116L100.981 35.7169Z" fill="#101010"/>
</svg>
