<svg width="180" height="72" viewBox="0 0 180 72" fill="none" xmlns="http://www.w3.org/2000/svg">
<path d="M15.2386 22.6274H20.0958V22.8064C19.1232 22.8064 19.1649 23.063 19.1649 24.2803V34.7942C19.1649 36.1487 19.3201 36.4709 20.2987 36.4709V36.6499H14.2242V36.4888C15.161 36.4888 15.2386 36.1666 15.2386 34.8121V23.1645L10.0831 36.8289H9.89813L3.44778 24.8352V31.3691C3.44778 33.9409 4.18174 36.4709 6.49694 36.4709V36.6499H0.279297V36.4888C2.40952 36.4888 3.26281 34.0006 3.26281 31.387V24.5548C2.48709 23.1824 1.84863 22.8661 1.28772 22.8243V22.6453H6.96834L11.7897 31.8047L15.2386 22.6274Z" fill="#454545"/>
<path d="M33.4387 22.6274V22.7646C32.6033 22.7646 32.1439 22.7646 32.1439 24.5547V34.4003C32.1439 36.2919 32.6033 36.4709 33.4387 36.4709V36.6499H26.875V36.4888C27.7104 36.4888 28.1639 36.3098 28.1639 34.4183V24.5547C28.1639 22.8004 27.7283 22.7646 26.875 22.7646V22.6035L33.4387 22.6274Z" fill="#454545"/>
<path d="M52.9746 31.8706L53.1775 35.8924C51.7094 36.5424 50.1166 36.8622 48.5113 36.8292C44.2509 36.8292 40.4678 34.1381 40.4678 29.6389C40.4678 25.1398 44.2509 22.4785 48.5113 22.4785C51.0831 22.4785 52.6882 23.0155 53.1775 23.3915L52.9746 27.4192H52.8135C52.2168 23.296 49.9673 22.6456 48.5113 22.6456C46.3035 22.6456 45.3667 24.197 45.3667 29.6568C45.3667 35.1167 46.3632 36.6681 48.5113 36.6681C49.8658 36.6681 52.1393 35.8506 52.8135 31.8945L52.9746 31.8706Z" fill="#454545"/>
<path d="M74.8787 36.4888V36.6678H70.9166C69.5024 36.6678 69.0609 35.7728 68.5835 32.0672C68.3269 30.0743 65.9342 30.1936 65.9342 30.1936H65.0033V34.4183C65.0033 36.3695 65.0809 36.4888 65.9162 36.4888V36.6678H59.9492V36.4888C60.8085 36.4888 60.9875 36.447 60.9875 34.4183V24.5547C60.9875 23.3196 60.8264 22.7646 59.9492 22.7646V22.6035H65.6059C69.568 22.6035 73.1364 23.0809 73.1364 26.4105C73.1364 29.394 70.3855 29.9907 68.4761 29.9907C70.7674 29.9907 71.9191 30.486 72.8977 34.0722C73.3094 35.6355 74.3596 36.4291 74.8787 36.4888ZM68.4642 26.4523C68.4642 22.6453 67.951 22.8243 65.6179 22.8243H65.0212V29.9847H65.6179C68.1956 29.9967 68.4642 30.0385 68.4642 26.4344V26.4523Z" fill="#454545"/>
<path d="M95.4714 29.7404C95.4714 33.7025 92.5833 36.8293 88.2035 36.8293C83.8237 36.8293 80.9297 33.7025 80.9297 29.7404C80.9019 28.7681 81.0693 27.8 81.4222 26.8935C81.775 25.987 82.3062 25.1606 82.9841 24.4629C83.662 23.7653 84.4729 23.2108 85.3689 22.8321C86.2649 22.4534 87.2278 22.2583 88.2006 22.2583C89.1733 22.2583 90.1362 22.4534 91.0322 22.8321C91.9282 23.2108 92.7391 23.7653 93.417 24.4629C94.095 25.1606 94.626 25.987 94.9789 26.8935C95.3318 27.8 95.4992 28.7681 95.4714 29.7404ZM90.6321 29.7404C90.6321 24.2806 90.5486 22.6277 88.2035 22.6277C85.8585 22.6277 85.7332 24.2806 85.7332 29.7404C85.7332 35.2002 85.8287 36.6502 88.2035 36.6502C90.5784 36.6502 90.6321 35.2182 90.6321 29.7404Z" fill="#454545"/>
<path d="M123.152 22.6274V22.7646C122.358 22.7646 121.141 23.3613 119.685 26.8878L116.2 36.626H115.484C113.628 32.3059 112.435 29.5133 111.641 27.6755L108.455 36.626H107.733C102.715 24.8949 102.458 24.3757 102.458 24.3757C101.778 22.7825 101.504 22.8004 100.984 22.7646V22.6035H107.196V22.7646C105.925 22.7646 106.939 25.0739 106.939 25.0739L109.923 31.9061L111.516 27.4607C110.323 24.6323 110.18 24.3757 110.18 24.3757C109.505 22.7825 109.225 22.8004 108.706 22.7646V22.6035H114.923V22.7646C113.646 22.7646 114.661 25.0739 114.661 25.0739L117.644 31.924L119.434 26.8878C119.93 25.4736 119.494 22.7646 117.459 22.7646V22.6035L123.152 22.6274Z" fill="#454545"/>
<path d="M134.741 22.6274H134.842C139.878 34.1796 140.213 34.8359 140.213 34.8359C140.929 36.4291 141.603 36.4471 142.003 36.4888V36.6499H135.027V36.4888C136.62 36.4888 135.427 34.1617 135.427 34.1617L134.789 32.7833H130.886C130.486 33.7022 130.844 36.4888 133.237 36.4888V36.6499H127.509V36.4888C128.105 36.4471 129.186 36.2919 130.719 32.7833L134.741 22.6274ZM132.73 28.135L130.94 32.6162H134.705L132.73 28.135Z" fill="#454545"/>
<path d="M161.562 22.6274V22.7646C160.709 22.7646 159.432 23.3613 157.88 26.8878L153.954 36.626H153.357C147.987 24.8949 147.736 24.3757 147.736 24.3757C147.02 22.7825 146.722 22.8004 146.167 22.7646V22.6035H152.796V22.7646C151.424 22.7646 152.516 25.0739 152.516 25.0739L155.607 31.9419L157.701 26.9416C158.298 25.4677 157.94 22.8184 155.547 22.8184V22.6572L161.562 22.6274Z" fill="#454545"/>
<path d="M179.725 32.7475V36.6499H168.096V36.4888C168.931 36.4888 169.247 35.2954 169.247 33.9409V25.3782C169.247 24.1431 168.967 22.7885 168.096 22.7885V22.6274H179.469V26.7089H179.29C179.29 22.8243 173.848 22.8064 173.848 22.8064H173.132V29.4776H174.743C175.052 29.4792 175.359 29.4194 175.645 29.3018C175.93 29.1843 176.19 29.0111 176.409 28.7925C176.628 28.5739 176.801 28.3141 176.918 28.0281C177.036 27.7422 177.096 27.4357 177.094 27.1266H177.273V32.0076H177.094C177.085 31.3869 176.834 30.7943 176.395 30.3554C175.956 29.9165 175.364 29.6658 174.743 29.6566H173.132V36.4888H173.848C173.848 36.4888 179.546 36.7096 179.546 32.7654L179.725 32.7475Z" fill="#454545"/>
<path d="M48.2354 44.3179H49.5839V49.8493H48.2354V47.558H46.1171V49.8493H44.7686V44.3179H46.1171V46.5316H48.2473L48.2354 44.3179Z" fill="#101010"/>
<path d="M58.9116 49.8495L58.6073 48.9187H56.6203L56.316 49.8495H54.8779L56.7993 44.3062H58.4403L60.3557 49.8495H58.9116ZM56.9604 47.8983H58.2672L57.6108 45.9292L56.9604 47.8983Z" fill="#101010"/>
<path d="M65.6484 49.8493V44.3179H67.003V49.8493H65.6484Z" fill="#101010"/>
<path d="M74.163 47.701V49.8491H72.8145V44.3177H74.9984C75.5425 44.2856 76.0783 44.4628 76.4961 44.8129C76.6656 44.962 76.8012 45.1456 76.8939 45.3515C76.9865 45.5573 77.034 45.7806 77.0331 46.0063C77.0275 46.3402 76.926 46.6654 76.7408 46.9432C76.5127 47.2693 76.173 47.5007 75.786 47.5936L77.1405 49.8431H75.5652L74.3182 47.695L74.163 47.701ZM74.163 45.344V46.6746H74.9984C75.1295 46.6726 75.2572 46.6324 75.3658 46.5589C75.4744 46.4854 75.5592 46.3819 75.6099 46.261C75.6606 46.14 75.6748 46.0069 75.651 45.878C75.6272 45.749 75.5663 45.6298 75.4758 45.5349C75.414 45.4714 75.3396 45.4217 75.2573 45.3888C75.1751 45.3559 75.0869 45.3406 74.9984 45.344H74.163Z" fill="#101010"/>
<path d="M91.5744 45.3027C91.4248 45.2951 91.2779 45.3441 91.1627 45.4399C91.1077 45.4877 91.0645 45.5476 91.0366 45.6149C91.0086 45.6822 90.9966 45.7551 91.0016 45.8278C90.9984 45.9019 91.0099 45.9759 91.0355 46.0456C91.0611 46.1152 91.1003 46.1791 91.1508 46.2335C91.2588 46.342 91.3921 46.4219 91.5386 46.4662L92.0757 46.6273C92.2781 46.6747 92.4773 46.7345 92.6724 46.8063C92.8583 46.8745 93.0364 46.9625 93.2034 47.0689C93.3704 47.1823 93.506 47.3363 93.5973 47.5164C93.7 47.7303 93.7511 47.9654 93.7464 48.2026C93.7424 48.4335 93.6868 48.6605 93.5835 48.867C93.4802 49.0736 93.332 49.2543 93.1497 49.396C92.7275 49.7423 92.1914 49.9189 91.646 49.8913C91.1087 49.9158 90.5789 49.7581 90.1424 49.4438C89.9473 49.2948 89.7911 49.1009 89.6872 48.8785C89.5833 48.6562 89.5348 48.412 89.5457 48.1668H90.9777C90.9666 48.258 90.9767 48.3506 91.0073 48.4373C91.0378 48.5239 91.0879 48.6024 91.1538 48.6665C91.2196 48.7306 91.2994 48.7786 91.3868 48.8068C91.4743 48.835 91.5671 48.8427 91.658 48.8292C91.7402 48.836 91.8229 48.8258 91.901 48.7991C91.979 48.7724 92.0507 48.7298 92.1115 48.674C92.1662 48.6257 92.2095 48.5658 92.2384 48.4988C92.2673 48.4317 92.281 48.3591 92.2785 48.2862C92.2814 48.2148 92.2696 48.1435 92.244 48.0768C92.2183 48.0101 92.1793 47.9494 92.1294 47.8983C92.0187 47.7932 91.8863 47.7137 91.7415 47.6656C91.5658 47.6015 91.3865 47.5477 91.2045 47.5045C91.0076 47.4508 90.8107 47.3911 90.6078 47.3195C90.4197 47.2494 90.2397 47.1593 90.0707 47.051C89.9064 46.9413 89.7729 46.7913 89.6829 46.6154C89.5786 46.402 89.5274 46.1666 89.5337 45.9292C89.5286 45.6908 89.5799 45.4546 89.6837 45.2399C89.7874 45.0252 89.9405 44.8381 90.1304 44.694C90.5525 44.372 91.0738 44.2073 91.6043 44.2286C92.1167 44.2051 92.6231 44.3474 93.0483 44.6344C93.2431 44.7849 93.3989 44.98 93.5028 45.2032C93.6066 45.4264 93.6554 45.6713 93.645 45.9172H92.1831C92.1722 45.7443 92.1027 45.5801 91.9862 45.4518C91.9312 45.4003 91.8664 45.3605 91.7956 45.3349C91.7249 45.3092 91.6496 45.2983 91.5744 45.3027Z" fill="#101010"/>
<path d="M102.942 49.8495L102.638 48.9187H100.651L100.34 49.8495H98.9082L100.83 44.3062H102.471L104.386 49.8495H102.942ZM101.015 47.8983H102.321L101.665 45.9292L101.015 47.8983Z" fill="#101010"/>
<path d="M109.679 44.3179H111.027V48.823H112.704V49.8493H109.679V44.3179Z" fill="#101010"/>
<path d="M118.581 49.1037C118.053 48.5592 117.758 47.8305 117.758 47.0719C117.758 46.3133 118.053 45.5846 118.581 45.0401C118.847 44.7793 119.163 44.5743 119.509 44.437C119.856 44.2996 120.226 44.2329 120.598 44.2405C120.97 44.2316 121.34 44.2978 121.685 44.4352C122.031 44.5726 122.345 44.7784 122.609 45.0401C123.136 45.5853 123.43 46.3138 123.43 47.0719C123.43 47.83 123.136 48.5585 122.609 49.1037C122.346 49.365 122.033 49.5705 121.688 49.7078C121.344 49.8452 120.975 49.9117 120.604 49.9032C120.231 49.9117 119.859 49.8454 119.512 49.708C119.165 49.5707 118.848 49.3652 118.581 49.1037ZM121.654 48.2265C121.914 47.8964 122.055 47.4887 122.055 47.0689C122.055 46.6491 121.914 46.2414 121.654 45.9113C121.371 45.6329 120.99 45.4769 120.592 45.4769C120.195 45.4769 119.814 45.6329 119.53 45.9113C119.271 46.2414 119.13 46.6491 119.13 47.0689C119.13 47.4887 119.271 47.8964 119.53 48.2265C119.814 48.5049 120.195 48.6609 120.592 48.6609C120.99 48.6609 121.371 48.5049 121.654 48.2265Z" fill="#101010"/>
<path d="M132.526 44.3062H133.869V49.8495H132.526L130.253 46.3588V49.8495H128.904V44.3062H130.253L132.508 47.7969L132.526 44.3062Z" fill="#101010"/>
<path d="M76.401 0.811713C78.6757 -0.149935 81.2251 -0.239189 83.5615 0.561072C84.7292 0.965447 85.8326 1.53622 86.8373 2.25572C87.7801 2.90016 88.5797 3.53267 89.3435 4.04583C89.803 4.33821 90.2505 4.61268 90.6801 4.85136C91.1097 5.09004 91.5334 5.24519 91.9571 5.44806C92.8453 5.76155 93.7695 5.96202 94.7079 6.04477C96.6167 6.20533 98.5353 5.88316 100.287 5.10794C100.371 5.28098 100.203 5.70466 100.532 5.64499C101.832 5.3526 102.029 5.60324 102.238 5.96126C102.286 6.05076 102.059 6.18798 101.868 6.30732C101.677 6.42666 101.504 6.48633 101.713 6.49229C100.77 7.04126 99.028 7.64989 100.144 7.49475C100.52 7.46066 100.887 7.35539 101.224 7.18449C101.561 6.99265 101.935 6.87467 102.322 6.83839C102.799 6.89209 102.274 7.56039 102.757 7.60812C103.23 7.33982 103.687 7.04291 104.124 6.71904C104.571 6.62357 104.124 7.44704 104.476 7.19046C105.848 6.35986 106.986 5.19339 107.782 3.80116C107.865 3.85486 107.996 3.80119 108.068 3.8728C108.14 3.9444 108.169 4.02794 107.937 4.4337C106.221 6.87465 103.814 8.74696 101.027 9.81021C98.2388 10.8735 95.1968 11.0791 92.2912 10.4007C91.2951 10.1659 90.3298 9.81549 89.4151 9.35649C88.5385 8.91692 87.7054 8.39545 86.9269 7.79907C85.7487 6.81491 84.4892 5.93261 83.1617 5.16166C82.0495 4.62309 80.8127 4.39429 79.5815 4.49933C78.3691 4.59823 77.2081 5.03204 76.228 5.75239C75.2316 6.47464 74.4449 7.44866 73.9486 8.57478C73.4951 9.58321 73.3221 8.71206 73.4712 7.71556C73.4295 8.03778 73.149 7.91245 73.1251 8.2466C72.8626 8.15709 72.5762 7.29787 73.328 6.06866C73.1131 6.35394 72.9139 6.65074 72.7313 6.95774C72.4747 7.22625 72.4747 6.82048 72.3017 6.71904C72.4867 6.39086 72.6896 6.08059 72.612 6.02689L72.2838 5.80611C71.9902 6.2439 71.7328 6.70488 71.514 7.18449C71.6751 6.8205 71.8721 6.48037 71.7885 6.43264L71.4424 6.23572C71.7527 5.4421 72.6716 4.57093 73.2325 3.93843L73.0237 3.72956C72.2782 4.40184 71.6702 5.21243 71.2336 6.11637C71.3589 5.69271 71.2813 5.64497 71.1143 5.51967C71.7408 4.32626 72.8387 3.53265 73.7099 2.50035C73.3541 2.77166 73.0153 3.06461 72.6955 3.37753C73.0103 2.73296 73.5253 2.20755 74.1634 1.8798C74.8829 1.47088 75.6306 1.11395 76.401 0.811713Z" fill="#C3D8CC"/>
<path d="M76.401 61.4608C78.6751 60.4963 81.2255 60.4071 83.5615 61.2102C84.73 61.6101 85.8337 62.179 86.8373 62.8988C87.7801 63.5433 88.5797 64.1817 89.3435 64.6889C89.803 64.9813 90.2505 65.2856 90.6801 65.4945C91.1097 65.7033 91.5334 65.8943 91.9571 66.0912C92.8453 66.4047 93.7695 66.6051 94.7079 66.6879C96.6167 66.8484 98.5353 66.5263 100.287 65.751C100.371 65.9301 100.203 66.3478 100.532 66.2881C101.832 65.9957 102.029 66.2463 102.238 66.6103C102.286 66.6938 102.059 66.837 101.868 66.9504C101.677 67.0638 101.504 67.1294 101.713 67.1354C100.77 67.6844 99.028 68.293 100.144 68.1438C100.52 68.1043 100.886 67.9972 101.224 67.8276C101.562 67.6385 101.936 67.5207 102.322 67.4815C102.799 67.5352 102.274 68.2035 102.757 68.2572C103.229 67.9847 103.685 67.6859 104.124 67.3621C104.571 67.2667 104.124 68.0901 104.476 67.8336C105.848 67.003 106.986 65.8365 107.782 64.4443C107.865 64.498 107.996 64.4443 108.068 64.5159C108.14 64.5875 108.169 64.671 107.937 65.0827C106.221 67.5237 103.814 69.396 101.027 70.4593C98.2388 71.5225 95.1968 71.7281 92.2912 71.0498C91.2948 70.8131 90.3296 70.4606 89.4151 69.9996C88.5385 69.56 87.7054 69.0386 86.9269 68.4422C85.7487 67.458 84.4892 66.5757 83.1617 65.8048C82.0499 65.2654 80.8123 65.0385 79.5815 65.1484C78.3688 65.2415 77.2068 65.6736 76.228 66.3955C75.2299 67.1185 74.443 68.095 73.9486 69.2239C73.4951 70.2263 73.3221 69.3551 73.4712 68.3586C73.4295 68.6809 73.149 68.5556 73.1251 68.8897C72.8626 68.8062 72.5762 67.9469 73.328 66.7118C73.113 66.9991 72.9138 67.2979 72.7313 67.6068C72.4747 67.8694 72.4747 67.4636 72.3017 67.3621C72.4867 67.034 72.6896 66.7237 72.612 66.67L72.2838 66.4492C71.9914 66.8878 71.7341 67.3486 71.514 67.8276C71.6751 67.4636 71.8721 67.1235 71.7885 67.0757C71.705 67.028 71.526 66.9325 71.4424 66.8788C71.7527 66.0852 72.6716 65.214 73.2325 64.5815L73.0237 64.3727C72.2782 65.0449 71.6702 65.8555 71.2336 66.7595C71.3589 66.3418 71.2813 66.2881 71.1143 66.1628C71.7408 64.9694 72.8387 64.1758 73.7099 63.1435C73.3541 63.4148 73.0153 63.7077 72.6955 64.0206C73.0104 63.3746 73.5251 62.8473 74.1634 62.5169C74.882 62.1097 75.6299 61.7566 76.401 61.4608Z" fill="#C3D8CC"/>
</svg>
