<svg width="118" height="72" viewBox="0 0 118 72" fill="none" xmlns="http://www.w3.org/2000/svg">
<path d="M53.6267 38.9468C53.6267 38.12 54.321 36.7262 54.9358 37.1554C54.321 36.7262 54.321 36.7315 54.4376 35.5655C54.8457 35.8517 55.2378 34.9772 55.4975 34.4473C54.9305 34.6752 54.5171 35.2263 53.685 36.3075C53.9235 37.9398 51.1623 39.2065 51.5121 40.807C52.217 40.2505 53.2981 39.9696 53.6267 38.9468Z" fill="#C3D8CC"/>
<path d="M59.3924 35.9685L59.244 35.6558L58.4756 37.7439C58.5074 37.2404 59.0638 35.8413 59.3924 35.9685Z" fill="#C3D8CC"/>
<path d="M62.4881 29.6086C62.8379 30.0696 63.7071 29.3171 64.1152 29.6086C63.1771 29.0415 64.8678 28.0186 65.2917 27.176L64.8094 26.3916C63.7813 26.8156 62.6895 28.9196 61.5713 30.5466L62.4881 29.6086Z" fill="#C3D8CC"/>
<path d="M63.988 28.4689L63.882 27.6475C63.7124 28.1668 63.1188 29.2215 63.988 28.4689Z" fill="#C3D8CC"/>
<path d="M60.7763 27.9767C59.8648 29.2487 61.5925 27.3831 60.8876 28.7982C61.0519 28.2788 61.354 27.7488 60.7763 27.9767Z" fill="#C3D8CC"/>
<path d="M65.8323 23.4922C65.3023 24.4709 64.7882 25.4566 64.29 26.4494L65.35 25.522L65.8323 23.4922Z" fill="#C3D8CC"/>
<path d="M67.4008 24.372C67.1517 24.7218 66.5157 25.0981 66.627 24.4303C67.8354 23.842 67.5068 22.7132 68.6039 22.1567L68.2223 23.169C68.8688 23.4657 68.9219 20.9801 69.897 21.7751C70.0507 20.1269 68.4025 21.9977 69.0172 20.1587C68.2212 21.439 67.2589 22.6081 66.1554 23.6353C66.5233 23.427 66.8679 23.18 67.1835 22.8987C66.6059 23.7626 66.1236 25.1246 65.5088 26.1739C66.5369 26.0786 66.4469 24.9391 67.4008 24.372Z" fill="#C3D8CC"/>
<path d="M70.6288 20.2759C71.3655 19.4438 72.4361 18.1242 71.9167 17.3027C70.65 17.7903 71.1429 18.4687 71.1164 19.1206C70.7825 19.2848 70.0565 20.1222 69.9346 19.465C70.1943 19.4544 70.0459 20.4561 70.6288 20.2759Z" fill="#C3D8CC"/>
<path d="M73.4906 17.0107L73.3846 15.8501L73.1356 16.3589L72.6427 16.0144C72.6957 16.184 73.268 17.191 72.5049 17.9912C73.2469 17.8216 72.9554 17.3234 73.4906 17.0107Z" fill="#C3D8CC"/>
<path d="M70.5383 14.112C71.3492 13.7781 71.487 13.2905 71.9216 12.4531C71.116 13.4389 69.9553 14.7691 69.9553 15.2991L69.9076 15.1242C69.6539 15.8317 69.4936 16.5693 69.4307 17.3183C69.7592 15.951 71.9215 14.8115 70.5383 14.112Z" fill="#C3D8CC"/>
<path d="M69.4258 15.2993L69.6484 14.2817L69.4258 15.2993Z" fill="#C3D8CC"/>
<path d="M75.6152 14.3398C75.1595 14.679 74.7249 15.0447 74.2744 15.3998L74.7408 15.2673C75.0323 14.9546 75.3132 14.6366 75.6152 14.3398Z" fill="#C3D8CC"/>
<path d="M72.3774 14.1546C73.4109 13.1901 71.3705 14.2871 72.2767 13.3119C72.441 12.9781 70.9783 14.7853 71.2168 15.1351C71.5454 14.9655 71.7521 13.7942 72.3774 14.1546Z" fill="#C3D8CC"/>
<path d="M76.4316 13.5979C76.6065 13.1209 76.7761 12.6281 76.9616 12.167C76.7761 12.6493 76.6065 13.1209 76.4316 13.5979Z" fill="#C3D8CC"/>
<path d="M79.1929 11.4938L79.1028 10.9638C79.7306 10.5843 80.3184 10.1422 80.857 9.64417C81.1026 9.40883 81.3927 9.22481 81.7103 9.10287C82.0279 8.98093 82.3666 8.92352 82.7066 8.93399C82.1766 8.6319 82.4787 7.67264 81.44 8.27151C81.4718 8.6213 81.1379 8.8757 81.4029 9.10889C80.9418 9.33148 80.7775 8.9552 80.4118 9.04529C80.0355 9.96215 78.7901 10.5769 78.5569 11.3666C78.7424 11.0592 78.8802 11.091 79.0869 10.9638C78.5198 12.506 77.0465 11.3348 77.4598 12.7021C77.587 12.082 78.8166 12.0821 79.1929 11.4938Z" fill="#C3D8CC"/>
<path d="M77.067 9.31599L76.0442 10.0474C75.9223 9.34249 77.1041 8.9874 76.9345 8.45743C76.6377 8.23484 75.599 8.9874 75.7739 8.45743C76.6059 9.58628 74.5708 9.69757 76.1131 10.3759C75.0531 11.6108 75.1432 10.0897 73.9932 11.3617L74.1893 12.2202C75.2545 10.6197 75.9488 10.8794 77.067 9.31599Z" fill="#C3D8CC"/>
<path d="M80.9201 6.44351L81.6833 6.47003L81.0367 6.12553C81.556 5.73947 82.1526 5.47011 82.7856 5.33587C83.3684 5.23754 83.9602 5.20377 84.5504 5.23518C85.6634 5.23518 86.6386 5.42595 87.2533 4.89068C87.5701 4.48859 87.9893 4.17923 88.467 3.99503C88.9234 3.8145 89.3977 3.68302 89.882 3.60284C90.3749 3.55514 90.8784 3.52335 91.366 3.45975C91.61 3.43247 91.8524 3.39177 92.092 3.33785C92.3381 3.30574 92.5811 3.25255 92.8181 3.17886C93.6501 2.421 91.8111 3.04637 91.6256 2.78669C91.6256 1.61544 92.7174 3.11527 92.9506 2.12421C92.9506 1.71613 92.357 1.63134 91.6468 1.59424C90.9697 1.67277 90.2873 1.6958 89.6064 1.66312C88.8645 2.01291 88.9811 2.28851 88.9175 2.78669C88.573 2.4475 87.7621 2.63828 87.3911 2.30969C86.8467 2.79626 86.1859 3.13399 85.4726 3.29015C84.7538 3.41492 84.1116 3.81396 83.6813 4.40311C82.9234 4.15402 84.6829 3.65584 84.1636 3.87313L83.4004 4.35541L83.5329 4.39251C83.3254 4.69935 83.0631 4.96524 82.7591 5.17687C82.4368 5.42593 82.0906 5.64251 81.7257 5.82344C81.1099 6.12714 80.4631 6.36347 79.7965 6.52832C80.4113 6.31103 81.042 6.45942 80.5915 7.0583L79.6905 6.86221C79.4945 7.46108 79.2825 8.02813 79.1182 8.62701C79.6057 7.34976 81.5084 7.62005 80.9201 6.44351Z" fill="#C3D8CC"/>
<path d="M78.7688 6.50732C77.0411 7.40298 79.585 7.16451 77.8096 8.24036L78.6045 7.50899L79.4366 6.81472L78.7688 6.50732Z" fill="#C3D8CC"/>
<path d="M87.3174 3.17851L88.3774 3.2686C88.2206 3.1465 88.0226 3.0899 87.8249 3.11065C87.6273 3.1314 87.4454 3.22791 87.3174 3.37991C87.0683 3.6078 87.0206 3.76149 87.3174 3.17851Z" fill="#C3D8CC"/>
<path d="M90.4864 1.96484L90.3115 2.96649L90.9634 2.22453L90.4864 1.96484Z" fill="#C3D8CC"/>
<path d="M93.7035 2.23986C94.2706 1.64098 93.412 1.44489 92.6436 1.70988C93.3643 1.60918 93.8042 1.91127 93.7035 2.23986Z" fill="#C3D8CC"/>
<path d="M98.6011 3.45459C97.9015 3.48639 98.2142 3.52878 98.6011 3.66658C98.988 3.80437 99.3483 4.11176 98.8608 4.49864C99.0039 4.12236 99.7246 3.64008 98.6011 3.45459Z" fill="#C3D8CC"/>
<path d="M102.676 5.96629C102.21 6.02459 102.051 5.86029 102.024 5.6377C102.151 5.64046 102.275 5.6714 102.388 5.72825C102.5 5.7851 102.599 5.86644 102.676 5.96629Z" fill="#C3D8CC"/>
<path d="M85.9026 6.35352C85.7609 6.45097 85.61 6.53441 85.4521 6.60262L85.9026 6.35352Z" fill="#C3D8CC"/>
<path d="M86.1991 6.19385L85.9023 6.35283C85.9974 6.2929 86.0966 6.23977 86.1991 6.19385Z" fill="#C3D8CC"/>
<path d="M96.5175 4.8749L96.4062 4.80078L96.5175 4.8749Z" fill="#C3D8CC"/>
<path d="M62.0796 32.4917C61.9917 32.7092 61.8816 32.9169 61.751 33.1118C61.857 32.9051 61.9683 32.6984 62.0689 32.497L62.0796 32.4917Z" fill="#C3D8CC"/>
<path d="M60.5908 32.5024C60.7604 31.1457 62.4457 32.1208 63.1718 30.2129C62.8432 30.9602 62.4669 31.718 62.0694 32.4971C60.6968 32.9794 62.1437 31.4901 60.5908 32.5024Z" fill="#C3D8CC"/>
<path d="M69.2559 18.0602C69.2559 18.0337 69.2559 18.0178 69.2559 17.9861C69.33 17.8696 69.3141 17.949 69.2559 18.0602Z" fill="#C3D8CC"/>
<path d="M22.809 69.1499L22.8248 69.399L21.6748 69.1817L22.809 69.1499Z" fill="#C3D8CC"/>
<path d="M23.0208 69.5791C23.6833 69.6586 24.3458 69.6799 25.0189 69.7276C21.1724 70.575 17.1822 70.5223 13.3594 69.5738L13.8151 69.346C13.8151 69.2877 13.9476 69.293 14.1967 69.346C14.4458 69.399 14.8168 69.4149 15.2567 69.4891C15.6965 69.5633 16.2 69.6905 16.7565 69.7276L18.4949 69.9025C20.8744 70.0244 23.2169 69.7434 23.0208 69.5791Z" fill="#C3D8CC"/>
<path d="M23.5088 69.1127C24.4044 67.9044 25.3902 69.2081 26.5244 68.127C26.2018 68.4606 25.8622 68.7772 25.5068 69.0756C25.17 69.3197 24.7542 69.4294 24.3409 69.383L23.5088 69.1127Z" fill="#C3D8CC"/>
<path d="M27.1172 63.1029C27.1853 63.0647 27.2585 63.0361 27.3345 63.0181C27.2708 63.0874 27.2106 63.1599 27.1543 63.2354L27.1172 63.1029Z" fill="#C3D8CC"/>
<path d="M27.155 63.2358L27.261 63.5803C27.0543 63.5273 27.0649 63.3789 27.155 63.2358Z" fill="#C3D8CC"/>
<path d="M27.335 62.9969C27.5019 62.8438 27.6433 62.6649 27.7536 62.467H27.531C27.7801 62.2974 28.1352 61.8151 28.3366 61.937C27.8066 62.1066 27.8755 62.3451 28.0398 62.8167L28.9408 62.4988C29.227 63.6859 28.1511 62.8486 27.335 62.9969Z" fill="#C3D8CC"/>
<path d="M31.6164 61.6143C31.5051 61.8951 30.6042 62.2873 31.2772 62.2873C31.1924 62.4781 31.0122 62.547 30.832 62.6371C31.3514 62.1813 30.4239 61.7627 31.6164 61.6143Z" fill="#C3D8CC"/>
<path d="M30.8327 62.6362C30.757 62.6989 30.6754 62.754 30.5889 62.8005C30.6605 62.7327 30.7429 62.6772 30.8327 62.6362Z" fill="#C3D8CC"/>
<path d="M33.7207 61.1847C33.8345 61.1209 33.9443 61.0501 34.0493 60.9727C33.9592 61.0416 33.8797 61.1158 33.8055 61.1794L33.7207 61.1847Z" fill="#C3D8CC"/>
<path d="M0.835938 63.1771C1.32599 63.9128 1.8568 64.6206 2.42587 65.297C2.78377 65.6468 3.1644 65.9726 3.5653 66.2721C4.01941 66.6323 4.51172 66.9416 5.03334 67.1943C5.49442 66.4788 5.9926 67.5706 6.62327 66.9081C6.0933 66.5848 6.33709 66.7226 6.95716 67.0883C7.11085 67.1784 7.28575 67.295 7.48714 67.3957L8.16549 67.7031C8.64777 67.9151 9.17775 68.1694 9.72362 68.3814C11.9495 69.187 14.3026 69.4414 13.4335 69.0386L12.7869 69.2559C13.0625 69.028 13.3169 68.8001 13.5872 68.567C14.1252 68.8923 14.6827 69.1843 15.2566 69.4414C15.8396 69.6852 16.4066 69.8654 16.8147 69.6269C16.8147 69.6587 16.7087 69.6746 16.4596 69.6746C16.2106 69.6746 15.8555 69.6057 15.3997 69.5368C14.9439 69.4679 14.4457 69.399 13.9105 69.2559L12.2251 68.7789C11.6528 68.6093 11.1122 68.3496 10.5928 68.1536L9.85085 67.8568L9.22017 67.5388C8.44641 67.1413 7.9482 66.9081 8.0012 67.0088C7.9376 66.6855 8.66898 66.8657 9.76603 67.2897C10.296 67.5017 11.0115 67.666 11.7323 67.9151C12.1061 68.0432 12.4886 68.1441 12.877 68.2172L14.08 68.4927C14.8962 68.6464 15.7336 68.7313 16.5126 68.8426L18.6962 68.9167C19.9893 68.8319 20.8796 68.7524 20.9591 68.6252L21.134 69.1552C21.8486 68.8372 22.5332 68.4558 23.1797 68.0158C23.7183 67.5939 24.2949 67.2231 24.9022 66.9081L25.3367 67.4752C24.3192 67.4752 24.1443 67.9257 23.1639 68.3921C23.781 68.2362 24.4141 68.1526 25.0506 68.143C25.5941 68.1261 26.1311 68.0205 26.6405 67.8303C26.3649 67.0247 25.4215 67.719 26.9267 66.8392C27.2129 66.9505 27.1493 67.295 27.1864 67.5494C27.2235 67.8038 27.3825 67.9787 28.0926 67.6289C28.3906 67.6024 28.6771 67.5017 28.9262 67.3359C29.1752 67.1702 29.3787 66.9448 29.5183 66.6802C29.7052 66.1639 30.0852 65.7402 30.5782 65.4984L29.4812 65.6309C30.0111 65.3447 30.9121 64.7988 31.6011 64.9366C31.0022 65.191 29.6243 66.2509 29.974 67.0565C30.5411 66.6007 32.094 66.3092 32.6239 65.9489L32.555 66.6537C33.4189 66.8286 33.3765 65.9118 34.3835 65.9489C34.9134 65.2334 33.5408 65.4613 33.8058 65.0161C34.039 65.1115 35.5335 64.555 35.772 63.9562C35.242 63.5375 34.9399 63.8449 34.5424 64.2053C34.145 64.5656 33.6839 64.9949 32.9525 64.6716C33.409 64.5202 33.8567 64.3433 34.2934 64.1416C34.3517 63.3838 33.8747 63.6858 33.3712 64.0409C32.8677 64.396 32.2847 64.7246 32.2582 64.1893C32.4172 63.3891 33.0267 63.4156 33.6044 63.3467C34.182 63.2778 34.7756 63.193 34.7226 62.2867C34.0072 62.3609 32.3112 63.405 32.3006 62.8538C33.138 62.9121 33.1062 61.8733 33.8111 61.2639C34.2404 61.2162 34.6643 61.1314 35.0989 61.0572C35.2791 60.453 34.9452 60.6809 34.4841 60.7021C34.9776 60.5717 35.4454 60.3585 35.8674 60.0714C36.3232 59.7481 36.7896 59.3613 37.2771 58.9638C38.2305 58.0655 39.3 57.299 40.457 56.6849C41.3951 55.5295 40.2079 56.1549 40.3775 55.3917C41.4374 55.344 41.9674 53.9714 42.4974 53.3566C42.7041 53.2082 42.4391 52.3921 42.0628 52.3656C41.7289 52.9803 41.3897 53.5898 41.0029 54.1781C40.9281 54.0709 40.8287 53.9834 40.7129 53.923C40.5971 53.8626 40.4684 53.831 40.3377 53.831C40.2071 53.831 40.0784 53.8626 39.9626 53.923C39.8468 53.9834 39.7473 54.0709 39.6726 54.1781C40.3669 54.5067 39.715 54.8776 39.0101 55.2698C38.3053 55.662 37.5739 56.1284 38.0668 56.775L37.5845 56.2026C37.0545 56.8757 36.5669 57.5911 35.9946 58.2271H36.1165C36.0423 58.1317 35.7084 58.561 35.2314 59.1016C34.7241 59.6752 34.1104 60.145 33.4242 60.4848C33.615 60.0555 35.6501 58.9479 34.0708 59.0751C34.6272 58.1688 36.4663 57.5434 37.6587 56.0383L37.0439 55.9058C37.9979 54.088 40.4941 52.8955 41.8455 51.0618L41.9144 52.0105C42.6458 51.6024 43.7428 51.1572 43.7746 50.1979C43.1758 50.9717 43.197 50.3358 43.0804 50.0125C43.6103 48.7829 45.1526 47.5163 46.0164 45.8892C46.0164 45.8892 46.08 46.0482 46.2125 46.0429C46.4828 45.46 46.7425 44.8452 46.9916 44.2463C47.6117 43.5785 48.1204 43.552 48.8147 43.3453C48.9313 43.0115 49.4136 42.3278 48.8995 42.3649C48.7736 42.4657 48.6706 42.5922 48.5974 42.7359C48.5285 41.501 49.1751 42.3066 49.4772 41.024C49.4772 42.1688 50.3887 41.2784 50.8657 41.7289C51.4381 40.3722 49.986 40.987 49.8429 40.669C51.1254 39.4235 51.7031 39.5189 52.7842 38.1039C52.5033 37.8018 51.8674 39.0155 51.4116 38.8936C51.7773 38.5332 52.0635 38.0138 51.9893 37.8336L51.136 38.5703C52.5643 37.285 53.6932 35.702 54.4431 33.933H54.1834L54.8883 32.873L55.2645 33.6627C55.4765 32.9737 56.4305 32.6928 56.1284 32.0728L55.9482 32.2582L56.2132 31.3944L56.3563 32.5444C57.2149 31.7813 56.7485 29.6561 57.8455 28.1827C58.9055 28.3947 56.4464 31.0287 57.4163 31.8926C57.9144 31.5004 58.6458 30.7478 58.5504 30.2549C58.2165 30.1277 57.9833 30.4881 57.7448 30.8538C58.0257 29.1473 60.2304 27.7163 59.8647 26.2483L58.826 27.0221C59.4937 25.766 61.1208 25.7607 60.7657 24.9552L61.2215 26.5875C61.4812 25.0506 62.61 23.5931 62.9969 22.2152C62.398 21.7594 61.8998 23.8316 61.8415 23.6673L61.7568 22.8352C63.3467 21.3407 62.4669 22.5915 64.2953 20.7577L63.9032 20.4504C65.0108 20.196 65.2016 17.4825 65.7581 18.9717L65.1009 19.348L65.6309 19.6554L67.0936 17.0426C67.2632 17.5408 68.0582 16.3377 68.2808 17.0055L68.5458 15.8184C69.5209 15.9721 68.09 18.0178 68.5458 18.5053C68.8743 18.712 69.1552 18.2881 69.2665 18.0602C68.9591 19.454 67.4169 19.0724 66.6166 20.0953L66.6696 20.9326L66.092 20.4663C65.9389 20.9581 65.9595 21.4876 66.1503 21.9661C64.5868 22.4166 64.7988 24.2344 63.5587 25.6759C64.0886 24.1231 62.4033 26.1211 62.3874 25.7872C61.8892 26.508 61.8151 29.0201 60.6597 29.1473C60.0873 29.3805 60.7869 27.9654 59.9919 28.8929C59.6421 29.6031 59.6792 30.2655 60.2516 30.0323C59.499 31.6223 58.2483 33.2705 57.2572 34.8869L57.0824 34.2404C56.0966 35.0247 56.0595 36.3603 56.1761 37.1711C55.9217 37.1976 55.9959 37.3566 55.8475 37.044C54.3424 37.8707 55.6673 39.2221 54.1569 41.1936C54.8141 41.4639 55.4818 40.563 55.6249 39.7203L56.1549 40.3245C57.3596 38.5748 58.3272 36.6734 59.0327 34.6696L59.0963 35.6607C60.8028 34.9558 58.8048 34.198 60.5855 33.6521C60.9088 32.5921 59.8329 34.0761 59.9707 33.2281C60.5643 32.6981 61.0307 34.1185 61.7355 33.1009C59.5838 37.24 56.7326 41.7236 54.0615 45.8204C54.1304 45.9847 54.3212 45.8204 54.512 45.619C54.4749 46.6153 51.9257 49.562 49.3712 52.2702C46.8167 54.9784 44.2622 57.4268 44.8399 58.3066C44.453 58.2748 44.7657 57.4586 44.0608 58.2483C44.1032 58.4179 44.0608 58.7783 44.4424 58.7783C43.0857 59.34 41.9886 60.4371 40.7803 61.5554C39.6231 62.7633 38.252 63.7462 36.7366 64.4543C36.9962 64.6981 36.5193 65.2758 36.6306 65.4772C35.9002 65.5255 35.2075 65.8187 34.6643 66.3092C34.1397 66.7509 33.5218 67.068 32.8571 67.2367L33.3447 67.4381L32.5921 67.8303L31.8131 68.1642C31.2831 68.3868 30.7531 68.6199 30.2549 68.8266C30.2125 69.0068 30.6471 68.8266 30.9174 68.7789C30.8402 68.8645 30.7422 68.9288 30.633 68.9657C30.5237 69.0026 30.4069 69.0107 30.2935 68.9895C30.1802 68.9682 30.0743 68.9182 29.9859 68.8442C29.8974 68.7702 29.8295 68.6747 29.7886 68.567L28.6173 69.8866C26.2589 69.8389 23.9429 70.5967 21.3301 70.9995C18.7173 71.4023 15.8661 71.5295 13.3805 70.406C12.949 70.6238 12.4791 70.7552 11.9972 70.7929C11.7381 70.8162 11.4773 70.8162 11.2182 70.7929C10.9115 70.7252 10.609 70.6402 10.3119 70.5384L10.8843 70.9943C9.33144 70.9943 10.932 70.6339 9.69183 70.4643C8.74317 70.5438 9.03997 71.3281 10.2695 71.4076C10.8631 71.9005 10.3702 71.9376 9.81374 71.9376C9.28377 71.7044 8.75379 71.4712 8.22381 71.2221C7.69384 70.9731 7.22213 70.6286 6.73985 70.3265L6.0297 69.8654C5.80181 69.7064 5.58983 69.5156 5.37254 69.3354C4.94855 68.975 4.53516 68.6146 4.13768 68.2489C3.40954 67.5002 2.74312 66.6938 2.14496 65.8376C1.64284 64.9846 1.20528 64.0953 0.835938 63.1771Z" fill="#C3D8CC"/>
<path d="M110.837 12.2464C110.837 11.7906 111.86 12.9937 111.897 11.9602C111.821 11.5915 111.694 11.2349 111.521 10.9003C111.309 10.5727 111.075 10.2593 110.821 9.96221C110.694 9.80322 110.556 9.64422 110.413 9.49053L109.926 9.08777C109.587 8.82808 109.253 8.5578 108.866 8.29281C107.371 7.31765 105.686 6.63396 104.287 5.64291C103.786 5.15334 103.215 4.74237 102.591 4.42397C102.552 4.54903 102.538 4.68035 102.549 4.81084C102.103 4.71544 101.489 4.69955 100.911 4.62006C100.352 4.59033 99.7988 4.49425 99.2627 4.33386C98.9977 4.47166 98.8122 5.00163 99.2998 4.89033C98.7004 5.0366 98.0687 4.96913 97.5138 4.69955C96.9838 4.47166 96.4856 4.22787 96.1146 4.51405C96.8301 4.76844 95.5157 5.12352 96.3425 5.28782C94.9487 5.5793 94.7526 3.61839 93.4912 3.69789C93.4488 3.86218 93.4117 4.02647 93.6608 4.01587C93.2507 3.90903 92.8201 3.90903 92.4101 4.01587C91.9696 4.14171 91.5377 4.29572 91.1169 4.47695C90.2849 4.76844 89.6171 5.06523 89.2938 4.47695L88.997 5.20303C88.2816 5.04404 88.271 4.67306 87.2905 4.96984C86.7923 5.46272 87.5343 5.40442 87.4124 5.69591C87.1686 5.51572 86.681 5.69591 86.114 5.8602C85.5777 6.11623 84.9844 6.22942 84.3915 6.18878C84.1424 5.839 84.6141 5.8867 85.1706 5.892C85.4465 5.90541 85.723 5.88043 85.9921 5.81779C86.1116 5.79643 86.2235 5.74407 86.3165 5.66595C86.4095 5.58784 86.4804 5.48669 86.522 5.37261C86.4637 5.20832 86.3365 5.21892 86.1775 5.27722C86.6527 5.065 87.1393 4.87923 87.635 4.72075C88.1174 4.59157 88.6078 4.49419 89.103 4.42926C90.0286 4.30648 90.9631 4.26393 91.896 4.30207C92.7811 4.30207 93.6449 4.40807 94.4452 4.33917C95.2552 4.36234 96.0638 4.2568 96.8407 4.02648C97.5932 4.58296 98.0808 3.99468 98.4041 3.39051C97.8158 3.16262 95.998 2.68034 96.104 3.92048L94.9646 3.31101C94.583 3.42231 94.3816 2.25106 94.1643 2.08146C94.9434 2.08146 95.7065 0.825421 94.5459 0.560433C95.6059 0.337843 95.5157 0.984414 95.3992 1.62039C95.2826 2.25636 95.1554 2.86582 96.0139 2.59024L96.1835 1.69988C95.8973 2.16626 97.4713 2.47365 98.0331 2.15036L97.784 1.99667C100.469 2.06005 103.137 2.43713 105.734 3.12021C108.468 3.86002 111.034 5.1196 113.291 6.83007C113.234 7.06991 113.234 7.31972 113.29 7.55979C113.346 7.79985 113.457 8.02358 113.614 8.2133C113.939 8.53932 114.294 8.83387 114.674 9.09304C115.073 9.34062 115.439 9.6361 115.766 9.97282C115.903 10.1483 115.992 10.3566 116.023 10.5769C116.055 10.7972 116.028 11.022 115.946 11.2289C116.508 11.5416 116.084 10.1106 116.937 10.8844C117.002 10.9378 117.052 11.0076 117.081 11.0866C117.109 11.1655 117.117 11.2508 117.102 11.3334C117.086 11.4161 117.049 11.4933 116.995 11.5569C116.94 11.6205 116.869 11.6683 116.789 11.6952L117.224 12.0238C116.477 12.726 115.493 13.1198 114.468 13.1262C113.9 13.1339 113.334 13.0608 112.788 12.9089L112.342 12.7711C112.178 12.734 112.014 12.6863 111.85 12.6386C111.505 12.5276 111.167 12.3967 110.837 12.2464Z" fill="#C3D8CC"/>
<path d="M5.58961 24.7962V27.4143C6.7167 25.5382 8.51685 24.6001 10.9901 24.6001C11.9168 24.566 12.84 24.7309 13.6975 25.0838C14.5551 25.4367 15.327 25.9693 15.9613 26.6458C17.2226 28.0096 17.8551 29.8628 17.8586 32.2053V42.6193H12.4263V32.9419C12.482 31.9742 12.1567 31.023 11.5201 30.292C10.8239 29.6873 9.93278 29.3543 9.01062 29.3543C8.08847 29.3543 7.19734 29.6873 6.50119 30.292C5.86259 31.0222 5.53535 31.9734 5.58961 32.9419V42.6193H0.130859V24.7962H5.58961Z" fill="#454545"/>
<path d="M23.2277 40.287C21.6996 38.4441 20.8633 36.1253 20.8633 33.7312C20.8633 31.3372 21.6996 29.0183 23.2277 27.1754C23.945 26.3542 24.8321 25.6987 25.8277 25.254C26.8233 24.8093 27.9035 24.586 28.9938 24.5997C30.0069 24.5495 31.0164 24.7546 31.9295 25.1964C32.8425 25.6381 33.63 26.3022 34.2194 27.1277V24.7958H39.6834V42.6189H34.2194V40.0326C33.6474 40.9129 32.8608 41.6332 31.9336 42.1255C31.0064 42.6179 29.9692 42.8661 28.9196 42.8468C27.8424 42.856 26.7759 42.632 25.7934 42.1901C24.8109 41.7482 23.9356 41.099 23.2277 40.287ZM33.0375 36.9641C33.4479 36.5312 33.7647 36.0183 33.968 35.4575C34.1714 34.8967 34.2569 34.3 34.2194 33.7047C34.2575 33.1125 34.1721 32.5189 33.9687 31.9615C33.7652 31.404 33.4481 30.895 33.0375 30.4666C32.6823 30.1066 32.259 29.8209 31.7922 29.6262C31.3254 29.4314 30.8245 29.3316 30.3188 29.3324C29.8124 29.3316 29.311 29.4331 28.8447 29.6307C28.3785 29.8284 27.9569 30.1181 27.6053 30.4825C27.1938 30.9147 26.8764 31.4274 26.673 31.9884C26.4696 32.5493 26.3846 33.1464 26.4234 33.7418C26.3827 34.3342 26.4668 34.9286 26.6704 35.4864C26.874 36.0443 27.1925 36.5531 27.6053 36.98C27.9591 37.3416 28.3817 37.629 28.8481 37.8252C29.3145 38.0214 29.8154 38.1224 30.3214 38.1224C30.8274 38.1224 31.3283 38.0214 31.7947 37.8252C32.2611 37.629 32.6837 37.3416 33.0375 36.98V36.9641Z" fill="#454545"/>
<path d="M51.7244 37.9875H53.6747V42.6195H50.8764C48.8784 42.6195 47.3256 42.1796 46.2285 41.2945C45.1315 40.4095 44.5856 38.8937 44.5856 36.742V29.3224H42.9268V24.7858H44.5909V20.4399H50.055V24.7858H53.6323V29.3224H50.055V36.742C50.0655 37.5582 50.6167 37.9875 51.7244 37.9875Z" fill="#454545"/>
<path d="M69.2026 24.7964H74.6613V42.6195H69.2026V40.0014C68.0684 41.8775 66.2683 42.8156 63.8021 42.8156C62.8753 42.8504 61.9519 42.6858 61.0942 42.3329C60.2366 41.98 59.4648 41.4469 58.8309 40.7699C57.5625 39.4096 56.9301 37.5565 56.9336 35.2104V24.7964H62.3659V34.4738C62.3101 35.4415 62.6355 36.3927 63.2721 37.1237C63.9668 37.7316 64.8585 38.0666 65.7816 38.0666C66.7047 38.0666 67.5964 37.7316 68.291 37.1237C68.9296 36.3935 69.2568 35.4423 69.2026 34.4738V24.7964Z" fill="#454545"/>
<path d="M84.5988 24.7962V28.1192C85.8743 25.7767 87.5791 24.6036 89.7131 24.6001V30.1384H88.367C87.345 30.0611 86.3328 30.382 85.5422 31.034C84.9133 31.6311 84.5988 32.6752 84.5988 34.1662V42.5981H79.1348V24.7962H84.5988Z" fill="#454545"/>
<path d="M93.4171 40.2875C91.889 38.4446 91.0527 36.1258 91.0527 33.7317C91.0527 31.3377 91.889 29.0188 93.4171 27.1759C94.1345 26.3547 95.0216 25.6992 96.0172 25.2545C97.0127 24.8098 98.093 24.5865 99.1833 24.6002C100.196 24.5499 101.206 24.7551 102.119 25.1969C103.032 25.6386 103.819 26.3027 104.409 27.1282V24.7963H109.868V42.6194H104.404V40.0331C103.832 40.9134 103.045 41.6337 102.118 42.126C101.191 42.6184 100.153 42.8666 99.1038 42.8473C98.0274 42.8557 96.9619 42.6313 95.9804 42.1895C94.9989 41.7476 94.1245 41.0989 93.4171 40.2875ZM103.222 36.9646C103.634 36.5327 103.952 36.0201 104.156 35.4591C104.361 34.8982 104.447 34.301 104.409 33.7052C104.449 33.1124 104.364 32.5178 104.159 31.96C103.955 31.4021 103.635 30.8935 103.222 30.4671C102.868 30.1055 102.446 29.8183 101.98 29.6222C101.514 29.4261 101.014 29.325 100.508 29.325C100.003 29.325 99.5022 29.4261 99.0362 29.6222C98.5702 29.8183 98.1481 30.1055 97.7947 30.4671C97.3833 30.8992 97.0658 31.412 96.8624 31.9729C96.659 32.5339 96.574 33.131 96.6129 33.7264C96.5721 34.3188 96.6563 34.9132 96.8599 35.471C97.0635 36.0288 97.382 36.5377 97.7947 36.9646C98.1481 37.3261 98.5702 37.6133 99.0362 37.8095C99.5022 38.0056 100.003 38.1066 100.508 38.1066C101.014 38.1066 101.514 38.0056 101.98 37.8095C102.446 37.6133 102.868 37.3261 103.222 36.9646Z" fill="#454545"/>
<path d="M6.01868 45.7407V51.1041H5.13893V47.4313L3.50129 51.1041H2.89183L1.24889 47.4313V51.1041H0.369141V45.7407H1.31779L3.1992 49.9487L5.07534 45.7407H6.01868Z" fill="#101010"/>
<path d="M12.1084 51.1041V45.7407H12.9882V51.1041H12.1084Z" fill="#101010"/>
<path d="M22.6131 45.7358H23.4928V51.1045H22.6131L19.9632 47.0979V51.1045H19.0781V45.7358H19.9579L22.6078 49.7319L22.6131 45.7358Z" fill="#101010"/>
<path d="M32.5496 45.7363V46.42H30.4615V48.047H32.327V48.7307H30.4721V50.416H32.5602V51.105H29.5977V45.7363H32.5496Z" fill="#101010"/>
<path d="M39.4442 48.9259V51.1041H38.5645V45.7408H40.4141C40.9222 45.709 41.4236 45.8698 41.8185 46.1912C41.9791 46.3357 42.1065 46.5134 42.1916 46.712C42.2767 46.9106 42.3176 47.1253 42.3114 47.3413C42.3133 47.6914 42.1997 48.0323 41.9881 48.3111C41.7345 48.6178 41.3753 48.8183 40.9811 48.8729L42.3962 51.1041H41.3362L39.9954 48.9259H39.4442ZM39.4442 46.4297V48.2422H40.4141C40.6863 48.2626 40.9558 48.1772 41.1666 48.0038C41.3198 47.8149 41.4034 47.5792 41.4034 47.336C41.4034 47.0928 41.3198 46.8571 41.1666 46.6682C40.9558 46.4948 40.6863 46.4094 40.4141 46.4297H39.4442Z" fill="#101010"/>
<path d="M51.9949 51.105L51.6133 50.0079H49.3663L48.9793 51.105H48.0625L49.981 45.7363H51.0039L52.9224 51.105H51.9949ZM49.6047 49.3243H51.3695L50.4951 46.8016L49.6047 49.3243Z" fill="#101010"/>
<path d="M58.6934 45.7407H59.5731V50.431H61.3856V51.1041H58.6934V45.7407Z" fill="#101010"/>
<path d="M80.3484 45.7416H81.2864L79.6965 51.105H78.7002L77.5713 47.0454L76.3788 51.105H75.3878L73.8721 45.7363H74.8048L75.9125 50.1033L77.1155 45.7363H78.1066L79.2248 50.0821L80.3484 45.7416Z" fill="#101010"/>
<path d="M90.5715 51.105L90.1846 50.0079H87.9375L87.556 51.105H86.6338L88.5576 45.7363H89.5646L91.4831 51.105H90.5715ZM88.176 49.3243H89.9461L89.0664 46.8016L88.176 49.3243Z" fill="#101010"/>
<path d="M96.9844 46.4297V45.7407H100.726V46.4297H99.3004V51.1041H98.4206V46.4297H96.9844Z" fill="#101010"/>
<path d="M109.518 45.7363V46.42H107.435V48.047H109.285V48.7307H107.435V50.416H109.518V51.105H106.556V45.7363H109.518Z" fill="#101010"/>
</svg>
