<svg width="216" height="72" viewBox="0 0 216 72" fill="none" xmlns="http://www.w3.org/2000/svg">
<path d="M130.547 20.2276C139.609 20.5736 148.67 20.8042 157.731 20.9772C158.036 20.9772 158.291 20.9113 158.308 20.8042C158.324 20.6972 158.085 20.623 157.805 20.623C148.744 20.4418 139.683 20.2029 130.622 19.8569C130.317 19.8569 130.07 19.9228 130.028 20.0217C129.987 20.1205 130.267 20.2111 130.547 20.2276Z" fill="#EFC5CD"/>
<path d="M198.317 30.3266C198.103 30.4008 198.111 30.5078 198.317 30.582C198.561 30.656 198.822 30.656 199.066 30.582C199.248 30.5161 199.239 30.3925 199.066 30.3266C198.821 30.2564 198.562 30.2564 198.317 30.3266Z" fill="#EFC5CD"/>
<path d="M203.951 34.7005C197.411 34.4205 190.821 34.1569 184.231 33.9427L185.615 33.6791L186.991 33.5803C191.225 33.5803 195.467 33.5061 199.726 33.399C201.315 33.399 202.633 32.9954 202.716 32.4353C202.798 31.8751 201.563 31.4633 200.03 31.4221C200.278 31.4221 200.525 31.3479 200.772 31.3232C201.019 31.2985 201.2 31.1914 201.134 31.109C200.937 30.9892 200.704 30.9398 200.475 30.969L197.815 31.3562C189.734 31.1585 181.644 31.2161 173.547 31.3562C182.254 30.7219 191.085 30.2853 199.973 30.1123C199.792 30.1782 199.775 30.2935 199.973 30.3677C200.219 30.4294 200.476 30.4294 200.722 30.3677C200.937 30.2935 200.895 30.1782 200.722 30.1123C205.495 30.0245 210.28 30.0245 215.08 30.1123C215.36 30.1123 215.599 30.0382 215.591 29.9311C215.583 29.824 215.327 29.7416 215.014 29.7416C199.116 29.4945 183.35 30.1947 167.946 31.4632L165.417 31.5044C165.013 30.9922 164.465 30.6133 163.843 30.4171C169.297 30.2359 174.717 30.0217 180.162 29.7663L193.77 29.8734C194.429 29.8734 194.973 29.7004 194.989 29.4533C195.006 29.2062 194.47 29.0579 193.778 29.0414H190.442C191.356 28.7531 191.958 28.3495 192.024 27.8882C192.09 27.4269 191.62 27.0645 190.846 26.7432C195.788 26.3231 200.624 25.8618 205.376 25.2522C205.657 25.2522 205.805 25.1204 205.706 25.0216C205.503 24.9099 205.267 24.8721 205.039 24.9145C198.136 25.1781 191.315 25.5653 184.445 25.8783C179.05 25.3346 173.737 24.7498 167.929 24.5438C159.771 24.3812 151.609 24.6562 143.481 25.3676C140.614 25.2275 137.756 25.1204 134.922 25.0545C135.325 24.8404 135.564 24.5932 135.564 24.3214C135.557 24.2514 135.535 24.1838 135.498 24.1237L143.052 24.2143C166.702 24.4532 188.902 22.5668 211.522 21.0676C212.963 21.01 213.993 20.5487 213.836 20.0627C213.68 19.5767 212.337 19.2389 210.887 19.2389C200.047 19.2389 190.047 20.1039 179.074 20.9523C171.257 21.5536 164.395 21.9985 156.545 22.4186C147.36 22.9046 138.81 22.7975 129.798 22.7892C128.914 22.7 128.026 22.6642 127.137 22.6822L124.427 22.7645C117.376 22.6986 110.465 22.3774 103.578 22.0397C111.816 21.7349 120.053 21.3806 128.126 20.7052C128.711 20.7052 129.098 20.491 129.032 20.3016C128.966 20.1121 128.406 19.972 127.821 19.9968C116.536 20.4169 105.201 20.5816 93.883 20.8205C90.8022 19.1071 84.2617 18.1022 78.4296 18.0445C76.376 17.9918 74.3214 18.0992 72.2845 18.3658L75.077 18.5799C72.56 18.6714 70.0565 18.9913 67.5974 19.5355C67.3915 19.5355 67.1855 19.4861 66.9714 19.4778C61.5347 18.5305 55.1918 18.72 49.3186 18.3081C49.4421 18.5305 49.5904 18.7447 49.7222 18.9589C48.6349 18.7941 48.0006 18.3987 46.8062 18.2834L47.7864 18.7611H47.7205C46.2823 18.4008 44.8043 18.2237 43.3217 18.234C39.1829 17.1752 34.9454 16.5485 30.6773 16.3641C29.8678 16.0515 29.0079 15.8896 28.1402 15.8863C27.7094 15.8291 27.2829 15.7438 26.8634 15.6309C23.5379 14.4981 20.1036 13.7141 16.616 13.2915L18.8813 13.8928C17.7352 13.694 16.5762 13.5784 15.4133 13.5469C15.5451 13.6704 15.7099 13.794 15.8417 13.9258C11.9948 13.0114 6.72287 13.3327 4.06218 14.6507C1.40149 15.9687 2.33232 17.7644 6.1792 18.6788L6.73934 18.8188C5.09622 18.8811 3.4954 19.3571 2.0852 20.2027C1.56624 20.6228 2.0193 21.1418 2.13462 21.6278C1.97811 22.328 3.52675 22.9375 5.5861 22.9869C6.11466 23.0024 6.64359 22.9748 7.16769 22.9046C9.54006 23.1682 11.9701 23.3741 14.2766 23.6871C14.7027 23.7685 15.1436 23.7137 15.5369 23.5306C15.7428 23.3741 15.5369 23.1846 15.0674 23.1105C13.4199 22.781 11.7724 22.435 10.1908 22.0808L9.78719 22.2044C9.85545 22.1455 9.92696 22.0905 10.0014 22.0397L9.56478 21.949L9.90251 21.8502L10.265 21.9078C10.4935 21.8072 10.7306 21.7273 10.9734 21.669C13.8482 21.9078 16.7396 22.1797 19.392 22.641C19.5485 22.641 19.2849 22.9869 19.5732 23.1023C19.7133 23.1599 19.8616 23.2094 20.0181 23.2588C19.5403 23.1929 19.0296 23.1352 18.4777 23.094L15.1003 23.8189H14.9356L14.1118 23.9919L13.9141 24.0413L12.9833 23.9754C12.702 23.948 12.4183 23.9934 12.1596 24.1072C12.0287 24.017 11.891 23.9371 11.7477 23.8683L8.17265 23.58C8.18304 23.6466 8.20537 23.7108 8.23855 23.7695C7.78236 23.8265 7.32201 23.8431 6.86291 23.8189C6.07039 23.8358 5.27767 23.7972 4.49052 23.7036L5.31427 24.0166L4.59761 23.7942L4.78707 24.1567L4.45758 23.7695L4.15279 24.0578L2.72772 23.2341L1.69804 23.4071C1.58773 23.4532 1.48277 23.5112 1.38502 23.58C1.38502 23.6871 1.38502 23.6871 0.800164 24.0496C0.797326 24.1339 0.811325 24.2179 0.841347 24.2967C1.01433 24.4203 1.01434 24.4203 1.06376 24.7415C1.21341 24.8391 1.37371 24.9192 1.54153 24.9804C1.81337 25.0463 1.8875 25.0628 2.89247 25.2605L2.64534 25.4335C2.45588 26.043 2.45589 26.043 3.71621 27.4599C4.29988 27.7544 4.91653 27.9784 5.55315 28.1271L8.4033 28.3989L9.30942 28.5225C9.59212 28.6733 9.86705 28.8383 10.1332 29.0167C9.85495 29.0221 9.57839 29.0608 9.30942 29.1321C8.61748 29.3298 8.48568 29.6757 9.10348 29.9146C8.34564 30.8454 8.79869 31.6939 9.75424 32.5094C9.62113 32.6322 9.51726 32.7832 9.45026 32.9514C9.38326 33.1196 9.35483 33.3008 9.36708 33.4814C8.40582 34.0836 7.66362 34.9788 7.25006 36.035L7.11002 36.8588C7.43952 37.526 8.37859 38.152 9.78719 38.6298L10.2073 38.8193L9.80366 39.4783C11.5994 41.2081 15.1497 42.6002 17.3491 44.256L18.9966 45.1291C20.6581 45.9683 22.4696 46.4695 24.3262 46.6036L26.6821 46.8507C27.1764 46.8507 27.6624 46.8507 28.1649 46.8507C25.6936 47.6745 24.285 48.8524 24.7381 50.1457C25.5618 52.2215 31.1139 53.696 37.2013 53.4407C53.462 53.3665 69.1625 53.2265 85.8021 52.3616C98.1088 51.7355 109.262 50.8789 121.33 50.8871C132.862 49.9892 143.975 48.8277 155.235 47.4356C164.692 46.2824 171.924 43.9512 180.294 42.1884C180.532 42.139 180.557 42.0236 180.425 41.9412C180.181 41.8667 179.92 41.8667 179.676 41.9412C166.405 43.4816 153.036 44.8243 138.81 45.1291C137.162 45.1291 135.581 45.1291 133.991 45.1291C133.801 45.0931 133.608 45.0711 133.414 45.0632C131.973 44.9644 130.523 44.8738 129.081 44.7914H130.589C131.586 44.7914 132.442 44.5443 132.517 44.1901C132.517 44.0418 132.376 43.91 132.146 43.7947C135.844 43.424 139.461 42.9709 143.069 42.4355C144.049 42.4043 145.025 42.2857 145.985 42.0813C150.153 42.3449 154.337 42.5261 158.53 42.765L159.568 42.8638C160.719 42.9816 161.881 42.7941 162.937 42.3202C163.107 42.2338 163.248 42.0991 163.341 41.933C172.888 41.2081 182.584 40.6645 191.595 39.3053C192.057 39.2394 192.295 39.0911 192.221 38.9263C192.417 38.9677 192.619 38.9677 192.814 38.9263C193.984 38.6533 195.17 38.4552 196.365 38.3333C196.645 38.2756 196.793 38.185 196.661 38.0944C196.448 37.985 196.205 37.9501 195.969 37.9955C194.715 38.1345 193.47 38.3408 192.238 38.6133C192.147 38.6265 192.065 38.6736 192.007 38.7451C191.662 38.6315 191.296 38.5977 190.936 38.6463C181.62 39.0993 172.6 40.129 163.193 40.3514C167.789 39.7254 172.501 39.2888 177.452 38.8193C183.424 38.2509 188.918 37.4436 194.948 37.1141C195.261 37.1141 195.467 37.0153 195.434 36.9247C195.401 36.834 195.137 36.7434 194.824 36.7681C182.468 37.2542 171.669 39.6183 158.926 39.6183C158.423 39.6183 157.921 39.6183 157.426 39.6183C161.356 38.7945 165.219 37.9708 169.066 37.1471C180.796 36.8011 192.468 36.2739 204.001 35.4996C204.561 35.4996 205.014 35.3348 205.006 35.1371C204.998 34.9394 204.512 34.6923 203.951 34.7005ZM7.74431 25.9936C7.90445 26.0537 8.05884 26.1281 8.2056 26.216L7.74431 25.9936ZM36.1305 25.5735C33.7993 25.4252 31.4269 25.3264 28.9886 25.2687C28.1033 25.2431 27.2172 25.2761 26.3362 25.3676C25.288 24.7841 24.1842 24.3067 23.0412 23.9425C25.2241 24.2555 27.7118 24.3708 30.01 24.585C32.5472 24.8157 35.0431 25.0298 37.5391 25.2275L36.6576 25.2934C36.3941 25.3264 35.8339 25.2934 36.1305 25.5735ZM41.3365 20.2686L42.6874 20.8452H42.498L40.7187 20.5981L41.04 20.7628C38.75 20.6228 36.46 20.4828 34.1864 20.318C30.7454 19.7899 27.2775 19.4544 23.799 19.3131C24.837 19.1071 25.8172 18.8682 26.7316 18.6046C31.2786 19.1648 35.6445 19.8979 40.4057 20.1121L41.3365 20.2686ZM18.3212 29.7828L17.6704 29.3462L18.3212 29.7828ZM10.5038 38.3662L10.3885 38.2838L11.7806 36.2986L10.5038 38.3662Z" fill="#C3D8CC"/>
<path d="M36.9135 50.3767C36.8641 50.179 36.5593 49.9072 36.4522 49.7095C36.617 49.4459 36.8312 49.3141 36.9218 49.1164C37.0536 48.5233 37.0618 47.8561 37.1936 47.263C37.1936 46.9994 37.2513 46.8017 37.276 46.5381C37.697 45.7692 37.867 44.8878 37.762 44.0174C37.8738 43.7823 37.9701 43.5402 38.0503 43.2925C38.1327 43.1608 38.2892 42.9631 38.2315 42.8313C38.0585 42.5677 38.2315 42.2382 38.6187 41.7769C38.7967 41.4604 38.9482 41.1298 39.0717 40.7884C39.6401 39.3386 40.0026 37.8806 40.5627 36.4967C40.2415 33.9678 46.7161 25.3679 41.8148 26.6118C41.4907 26.8057 41.133 26.9371 40.7604 26.9989C35.612 29.1736 36.0568 28.8523 34.1705 33.4735C34.0209 34.12 33.8366 34.7579 33.6186 35.3846C33.57 35.6663 33.4927 35.9424 33.3879 36.2084C32.3418 38.3913 31.9546 40.5742 30.3648 42.7983C30.2248 42.856 30.2165 42.9301 30.1342 43.0619C28.6844 44.627 28.8903 44.5693 27.2181 44.4705C26.9545 44.4705 26.6991 44.3305 26.485 44.4705C25.7354 44.5941 25.3729 44.1904 25.3564 43.7209C25.3621 43.0263 25.4647 42.336 25.6612 41.6698C26.6085 38.6302 27.8359 35.467 29.1292 32.3615C30.6778 29.3301 27.4817 31.2824 27.5888 28.7535C27.5146 28.3334 27.54 27.9017 27.6629 27.4932C27.9595 26.6694 28.0418 25.9775 28.3219 25.2526C28.5196 24.7172 28.5608 24.3218 28.3796 24.1158C28.9562 23.2015 29.4587 22.3448 30.0271 21.3563C30.9249 21.7682 31.9793 21.3563 33.322 21.1421C33.8132 20.9609 34.2584 20.6735 34.6257 20.3004C34.9931 19.9274 35.2736 19.4778 35.4473 18.9839C36.5132 16.5432 37.7663 14.1885 39.1953 11.9409C40.2003 10.1616 41.5512 8.3247 42.7703 6.47952C42.8796 6.28531 43.0479 6.13103 43.2509 6.03917C43.4539 5.94731 43.6809 5.92265 43.8989 5.96879L45.3487 6.19121C45.9994 6.39714 46.0159 6.79253 45.7523 7.39386C45.2333 8.44001 44.5908 9.36261 44.2201 10.2852C43.6929 11.3396 43.1905 12.2622 42.6715 13.2507C38.0833 19.4205 42.2843 19.0828 47.5151 17.3117C47.6881 16.9822 47.9023 16.8504 48.0011 16.5868C48.8249 14.6757 49.4839 13.5555 50.5135 11.5785C50.8096 11.0309 51.055 10.4574 51.2467 9.86509C51.3373 9.04135 52.0704 8.28351 52.5152 7.49272C52.8615 6.97077 53.1099 6.39019 53.2483 5.77934C53.4109 5.19866 53.6549 4.64397 53.9732 4.13185C54.797 2.94566 55.6207 1.76771 56.4445 0.515625L59.1875 0.556815C60.4706 0.552521 61.7312 0.893981 62.8367 1.5453C63.31 1.76259 63.6785 2.15787 63.862 2.64527C64.0456 3.13266 64.0294 3.67281 63.817 4.14833C63.5116 4.96177 63.1107 5.73601 62.6225 6.4548C61.0989 8.8749 59.758 11.4053 58.6109 14.025C57.2105 16.9246 60.7362 15.9855 62.5237 15.6148C62.8614 15.5489 63.2733 15.4913 63.3474 15.8867C62.0541 16.0679 60.6044 16.3809 59.4346 16.628C58.8328 16.74 58.2483 16.9311 57.6965 17.1964C57.3391 17.3879 57.0237 17.6491 56.769 17.9646C56.5143 18.2801 56.3255 18.6435 56.2138 19.0333C56.5516 19.0333 57.0376 19.1157 57.4824 19.1157C57.7458 19.1168 58.0057 19.0546 58.2402 18.9345C59.0401 18.7994 59.8538 18.7662 60.662 18.8356C61.1832 18.8941 61.7106 18.8578 62.2189 18.7286C62.7664 18.6756 63.3169 18.6618 63.8664 18.6874C63.7015 18.3849 63.5583 18.0711 63.438 17.7483C63.4978 17.3093 63.6374 16.885 63.8499 16.4962H64.3194L64.4677 16.3727C64.2527 16.1129 64.0572 15.8376 63.8829 15.5489C64.3175 15.6742 64.7093 15.9163 65.0158 16.2489C65.3223 16.5816 65.5316 16.9919 65.621 17.4353V17.3035C65.5471 17.3716 65.4599 17.4236 65.3649 17.4562C65.2699 17.4888 65.1691 17.5013 65.069 17.4929C64.476 18.5473 65.2832 18.5556 66.1564 18.572C65.1349 19.2887 64.583 18.8109 63.8417 18.8686C64.2782 19.1404 64.5254 19.3381 64.8961 19.61C64.41 19.7418 63.8829 19.6594 63.5286 20.3925C63.8581 20.4584 64.2618 20.4667 64.789 20.5408C64.303 20.6644 63.9652 20.8621 63.6769 20.9197C63.3104 20.9633 62.9758 21.1498 62.7461 21.4387C63.0259 21.488 63.3014 21.5596 63.5698 21.6528C61.8748 22.0694 60.203 22.5754 58.5615 23.1685C57.4494 23.4816 56.2056 23.7946 55.0276 24.1735C54.5986 24.2753 54.2 24.4778 53.8648 24.7643C53.5296 25.0508 53.2674 25.413 53.1001 25.821C52.5028 26.948 52.0516 28.1466 51.7574 29.3878C51.4893 30.2662 51.1674 31.1272 50.7936 31.9661C50.1593 33.4159 49.9287 34.8739 49.3685 36.2578C48.9484 37.5758 48.5448 38.902 47.9764 40.22C47.9764 40.3518 47.7458 40.4836 47.5892 40.673C47.5892 40.8048 47.4245 41.0025 47.4822 41.0767C47.7787 42.0075 47.1774 43.1278 46.7984 44.1163C46.7984 44.314 46.6914 44.5117 46.6749 44.6435C46.7737 45.5743 46.1395 46.431 45.7029 47.2877C45.5958 47.6831 44.945 48.0702 44.492 48.5315C44.1915 48.5285 43.8921 48.5673 43.6023 48.6469C43.4191 48.6302 43.2343 48.6498 43.0587 48.7045C42.1031 49.4871 41.1146 49.2729 40.1591 50.0555C39.7966 50.2449 39.9943 49.7177 39.706 49.9154C39.4177 50.1131 39.3189 50.3108 39.253 50.3108C38.9894 50.3108 38.8658 50.1708 38.6104 50.0966L38.0091 50.6238C37.1689 51.044 37.1112 50.978 36.9135 50.3767ZM32.556 21.8341C31.7322 22.0235 31.4933 22.2871 31.065 23.1438C31.4027 23.1438 31.7899 23.2838 32.1935 23.2921C32.5971 23.3003 32.6301 23.5639 32.7207 23.8934C32.0947 24.1488 31.4851 24.1405 30.8755 24.7995C31.5951 24.6988 32.3077 24.553 33.009 24.363C33.5115 23.4404 33.9481 22.5837 34.467 21.5293C33.8406 21.6886 33.2009 21.7906 32.556 21.8341ZM40.6698 20.1042C40.2579 20.1619 39.912 20.2854 39.8461 20.6891C40.052 20.6891 40.1756 20.755 40.2497 20.6891C41.3782 20.2442 42.3008 19.7912 43.347 19.4123C43.7952 19.3588 44.247 19.3423 44.6979 19.3628C44.6979 19.2969 44.8544 19.1651 44.8627 19.0992C44.319 19.1569 43.8247 19.3464 43.347 19.4123C42.4656 19.6594 41.5677 19.8488 40.6698 20.1042ZM41.3947 21.4387C40.9615 21.5051 40.5399 21.6327 40.1426 21.8176C40.3642 21.8989 40.6061 21.9058 40.832 21.8375C41.0579 21.7691 41.2554 21.6291 41.3947 21.4387ZM45.777 21.241C44.9866 21.2122 44.1981 21.3352 43.4541 21.6034C42.9736 21.8029 42.4586 21.9065 41.9384 21.9082C41.459 21.9039 40.992 22.0605 40.6121 22.353C42.4573 22.2791 44.2887 22.0028 46.0735 21.5293L45.777 21.241ZM45.5875 22.2954C45.3044 22.165 44.988 22.1252 44.6814 22.1812C44.3748 22.2372 44.0929 22.3864 43.8742 22.6084C44.6238 22.4848 45.0027 22.7567 45.5875 22.2954Z" fill="#454545"/>
<path d="M66.3373 24.0087L66.4114 23.9428C66.5755 23.7535 66.7739 23.597 66.9963 23.4815C67.7541 23.3662 69.5581 22.1964 70.1841 22.6083C70.3571 22.8719 71.0079 23.2179 71.2303 23.4815C71.3551 23.7042 71.4207 23.9552 71.4207 24.2105C71.4207 24.4658 71.3551 24.7168 71.2303 24.9395C70.7278 25.7632 70.1677 26.587 69.5169 27.6414C69.3357 28.0368 69.1627 28.3663 69.0721 28.6299C68.7344 29.2229 68.3719 30.0138 67.9683 30.5986C67.6141 31.4223 69.105 28.8934 68.8991 29.5524C68.8485 29.7445 68.7587 29.9239 68.6355 30.0796C68.1731 30.7465 67.8895 31.5208 67.8118 32.3285C67.7376 32.9875 67.0869 36.3648 67.0869 36.9579C67.1195 37.3283 67.2663 37.6794 67.507 37.9629C67.8057 38.1723 68.1227 38.3543 68.4543 38.5065C68.7591 38.7784 69.105 38.6548 69.5169 38.5889C75.2831 36.686 73.3803 35.9282 76.9718 32.6003C77.729 31.7929 78.3695 30.8834 78.8746 29.8984C78.8746 29.8325 78.8746 29.8325 79.1217 29.503C79.3771 30.1702 78.5369 31.0846 79.4512 31.2988C77.7626 33.77 76.3457 37.4274 73.9157 38.7125C73.1496 39.5362 68.1495 43.4654 65.3241 42.2957C64.352 42.617 63.586 41.6697 62.6222 41.2578C61.9168 40.9164 61.3059 40.4073 60.8429 39.7751C60.5592 38.9179 60.4336 38.0164 60.4722 37.1144C60.4103 36.7187 60.4103 36.3157 60.4722 35.92C60.7688 35.0962 60.8017 33.597 61.1312 33.0698C61.2773 32.7314 61.385 32.3778 61.4525 32.0154C61.5925 31.9495 61.5019 31.62 61.9714 31.5624C62.0456 31.5624 62.1362 31.2905 62.2103 31.2329C62.5975 30.7716 62.7128 30.4091 63.1 29.9149C63.1 29.9149 61.5348 31.2905 62.4904 29.9726C63.1741 28.6546 64.5415 27.213 65.0522 26.2904C65.0866 26.1724 65.1456 26.0629 65.2252 25.9692C65.4723 25.5655 65.703 25.3102 65.6206 24.8406C65.6051 24.5061 65.7136 24.1775 65.9254 23.9181C65.98 23.9681 66.0468 24.0029 66.1191 24.0188C66.1915 24.0347 66.2667 24.0312 66.3373 24.0087ZM73.3144 16.8751C73.1459 17.0474 73.0092 17.2482 72.9107 17.4682C72.9095 17.5319 72.8941 17.5945 72.8656 17.6515C72.8371 17.7085 72.7962 17.7584 72.746 17.7977C72.5236 17.9953 72.2929 18.2589 71.9799 18.5802C71.676 18.8413 71.3101 19.02 70.9173 19.0992C70.7937 19.0333 70.5795 19.1568 70.423 19.2886C70.2902 19.3917 70.1291 19.4517 69.9612 19.4605C69.7934 19.4693 69.6268 19.4266 69.484 19.338C69.3393 19.237 69.1661 19.185 68.9897 19.1898C68.7431 19.1987 68.4964 19.1737 68.2566 19.1156C68.3307 19.0497 68.4131 18.9179 68.4872 18.852C68.561 18.6258 68.6519 18.4055 68.7591 18.193C68.9268 17.9041 69.1169 17.6287 69.3274 17.3693C69.3274 17.2375 69.5581 17.1057 69.5663 17.0398C69.6158 16.6444 69.9864 16.3232 70.2336 15.9195L70.7031 15.3347C70.8514 15.2029 70.9996 15.0711 71.1314 15.0793C71.2632 15.0875 71.4115 15.0134 71.4692 15.0793C71.5268 15.1452 71.5845 15.2193 71.7245 15.1534C71.8646 15.0875 71.9469 15.0216 72.0046 15.0875C72.2678 15.2116 72.5441 15.3055 72.8284 15.3676C73.26 15.5731 73.6004 15.9311 73.7839 16.3726C73.5532 16.5456 73.4626 16.7186 73.3144 16.8751Z" fill="#454545"/>
<path d="M99.353 32.3699C99.2295 34.0174 99.839 33.4408 102.36 33.0783C103.631 32.9013 104.817 32.341 105.762 31.472C106.429 30.8872 107.088 31.6285 107.409 31.958C107.081 32.5772 106.677 33.1528 106.207 33.6714C104.192 34.8086 101.929 35.4338 99.6166 35.4919C97.895 35.8708 97.6643 36.7275 96.9065 38.0455L96.577 38.5727C96.2557 39.2797 95.843 39.9416 95.3496 40.5414C95.2164 40.6893 95.0672 40.8219 94.9048 40.9368L94.147 41.7194C93.8047 42.2181 93.3749 42.6507 92.8784 42.9962L92.3512 43.5151L91.6098 44.1082C91.4148 44.1741 91.2035 44.1741 91.0085 44.1082C90.8182 43.9472 90.6077 43.8115 90.3825 43.7046C90.3536 43.5052 90.3536 43.3027 90.3825 43.1033C90.3166 42.5102 90.1765 41.9748 89.5587 41.9006C89.3226 41.736 89.1188 41.5294 88.9574 41.291C88.7939 40.978 88.5418 40.7201 88.2325 40.5497C87.6724 40.146 87.6641 39.0834 88.2984 38.2267C88.5614 37.7367 88.9549 37.3291 89.4352 37.0488C89.8768 36.7287 90.3587 36.4683 90.8685 36.2744C91.6678 35.9141 92.4941 35.6166 93.3397 35.3848C93.9025 35.0576 94.338 34.5495 94.5753 33.9433C95.334 31.9819 95.9641 29.9732 96.4617 27.9299L96.717 25.6811C96.7505 25.5487 96.7505 25.41 96.717 25.2775C96.7222 25.2072 96.7041 25.1371 96.6655 25.078C96.6268 25.019 96.5699 24.9744 96.5033 24.9509C96.4368 24.9275 96.3644 24.9266 96.2973 24.9484C96.2303 24.9702 96.1722 25.0135 96.1322 25.0716C96.0611 25.1021 95.9973 25.1472 95.9448 25.2039C95.8923 25.2607 95.8523 25.3278 95.8274 25.4011C95.2581 26.1014 94.7484 26.8481 94.3035 27.6334C93.0761 29.5362 91.9064 31.5791 90.6955 33.3996C89.7976 34.7835 88.9903 36.0356 88.2243 37.5183C86.9557 39.8824 84.4021 42.2383 83.2406 44.8084C83.063 45.2736 82.7609 45.6811 82.3675 45.9864C82.0215 46.1182 81.8238 46.6454 81.7826 47.0408C81.7293 47.5198 81.6072 47.9887 81.4201 48.4329C81.2933 48.6743 81.1324 48.8963 80.9424 49.0919C80.6286 49.4319 80.3524 49.8047 80.1186 50.2039C79.2286 51.7927 78.5816 53.5059 78.1993 55.2864C78.085 56.0938 77.9031 56.8901 77.6557 57.667C77.6139 57.9357 77.5064 58.19 77.3425 58.407C77.1786 58.6241 76.9636 58.7972 76.7166 58.9109C76.3081 59.1292 75.9836 59.4769 75.794 59.8994C75.7199 59.957 75.4892 60.2206 75.4233 60.2206C75.2256 60.2206 75.102 60.6819 74.9455 60.8796H74.8796C73.7841 61.0608 73.2322 60.2536 72.9438 58.985C72.7247 57.6706 72.6749 56.3335 72.7956 55.0064C73.029 51.8171 73.5333 48.6535 74.303 45.5498C74.5749 44.2977 74.995 42.9715 75.3327 41.7853C75.8504 39.7401 76.5026 37.7313 77.285 35.772C78.3833 32.8724 79.5091 30.036 80.6623 27.2627C80.9424 26.6037 81.2801 26.0106 81.5684 25.2116C82.5981 23.2429 83.5042 21.0929 84.5421 19.0912C84.987 18.1027 85.6542 16.9824 86.2308 15.9939C86.3658 15.864 86.5459 15.7915 86.7333 15.7915C86.9206 15.7915 87.1007 15.864 87.2358 15.9939L88.735 17.0071L88.7926 17.0813C89.7301 18.4481 90.1825 20.0896 90.0777 21.7436C90.0834 22.8507 89.8909 23.9499 89.5093 24.9892C88.9244 26.5708 88.2654 28.2842 87.4747 29.9316C86.9557 30.986 86.4038 32.3122 85.8272 33.4984C84.3362 37.1888 86.5356 36.7934 87.1287 35.6402C87.3923 35.113 88.5455 33.8032 88.8256 33.1689L91.5439 28.696C91.9148 27.9266 92.4009 27.2182 92.9855 26.5955C93.5209 26.0683 94.0646 25.4175 94.633 24.8903C95.0635 24.4948 95.6088 24.2466 96.1898 24.1819H97.3266C97.9444 24.0666 98.4222 24.602 98.9082 25.0716C99.0822 25.2326 99.2193 25.4293 99.3103 25.6483C99.4013 25.8672 99.444 26.1032 99.4354 26.3401C99.468 26.8723 99.468 27.406 99.4354 27.9382L99.493 29.8575L99.353 32.3699ZM90.9261 37.4853C90.6723 37.6319 90.4621 37.8435 90.3173 38.0983C90.1725 38.3532 90.0983 38.6421 90.1024 38.9351C90.1024 39.2646 90.3083 39.5365 90.506 39.5365C90.6543 39.4047 90.852 39.4129 91.0085 39.2811C91.3849 39.0818 91.7115 38.8003 91.964 38.4574C92.7878 37.4771 93.1997 36.4227 92.9608 36.8099C92.17 37.1394 91.5769 36.9994 90.9261 37.4524V37.4853Z" fill="#454545"/>
<path d="M106.881 52.5018C106.61 52.5018 106.61 52.5018 105.967 52.8808V52.6831C105.835 52.6172 105.835 52.6172 105.786 52.4854C105.638 52.6172 105.432 52.6089 105.341 52.8066C104.998 53.0231 104.618 53.1765 104.221 53.2597C104.081 53.3173 104.081 53.3173 103.759 53.1855C103.842 53.0537 103.85 52.9878 103.932 52.856C103.726 52.856 103.578 52.9796 103.381 52.9796C103.344 53.0399 103.292 53.0893 103.229 53.1227C103.167 53.156 103.097 53.172 103.026 53.1691C102.45 53.4986 102.203 53.3585 101.988 52.8231C101.962 52.4459 101.843 52.0811 101.642 51.7605C101.354 51.1575 101.221 50.4921 101.255 49.8247C101.302 49.4577 101.411 49.1012 101.577 48.7703C101.904 47.9035 102.381 47.1006 102.985 46.3979C104.151 44.9543 105.468 43.6398 106.914 42.4769C109.723 40.1951 109.386 39.5279 108.817 37.5344C108.57 36.1874 108.129 34.8834 107.507 33.6629C107.507 33.3993 107.293 33.1933 107.26 32.9297C106.75 32.0648 106.025 27.2047 106.165 26.0103C106.313 25.8785 106.255 25.7467 106.42 25.4831C106.428 25.044 106.595 24.6227 106.89 24.2969C106.98 24.0992 107.227 23.7038 107.063 23.3661C107.302 23.0448 107.425 22.5423 107.664 22.254C107.903 21.9657 107.985 21.7268 108.166 21.3314C108.302 21.1182 108.46 20.9195 108.636 20.7383L109.377 19.5522C109.707 19.025 110.152 18.6378 110.473 18.1765C110.555 18.0447 110.621 18.0447 110.761 17.987C110.955 17.8815 111.112 17.721 111.214 17.5257C111.445 17.2621 111.593 17.1304 111.717 17.2622C112.146 17.4468 112.527 17.7288 112.829 18.0859C112.854 18.0886 112.877 18.0967 112.899 18.1095C112.92 18.1223 112.938 18.1395 112.952 18.16C113.529 18.4319 114.32 20.9031 114.295 21.7598C114.269 21.8492 114.262 21.9432 114.275 22.0354C114.288 22.1277 114.32 22.2163 114.369 22.2952C114.342 22.7025 114.25 23.1029 114.097 23.4814C113.915 24.0796 113.669 24.6567 113.364 25.203C113.208 25.4584 113.117 25.6643 112.837 25.722C112.588 25.8941 112.38 26.1192 112.228 26.381C112.137 26.5704 111.849 26.7681 111.873 27.1059C111.869 27.1768 111.84 27.2441 111.791 27.2953C111.548 27.6316 111.328 27.9838 111.132 28.3497C110.791 29.0968 110.674 29.9264 110.794 30.7386C110.927 31.0646 111.123 31.3613 111.371 31.6117C112.153 32.3531 112.606 34.9067 113.265 35.6234C113.57 35.887 113.488 36.6201 113.727 36.8919C114.163 38.3499 116.511 36.5954 118.298 36.1588C119.386 35.4421 120.473 34.7337 121.593 33.9512C122.417 33.4322 123.241 32.8474 123.933 32.3037C124.441 31.9043 124.917 31.4664 125.358 30.9939C125.729 30.6727 126.108 30.2773 126.495 29.8901C126.572 30.1055 126.635 30.3256 126.684 30.5491C126.749 30.75 126.765 30.9637 126.729 31.1718C126.693 31.3798 126.607 31.5761 126.478 31.7435C126.396 31.9412 126.248 32.073 126.223 32.2707C126.034 32.7219 125.782 33.1436 125.473 33.5228C125.094 33.9182 124.839 34.4454 124.452 34.8326C124.089 35.0962 123.793 35.3598 123.496 35.6151L121.948 36.7848L121.651 37.0484C120.849 37.5253 120.074 38.045 119.328 38.6053C119.068 38.8194 118.792 39.0148 118.504 39.1902C117.046 40.1704 115.036 40.1375 114.839 41.925C114.954 43.2512 114.987 42.9876 114.402 44.5774C114.452 44.7751 114.303 44.9069 114.345 45.1046C114.188 45.3023 114.246 45.3682 114.246 45.3682C113.933 45.7636 113.982 46.4885 113.809 46.8839C113.716 47.0267 113.585 47.1407 113.43 47.2134C113.356 47.2793 113.29 47.2793 113.216 47.3452C112.867 47.7331 112.55 48.1492 112.269 48.5891C111.36 49.7091 110.345 50.7381 109.237 51.6616C109.049 51.8942 108.845 52.1143 108.628 52.3206C108.238 52.6763 107.773 52.9408 107.269 53.0949C107.194 53.1608 107.12 53.1608 107.112 53.2267C106.752 53.6047 106.277 53.8536 105.761 53.9351C105.621 54.001 105.613 54.067 105.473 54.1329C105.959 53.4821 106.412 53.0208 106.881 52.5018ZM104.888 46.958C104.411 47.1401 104.016 47.4882 103.776 47.9383C103.583 48.2678 103.319 48.5494 103.002 48.762C102.701 48.9907 102.442 49.2693 102.236 49.5858C102.168 49.9481 102.06 50.3018 101.914 50.6402C101.824 50.7662 101.775 50.9175 101.775 51.0726C101.775 51.2278 101.824 51.3791 101.914 51.5051C102.145 51.8428 102.384 52.1064 102.614 52.4442C102.721 52.5325 102.858 52.5758 102.997 52.565C103.135 52.5543 103.264 52.4903 103.356 52.3865C103.644 52.197 103.867 51.9994 104.237 51.7358C104.608 51.4722 104.839 51.1509 105.135 50.912C105.804 50.4495 106.366 49.8482 106.783 49.1492C106.911 49.0117 107.02 48.8564 107.104 48.6879C107.493 48.1516 107.827 47.5776 108.101 46.9745C108.391 46.3543 108.642 45.716 108.85 45.0634C108.916 45.0634 108.933 44.9317 108.941 44.8658C109.18 42.7487 106.428 45.7554 105.53 46.5132C105.357 46.7169 105.132 46.8705 104.88 46.958H104.888Z" fill="#454545"/>
<path d="M146.512 30.7965C146.462 31.1919 146.264 31.1919 146.289 31.5214C146.019 32.3814 145.657 33.2099 145.21 33.9927C144.691 35.0471 144.098 36.1014 143.563 37.1558C142.821 38.342 142.105 39.3882 141.371 40.5085C141.05 40.9698 137.45 44.899 137.088 45.1544C136.149 45.7392 134.477 47.4444 133.612 47.9551C132.604 48.4205 131.553 48.7847 130.473 49.0424C129.605 49.1365 128.728 49.1004 127.87 48.9353C126.486 48.7129 124.641 46.6289 124.122 45.2944C123.805 44.7246 123.556 44.119 123.381 43.4904C123.216 42.4142 123.161 41.324 123.216 40.2366C123.842 34.6681 124.6 33.8856 126.816 28.5395C127.005 28.0782 127.121 27.7158 127.302 27.2215C127.451 26.7685 127.636 26.3278 127.854 25.9035C128.142 25.1704 128.422 24.4455 128.678 23.7865C129.18 22.3367 131.206 19.8408 129.633 19.4866C129.172 19.4124 128.809 19.4866 128.406 19.1406C128.002 18.7946 127.648 18.6628 127.277 18.391C127.094 18.2409 126.975 18.0253 126.948 17.7897C127.056 17.7289 127.173 17.6845 127.294 17.6579L130.111 17.106C130.762 16.9905 131.42 16.9107 132.08 16.8671C132.234 16.844 132.381 16.785 132.508 16.6949C132.635 16.6047 132.74 16.486 132.813 16.3481C133.121 15.8394 133.397 15.3111 133.636 14.7665C134.46 13.5227 135.07 12.2047 135.935 11.0185C136.662 10.0014 137.511 9.07739 138.464 8.26721C138.627 8.08185 138.803 7.90841 138.991 7.74825C139.116 7.64524 139.261 7.56934 139.417 7.52539C139.573 7.48143 139.736 7.47037 139.897 7.49289C140.284 7.63293 140.721 7.44347 141.174 7.49289C141.24 7.49289 141.24 7.49289 141.314 7.42699C142.278 7.24577 142.566 7.64116 142.755 8.37429C143.006 9.05573 143.083 9.78921 142.978 10.5078C142.94 10.861 142.94 11.2172 142.978 11.5704C143.012 11.8821 142.976 12.1975 142.871 12.493C142.772 12.8225 142.665 13.1602 142.549 13.5556L141.973 15.1372C141.96 15.3193 141.916 15.4978 141.841 15.6644C142.039 15.7842 142.27 15.8362 142.5 15.8127L144.971 15.6479L148.456 15.6974C148.875 15.7452 149.29 15.8194 149.699 15.9198C149.603 16.055 149.499 16.1843 149.386 16.3069C149.234 16.4375 149.065 16.5483 148.884 16.6364C148.39 16.8259 147.83 17.0812 147.335 17.2789C147.333 17.2971 147.325 17.314 147.311 17.3261C147.297 17.3383 147.279 17.345 147.261 17.3448C146.477 17.5082 145.681 17.6046 144.881 17.6332C144.397 17.6332 143.916 17.6941 143.447 17.8144C143.158 17.908 142.86 17.9715 142.558 18.0038L140.993 18.1768C140.861 18.2161 140.74 18.2826 140.636 18.3721C140.533 18.4615 140.449 18.5718 140.391 18.6958C140.317 18.7617 140.309 18.8276 140.235 18.8935C139.18 21.1341 137.871 23.2428 136.75 25.4175C136.595 25.6473 136.455 25.8867 136.33 26.1342C135.929 26.7612 135.584 27.4228 135.3 28.1111C135.01 28.7192 134.653 29.2938 134.238 29.8245C133.917 30.2858 133.917 30.8789 133.529 31.3402C132.24 34.257 131.406 37.3548 131.058 40.5249C131.023 41.5563 131.131 42.5876 131.379 43.5893C131.508 43.8875 131.68 44.1651 131.89 44.413C131.964 44.413 132.022 44.4871 132.154 44.4871C132.989 44.5863 133.837 44.4846 134.625 44.1906C135.062 43.9352 137.253 42.3701 137.689 42.0489C139.344 40.637 140.848 39.058 142.179 37.3371C142.912 36.2168 143.414 34.767 144.131 33.7126C144.477 33.0536 145.309 31.6038 145.729 30.8872C146.1 30.8542 146.594 30.5988 146.512 30.7965ZM137.236 20.8375C138.06 19.19 138.439 17.872 136.075 19.19C135.086 21.3647 134.65 22.8804 133.809 24.9562C131.717 30.4423 134.328 26.3648 135.539 23.9265C136.04 22.8626 136.607 21.8309 137.236 20.8375ZM140.169 13.2508C140.268 12.9872 140.375 12.6578 140.474 12.3283C140.605 11.7928 140.795 11.2656 140.927 10.7384C141.036 10.1492 141.08 9.54979 141.058 8.95092C141.058 8.67909 140.828 8.61319 140.679 8.74499C140.396 8.89188 140.161 9.11795 140.004 9.39574C139.665 9.93369 139.389 10.5085 139.18 11.1091C139.09 11.3068 138.933 11.5045 138.843 11.7022C138.752 11.8999 138.513 12.2294 138.34 12.526C138.134 13.185 137.92 13.9098 137.64 14.643C137.17 16.3564 139.04 16.4552 139.576 15.269C139.749 14.6265 139.955 13.9675 140.169 13.2426V13.2508Z" fill="#454545"/>
<path d="M152.583 31.0846C152.56 31.1588 152.521 31.2269 152.468 31.284C152.415 31.341 152.35 31.3855 152.278 31.4141C152.217 31.4485 152.164 31.4957 152.122 31.5526C152.081 31.6095 152.053 31.6746 152.039 31.7436C151.94 32.0072 151.866 32.0731 151.66 32.139C151.454 32.2049 151.512 32.2625 151.397 32.6661C151.528 32.6661 151.603 32.6662 151.66 32.7321V32.7979H151.191C151.264 32.6312 151.306 32.4526 151.314 32.2708H151.182C151.067 32.7321 150.944 33.1934 150.828 33.6546C150.952 33.7288 151.009 33.7947 151.075 33.7947C151.085 34.2383 151.057 34.6819 150.993 35.1209C150.96 35.5238 151.005 35.9294 151.125 36.3153C151.298 36.5872 151.668 38.0534 151.841 38.317C152.665 39.2561 153.678 40.467 154.741 40.5494C155.631 40.5217 156.518 40.4253 157.393 40.261C159.151 39.7533 160.809 38.9482 162.295 37.8804C163.53 37.0567 164.717 36.06 165.96 35.1456L166.183 34.9479C166.636 34.4949 167.081 34.1242 167.534 33.6464C168.354 32.948 169.115 32.182 169.807 31.3564C170.008 31.0001 170.325 30.7238 170.705 30.5739C170.528 31.1493 170.285 31.7022 169.98 32.2213C169.884 32.4211 169.75 32.6002 169.585 32.7485C169.145 33.1596 168.755 33.6213 168.423 34.1242C168.193 34.3795 167.896 34.6431 167.666 34.9067C167.554 35.0328 167.45 35.1648 167.353 35.3021C167.558 35.2362 167.698 35.1703 167.904 35.1127C167.797 35.5081 167.451 35.5657 167.353 35.8952C167.41 35.9611 167.402 36.0353 167.525 36.1012C167.308 36.4059 167.053 36.6826 166.768 36.9249C166.317 37.2621 165.892 37.6339 165.499 38.037C164.83 38.6516 164.117 39.2161 163.366 39.7256C163.04 39.9853 162.699 40.2246 162.344 40.4423C162.056 40.64 161.768 40.7635 161.479 40.9612C161.041 41.1489 160.614 41.3635 160.202 41.6038C159.505 41.9976 158.748 42.2757 157.962 42.4275L157.336 42.617C156.531 42.8532 155.702 42.9969 154.865 43.0453C152.947 42.9383 151.049 42.5981 149.214 42.0321C146.973 41.0683 146.627 39.9316 145.663 38.9843C145.281 38.597 145.01 38.1129 144.881 37.5839C144.685 36.6666 144.633 35.7248 144.724 34.7914C145.002 32.7109 145.709 30.7108 146.8 28.9181C146.909 28.7786 146.987 28.6178 147.03 28.4461C147.072 28.2744 147.078 28.0956 147.047 27.9214C146.712 28.0553 146.443 28.3157 146.298 28.6463C146.012 29.2407 145.679 29.8109 145.301 30.3514C145.407 29.83 145.62 29.3363 145.927 28.9017C146.588 27.7234 147.346 26.6019 148.192 25.549C149.034 24.4597 149.977 23.453 151.009 22.5424C152.007 21.592 153.113 20.7625 154.304 20.0712C154.585 19.9394 154.799 19.8734 155.013 19.7499C155.359 19.6181 155.705 19.5604 155.837 19.8899C156.01 20.0959 156.29 20.03 156.405 20.17C156.52 20.31 156.627 20.5654 156.751 20.7054C157.385 21.0432 159.856 21.7433 160.408 22.1552C160.597 22.3384 160.734 22.5687 160.804 22.8224C160.999 23.419 161.297 23.9766 161.685 24.4699C161.796 24.6531 161.867 24.8583 161.891 25.0713C161.965 25.8777 161.872 26.6907 161.619 27.4601C161.342 28.386 160.905 29.256 160.326 30.0302C159.99 30.4637 159.69 30.9237 159.428 31.4058C159.202 31.8737 158.926 32.3157 158.604 32.7238C158.302 33.2048 157.828 33.5524 157.278 33.6958C156.876 33.8868 156.424 33.95 155.985 33.877C155.795 33.8111 155.581 33.8771 155.482 33.6052C155.484 33.597 155.483 33.5886 155.481 33.5806C155.478 33.5726 155.474 33.5653 155.469 33.559C155.463 33.5528 155.456 33.5478 155.449 33.5444C155.441 33.541 155.433 33.5393 155.425 33.5393C154.881 33.597 154.601 32.9957 154.23 32.7897C154.168 32.688 154.134 32.5714 154.131 32.452C154.296 32.1884 154.181 32.0566 154.131 31.8589C153.935 31.2973 153.706 30.7473 153.448 30.2114C153.407 30.0137 153.217 29.9396 152.986 30.1373C152.929 30.4256 152.624 30.7221 152.583 31.0846ZM145.548 36.9579C145.589 37.1556 145.639 37.2873 145.688 37.485C145.737 37.6827 145.853 37.8228 145.688 38.0864C145.622 38.0122 145.556 38.0122 145.565 37.9546C145.334 37.1769 145.223 36.3686 145.235 35.5575C145.177 35.4916 145.235 35.4257 145.235 35.3598C145.307 34.3657 145.509 33.3853 145.836 32.4437C145.935 32.2586 146.002 32.0581 146.034 31.8506L146.092 31.3894C145.891 31.6789 145.72 31.988 145.581 32.3119C145.482 32.6414 145.383 32.905 145.276 33.2345C144.752 34.7613 144.752 36.4196 145.276 37.9463C145.4 38.2066 145.552 38.4525 145.729 38.6795C145.845 38.813 145.996 38.9103 146.166 38.9595C146.166 39.0254 146.232 38.9595 146.372 38.9595C146.199 38.6597 146.053 38.3455 145.935 38.0205C145.779 37.6251 145.828 37.1967 145.663 36.8919C145.62 36.9037 145.58 36.9264 145.548 36.9579ZM146.026 32.7156C145.639 33.6827 145.476 34.7245 145.548 35.7634C145.548 35.8293 145.606 35.8293 145.663 35.8952C145.812 35.1703 145.96 34.5031 146.1 33.8441C146.26 33.4204 146.289 32.9582 146.182 32.5179C146.108 32.5838 146.034 32.6497 146.026 32.7156ZM150.589 34.4454C150.585 34.4893 150.585 34.5334 150.589 34.5772C150.585 34.5334 150.585 34.4893 150.589 34.4454ZM155.062 27.5425C154.865 27.7709 154.681 28.0102 154.51 28.2591C154.189 28.7204 154.222 29.0829 154.51 29.2559C154.725 29.3762 154.912 29.5387 155.062 29.7336C155.408 30.2032 155.952 30.1373 156.496 30.0879C157 29.8833 157.421 29.5147 157.69 29.0417C158.283 27.9214 158.58 27.7237 159.107 26.5705C160.458 24.0992 158.283 24.6347 157.155 25.4172C156.38 26.0453 155.678 26.7582 155.062 27.5425Z" fill="#454545"/>
<path d="M177.872 33.5968C179.029 31.3809 180.302 29.228 181.686 27.147C182.17 26.5605 182.622 25.9472 183.037 25.31C183.498 24.7935 183.919 24.2427 184.297 23.6625C184.428 23.4609 184.598 23.2881 184.798 23.1549C184.998 23.0217 185.223 22.9309 185.459 22.8882C185.928 22.8882 186.332 22.8305 186.736 22.8388C187.559 22.8388 187.947 23.4566 188.251 24.3215V24.5934C188.251 25.4171 188.383 26.3809 188.408 27.3117C188.401 28.2005 188.323 29.0874 188.177 29.9641C188.144 30.5631 188.078 31.1599 187.98 31.7517C188.293 31.9576 188.194 32.2212 188.268 32.1553C188.342 32.0894 188.861 32.2294 189.009 32.1059C189.157 31.9823 189.232 31.9082 189.314 31.7764C189.638 31.5739 189.937 31.3333 190.204 31.0597C190.442 30.7302 190.64 30.7302 190.871 31.0597C190.864 31.1672 190.832 31.2714 190.776 31.3633C190.72 31.4552 190.642 31.532 190.55 31.5869C190.452 31.6826 190.371 31.794 190.311 31.9164C190.268 32.0192 190.206 32.1122 190.126 32.1901C190.047 32.268 189.953 32.329 189.849 32.3695L189.627 32.5672C189.553 32.6331 189.413 32.699 189.405 32.7649C189.396 32.8308 189.265 32.8308 189.19 32.8967C189.09 33.0001 188.97 33.0813 188.836 33.1352C188.703 33.1891 188.56 33.2145 188.416 33.2097C188.187 33.247 187.97 33.3373 187.782 33.4733C187.568 33.5969 187.362 33.5969 187.246 33.4733C186.809 33.2611 186.358 33.0794 185.895 32.9296C185.496 32.7795 185.143 32.5257 184.874 32.1942C184.604 31.8626 184.428 31.4654 184.363 31.0433C184.137 29.7826 184.216 28.4861 184.594 27.2623C184.751 26.7202 184.881 26.1703 184.981 25.6148C185.096 25.2194 185.203 24.7911 185.319 24.4286C185.462 24.2131 185.516 23.9498 185.467 23.6955C185.401 23.6955 185.269 23.6296 185.261 23.7614C185.146 23.8575 185.043 23.9683 184.956 24.0909C184.627 24.6181 184.231 25.1453 183.828 25.7384C183.573 26.0979 183.391 26.5036 183.292 26.9328C183.292 27.1964 183.103 27.3941 183.012 27.5918C182.272 28.6735 181.627 29.8173 181.085 31.0103C180.648 31.9329 180.088 32.7237 179.577 33.6463C178.819 35.0219 177.93 36.274 177.304 37.765C177.123 38.2263 176.793 38.7535 176.529 39.2807C175.749 40.6419 174.862 41.9393 173.877 43.1605C173.877 43.2923 173.655 43.3582 173.506 43.4818C173.178 43.9168 172.711 44.2277 172.183 44.3638C171.655 44.5 171.097 44.4533 170.599 44.2314C170.45 44.3632 170.335 44.2314 170.211 44.0996C169.173 43.8195 168.745 42.8145 168.63 41.4883C168.594 40.3345 168.657 39.1798 168.819 38.0368C169.083 36.3152 169.346 34.5936 169.643 32.872C170.187 30.9526 169.907 31.0844 170.648 29.3052C171.406 26.7268 171.093 27.1222 172.295 24.5439C172.47 24.1132 172.674 23.6949 172.905 23.2918C173.506 22.1139 174.025 21.0595 174.684 19.9969C175.047 19.1731 175.335 19.0084 175.986 19.1731C176.544 19.2137 177.096 19.3131 177.633 19.4697C178.12 19.5511 178.566 19.7915 178.902 20.1534C179.331 20.9672 179.85 21.7299 180.45 22.4269C180.704 22.908 180.837 23.4439 180.837 23.9879C180.837 24.5319 180.704 25.0678 180.45 25.5489C179.964 26.8669 179.948 25.8701 179.454 27.2623C178.268 30.03 176.414 32.2047 175.393 34.6759C174.042 37.7815 177.477 34.7171 177.872 33.5968Z" fill="#454545"/>
<path d="M51.2306 66.1442C52.056 66.1182 52.8592 66.4135 53.4712 66.9679C53.7514 67.2327 53.9746 67.552 54.1272 67.9061C54.2797 68.2602 54.3584 68.6417 54.3584 69.0273C54.3584 69.4128 54.2797 69.7943 54.1272 70.1484C53.9746 70.5025 53.7514 70.8218 53.4712 71.0866C52.8592 71.641 52.056 71.9363 51.2306 71.9104H49.2207V66.1442H51.2306ZM50.6128 70.7901H51.2306C51.4618 70.8015 51.6927 70.7642 51.9084 70.6804C52.1242 70.5967 52.3199 70.4684 52.4827 70.304C52.7767 69.9308 52.9365 69.4694 52.9365 68.9943C52.9365 68.5192 52.7767 68.0578 52.4827 67.6846C52.3199 67.5201 52.1242 67.3919 51.9084 67.3082C51.6927 67.2244 51.4618 67.1871 51.2306 67.1985H50.6128V70.7901Z" fill="#454545"/>
<path d="M62.4001 66.144V67.1984H60.3408V68.4258H62.1613V69.4802H60.3408V70.8064H62.4001V71.9102H58.9404V66.144H62.4001Z" fill="#454545"/>
<path d="M69.2617 67.1901C69.1064 67.182 68.9538 67.2319 68.8333 67.3301C68.7779 67.3794 68.7344 67.4406 68.7059 67.509C68.6774 67.5775 68.6646 67.6515 68.6686 67.7255C68.6648 67.8025 68.6767 67.8794 68.7036 67.9516C68.7306 68.0239 68.7719 68.0899 68.8251 68.1456C68.9328 68.2596 69.0695 68.3422 69.2205 68.3845C69.3935 68.4422 69.5747 68.4998 69.7806 68.5493C69.9844 68.6011 70.1852 68.6644 70.382 68.7387C70.5751 68.8093 70.7602 68.9004 70.9339 69.0106C71.105 69.128 71.2438 69.2866 71.3375 69.4719C71.4422 69.693 71.493 69.9357 71.4858 70.1803C71.4869 70.4168 71.4349 70.6507 71.3337 70.8645C71.2325 71.0784 71.0846 71.2668 70.9009 71.4159C70.4643 71.776 69.9094 71.9609 69.344 71.9348C68.7899 71.9656 68.2424 71.8025 67.7954 71.4735C67.5989 71.3168 67.4426 71.1155 67.3395 70.8863C67.2364 70.657 67.1893 70.4066 67.2023 70.1555H68.685C68.6787 70.2484 68.6926 70.3415 68.7257 70.4285C68.7589 70.5154 68.8106 70.5942 68.8772 70.6592C68.9438 70.7242 69.0237 70.774 69.1114 70.8051C69.1991 70.8362 69.2925 70.8478 69.3852 70.8393C69.5561 70.8501 69.7245 70.7939 69.8548 70.6828C69.9109 70.6319 69.9554 70.5694 69.9853 70.4998C70.0151 70.4301 70.0296 70.3549 70.0277 70.2791C70.0296 70.2061 70.0166 70.1334 69.9898 70.0655C69.9629 69.9975 69.9226 69.9357 69.8712 69.8837C69.7573 69.7716 69.6193 69.687 69.4676 69.6366C69.2866 69.5723 69.1024 69.5173 68.9157 69.4719C68.7079 69.4209 68.5042 69.3549 68.3061 69.2741C68.1155 69.2036 67.9332 69.1124 67.7624 69.0023C67.5876 68.8927 67.4476 68.7355 67.3588 68.5493C67.2485 68.3328 67.1946 68.0919 67.2023 67.8491C67.1939 67.6046 67.2432 67.3616 67.3463 67.1398C67.4493 66.918 67.6032 66.7235 67.7954 66.5723C68.2291 66.2404 68.7655 66.0713 69.3111 66.0945C69.8409 66.065 70.3655 66.2129 70.8021 66.5146C70.999 66.6709 71.1557 66.8722 71.2589 67.1015C71.3621 67.3308 71.4088 67.5815 71.3951 67.8326H69.8877C69.8748 67.6562 69.8055 67.4887 69.69 67.3548C69.5746 67.2454 69.4206 67.1862 69.2617 67.1901Z" fill="#454545"/>
<path d="M76.3125 71.9102V66.144H77.6964V71.9102H76.3125Z" fill="#454545"/>
<path d="M83.159 71.0862C82.6154 70.5253 82.3115 69.7749 82.3115 68.9939C82.3115 68.2129 82.6154 67.4625 83.159 66.9016C83.4322 66.6324 83.7568 66.4207 84.1134 66.2793C84.4699 66.1378 84.8513 66.0693 85.2348 66.0779C85.8386 66.0671 86.4311 66.2426 86.9317 66.5803C87.4234 66.9173 87.7863 67.4109 87.9614 67.9807H86.3139C86.2203 67.7851 86.0711 67.6215 85.8851 67.5101C85.699 67.3988 85.4843 67.3447 85.2677 67.3547C85.06 67.3436 84.8522 67.3776 84.6589 67.4544C84.4655 67.5311 84.291 67.6489 84.1474 67.7995C83.8802 68.1403 83.735 68.5608 83.735 68.9939C83.735 69.427 83.8802 69.8475 84.1474 70.1883C84.2869 70.3374 84.4571 70.4545 84.6463 70.5313C84.8355 70.6081 85.0391 70.6428 85.243 70.6332C85.5381 70.6499 85.8297 70.5624 86.0668 70.386C86.2798 70.2224 86.4285 69.9892 86.4869 69.727H84.8394V68.6726H87.9367V69.727C87.8182 70.2837 87.5304 70.79 87.1129 71.1768C86.8773 71.4071 86.597 71.5865 86.2892 71.704C85.9581 71.8432 85.6021 71.9133 85.243 71.9099C84.8581 71.9196 84.4752 71.8517 84.1172 71.7102C83.7591 71.5686 83.4332 71.3564 83.159 71.0862Z" fill="#454545"/>
<path d="M96.2971 66.144H97.681V71.9102H96.2971L93.9659 68.3105V71.9102H92.582V66.144H93.9659L96.2971 69.7438V66.144Z" fill="#454545"/>
<path d="M110.721 67.1903C110.568 67.181 110.418 67.2312 110.301 67.3303C110.243 67.3776 110.196 67.4382 110.166 67.507C110.136 67.5758 110.123 67.6508 110.128 67.7257C110.124 67.8807 110.18 68.0312 110.285 68.1458C110.397 68.2583 110.536 68.3405 110.688 68.3847C110.869 68.449 111.053 68.504 111.24 68.5495C111.447 68.6013 111.65 68.6646 111.85 68.7389C112.04 68.8095 112.223 68.9006 112.393 69.0108C112.566 69.1259 112.706 69.2851 112.797 69.4721C112.908 69.6911 112.962 69.9349 112.953 70.1805C112.955 70.4179 112.902 70.6526 112.799 70.8666C112.697 71.0807 112.546 71.2686 112.36 71.4161C111.928 71.7778 111.375 71.9631 110.812 71.935C110.256 71.961 109.707 71.7985 109.255 71.4737C109.061 71.3153 108.907 71.1134 108.805 70.8845C108.704 70.6555 108.657 70.4059 108.67 70.1558H110.177C110.172 70.2483 110.187 70.3408 110.221 70.4271C110.255 70.5134 110.306 70.5915 110.373 70.6563C110.439 70.721 110.518 70.7708 110.605 70.8024C110.692 70.834 110.785 70.8466 110.878 70.8395C110.962 70.8462 111.048 70.8358 111.128 70.8089C111.209 70.782 111.283 70.7392 111.347 70.683C111.403 70.6321 111.448 70.5697 111.478 70.5C111.508 70.4303 111.522 70.3551 111.52 70.2793C111.524 70.206 111.512 70.1328 111.485 70.0646C111.458 69.9963 111.417 69.9347 111.364 69.8839C111.254 69.7702 111.118 69.6853 110.968 69.6368C110.784 69.5725 110.597 69.5175 110.408 69.4721C110.203 69.4211 110.002 69.355 109.807 69.2743C109.614 69.2038 109.429 69.1127 109.255 69.0025C109.082 68.8905 108.943 68.734 108.851 68.5495C108.748 68.331 108.697 68.0911 108.703 67.8493C108.695 67.6048 108.744 67.3618 108.847 67.14C108.95 66.9182 109.104 66.7237 109.296 66.5725C109.729 66.24 110.266 66.0708 110.812 66.0947C111.341 66.0665 111.866 66.2142 112.303 66.5148C112.5 66.6711 112.656 66.8724 112.76 67.1017C112.863 67.331 112.909 67.5817 112.896 67.8328H111.38C111.375 67.6547 111.305 67.4846 111.182 67.355C111.122 67.2963 111.049 67.2512 110.97 67.2228C110.89 67.1944 110.805 67.1833 110.721 67.1903Z" fill="#454545"/>
<path d="M117.385 67.2314V66.144H121.891V67.1984H120.326V71.9102H118.933V67.2643L117.385 67.2314Z" fill="#454545"/>
<path d="M126.413 69.5791V66.144H127.805V69.5461C127.778 69.8437 127.87 70.1399 128.061 70.3698C128.156 70.4647 128.271 70.5381 128.398 70.5849C128.524 70.6318 128.659 70.6511 128.794 70.6417C128.931 70.6514 129.068 70.6322 129.197 70.5854C129.326 70.5386 129.444 70.4651 129.543 70.3698C129.639 70.2566 129.712 70.1256 129.757 69.9842C129.802 69.8429 129.819 69.694 129.807 69.5461V66.144H131.199V69.5461C131.209 70.005 131.086 70.457 130.845 70.8476C130.631 71.2027 130.319 71.4887 129.947 71.6713C129.577 71.8384 129.175 71.9227 128.769 71.9185C128.161 71.9288 127.572 71.708 127.121 71.3007C126.886 71.0819 126.701 70.8148 126.578 70.5176C126.456 70.2204 126.4 69.9002 126.413 69.5791Z" fill="#454545"/>
<path d="M138.11 66.1443C138.938 66.117 139.744 66.4124 140.359 66.9681C140.636 67.2347 140.856 67.5546 141.007 67.9084C141.157 68.2623 141.235 68.6429 141.235 69.0274C141.235 69.412 141.157 69.7926 141.007 70.1464C140.856 70.5003 140.636 70.8201 140.359 71.0868C139.744 71.6424 138.938 71.9378 138.11 71.9105H136.108V66.1443H138.11ZM137.492 70.7902H138.11C138.341 70.8017 138.572 70.7643 138.788 70.6806C139.004 70.5969 139.199 70.4686 139.362 70.3042C139.66 69.9328 139.823 69.4707 139.823 68.9945C139.823 68.5182 139.66 68.0561 139.362 67.6847C139.201 67.5177 139.006 67.3877 138.79 67.3038C138.573 67.2199 138.342 67.184 138.11 67.1987H137.492V70.7902Z" fill="#454545"/>
<path d="M145.837 71.9102V66.144H147.246V71.9102H145.837Z" fill="#454545"/>
<path d="M152.691 71.0862C152.417 70.8111 152.203 70.4828 152.061 70.1214C151.92 69.7601 151.854 69.3735 151.868 68.9856C151.852 68.5988 151.917 68.2129 152.059 67.8526C152.201 67.4924 152.416 67.1656 152.691 66.8933C153.252 66.3746 153.987 66.0864 154.751 66.0864C155.514 66.0864 156.25 66.3746 156.81 66.8933C157.228 67.3014 157.514 67.8253 157.632 68.3976C157.749 68.9698 157.693 69.5641 157.469 70.1039C157.246 70.6437 156.866 71.1042 156.379 71.4261C155.891 71.748 155.318 71.9165 154.734 71.9099C154.356 71.9155 153.98 71.8454 153.63 71.704C153.279 71.5626 152.96 71.3525 152.691 71.0862ZM155.863 70.18C156.125 69.8369 156.266 69.4173 156.266 68.9856C156.266 68.554 156.125 68.1343 155.863 67.7912C155.721 67.6428 155.549 67.5263 155.359 67.4496C155.168 67.3729 154.964 67.3377 154.759 67.3464C154.555 67.3378 154.352 67.3731 154.163 67.4498C153.974 67.5265 153.803 67.643 153.663 67.7912C153.396 68.132 153.251 68.5526 153.251 68.9856C153.251 69.4187 153.396 69.8392 153.663 70.18C153.803 70.3283 153.974 70.4447 154.163 70.5215C154.352 70.5982 154.555 70.6335 154.759 70.6249C154.962 70.6368 155.166 70.6055 155.356 70.533C155.546 70.4606 155.719 70.3488 155.863 70.2048V70.18Z" fill="#454545"/>
</svg>
