<svg width="101" height="72" viewBox="0 0 101 72" fill="none" xmlns="http://www.w3.org/2000/svg">
<path d="M65.411 15.1468C65.4357 13.6771 65.1707 12.2169 64.631 10.8496C64.1102 9.54868 63.3566 8.35352 62.4073 7.32272C62.476 6.93249 62.4592 6.532 62.358 6.14891C62.2568 5.76582 62.0736 5.40925 61.8211 5.10388C60.8518 3.82858 59.6421 2.75551 58.2603 1.94521C57.0434 1.17725 55.5813 0.896967 54.1666 1.16038C53.7719 0.889714 53.3323 0.691227 52.8683 0.57417C52.4993 0.49611 52.1181 0.49611 51.7492 0.57417C51.3325 0.661373 50.9207 0.763098 50.5041 0.864835L49.6224 1.03441H49.4819C48.7794 1.03441 48.0624 1.03441 47.3599 1.03441C47.0014 1.03441 46.6623 1.07317 46.3038 1.12161C45.8851 1.1858 45.4709 1.27641 45.0636 1.39291H45.1459C44.9619 1.39291 44.7826 1.42682 44.6034 1.45104C43.7026 1.57126 42.8204 1.80401 41.9776 2.14382C40.1463 3.07883 38.1503 4.24637 37.2638 5.58349C36.7357 6.47974 36.2319 7.23551 35.8104 8.0058C35.7911 8.0272 35.7733 8.04987 35.7571 8.07363C35.6425 8.1738 35.5371 8.28405 35.4422 8.40306C35.3258 8.54233 35.2296 8.69727 35.1563 8.86331C35.2446 8.70552 35.345 8.55488 35.4567 8.41276L35.5488 8.49026C35.4567 8.66467 35.3744 8.84879 35.292 9.03289C34.6089 9.94852 34.0905 11.3099 33.6642 11.6054C33.9694 12.177 34.1487 11.2662 34.4297 10.5008C34.3085 10.9029 34.2165 11.3631 34.1051 11.8234C33.9936 12.2836 33.9452 12.7923 33.8677 13.2283C33.8677 13.2816 33.8677 13.3301 33.8677 13.3785C33.8435 12.9812 33.7223 12.6809 34.0227 12.2885C33.921 12.0365 33.795 12.0947 33.6303 12.3611C33.4995 13.2622 33.1701 14.9675 33.5237 15.0693C33.47 15.2378 33.3985 15.4002 33.3105 15.5537L33.6158 16.0043C33.5897 16.0688 33.5686 16.1352 33.5528 16.2029C33.597 16.1476 33.6375 16.0893 33.6739 16.0285C33.7902 17.1912 33.9307 18.4508 34.4878 19.2017C34.581 19.2544 34.6782 19.2997 34.7785 19.3374C34.7106 19.691 34.5556 19.2259 34.3618 19.1581C34.5798 19.9478 34.8463 20.5098 35.1999 20.6115C35.074 20.1852 34.9335 19.7685 34.8366 19.3422C34.9237 19.3671 35.016 19.3671 35.1031 19.3422C35.4276 19.6959 35.7086 19.9672 35.7086 20.1173C35.8346 20.6648 35.9218 21.1589 36.0042 21.6337C36.072 22.0261 36.135 22.3992 36.2028 22.7625H36.1059C35.8451 22.279 35.6091 21.7826 35.3986 21.2752C35.4177 21.6219 35.4614 21.9667 35.5294 22.3071L35.8588 22.5009C35.884 22.5418 35.9 22.5876 35.9059 22.6353C35.9117 22.6829 35.9072 22.7313 35.8927 22.7771C35.8927 22.7771 35.8927 22.7771 35.8927 22.8061C35.8661 22.8338 35.835 22.8567 35.8007 22.8739L35.8443 22.9224C35.8302 22.9632 35.8204 23.0055 35.8152 23.0484H35.9315L36.2222 23.3826C36.2561 23.3826 36.2706 23.3826 36.2803 23.339C36.2588 23.9913 36.4661 24.6306 36.8665 25.1461H36.9149C37.1471 25.6307 37.4384 26.0847 37.7821 26.4977C38.0372 26.6983 38.336 26.836 38.6542 26.8998L38.7268 26.9628C38.9238 27.0334 39.1354 27.0534 39.3421 27.0209C39.4366 27.0394 39.5344 27.0293 39.6231 26.9919C39.4481 26.4356 39.1829 25.912 38.8383 25.4416C38.877 25.4755 38.9158 25.5191 38.9594 25.553L38.9061 25.4658L38.8334 25.4319C38.5393 25.0053 38.2939 24.547 38.1019 24.0657C38.1374 23.7569 38.1568 23.4464 38.16 23.1356C38.1939 22.593 38.9206 23.1792 39.1289 23.2761C39.0849 22.6885 38.939 22.1131 38.6978 21.5756C39.1481 22.1833 39.6594 22.7434 40.2238 23.247L40.0203 23.4214C40.5678 23.8041 40.4224 24.1965 41.1055 24.555C41.154 24.1675 40.8488 23.9155 40.6211 23.5861C42.2629 24.918 44.2482 25.7578 46.3474 26.0084L49.6078 26.3863C50.1387 26.4439 50.673 26.4634 51.2066 26.4444C50.6767 26.7198 50.1132 26.925 49.5303 27.0548C49.5541 27.6671 49.7433 28.2614 50.0778 28.7747C50.4847 29.3173 51.2647 29.7775 52.7278 29.7824C53.1737 29.7723 53.6171 29.7139 54.0504 29.608C54.773 29.6474 55.4979 29.6051 56.2111 29.482C56.3806 29.3367 56.5744 29.1865 56.7827 29.0363C56.991 28.8861 57.1945 28.7069 57.4174 28.5518C57.8728 28.2321 58.3379 27.8639 58.7932 27.4957C58.9677 27.3601 59.1324 27.2196 59.2777 27.0791L59.5878 26.9919C59.7573 26.7496 60.0432 26.4444 60.3145 26.1295C60.5954 25.8486 60.857 25.5772 61.0654 25.3399C62.6093 24.061 63.8001 22.4082 64.5244 20.5389C64.694 20.0883 64.8296 19.6232 64.9701 19.163C65.1106 18.7027 65.1688 18.228 65.256 17.7629C65.3432 17.2978 65.348 16.823 65.3916 16.3579C65.4352 15.8929 65.411 15.5828 65.411 15.1468ZM36.1447 22.9951H36.1883C36.1883 23.0532 36.1883 23.1065 36.1883 23.1598C36.1766 23.1041 36.1621 23.0492 36.1447 22.9951Z" fill="#C3D8CC"/>
<path d="M48.8865 30.2765C48.6346 30.2765 48.2422 30.1844 48.3681 30.0149L47.9902 30.1844L49.119 30.3492C48.9301 30.1408 48.5813 29.9761 48.6346 29.7L48.1501 29.6079C48.4488 29.764 48.7024 29.9942 48.8865 30.2765Z" fill="#C3D8CC"/>
<path d="M49.0899 29.821C49.3079 29.6223 49.0027 29.5061 48.6054 29.4092C48.1694 29.5303 49.2255 29.3704 48.8767 29.7241C48.9784 29.7338 49.0608 29.7483 49.0899 29.821Z" fill="#C3D8CC"/>
<path d="M48.8763 29.7247C48.7895 29.7158 48.7036 29.6996 48.6195 29.6763C48.619 29.6843 48.619 29.6924 48.6195 29.7005L48.852 29.7489L48.8763 29.7247Z" fill="#C3D8CC"/>
<path d="M46.1533 29.5493C46.1846 29.6404 46.2509 29.7153 46.3374 29.7576C46.352 29.6995 46.2599 29.6268 46.1533 29.5493Z" fill="#C3D8CC"/>
<path d="M45.7793 28.8086C46.0748 28.9782 46.2298 29.1041 46.1233 29.2931L45.8713 29.2156C45.8084 29.3221 45.9973 29.4481 46.1523 29.5644C46.1039 29.3027 46.6271 29.1526 45.7793 28.8086Z" fill="#C3D8CC"/>
<path d="M47.316 28.5469L47.1367 28.5953L48.2461 29.1718C48.1977 28.7116 47.7084 29.0023 47.316 28.5469Z" fill="#C3D8CC"/>
<path d="M34.5941 21.8861L34.6377 21.7892L34.5166 21.6826C34.5408 21.7359 34.5602 21.8037 34.5941 21.8861Z" fill="#C3D8CC"/>
<path d="M34.2012 20.4565C34.2257 20.8123 34.2693 21.1665 34.332 21.5175C34.3976 21.5675 34.4591 21.6226 34.5161 21.6822C34.2932 21.0331 34.613 21.1445 34.2012 20.4565Z" fill="#C3D8CC"/>
<path d="M34.6367 21.7891C34.8897 22.0638 35.0711 22.3965 35.1648 22.758C35.2888 23.2234 35.5308 23.6488 35.8672 23.9934C35.5348 23.1732 35.1497 22.3754 34.7142 21.605L34.6367 21.7891Z" fill="#C3D8CC"/>
<path d="M0.662109 59.1548V36.1816H6.25764V59.1548H0.662109Z" fill="#454545"/>
<path d="M12.0366 56.8348C10.341 55.1295 9.49483 52.8606 9.49806 50.0281C9.50129 47.1956 10.3475 44.9348 12.0366 43.2457C13.7226 41.5533 15.9091 40.7087 18.5963 40.7119C20.6101 40.6473 22.5921 41.226 24.2548 42.3639C25.8315 43.5037 26.928 45.189 27.3311 47.0923H21.2802C21.0705 46.5889 20.7114 46.162 20.2513 45.8692C19.7913 45.5763 19.2525 45.4317 18.7077 45.4548C18.1952 45.4211 17.6826 45.5192 17.2187 45.7396C16.7548 45.9601 16.3551 46.2957 16.0577 46.7144C15.4881 47.7286 15.189 48.8722 15.189 50.0354C15.189 51.1985 15.4881 52.3422 16.0577 53.3564C16.3382 53.7655 16.7187 54.096 17.1631 54.3165C17.6074 54.537 18.1008 54.6401 18.5963 54.616C19.1645 54.6473 19.7306 54.5234 20.2337 54.2575C20.6956 53.9378 21.0583 53.4945 21.2802 52.9785H27.3311C26.8884 54.8594 25.7868 56.5196 24.2257 57.6584C22.5889 58.8356 20.6118 59.4447 18.5963 59.3928C15.9123 59.3863 13.7258 58.5337 12.0366 56.8348Z" fill="#454545"/>
<path d="M31.6042 56.8013C29.7568 55.0766 28.8347 52.8158 28.8379 50.0188C28.8411 47.2219 29.7568 44.9611 31.5848 43.2364C33.4733 41.6024 35.887 40.7031 38.3842 40.7031C40.8815 40.7031 43.2952 41.6024 45.1836 43.2364C47.0052 44.9288 47.916 47.1896 47.916 50.0188C47.916 52.8481 47.0101 55.1089 45.1982 56.8013C44.294 57.658 43.2292 58.3273 42.0651 58.7704C40.901 59.2136 39.6607 59.422 38.4157 59.3835C35.8942 59.4509 33.4474 58.5233 31.6042 56.8013ZM41.1093 53.4101C41.8522 52.6253 42.222 51.4948 42.2187 50.0188C42.2187 48.5364 41.8409 47.4028 41.0754 46.6276C40.7271 46.2568 40.3059 45.962 39.8381 45.7619C39.3704 45.5618 38.8663 45.4607 38.3576 45.4649C37.8516 45.4601 37.3503 45.5611 36.8856 45.7613C36.4209 45.9615 36.0032 46.2566 35.6591 46.6276C34.9082 47.3979 34.5303 48.5315 34.5303 50.0188C34.5303 51.5061 34.9179 52.6349 35.693 53.4101C36.0428 53.784 36.4661 54.0815 36.9362 54.2841C37.4064 54.4867 37.9134 54.5899 38.4254 54.5873C38.9292 54.5952 39.429 54.4961 39.8916 54.2965C40.3543 54.0969 40.7693 53.8014 41.1093 53.4294V53.4101Z" fill="#454545"/>
<path d="M56.783 40.8957V43.5797C57.9425 41.6612 59.7867 40.702 62.3156 40.702C63.2639 40.6663 64.2088 40.8347 65.0864 41.1957C65.964 41.5568 66.7538 42.1021 67.4024 42.7948C68.6943 44.1901 69.3403 46.0875 69.3403 48.4872V59.1454H63.7884V49.243C63.8198 48.7485 63.7534 48.2526 63.5929 47.7837C63.4325 47.3149 63.1812 46.8823 62.8533 46.5106C62.1448 45.884 61.2316 45.5381 60.2857 45.5381C59.3398 45.5381 58.4266 45.884 57.7181 46.5106C57.3891 46.8815 57.1371 47.314 56.9766 47.7831C56.8161 48.2521 56.7503 48.7484 56.783 49.243V59.1551H51.1875V40.8957H56.783Z" fill="#454545"/>
<path d="M78.8634 38.8368C78.2418 39.4426 77.4083 39.7816 76.5404 39.7816C75.6725 39.7816 74.8389 39.4426 74.2174 38.8368C73.6083 38.2101 73.2676 37.3707 73.2676 36.4968C73.2676 35.623 73.6083 34.7836 74.2174 34.1569C74.8448 33.5756 75.6734 33.2607 76.5285 33.2786C77.3836 33.2964 78.1984 33.6457 78.8009 34.2527C79.4035 34.8596 79.7468 35.6769 79.7585 36.5321C79.7701 37.3873 79.4492 38.2136 78.8634 38.8368ZM73.762 59.1551V40.8958H79.3478V59.1551H73.762Z" fill="#454545"/>
<path d="M85.1626 56.8347C83.4702 55.1294 82.624 52.8605 82.624 50.028C82.624 47.1955 83.4702 44.9347 85.1626 43.2456C86.855 41.5532 89.0415 40.7086 91.7222 40.7118C93.7374 40.6479 95.7208 41.2265 97.3856 42.3638C98.9592 43.5065 100.055 45.1905 100.462 47.0922H94.3674C94.1585 46.5892 93.8003 46.1624 93.3411 45.8696C92.8819 45.5767 92.3439 45.4319 91.7997 45.4547C91.2871 45.4196 90.774 45.517 90.3098 45.7376C89.8457 45.9582 89.4462 46.2946 89.1497 46.7143C88.5802 47.7285 88.281 48.8721 88.281 50.0353C88.281 51.1984 88.5802 52.3421 89.1497 53.3563C89.4271 53.7674 89.8064 54.0995 90.2504 54.3203C90.6945 54.5411 91.1883 54.6429 91.6835 54.6159C92.2517 54.6477 92.8179 54.5238 93.3209 54.2574C93.7828 53.9377 94.1455 53.4944 94.3674 52.9784H100.423C99.9768 54.859 98.8739 56.5185 97.3129 57.6583C95.6771 58.8375 93.6993 59.4468 91.6835 59.3927C89.0092 59.3862 86.8356 58.5336 85.1626 56.8347Z" fill="#454545"/>
<path d="M24.2114 67.2407V71.8916H23.0778V69.2658L21.9974 71.8916H21.1545L20.079 69.2658V71.8916H18.9453V67.2407H20.2437L21.5808 70.443L22.913 67.2407H24.2114Z" fill="#454545"/>
<path d="M31.053 67.2261V68.0884H29.3719V69.0864H30.8544V69.9487H29.3719V71.0291H31.053V71.8914H28.2383V67.2261H31.053Z" fill="#454545"/>
<path d="M38.0865 67.2261H39.2201V71.8914H38.0865L36.1922 68.9556V71.8914H35.0586V67.2261H36.1922L38.0865 70.1619V67.2261Z" fill="#454545"/>
<path d="M44.8262 68.0688C44.6998 68.0588 44.5746 68.0988 44.4773 68.1802C44.431 68.22 44.3947 68.2701 44.3711 68.3264C44.3476 68.3828 44.3375 68.4438 44.3417 68.5048C44.3378 68.567 44.347 68.6293 44.3687 68.6877C44.3904 68.7461 44.4241 68.7993 44.4677 68.8439C44.5579 68.9357 44.6694 69.004 44.7922 69.0425C44.9279 69.091 45.0781 69.1346 45.2428 69.1782C45.4068 69.2197 45.5685 69.2698 45.7273 69.3284C45.8845 69.3839 46.0342 69.4588 46.173 69.5512C46.3134 69.6448 46.4269 69.7733 46.5024 69.9242C46.5904 70.1051 46.6336 70.3045 46.6284 70.5056C46.6281 70.6991 46.5845 70.8901 46.5006 71.0645C46.4168 71.2389 46.2949 71.3923 46.1439 71.5133C45.7896 71.8064 45.3387 71.9567 44.8794 71.9348C44.4272 71.9566 43.9811 71.8233 43.615 71.5569C43.4549 71.4299 43.3273 71.2665 43.2431 71.0802C43.1588 70.894 43.1202 70.6904 43.1305 70.4862H44.332C44.3353 70.597 44.3699 70.7045 44.4318 70.7964C44.4938 70.8883 44.5805 70.9607 44.6819 71.0053C44.7833 71.0499 44.8952 71.0649 45.0048 71.0485C45.1144 71.0321 45.2171 70.9849 45.3009 70.9126C45.3466 70.8709 45.3828 70.82 45.407 70.7631C45.4312 70.7063 45.443 70.6449 45.4414 70.5831C45.4441 70.4625 45.3988 70.3458 45.3155 70.2585C45.2216 70.1689 45.1091 70.1011 44.986 70.0599C44.8382 70.0071 44.6879 69.9618 44.5355 69.9242C44.3705 69.8841 44.2086 69.8323 44.051 69.7692C43.8935 69.7108 43.7425 69.6361 43.6005 69.5464C43.4613 69.4549 43.3492 69.3278 43.2759 69.1782C43.1868 68.9994 43.1435 68.8013 43.1499 68.6017C43.1439 68.403 43.1845 68.2057 43.2687 68.0256C43.3528 67.8455 43.4781 67.6877 43.6344 67.5649C43.9876 67.2936 44.4247 67.1548 44.8698 67.1725C45.3016 67.1528 45.7282 67.2735 46.0858 67.5165C46.2463 67.6442 46.374 67.8085 46.4583 67.9956C46.5425 68.1826 46.5809 68.3871 46.5702 68.592H45.3397C45.3325 68.4473 45.2741 68.31 45.175 68.2044C45.1299 68.1581 45.0755 68.1221 45.0153 68.0987C44.9551 68.0753 44.8906 68.0651 44.8262 68.0688Z" fill="#454545"/>
<path d="M55.7261 67.2407H56.942L55.6437 71.8916H54.3453L53.5314 68.9412L52.703 71.8916H51.4095L50.0869 67.2407H51.3029L52.1071 70.5835L52.9355 67.2407H54.2242L55.0187 70.5302L55.7261 67.2407Z" fill="#454545"/>
<path d="M63.3616 67.2261V68.0884H61.6757V69.0864H63.163V69.9487H61.6757V71.0291H63.3616V71.8914H60.5469V67.2261H63.3616Z" fill="#454545"/>
<path d="M70.2994 71.8914L70.0378 71.1066H68.3713L68.1145 71.8914H66.9082L68.5215 67.2261H69.9022L71.5106 71.8914H70.2994ZM68.6571 70.2443H69.7568L69.2045 68.5922L68.6571 70.2443Z" fill="#454545"/>
<path d="M76.2333 70.0794V71.8913H75.0996V67.2404H76.926C77.3822 67.2134 77.8314 67.3625 78.1808 67.6571C78.324 67.7827 78.4385 67.9377 78.5162 68.1117C78.594 68.2856 78.6332 68.4743 78.6313 68.6648C78.6297 68.9445 78.5454 69.2176 78.3891 69.4496C78.1986 69.7259 77.9118 69.9211 77.5849 69.997L78.7282 71.8913H77.4105L76.3641 70.0794H76.2333ZM76.2333 68.1028V69.2122H76.926C77.0003 69.2173 77.0748 69.2063 77.1444 69.1801C77.2141 69.1538 77.2772 69.1128 77.3296 69.06C77.382 69.0071 77.4224 68.9436 77.4481 68.8737C77.4737 68.8039 77.4841 68.7293 77.4783 68.6551C77.4815 68.5807 77.4699 68.5064 77.4441 68.4365C77.4183 68.3667 77.3789 68.3026 77.3281 68.2481C77.2758 68.1955 77.2129 68.1544 77.1436 68.1277C77.0743 68.101 77.0002 68.0892 76.926 68.0931L76.2333 68.1028Z" fill="#454545"/>
</svg>
