<svg width="116" height="72" viewBox="0 0 116 72" fill="none" xmlns="http://www.w3.org/2000/svg">
<path d="M23.6834 47.7994L23.985 48.7082C22.849 45.7255 22.1616 42.5907 21.9453 39.4063C21.9646 41.2187 22.1383 43.0261 22.4647 44.809C22.807 46.6394 23.3433 48.4281 24.0645 50.1448C25.4634 53.5456 27.6706 56.3643 29.8736 57.9935C29.8024 58.4123 30.8536 59.9954 32.1101 61.3063C32.4242 61.633 32.7383 61.9555 33.0399 62.2529L33.9068 63.0026C34.1864 63.273 34.5004 63.5054 34.8408 63.6936L36.6836 64.7909L38.5808 65.8128C37.7223 65.3186 36.8302 64.8831 36.0009 64.347C36.8385 64.8831 37.7223 65.3186 38.5808 65.8128C40.6401 66.8574 42.7587 67.7804 44.9259 68.577C47.1718 69.3691 49.4661 70.0168 51.7946 70.5162C54.2069 71.0029 56.653 71.304 59.1114 71.4166C61.6415 71.5035 64.1743 71.3633 66.6794 70.9978L69.1924 70.4869C69.6989 70.383 70.1995 70.2515 70.6917 70.0932L72.3168 69.6073C72.8822 69.444 73.435 69.1885 74.0172 68.9791C74.5993 68.7697 75.2024 68.5603 75.7762 68.2629C76.9787 67.7236 78.1503 67.1182 79.2859 66.4494C80.4334 65.7917 81.5448 65.0731 82.6156 64.2967C83.1516 63.9282 83.6333 63.5009 84.1275 63.1156C84.6217 62.7303 85.1075 62.3534 85.5305 61.9304C86.3975 61.0927 87.2351 60.3724 87.8927 59.6101C88.2361 59.2416 88.5586 58.8939 88.856 58.5673C89.1533 58.2406 89.3962 57.9097 89.635 57.6249C90.19 56.9639 90.7087 56.2733 91.1888 55.5559L90.6946 56.2344L90.3218 56.6909L89.413 57.805C91.3593 55.0719 92.8841 52.0619 93.9362 48.8758C93.5599 49.4222 93.2132 49.9884 92.8976 50.572L93.5719 49.1271C93.664 48.7711 93.731 48.2894 93.8692 47.7575C94.0075 47.2256 94.1792 46.656 94.2881 46.0571C94.397 45.4582 94.51 44.8551 94.6064 44.3064C94.6902 43.8317 94.7406 43.3517 94.7571 42.8699C94.8074 43.0458 94.8786 42.8322 94.954 42.4511C94.9917 42.2542 95.0377 42.0113 95.0713 41.7516L95.1383 40.9391L95.021 41.358C95.1914 39.2263 95.1549 37.0831 94.9121 34.9584C94.7488 33.8988 94.6441 32.8643 94.4179 31.8508C94.3202 31.3538 94.2238 30.8679 94.1289 30.3933L93.7897 29.0279C93.6968 28.6656 93.6378 28.2955 93.6137 27.9222C93.2284 26.8249 92.885 25.7192 92.4285 24.6554C92.5625 24.7476 92.3531 24.0565 92.194 23.533C92.0348 23.0095 91.8924 22.6618 92.2693 23.4032C91.0925 21.0703 90.0245 18.6454 88.5544 16.6308C86.1998 12.7384 83.1787 9.29065 79.6294 6.44515C76.019 3.53938 71.7935 1.49536 67.2742 0.468594C67.3439 0.505908 67.4111 0.54788 67.4752 0.594235C66.692 0.435083 65.9214 0.338759 65.1633 0.225678C64.4053 0.112597 63.6263 0.125159 62.8431 0.0665244L62.2525 0.0288321C62.0515 0.0288321 61.8337 0.0288321 61.6494 0.0288321H60.393C59.5553 -0.00886164 58.6632 0.079092 57.7083 0.0958448C57.3691 0.150291 57.0131 0.183793 56.6487 0.254992L55.543 0.497908C54.8063 0.636091 54.0779 0.815062 53.361 1.034C52.6741 1.24759 52.0417 1.45282 51.5224 1.64966C51.1184 1.79451 50.7364 1.99466 50.3874 2.24439C49.6586 2.4873 49.043 2.70509 48.4818 2.91031C47.9205 3.11553 47.4514 3.38358 46.9698 3.60974L45.4746 4.32173L43.7365 5.26826C44.126 5.18869 43.4936 5.55725 42.9449 5.88393C42.3963 6.21061 41.9188 6.5331 42.6183 6.23993C44.5239 5.63264 44.503 5.33528 46.1196 4.85782L46.0484 4.81594C49.6252 3.3584 53.4084 2.47088 57.2602 2.18575C61.0651 1.92206 64.8845 2.41603 68.4971 3.63906C71.0113 4.41816 73.3912 5.57778 75.5542 7.07757C77.7825 8.61442 79.8185 10.4128 81.6188 12.4343C83.6071 14.6238 85.3565 17.019 86.8372 19.5793C88.2249 21.9751 89.3967 24.4895 90.3386 27.093C90.5143 27.6005 90.6542 28.1197 90.7574 28.6468C90.8496 29.1326 90.8914 29.6101 90.9752 30.1168C91.624 32.5633 92.0074 35.0726 92.1186 37.6011C92.2419 40.2376 92.0023 42.8786 91.4066 45.4498C91.4317 45.3577 91.4527 45.2656 91.4652 45.2069C91.4059 45.5293 91.319 45.846 91.2055 46.1534L90.9124 47.0413C90.8077 47.3303 90.7281 47.6193 90.6025 47.879C90.4768 48.1386 90.3553 48.4193 90.2297 48.6873C89.7774 49.7721 89.1617 50.7814 88.5544 51.9457C88.6089 51.9457 88.3911 52.3143 88.3073 52.4944C88.1258 52.6954 87.967 52.9159 87.834 53.1519L87.4152 53.843L86.8121 54.6806C86.5943 54.9905 86.3598 55.3214 86.1085 55.669C85.8572 56.0166 85.5557 56.3517 85.2709 56.7203C84.9861 57.0888 84.6719 57.4574 84.3495 57.8301L83.315 58.9065C82.0015 60.268 80.5706 61.5111 79.0388 62.6214C78.2336 63.2014 77.3944 63.7329 76.5259 64.2129C76.2872 64.3637 76.0233 64.4894 75.7636 64.6318C73.2018 65.8841 70.4721 66.7588 67.6595 67.2284C65.0744 67.6874 62.4531 67.9117 59.8276 67.8986C58.7763 68.0577 57.5785 68.041 56.6739 68.1415C55.8362 67.9321 55.6352 68.1415 54.5798 67.9781C52.0375 67.0651 50.5256 66.8515 51.8072 67.3541C49.737 66.9468 47.7084 66.351 45.7468 65.5741C44.9092 65.26 44.0464 64.9794 43.2339 64.6066C42.7224 64.4372 42.2577 64.1503 41.877 63.769C41.3655 63.5294 40.8702 63.2566 40.3943 62.9523C40.1054 62.7387 39.8122 62.5042 38.9536 61.9388C38.6901 61.7168 38.4101 61.5151 38.116 61.3357C37.6971 61.0467 37.115 60.7367 36.5915 60.3514C36.0679 59.9661 35.5025 59.6311 35.0963 59.296C34.69 58.9609 34.3759 58.7138 34.2586 58.605L34.5267 58.8102L33.911 58.2196L33.4042 57.5956C33.0748 57.2217 32.7658 56.8302 32.4786 56.4229C32.198 56.0041 31.9174 55.623 31.6159 55.2167C31.3143 54.8104 31.0421 54.3539 30.6987 53.8974C29.7835 52.5644 28.9701 51.1644 28.2653 49.7092C27.8842 48.9889 27.5994 48.2182 27.2685 47.4685C27.0047 46.6937 26.6864 45.9357 26.4769 45.1441C25.5747 42.1267 25.1508 38.9866 25.2205 35.8379C25.032 35.7751 25.2749 37.1404 25.0237 37.2158C25.0083 35.4549 25.1485 33.696 25.4425 31.9596C25.7479 30.2263 26.1577 28.513 26.6696 26.8291C26.8772 26.2994 27.1149 25.782 27.3816 25.2795C27.8423 24.2575 27.5282 24.6303 27.8381 23.8722L28.035 23.8304C28.3868 22.6828 28.8726 22.3017 29.3333 21.2839C29.3903 20.9976 29.5012 20.7248 29.66 20.4798C29.8275 20.551 30.2589 19.416 30.3762 19.5458C30.4849 19.3396 30.6095 19.1422 30.7489 18.9553L31.1677 18.1177C31.2724 17.9041 31.3939 17.6653 31.5154 17.4099C31.6368 17.1544 31.8002 16.9073 31.9342 16.6476C32.4996 15.588 33.1906 14.6079 33.3037 14.3944L33.467 14.2478C33.8859 13.7619 33.9906 13.4729 33.7058 13.7284L34.2586 13.1505L34.2042 13.2258L34.757 12.6521C34.8743 12.5599 35.0544 12.5055 34.9455 12.7191C35.2333 12.3483 35.5589 12.0087 35.9172 11.7055C34.9246 12.472 33.7183 13.4729 32.7341 14.3776C33.1735 13.8258 33.6492 13.3039 34.1581 12.8154C34.4345 12.5892 34.8617 12.2542 35.3266 11.8898C35.7915 11.5254 36.2773 11.115 36.7422 10.7967C36.9223 10.6333 36.9223 10.3779 37.4082 10.0763C37.6971 10.0009 37.9023 9.68682 38.3337 9.48578C38.144 9.67065 37.9411 9.84142 37.7265 9.99674L37.1066 10.4993C37.1945 10.5328 37.4626 10.3444 37.7516 10.114C38.0406 9.88366 38.384 9.66168 38.5892 9.55279C39.0743 9.15007 39.5818 8.77532 40.1095 8.43035C39.9587 8.71934 40.6038 8.22932 40.9723 8.09111C41.3409 7.86076 41.567 7.67229 41.3911 7.72255C41.3911 7.47544 39.8666 8.58113 40.2771 8.09111C40.7255 7.87095 41.1592 7.62193 41.5754 7.34561C41.5335 7.26185 41.2613 7.44194 41.4791 7.21578C41.857 6.95743 42.2564 6.73184 42.6727 6.54148C42.5418 6.63424 42.4014 6.71286 42.2539 6.77602C42.5513 6.61268 41.8351 7.19484 41.1314 7.76443C40.4278 8.33403 39.8331 8.95388 40.1765 8.69421C40.5668 8.23806 41.0128 7.83281 41.5042 7.48801C41.9533 7.17724 42.3814 6.83726 42.7858 6.47027C42.4047 6.63361 42.9659 6.17292 42.5764 6.3572L42.2162 6.69226C41.6885 6.95192 41.3786 6.92679 41.5461 6.76764C41.9649 6.5331 41.4456 7.01893 40.9011 7.50057C40.3566 7.98222 39.8499 8.5225 40.1724 8.25445L39.8624 8.40103C40.2726 8.02454 40.7425 7.71884 41.2529 7.49639C41.211 7.41262 41.6089 7.14876 41.9356 6.9226L42.0654 6.86816C42.4005 6.62524 42.9031 6.3572 42.6183 6.38233C41.5754 6.98543 41.7806 6.58755 42.0403 6.16873C42.3 5.74991 42.5387 5.33109 41.4791 5.88393C42.4549 5.56563 41.2822 6.23155 40.3902 6.7802C39.9516 6.88965 39.5341 7.07078 39.1546 7.31629C38.6102 7.69323 38.8698 7.59271 38.7944 7.70161C38.4636 7.86495 37.8898 8.26282 37.8982 8.12043C37.5631 8.53924 37.182 8.53924 36.7213 8.95807C36.3443 9.35594 36.7841 8.95807 36.5286 9.27637L35.4104 10.1266C35.046 10.4197 34.7277 10.7339 34.4806 10.9642C34.2293 11.0647 33.5424 11.4668 33.8398 10.9642C34.7612 10.1266 33.6765 11.4752 34.5895 10.5454C34.0241 10.7548 35.3811 9.70775 35.4648 9.4439C35.2061 9.5831 34.9644 9.75175 34.7444 9.94648C34.4848 10.181 34.2084 10.4533 33.9613 10.7087L34.0869 10.6333C33.8775 10.8637 33.5341 11.182 33.2158 11.5296C32.9273 11.8502 32.6136 12.1471 32.2776 12.4175C32.3279 12.2458 32.0808 12.4175 32.3781 12.0699L31.7834 12.6897C31.729 12.7903 31.6787 12.895 31.8504 12.7191C31.6503 13.0341 31.4031 13.3165 31.1175 13.5567C30.9437 13.738 30.788 13.9358 30.6526 14.1472C30.4055 14.4991 30.1207 14.9849 29.815 15.4623C29.2286 16.4089 28.7679 17.3889 28.7679 17.3093C28.4732 17.6557 28.2266 18.0403 28.035 18.4527C28.1923 18.2073 28.3322 17.9512 28.4538 17.6863L29.4296 16.011C30.1667 14.8425 30.8955 13.7703 30.6568 14.1054C29.8913 15.0955 29.2117 16.1491 28.6255 17.2549C28.2067 18.0088 27.8381 18.792 27.5198 19.3741C27.3659 19.7575 27.1752 20.125 26.9502 20.4714C26.745 20.8902 26.5314 21.3844 26.657 21.3091C26.3094 21.9959 26.5984 21.0285 26.301 21.4975C26.301 21.4975 26.3597 21.4724 26.301 21.6316L25.9869 22.0504C25.6142 23.1938 24.8645 24.7978 24.676 26.0543C24.6666 25.5101 24.7171 24.9666 24.8268 24.4335L24.9189 24.3162C24.9189 24.1989 25.1409 23.5581 25.053 23.5456C24.8932 23.8819 24.7534 24.2273 24.6342 24.58C24.5336 24.9319 24.4457 25.292 24.3619 25.6941C24.2949 25.8323 24.2195 25.9915 24.1609 26.1129C24.1609 26.1129 24.186 26.1129 24.1986 26.1129C24.0645 26.3517 24.0645 26.3223 24.0645 26.2218C24.062 26.201 24.062 26.1799 24.0645 26.159C23.8635 26.3558 23.7253 27.1139 23.5536 27.9809C23.3819 28.8478 23.2814 29.8404 23.1348 30.5315C23.1096 30.9503 23.1725 30.5775 23.1348 31.1011C22.9672 31.8047 22.8709 32.412 22.7746 33.0276C22.6783 33.6433 22.6071 34.2841 22.5442 35.0338C22.6322 35.5238 22.6741 35.5573 22.8165 34.9793C22.7788 35.3605 22.7578 35.7416 22.7578 36.1227C22.4563 35.0715 22.494 38.2754 22.1924 37.1237C22.1343 37.6819 22.1512 38.2453 22.2427 38.799C22.3306 38.8576 22.4186 38.9539 22.5191 39.7623C22.561 40.9014 22.5191 40.6334 22.5945 41.5799C22.5359 41.8145 22.4395 41.4794 22.3725 41.5297C22.7453 42.9537 22.3725 42.8322 22.6992 44.1892C22.8835 45.0268 23.4363 46.7021 23.5913 46.6728C23.9682 47.8204 23.8593 47.8622 23.6834 47.7994Z" fill="#C3D8CC"/>
<path d="M13.1748 33.426C13.1748 36.8436 10.6828 39.5408 6.89252 39.5408C3.1022 39.5408 0.61022 36.8436 0.61022 33.426C0.555954 32.5693 0.677871 31.7105 0.968405 30.9027C1.25894 30.0949 1.71194 29.3552 2.29946 28.7293C2.88698 28.1034 3.59654 27.6046 4.38435 27.2635C5.17217 26.9225 6.02151 26.7466 6.87996 26.7466C7.73842 26.7466 8.58776 26.9225 9.37558 27.2635C10.1634 27.6046 10.873 28.1034 11.4605 28.7293C12.048 29.3552 12.501 30.0949 12.7915 30.9027C13.0821 31.7105 13.2039 32.5693 13.1497 33.426H13.1748ZM8.98661 33.426C8.98661 28.7227 8.9196 27.2987 6.89252 27.2987C4.86543 27.2987 4.76493 28.7227 4.76493 33.426C4.76493 38.1293 4.84868 39.3858 6.89252 39.3858C8.93636 39.3858 8.99919 38.1503 8.99919 33.426H8.98661Z" fill="#454545"/>
<path d="M31.8466 39.2305V39.3855H28.429C27.2061 39.3855 26.8292 38.6148 26.4187 35.4193C26.1967 33.7021 24.1361 33.8068 24.1361 33.8068H23.3278V37.4463C23.3278 39.1216 23.3948 39.2305 24.1152 39.2305V39.3855H18.9805V39.2305C19.7218 39.2305 19.8767 39.197 19.8767 37.4463V28.9611C19.8767 27.8973 19.7385 27.4324 18.9805 27.4324V27.2983H23.8597C27.2773 27.2983 30.3514 27.7172 30.3514 30.5777C30.3514 33.1534 27.9809 33.6853 26.3307 33.6853C28.3076 33.6853 29.3044 34.1042 30.1462 37.2076C30.4896 38.5101 31.3985 39.197 31.8466 39.2305ZM26.314 30.5777C26.314 27.2983 25.87 27.4533 23.8597 27.4533H23.3278V33.6518H23.8597C26.092 33.6518 26.314 33.6853 26.314 30.5777Z" fill="#454545"/>
<path d="M49.4321 34.8713V35.0262C48.2469 35.0262 48.3348 35.1268 48.3348 38.5611C47.4763 39.1642 45.7758 39.5411 43.9372 39.5411C40.2265 39.5411 37.3408 36.9821 37.3408 33.3426C37.3408 29.703 40.2265 27.144 43.9372 27.144C46.291 27.144 47.2166 27.3995 48.2804 28.1031L47.9537 31.4872H47.8197C47.8197 27.5042 45.0555 27.299 43.9372 27.299C41.9813 27.299 41.5667 28.6183 41.5667 33.3426C41.5667 38.0669 42.0148 39.3861 43.9372 39.3861C45.2607 39.3861 45.7926 38.7328 45.7926 37.0701C45.7926 35.198 45.5329 35.0262 44.5906 35.0262V34.8713H49.4321Z" fill="#454545"/>
<path d="M61.2507 27.2983H61.3345C65.6819 37.2579 65.9834 37.8233 65.9834 37.8233C66.6032 39.197 67.1896 39.2138 67.5288 39.2473V39.3855H61.5062V39.2473C62.8799 39.2473 61.8496 37.2411 61.8496 37.2411L61.301 36.0559H57.9504C57.607 36.8432 57.9128 39.2473 59.9733 39.2473V39.3855H55.0312V39.2473C55.5422 39.2138 56.472 39.0756 57.7955 36.0559L61.2507 27.2983ZM59.5168 32.0478L57.9881 35.9135H61.234L59.5168 32.0478Z" fill="#454545"/>
<path d="M82.2377 39.3863L75.767 30.1722V35.5331C75.767 36.9068 75.8507 39.2397 78.3595 39.2397V39.3946H72.9148V39.2397C75.2853 39.2397 75.6288 36.8901 75.6288 35.5331V29.9544L74.8204 28.8069C73.7901 27.4499 73.12 27.4666 72.6719 27.4289V27.2949H78.1291L83.9926 35.73V31.1439C83.9926 29.5482 83.4439 27.4331 81.5383 27.4331V27.2991H86.74V27.4415C84.6124 27.4415 84.1475 29.5566 84.1475 31.1523V39.3946L82.2377 39.3863Z" fill="#454545"/>
<path d="M98.112 27.2983V27.4407C97.3916 27.4407 96.9937 27.4617 96.9937 28.9694V37.4547C96.9937 39.0839 97.4125 39.2389 98.112 39.2389V39.3938H92.4453V39.2389C93.1657 39.2389 93.5594 39.0839 93.5594 37.4547V28.9611C93.5594 27.4533 93.1824 27.4324 92.4453 27.4324V27.2983H98.112Z" fill="#454545"/>
<path d="M114.96 35.265L115.132 38.7328C114.667 39.0427 112.933 39.5411 111.111 39.5411C107.438 39.5411 104.176 37.225 104.176 33.3426C104.176 29.4601 107.438 27.144 111.111 27.144C113.327 27.144 114.717 27.6089 115.132 27.9314L114.96 31.4034H114.822C114.307 27.8477 112.368 27.299 111.111 27.299C109.206 27.299 108.402 28.635 108.402 33.3426C108.402 38.0501 109.239 39.3861 111.111 39.3861C112.28 39.3861 114.24 38.6825 114.822 35.265H114.96Z" fill="#454545"/>
<path d="M25.852 42.7447V43.8211H25.7767C25.6259 42.7908 24.3233 42.8327 24.1014 42.8327H23.8459V44.7215H24.1014C24.181 44.7215 24.939 44.7215 25.0186 44.1352H25.1066V45.4126H25.0186C24.9432 44.8011 24.181 44.822 24.1014 44.822H23.8166V46.0785C23.8166 46.6984 24.0302 46.7444 24.2857 46.7444V46.8324H22.7695V46.7444C23.0166 46.7444 23.092 46.489 23.092 46.0911V43.4441C23.092 43.0839 23.025 42.8243 22.7695 42.8243V42.7363L25.852 42.7447Z" fill="#101010"/>
<path d="M31.5608 46.8912C30.3043 46.8912 29.6133 45.9782 29.6133 44.8222C29.6133 43.6663 30.2834 42.6904 31.5608 42.6904C32.8382 42.6904 33.5125 43.6705 33.5125 44.8222C33.5125 45.974 32.8424 46.8912 31.5608 46.8912ZM31.5608 42.7784C30.8698 42.7784 30.4426 43.2265 30.4426 44.8222C30.4426 46.4179 30.8614 46.8032 31.5608 46.8032C32.2602 46.8032 32.6665 46.4221 32.6665 44.8222C32.6665 43.2223 32.2477 42.7784 31.5608 42.7784Z" fill="#101010"/>
<path d="M39.3716 46.8912C38.09 46.8912 37.4199 45.9782 37.4199 44.8222C37.4199 43.6663 38.09 42.6904 39.3716 42.6904C40.6532 42.6904 41.3191 43.6705 41.3191 44.8222C41.3191 45.974 40.649 46.8912 39.3716 46.8912ZM39.3716 42.7784C38.6764 42.7784 38.2534 43.2265 38.2534 44.8222C38.2534 46.4179 38.6722 46.8032 39.3716 46.8032C40.0711 46.8032 40.4773 46.4221 40.4773 44.8222C40.4773 43.2223 40.0543 42.7784 39.3716 42.7784Z" fill="#101010"/>
<path d="M46.6251 46.8407H45.2305V46.7527C45.4818 46.7527 45.6493 46.4889 45.6493 46.0952V43.4901C45.6493 43.1258 45.4943 42.8326 45.2305 42.8326V42.7446H46.6251C47.7853 42.7446 48.9998 43.0964 48.9998 44.801C48.9998 46.5056 47.7853 46.8407 46.6251 46.8407ZM46.6251 42.8326H46.3696V46.7527H46.6251C47.2199 46.7527 48.1371 46.6774 48.1371 44.801C48.1371 42.9247 47.2324 42.8326 46.6251 42.8326Z" fill="#101010"/>
<path d="M57.0925 46.1625C57.0982 46.3468 57.0319 46.526 56.9075 46.6621C56.7831 46.7982 56.6106 46.8804 56.4265 46.8912C56.4265 46.8912 55.8486 46.9457 55.6182 46.6023L55.2915 46.1248C55.0695 46.7865 53.8759 47.2807 53.2938 46.4724C52.7116 45.6641 53.478 45.0359 53.9345 44.7678L54.2277 44.5919L53.9178 44.127C53.3691 43.3732 53.7377 42.6444 54.3911 42.5355C54.5392 42.4947 54.6956 42.4953 54.8434 42.5374C54.9911 42.5796 55.1244 42.6615 55.2287 42.7742C55.4549 43.0423 55.7104 43.7292 54.8099 44.3574L55.5428 45.4421C55.5944 45.29 55.6825 45.1529 55.7993 45.0427C55.9161 44.9324 56.0581 44.8525 56.2129 44.8097C56.2791 44.7922 56.3483 44.7895 56.4156 44.8018C56.483 44.8141 56.5467 44.8411 56.6024 44.8809C56.6372 44.9083 56.6658 44.9427 56.6865 44.9818C56.7072 45.0209 56.7195 45.0639 56.7227 45.1081C56.7259 45.1522 56.7198 45.1965 56.7048 45.2382C56.6899 45.2798 56.6664 45.3179 56.6359 45.35C56.5775 45.4178 56.4949 45.4602 56.4057 45.468C56.3165 45.4758 56.2278 45.4485 56.1585 45.3919C56.1261 45.3634 56.0998 45.3287 56.0811 45.2898C56.0624 45.251 56.0517 45.2088 56.0496 45.1657C56.0496 45.0401 55.7355 45.1364 55.5889 45.5133L56.0496 46.1751C56.1038 46.2539 56.1754 46.3191 56.259 46.3656C56.3425 46.4121 56.4357 46.4386 56.5312 46.4431C56.7365 46.4431 56.9501 46.3803 56.9878 46.1625H57.0925ZM55.2287 46.0369L54.278 44.6715L53.989 44.8558C53.8868 44.9357 53.8025 45.0361 53.7414 45.1506C53.6803 45.265 53.6439 45.391 53.6344 45.5204C53.6249 45.6498 53.6427 45.7797 53.6864 45.9018C53.7302 46.024 53.799 46.1356 53.8885 46.2295C53.9761 46.3325 54.0884 46.4117 54.2149 46.4596C54.3414 46.5074 54.4779 46.5224 54.6118 46.5032C54.7456 46.4839 54.8725 46.4311 54.9803 46.3495C55.0882 46.268 55.1737 46.1604 55.2287 46.0369ZM54.3618 43.658L54.7806 44.2736C55.5428 43.7752 55.4088 43.1554 55.1533 42.8371C55.075 42.7541 54.9752 42.6944 54.8651 42.6649C54.7549 42.6353 54.6386 42.6369 54.5293 42.6695C54.4456 42.7167 54.3734 42.7819 54.3181 42.8605C54.2629 42.9391 54.2258 43.0291 54.2098 43.1238C54.1937 43.2185 54.199 43.3157 54.2253 43.4081C54.2516 43.5005 54.2982 43.5859 54.3618 43.658Z" fill="#101010"/>
<path d="M62.4487 46.8407H61.0498V46.7527C61.3011 46.7527 61.4686 46.4889 61.4686 46.0952V43.4901C61.4686 43.1258 61.3137 42.8326 61.0498 42.8326V42.7446H62.4487C63.6046 42.7446 64.8234 43.0964 64.8234 44.801C64.8234 46.5056 63.6046 46.8407 62.4487 46.8407ZM62.4487 42.8326H62.2141V46.7527H62.4696C63.0601 46.7527 63.9815 46.6774 63.9815 44.801C63.9815 42.9247 63.0518 42.8326 62.4487 42.8326Z" fill="#101010"/>
<path d="M72.4625 46.8407H71.9725C71.0762 46.8407 71.1976 46.8407 70.8249 45.5842C70.7784 45.4059 70.6727 45.2486 70.525 45.1382C70.3774 45.0279 70.1966 44.971 70.0124 44.9769H69.7527V46.1957C69.7527 46.6145 69.9119 46.7653 70.1715 46.7653V46.8533H68.668V46.7653C68.9193 46.7653 69.0617 46.602 69.0617 46.158V43.3142C69.0617 42.954 68.9276 42.8326 68.668 42.8326V42.7446H69.9244C71.0804 42.7446 71.8133 42.8828 71.8133 43.8545C71.8133 44.6042 71.361 44.8555 70.7035 44.9141C71.0846 44.9141 71.5159 45.0481 71.8091 46.2125C71.8477 46.3604 71.9321 46.4923 72.0502 46.5893C72.1683 46.6863 72.3141 46.7435 72.4667 46.7527L72.4625 46.8407ZM69.9203 42.8326H69.7527V44.8806H69.9328C70.5485 44.8806 71.0259 44.8806 71.0259 43.8545C71.0259 42.8284 70.5108 42.8326 69.9203 42.8326Z" fill="#101010"/>
<path d="M77.8145 42.7446V42.8326C77.5632 42.8326 77.3621 42.9582 77.3621 43.3184V46.1748C77.3621 46.5726 77.5716 46.7527 77.8145 46.7527V46.8407H76.1895V46.7527C76.4407 46.7527 76.646 46.5726 76.646 46.1748V43.3184C76.646 42.9582 76.4491 42.8326 76.1895 42.8326V42.7446H77.8145Z" fill="#101010"/>
<path d="M86.1126 42.7447V42.8327C85.275 42.8327 85.275 43.9383 85.275 44.2022V46.8408H85.0237L82.5108 43.6452V45.3665C82.5108 45.6304 82.5108 46.7528 83.2898 46.7528V46.8408H81.5684V46.7528C82.4061 46.7528 82.4061 45.6304 82.4061 45.3665V43.553L82.1715 43.2557C81.7988 42.7908 81.6312 42.8368 81.4805 42.8368V42.7489H82.7369L85.1661 45.8146V44.1938C85.1661 43.93 85.1661 42.8159 84.3871 42.8243V42.7363L86.1126 42.7447Z" fill="#101010"/>
<path d="M91.4573 42.7446V42.8326C91.2018 42.8326 90.9799 42.8954 90.9799 43.3184V46.1748C90.9799 46.5726 91.1432 46.7527 91.3987 46.7527V46.8407H89.8574V46.7527C90.1003 46.7527 90.2469 46.5726 90.2469 46.1748V43.3184C90.2469 42.9582 90.1045 42.8326 89.8574 42.8326V42.7446H91.4573ZM94.0498 46.8407H93.2834C92.6677 46.8407 92.5337 46.6648 91.918 45.7853C91.5871 45.3078 91.2982 44.9476 91.2982 44.9476L92.0688 44.0178C92.2363 43.8252 93.074 42.8619 92.1191 42.8451V42.7572H93.8823V42.8451C93.4635 42.8451 93.1075 42.9205 91.851 44.5204C92.8771 45.89 93.2582 46.4051 93.2582 46.4051C93.352 46.5233 93.4729 46.6171 93.6108 46.6783C93.7486 46.7396 93.8993 46.7666 94.0498 46.7569V46.8407Z" fill="#101010"/>
</svg>
