<svg width="117" height="72" viewBox="0 0 117 72" fill="none" xmlns="http://www.w3.org/2000/svg">
<path d="M88.4854 58.1955C86.0545 58.1955 83.6236 59.639 81.7883 56.8056C81.1766 56.8056 82.3786 51.1281 81.7883 48.2839H79.3359C78.7027 44.0338 79.9101 39.7676 79.2769 35.5122C79.2769 35.3941 79.234 35.2975 79.2125 35.1902L88.5123 35.0346H79.1588C78.4075 31.5089 76.1376 33.9935 75.5312 31.2782C73.653 28.4501 76.7386 27.0173 78.5954 26.9851C77.9621 24.1464 79.8296 26.9851 79.8189 24.141C79.792 18.4635 79.7706 12.7859 77.2538 8.53584C76.6206 7.11914 77.2216 2.8583 77.2055 0.0195312C69.6927 0.0570953 61.5037 0.0731933 54.1305 5.80439C48.0236 10.1565 40.4357 4.16231 34.3986 8.94367C33.4863 9.66812 32.2521 8.6217 31.0661 8.28362C30.7957 8.16702 30.4958 8.13691 30.2076 8.19744C29.9194 8.25797 29.6569 8.40615 29.4563 8.62169C28.9572 9.11539 28.5011 10.1028 28.1952 11.8844L30.1431 11.8468C28.4313 16.1399 26.1023 11.9059 23.4567 13.5104C23.6607 16.3438 23.7465 17.7605 23.0221 19.2416C24.7286 19.0913 26.9824 17.5888 28.3562 18.984L28.4528 23.2341C27.8088 23.9639 26.9502 23.6312 26.0326 23.3146C25.1149 22.998 24.1168 22.7082 23.387 23.4809C23.505 24.8976 23.7465 27.7311 23.8646 29.1424C23.9826 30.5537 23.2958 30.6128 22.5928 30.6986C23.3011 30.6074 24.6803 30.4947 25.3457 30.4571C25.4262 31.745 25.5711 34.2135 25.6569 35.6839C24.2633 35.759 22.8748 35.9113 21.498 36.14L25.6838 36.0703V36.1239C25.7642 37.546 25.174 37.5782 24.6105 37.6265C24.8251 40.4599 24.6105 43.3309 25.2115 44.6993C25.6999 44.6563 26.2096 44.6241 26.7355 44.5973C25.7052 45.3593 25.1686 47.5488 25.0774 50.0602C25.0318 52.5517 25.1897 55.0428 25.5496 57.5086C25.6033 56.0704 26.0862 60.2991 26.1506 58.8663C26.0784 59.9956 26.0784 61.1284 26.1506 62.2578C26.2096 63.4115 26.3277 64.5653 26.4726 65.6171C26.5638 66.1537 26.5799 66.6581 26.6336 67.1303C26.6843 67.5687 26.7814 68.0004 26.9234 68.4183C26.9878 68.7724 27.0844 69.2715 27.2507 70.1623C27.1005 70.6989 28.5011 70.9673 31.3559 71.1819C34.2108 71.3966 36.792 71.4663 39.5234 71.4341C44.9703 71.3392 50.4068 70.9235 55.8047 70.1891C66.5373 68.9012 77.2699 66.7332 87.8737 65.2736C89.0972 63.873 88.4908 61.0396 88.4854 58.1955Z" fill="#C3D8CC"/>
<path d="M13.5451 34.75C13.7227 34.8819 13.9177 34.9885 14.1247 35.0666C15.5133 35.8629 16.8076 36.8134 17.983 37.9C19.7565 39.4858 21.0112 41.569 21.5838 43.8781C21.9706 45.7556 21.625 47.7099 20.6179 49.3409C20.2939 50.0327 19.8828 50.6801 19.3944 51.2674C19.1529 51.5991 18.8738 51.9017 18.5626 52.169C17.3893 53.2616 16.0127 54.1131 14.5111 54.675C13.8385 55.0207 13.0773 55.1554 12.327 55.0614C11.7442 55.0362 11.1655 55.1697 10.6527 55.4478C10.155 55.6804 9.64012 55.8742 9.11257 56.0273C7.91641 56.3391 6.66915 56.403 5.4474 56.2152C3.71408 55.9576 2.0398 55.4478 0.950446 54.2887C-0.0154861 53.2583 -0.273066 51.9114 0.306493 50.1137C0.77692 48.942 1.40327 47.8391 2.16859 46.8349C2.90027 45.7455 3.76562 44.7522 4.74441 43.8781C4.92903 43.7142 5.08184 43.5178 5.19518 43.2985C5.73181 42.3326 5.96793 42.1394 6.93386 42.2682C7.31487 42.1394 7.57245 41.5598 8.08761 41.7316C7.83003 41.8603 7.63684 41.9891 7.25584 42.1823C7.46578 42.2386 7.67907 42.2816 7.89443 42.3111C7.88379 42.613 7.90537 42.9153 7.95882 43.2127C7.98398 43.3276 7.97945 43.447 7.94565 43.5597C7.91185 43.6723 7.84989 43.7745 7.76563 43.8566C7.37926 44.3664 7.06265 44.8816 6.61188 45.4665C5.97665 46.1953 5.55346 47.0844 5.38837 48.0369C5.28867 48.612 5.22415 49.1927 5.19518 49.7756C5.17241 49.8726 5.16945 49.9732 5.18647 50.0714C5.2035 50.1696 5.24017 50.2633 5.29429 50.347C5.3484 50.4307 5.41885 50.5026 5.5014 50.5584C5.58396 50.6142 5.67692 50.6528 5.77474 50.6718C6.35083 50.8788 6.97274 50.9233 7.57245 50.8006C8.78682 50.6298 9.97492 50.3071 11.1088 49.84C12.268 49.3034 13.4861 48.8741 14.6452 48.2945C15.5574 47.8881 16.4024 47.3453 17.1513 46.6846C17.7308 46.2339 17.924 45.7187 17.7308 45.3323C17.2801 43.8566 16.7005 42.5687 15.4824 41.6028C13.3852 39.9861 11.1719 38.5261 8.86036 37.2346C7.47875 36.4232 6.16668 35.4988 4.9376 34.471C3.58877 33.3903 2.49028 32.03 1.71783 30.4838C0.242096 28.0421 1.58903 24.6989 3.64969 22.1929C5.51179 19.88 8.01785 18.3345 10.5883 16.9232C11.361 16.6012 12.1338 16.3866 12.8421 16.086C16.7595 14.6693 20.4247 14.5406 23.9611 14.7981C25.0344 14.9269 26.0808 15.1201 27.1809 15.2489C28.2837 15.3065 29.3503 15.6626 30.2665 16.2792C30.4407 16.3769 30.571 16.5373 30.6308 16.7278C30.6907 16.9183 30.6755 17.1245 30.5885 17.3042C30.535 17.4481 30.513 17.6018 30.5241 17.755C30.4908 18.0824 30.4261 18.4059 30.3309 18.7209C29.8042 19.7428 29.4764 20.8555 29.365 21.9997C29.2287 22.5749 28.9886 23.1205 28.6566 23.6096C28.399 24.1462 28.018 24.5111 27.7604 24.9619C27.5204 25.3952 27.1634 25.7522 26.7301 25.9922C26.0901 26.3229 25.4243 26.6011 24.7392 26.824C24.5843 26.9194 24.406 26.97 24.224 26.97C24.0421 26.97 23.8638 26.9194 23.7089 26.824C22.7368 26.4588 21.7211 26.2225 20.6877 26.121C18.5837 25.7746 16.4555 25.5952 14.3232 25.5844C13.6509 25.6287 12.9843 25.7365 12.3323 25.9064C11.5596 26.0351 10.8512 26.223 10.1483 26.3518C5.51716 27.5109 8.2164 30.8541 10.5293 32.523C11.5772 33.2057 12.5843 33.9493 13.5451 34.75Z" fill="#101010"/>
<path d="M36.3676 42.1397C36.3393 42.1204 36.3067 42.1085 36.2727 42.1048C36.2386 42.1011 36.2042 42.1058 36.1724 42.1185C36.1407 42.1313 36.1125 42.1516 36.0904 42.1777C36.0683 42.2038 36.0529 42.235 36.0456 42.2684C35.9812 42.2684 35.9812 42.3328 35.9812 42.3972C35.7237 43.0412 35.4017 43.4276 34.8221 43.2988C34.5002 43.6207 34.3714 43.9427 34.1138 44.1949C33.9461 44.2704 33.7999 44.3864 33.6884 44.5326C33.5769 44.6788 33.5036 44.8504 33.4752 45.0321C33.4752 45.1609 33.4108 45.2253 33.3464 45.3541C33.0244 45.8048 32.7024 46.1268 32.4449 46.5132C32.1858 47.0752 31.7867 47.5611 31.2857 47.9245C31.0037 48.1859 30.7647 48.4902 30.5774 48.826C30.5591 48.8972 30.5185 48.9606 30.4615 49.007C30.4045 49.0533 30.3342 49.0802 30.2608 49.0836C29.9 49.2032 29.5701 49.4011 29.2948 49.6632C28.6273 50.0664 27.8838 50.3276 27.1108 50.4306C26.4239 50.4648 25.739 50.3322 25.1145 50.0442C24.0896 49.47 23.7032 48.3753 23.5744 46.9639C23.5536 46.6366 23.5973 46.3084 23.7032 45.998C23.8591 43.9779 24.2022 41.9766 24.7281 40.02C25.0501 38.9467 25.4365 37.9647 25.8014 36.9987C26.6385 35.2601 27.3469 33.398 28.1787 31.6646C28.204 31.4983 28.2644 31.3392 28.3557 31.1978C28.8127 29.705 29.4621 28.2781 30.2876 26.953C30.525 26.5382 30.7382 26.11 30.9262 25.6705C31.0802 25.6208 31.2446 25.6126 31.4028 25.6465C31.5611 25.6804 31.7076 25.7553 31.8277 25.8637C32.5361 26.3145 33.2444 26.8243 34.0118 27.275C34.1406 27.3394 34.3338 27.4682 34.3338 27.597C34.8667 28.5342 35.2984 29.5254 35.6217 30.5538C35.7505 31.1978 35.8149 31.7773 35.9437 32.4159C36.0907 33.1405 36.0004 33.8932 35.6861 34.5625C35.4285 35.0991 35.2997 35.6357 35.0421 36.1723C34.9778 36.4943 34.849 36.8163 34.7846 37.1383C34.4189 38.452 33.969 39.7408 33.4376 40.9966C33.4037 41.0299 33.3811 41.0732 33.3732 41.1201C33.3732 41.1201 33.3732 41.1845 33.2444 41.3132C33.1748 41.828 33.0226 42.3281 32.7937 42.7943C32.9225 42.7299 33.0512 42.7299 33.1156 42.6655C33.7542 41.9572 34.4626 41.1201 35.1065 40.3527C36.2657 39.0648 37.2906 37.7822 38.3853 36.4943C38.8261 36.0321 39.2332 35.5389 39.6035 35.0186C40.8265 33.4052 42.1361 31.8593 43.5263 30.3875C43.7224 30.1611 43.9636 29.9784 44.2346 29.8508C44.7372 29.6183 45.2944 29.5291 45.8445 29.5933C46.0521 29.6723 46.2473 29.7807 46.424 29.9152C46.9607 30.4519 47.39 30.9885 47.9051 31.4607C48.24 31.7742 48.4831 32.1731 48.6081 32.6145C48.753 33.0555 48.8607 33.5078 48.9301 33.9668C49.0689 34.626 49.0469 35.3089 48.8657 35.9577C48.473 37.3762 48.0018 38.7718 47.4544 40.138C47.3256 40.7176 47.068 41.2918 46.9177 42.0001C47.0829 41.9435 47.2358 41.8561 47.3685 41.7425C48.6897 40.967 49.8827 39.9912 50.9049 38.8501C51.8927 37.8855 52.9937 37.044 54.1837 36.3441C54.3824 36.2584 54.5574 36.1258 54.6935 35.9577C54.7539 35.8892 54.8282 35.8343 54.9115 35.7967C54.9948 35.7591 55.0851 35.7397 55.1765 35.7397C55.2678 35.7397 55.3581 35.7591 55.4414 35.7967C55.5247 35.8343 55.599 35.8892 55.6594 35.9577C55.9814 36.2153 56.1102 36.666 56.561 36.8592C56.8829 36.988 57.0976 37.31 57.3337 37.632C57.2688 38.1666 57.2688 38.7072 57.3337 39.2419C57.3124 39.7296 57.2033 40.2095 57.0117 40.6586C56.6254 40.8517 56.8829 41.3615 56.6254 41.6835C56.561 42.4563 56.4322 43.229 56.3034 43.9374C56.239 44.6209 56.239 45.3091 56.3034 45.9926C56.3034 46.4434 56.4322 46.6366 56.7542 46.7654C57.7147 46.9586 61.0472 44.5759 61.7019 43.7442C62.8523 42.4196 63.8646 40.9812 64.7231 39.4511C64.7716 39.1416 64.9054 38.8517 65.1095 38.614C65.2383 38.8072 65.3027 38.8072 65.2383 38.8716C65.0451 39.8375 65.367 39.258 65.2383 40.3527C65.2383 40.0951 64.9163 41.4259 64.7016 41.3132C64.5728 41.3132 64.5728 41.5064 64.444 41.6352C64.0475 42.3307 63.6892 43.0472 63.3708 43.7817C63.3395 43.9922 63.2524 44.1905 63.1186 44.3559C62.6025 44.7343 62.1276 45.166 61.7019 45.6438C61.7019 45.837 61.5087 45.9014 61.3799 45.9658C61.0579 46.6742 58.3587 48.6007 57.6235 48.6007C57.3069 48.6007 55.7614 48.4719 55.4394 48.2143C54.7955 47.6347 53.7705 46.9318 53.3841 46.0302C53.0742 45.1661 53.0516 44.225 53.3197 43.3471C53.621 41.7501 54.0499 40.1799 54.6023 38.6516C54.6759 38.4461 54.7193 38.2309 54.7311 38.013C54.7955 37.8842 54.7311 37.8198 54.7311 37.6266C54.3501 37.691 54.0925 38.1632 53.7705 38.2062C53.4512 38.3131 53.1479 38.463 52.869 38.6516C52.8761 39.1013 52.7154 39.5375 52.4182 39.8751C52.1884 40.1645 51.9735 40.4654 51.7742 40.7766C51.4523 40.5834 51.1357 40.7766 50.8137 41.0342C50.277 41.4796 49.8477 41.866 49.2682 42.3167C49.1394 42.4455 48.9462 42.5099 48.8174 42.7675C48.2114 43.4516 47.5208 44.0556 46.7621 44.5652C46.6977 44.694 46.5689 44.694 46.4401 44.8872C46.0538 45.6599 45.2864 46.0463 44.7068 46.6903C44.5128 46.9626 44.2974 47.2192 44.0629 47.4576C43.6149 47.843 43.0932 48.133 42.5295 48.3102C41.9658 48.4873 41.3719 48.5478 40.7841 48.488C40.2447 48.3873 39.7624 48.0887 39.4318 47.6508C39.1918 47.3898 39.0163 47.0762 38.9194 46.7351C38.8225 46.394 38.8068 46.035 38.8737 45.6868C38.8765 44.9839 39.0075 44.2874 39.2601 43.6315C40.2924 40.5124 41.7865 37.5658 43.6926 34.8898C44.1434 34.0527 44.7229 33.2799 45.1737 32.3784C45.3142 32.2664 45.419 32.1159 45.4753 31.9453C45.5315 31.7747 45.5367 31.5914 45.4903 31.4178C45.3025 31.2246 45.0449 31.2246 44.7873 31.4822C44.6259 31.6926 44.43 31.8741 44.2078 32.0188C43.5638 32.6574 42.9199 33.3014 42.2813 33.8165C41.8886 34.2345 41.5627 34.7105 41.3153 35.2279C41.0237 35.9579 40.61 36.6329 40.0918 37.2241C39.5314 37.7398 39.0358 38.3219 38.6161 38.9574C38.2297 39.4941 37.9721 40.0307 37.6502 40.5673C37.4817 40.9379 37.288 41.2965 37.0706 41.6406C36.9418 41.8338 36.7486 42.0914 36.6198 42.2845C36.5608 42.2684 36.432 42.1397 36.3676 42.1397Z" fill="#101010"/>
<path d="M64.9698 33.5913L65.0342 33.5269C65.1778 33.3391 65.361 33.1852 65.5708 33.0762C66.2738 32.9474 67.8837 31.7936 68.5276 32.18C68.7154 32.4322 69.3594 32.7542 69.6009 33.0118C69.74 33.2179 69.8247 33.4559 69.8472 33.7036C69.8698 33.9513 69.8293 34.2006 69.7297 34.4285C69.3433 35.2603 68.8925 36.0384 68.3827 37.0633C68.2539 37.4497 68.1252 37.7717 68.0608 38.0239C67.8032 38.6034 67.5241 39.3762 67.2236 39.9558C66.966 40.7285 68.1251 38.2815 67.9964 38.9254C67.9749 39.117 67.9088 39.3008 67.8032 39.4621C67.2665 40.75 67.2665 40.4924 67.2236 41.6461C67.2236 42.2901 66.966 45.5689 67.0304 46.1484C67.1127 46.5138 67.2991 46.8474 67.5671 47.109C67.8734 47.3147 68.1965 47.4942 68.533 47.6456C68.8496 47.9032 69.1716 47.7744 69.5579 47.71C74.892 45.7835 72.9655 45.0752 76.0512 41.8071C76.6307 40.9753 77.3391 40.1972 77.661 39.1723C77.661 39.1079 77.661 39.1079 77.8542 38.7859C78.1762 39.4299 77.4732 40.3314 78.3909 40.5246C77.0439 42.9662 76.078 46.5026 73.8939 47.7852C73.25 48.6223 68.8764 52.4807 66.0484 51.3859C65.1522 51.7079 64.3151 50.8064 63.3653 50.42C62.6461 50.096 62.0095 49.6135 61.5031 49.0087C61.1392 48.1963 60.9212 47.3262 60.8592 46.4382C60.7562 46.0609 60.7127 45.6698 60.7304 45.2791C60.9236 44.5064 60.7948 43.0306 61.0524 42.5155C61.1536 42.18 61.2183 41.8345 61.2456 41.4851C61.3744 41.4207 61.2456 41.1041 61.6963 41.0397C61.7607 41.0397 61.8251 40.7822 61.8895 40.7178C62.2115 40.267 62.2759 39.8806 62.5979 39.4299C62.5979 39.4299 61.2456 40.7822 62.0183 39.4943C62.5549 38.2117 63.6872 36.8111 64.0736 35.8935C64.0923 35.778 64.1363 35.668 64.2024 35.5715C64.3956 35.1905 64.5888 34.9329 64.46 34.4982C64.4099 34.1841 64.4788 33.8627 64.6532 33.5967C64.7035 33.6176 64.7576 33.6279 64.812 33.6269C64.8665 33.626 64.9202 33.6139 64.9698 33.5913ZM70.8727 26.583C70.7282 26.753 70.6187 26.95 70.5507 27.1625C70.5535 27.2223 70.5434 27.2819 70.5212 27.3375C70.499 27.393 70.4651 27.4431 70.4219 27.4845C70.2287 27.6777 70.0355 27.9353 69.778 28.2572C69.5134 28.5242 69.1784 28.7103 68.812 28.7939C68.6832 28.7295 68.4954 28.8583 68.3666 28.9871C68.2401 29.0868 68.0865 29.1463 67.9258 29.1577C67.765 29.1692 67.6045 29.1322 67.4651 29.0515C67.3082 28.9439 67.1171 28.8981 66.9285 28.9227C66.6905 28.9332 66.4522 28.9116 66.2201 28.8583C66.2845 28.7939 66.3489 28.6651 66.4133 28.6007C66.4567 28.3803 66.5214 28.1646 66.6065 27.9567C66.7315 27.6648 66.8823 27.3846 67.0573 27.1196C67.0573 26.9908 67.2504 26.862 67.2504 26.7976C67.2504 26.4112 67.5724 26.0946 67.7871 25.7244L68.1734 25.1448C68.3022 25.016 68.431 24.8872 68.5545 24.8872C68.6021 24.8554 68.6581 24.8384 68.7154 24.8384C68.7728 24.8384 68.8288 24.8554 68.8764 24.8872C68.8764 25.016 69.0052 25.016 69.134 24.9516C69.2628 24.8872 69.3272 24.8228 69.3916 24.8872C69.6608 25.0023 69.9414 25.0886 70.2287 25.1448C70.6713 25.3413 71.0344 25.6817 71.2591 26.1107C71.0766 26.261 71.0122 26.4542 70.8834 26.583H70.8727Z" fill="#101010"/>
<path d="M95.6276 42.0757C95.3056 42.7197 94.2163 44.131 94.2163 44.8393C94.1012 44.9622 93.9714 45.0703 93.8299 45.1613C93.6001 45.3795 93.4174 45.6425 93.2933 45.9341C93.1578 46.1793 93.0072 46.4158 92.8425 46.6424C92.0961 48.1127 91.095 49.439 89.8857 50.5598C89.4993 50.8818 86.0917 54.1606 85.8395 54.4826C83.972 56.0281 81.466 55.3197 79.6038 55.3841C79.1387 55.4114 78.6741 55.3229 78.2515 55.1265C77.672 54.8045 76.3894 54.2894 76.0031 53.7098C75.4235 52.2985 73.9478 51.3326 73.819 49.3417C73.7546 48.805 73.497 48.5045 73.4326 47.9894C73.497 45.9341 73.819 43.8788 74.0712 41.7537C74.4576 40.278 74.7796 38.6681 75.0371 37.1924C75.6811 34.4287 75.8743 34.1068 77.0924 31.6007C77.7364 29.9264 78.3159 29.7976 78.9599 28.1287C79.3993 27.2428 79.8921 26.3844 80.4356 25.5583C80.8973 24.5748 81.4356 23.6292 82.0455 22.7302C83.1661 20.7474 84.5014 18.8938 86.0273 17.203C86.9932 16.237 88.0236 15.2067 88.9841 14.3696C89.5021 13.8994 90.0883 13.5104 90.7228 13.2158C90.9031 13.1034 91.0981 13.0167 91.3024 12.9582C91.7264 12.891 92.16 12.9198 92.5714 13.0424C92.9829 13.165 93.3615 13.3783 93.6796 13.6666C94.3236 14.2461 94.5168 15.1423 94.3236 16.3497C94.1948 17.1171 94.1304 17.8898 93.9372 18.5982C93.8282 19.2099 93.6101 19.797 93.2933 20.3315C92.8514 21.4383 92.2919 22.4943 91.6243 23.4815C91.1736 24.3187 90.6584 25.1558 90.2076 25.9929C89.4349 27.1467 88.7963 28.3702 88.0236 29.4596C86.6713 31.2626 85.5175 33.216 84.294 34.9922C82.3031 38.3944 82.4963 38.974 81.7879 42.3816C81.5304 43.7339 81.6591 44.5013 81.5947 45.8536C81.6591 46.2399 81.8523 48.746 81.9167 49.0036C82.0778 49.7212 82.3379 50.4129 82.6895 51.0589C82.8183 51.3165 83.7144 51.5096 84.0364 51.6384C84.4872 51.9604 87.8948 49.6475 88.3294 49.3256C89.3524 48.6347 90.2814 47.8139 91.0931 46.8839C92.0536 45.9824 92.5044 44.952 93.3416 43.7339C94.5007 42.1884 94.8817 40.9059 96.1052 39.2316C97.0443 39.1189 96.5077 40.4712 95.6276 42.0757ZM85.3458 30.506C86.885 28.1395 88.3 25.6945 89.5851 23.181C90.2935 21.8287 90.8731 20.4979 91.5814 19.1294C91.8858 18.1878 92.0996 17.2193 92.22 16.237C92.3488 15.915 92.3488 15.7004 92.0268 15.8506C91.7721 15.9064 91.5324 16.0162 91.3238 16.1726C90.415 16.5454 89.6482 17.1975 89.1344 18.0347C88.689 18.5714 88.367 19.108 87.8518 19.6446C87.315 20.3065 86.9204 21.0719 86.6927 21.8931C86.3707 22.537 86.0488 23.3044 85.7322 23.9484C85.2347 25.3327 84.6541 26.6857 83.9935 27.9999C83.7359 28.6439 83.5427 29.3469 83.2851 29.9908C82.5177 32.1803 82.8397 31.0641 82.1314 33.2696C81.9382 33.8063 82.067 35.2605 82.8988 34.3429C83.8647 32.9476 84.5086 31.9871 85.3458 30.506Z" fill="#101010"/>
<path d="M98.8418 39.1835C98.8293 39.2545 98.7992 39.3212 98.7542 39.3775C98.7091 39.4337 98.6507 39.4778 98.5842 39.5055C98.5282 39.5394 98.4814 39.5865 98.4478 39.6426C98.4141 39.6987 98.3946 39.7622 98.391 39.8275C98.3266 40.0851 98.2622 40.1495 98.069 40.2139C97.8758 40.2783 97.9402 40.3427 97.8758 40.7505C98.0046 40.7505 98.069 40.7505 98.1334 40.8149V40.8578H97.6827C97.7342 40.6839 97.756 40.5024 97.7471 40.3212H97.6183L97.4251 41.6681C97.5539 41.7325 97.6183 41.7969 97.6827 41.7969C97.7362 42.224 97.7577 42.6545 97.7471 43.0848C97.7561 43.4826 97.8436 43.8747 98.0046 44.2386C98.1978 44.4962 98.713 45.9129 98.9062 46.1705C99.8077 47.0666 100.897 48.2257 101.927 48.2901C102.77 48.2463 103.607 48.1387 104.433 47.9682C106.048 47.4599 107.554 46.6536 108.871 45.5909C109.945 44.7538 110.991 43.7932 112.091 42.9078L112.284 42.7146C112.671 42.2638 113.057 41.8774 113.443 41.4267C114.156 40.7404 114.801 39.9875 115.37 39.1782C115.522 38.833 115.798 38.5573 116.143 38.4054C116.033 38.9626 115.852 39.5035 115.606 40.0153C115.541 40.2162 115.431 40.3996 115.284 40.5519C114.909 40.9591 114.586 41.4116 114.324 41.8989C114.13 42.1565 113.873 42.4355 113.68 42.6716C113.586 42.7951 113.5 42.9241 113.422 43.058C113.615 42.9936 113.744 42.9292 113.959 42.8648C113.894 43.2512 113.572 43.3156 113.508 43.6376C113.572 43.702 113.572 43.7664 113.701 43.8308C113.521 44.1135 113.304 44.3715 113.057 44.5981C112.668 44.9228 112.308 45.282 111.984 45.6714C111.41 46.28 110.785 46.8383 110.116 47.3403C109.832 47.5961 109.531 47.8327 109.215 48.0487C108.963 48.2418 108.705 48.3706 108.447 48.5853C108.048 48.7751 107.661 48.9902 107.288 49.2292C106.659 49.6284 105.963 49.9102 105.233 50.061L104.653 50.2542C103.903 50.497 103.127 50.6483 102.341 50.705C101.439 50.8338 97.6451 50.1308 96.8133 49.8088C94.5595 48.9073 94.1302 47.8125 93.0837 46.9164C92.6762 46.5469 92.3665 46.0823 92.1822 45.5641C91.8987 44.6972 91.7467 43.7928 91.7314 42.8809C91.7587 40.8982 92.2203 38.9455 93.0837 37.1605C93.2769 36.7741 93.2769 36.7741 93.2125 36.1945C93.0613 36.2605 92.9258 36.3577 92.8148 36.4798C92.7038 36.6019 92.6199 36.7461 92.5686 36.9029C92.3657 37.4829 92.1069 38.0418 91.7958 38.5718C91.8387 38.0736 91.9927 37.5913 92.2466 37.1605C92.745 36.0141 93.3486 34.9165 94.0497 33.8816C94.7323 32.8126 95.5294 31.8211 96.4269 30.9248C97.2796 29.9874 98.2521 29.1664 99.3194 28.4832C99.5403 28.3889 99.7553 28.2813 99.9633 28.1612C100.28 28.0324 100.602 27.968 100.795 28.29C100.988 28.4832 101.246 28.4188 101.375 28.5476C101.503 28.6763 101.632 28.9339 101.761 29.0842C102.405 29.4008 104.847 30.0448 105.426 30.4311C105.626 30.6061 105.781 30.8271 105.877 31.0751C106.126 31.6654 106.472 32.2096 106.902 32.685C107.025 32.8592 107.113 33.0562 107.16 33.2645C107.321 34.0271 107.321 34.8149 107.16 35.5774C107.003 36.4665 106.677 37.3173 106.199 38.0835C105.925 38.5132 105.688 38.9656 105.491 39.4358C105.328 39.8893 105.112 40.3217 104.847 40.7237C104.73 40.9547 104.566 41.1592 104.367 41.3244C104.168 41.4897 103.936 41.6121 103.688 41.6842C103.311 41.8728 102.886 41.9403 102.469 41.8774C102.276 41.813 102.083 41.8774 101.933 41.6198C101.933 41.6028 101.926 41.5864 101.914 41.5743C101.902 41.5622 101.885 41.5554 101.868 41.5554C101.332 41.6198 101.031 41.0456 100.645 40.8525C100.575 40.758 100.531 40.6471 100.516 40.5305C100.645 40.2729 100.516 40.1441 100.452 39.9509C100.194 39.4143 99.9419 38.8777 99.6199 38.341C99.5555 38.1532 99.3623 38.0835 99.1691 38.2766C99.0994 38.5396 98.8418 38.7972 98.8418 39.1835ZM92.751 44.9684C92.8154 45.1616 92.8798 45.2904 92.9442 45.505C93.0086 45.7197 93.1374 45.827 93.0086 46.0846C92.9442 46.0202 92.8798 46.0202 92.8798 45.9558C92.5745 45.2174 92.3792 44.4381 92.3003 43.6429C92.2359 43.5785 92.3003 43.5141 92.3003 43.4497C92.2578 42.4997 92.3444 41.5484 92.5579 40.6217C92.6312 40.4366 92.6747 40.2409 92.6866 40.0421V39.5914C92.5266 39.8775 92.3971 40.1797 92.3003 40.4929C92.2359 40.8149 92.1715 41.0725 92.1071 41.3891C91.8495 43.0634 91.9139 44.6089 92.6437 45.9558C92.8008 46.2076 92.9804 46.4447 93.1803 46.6642C93.3063 46.7869 93.4614 46.8755 93.6311 46.9217C93.6311 46.9861 93.6955 46.9217 93.8243 46.9217C93.6212 46.6363 93.4417 46.3348 93.2877 46.0202C93.0945 45.6338 93.0945 45.2474 92.9013 44.9469C92.8502 44.9365 92.7971 44.9441 92.751 44.9684ZM92.751 40.8578C92.4848 41.821 92.4408 42.832 92.6223 43.8147C92.6223 43.8791 92.6866 43.879 92.751 43.9434C92.8154 43.2351 92.8798 42.5911 92.9442 41.9472C93.0541 41.5231 93.0317 41.0756 92.8798 40.6646C92.7993 40.729 92.751 40.7934 92.751 40.8578ZM100.849 35.7169C100.684 35.9435 100.533 36.1801 100.398 36.4253C100.14 36.876 100.205 37.198 100.527 37.3912C100.746 37.5045 100.943 37.6574 101.106 37.842C101.493 38.2874 102.008 38.223 102.523 38.1639C102.981 37.9597 103.346 37.5925 103.548 37.1336C103.999 36.0604 104.256 35.8457 104.621 34.7564C105.652 32.3093 103.591 32.8889 102.63 33.6831C101.952 34.2849 101.349 34.9659 100.833 35.7116L100.849 35.7169Z" fill="#101010"/>
</svg>
