<svg width="147" height="72" viewBox="0 0 147 72" fill="none" xmlns="http://www.w3.org/2000/svg">
<path d="M95.124 35.4505C97.4883 20.885 87.5973 7.16067 73.0318 4.79636C58.4663 2.43204 44.742 12.323 42.3777 26.8885C40.0133 41.454 49.9044 55.1784 64.4699 57.5427C79.0354 59.907 92.7597 50.016 95.124 35.4505Z" fill="#C3D8CC"/>
<path d="M10.5329 36.7837C10.668 36.8639 10.8132 36.9256 10.9646 36.9672C11.9898 37.4121 12.9545 37.9851 13.8356 38.6725C15.1742 39.6871 16.1261 41.1284 16.5339 42.7577C16.8123 44.1892 16.557 45.6731 15.8162 46.9292C15.5746 47.4832 15.2684 48.0067 14.9041 48.4889C14.7231 48.7625 14.5152 49.0174 14.2835 49.2498C13.4173 50.1791 12.3967 50.9515 11.2669 51.5325C10.788 51.8597 10.2273 52.0466 9.64789 52.0722C9.19982 52.1153 8.77046 52.2733 8.40128 52.5309C8.03242 52.7537 7.64831 52.9503 7.25181 53.1191C6.38618 53.4776 5.45809 53.661 4.52115 53.6588C3.23138 53.6588 1.98479 53.4375 1.16991 52.6874C0.45217 52.0236 0.257886 51.0414 0.689611 49.6383C1.04688 48.708 1.51432 47.8239 2.08193 47.0048C2.62699 46.1125 3.26952 45.2835 3.9977 44.5332C4.13312 44.3931 4.24599 44.2329 4.33229 44.0583C4.71544 43.2866 4.90433 43.1139 5.62207 43.1139C5.91349 42.979 6.10236 42.5203 6.48551 42.612C6.29663 42.7307 6.15091 42.8494 5.86489 43.0329C6.10234 43.0329 6.24806 43.0707 6.34519 43.0329C6.33789 43.2551 6.35236 43.4774 6.38838 43.6967C6.43695 43.837 6.38837 43.9827 6.24806 44.1986C5.96204 44.6195 5.70842 45.0351 5.38462 45.5154C4.91634 46.1093 4.60295 46.8102 4.4726 47.5553C4.40223 47.9895 4.35538 48.4273 4.33229 48.8666C4.31187 48.9359 4.30732 49.0089 4.31901 49.0802C4.33071 49.1515 4.35835 49.2192 4.39984 49.2783C4.44134 49.3374 4.49562 49.3864 4.55867 49.4217C4.62172 49.4569 4.69191 49.4775 4.76401 49.4818C5.21024 49.5724 5.67265 49.5407 6.10234 49.3901C7.01917 49.1339 7.90299 48.7717 8.73587 48.3108C9.59932 47.8089 10.5113 47.3448 11.3748 46.7943C12.0602 46.3953 12.6883 45.9051 13.242 45.3373C13.6737 44.9433 13.814 44.5386 13.6737 44.258C13.4388 43.2347 12.8429 42.3304 11.9954 41.7108C10.4261 40.7164 8.77612 39.8554 7.06295 39.1366C6.03849 38.6788 5.05924 38.1259 4.13802 37.4853C3.13318 36.8192 2.31126 35.9119 1.74735 34.8464C0.641054 33.1788 1.6502 30.5291 3.18282 28.4676C4.56973 26.5518 6.42076 25.1433 8.35273 23.8212C8.93016 23.5028 9.50219 23.2815 10.0311 22.9685C12.61 21.7109 15.421 20.9998 18.2878 20.8801C19.1027 20.8801 19.869 20.8801 20.6839 20.8801C21.4769 20.8011 22.2758 20.9548 22.9828 21.3226C23.0476 21.3541 23.1054 21.3983 23.1529 21.4525C23.2003 21.5067 23.2364 21.5699 23.259 21.6383C23.2816 21.7067 23.2904 21.779 23.2846 21.8508C23.2789 21.9226 23.2589 21.9926 23.2256 22.0565C23.1861 22.1671 23.1696 22.2847 23.1771 22.4019C23.1514 22.6505 23.1027 22.8962 23.0313 23.1358C22.6451 23.9364 22.4022 24.7985 22.3136 25.683C22.2049 26.1326 22.0226 26.5611 21.774 26.9512C21.5851 27.3613 21.2991 27.6905 21.1048 28.0305C20.925 28.3789 20.6617 28.6774 20.3385 28.8993C19.8652 29.213 19.3691 29.4908 18.8544 29.7304C18.7491 29.8174 18.6218 29.8736 18.4865 29.8926C18.3513 29.9117 18.2133 29.8929 18.0881 29.8384C17.3511 29.6655 16.5942 29.5929 15.8378 29.6225C14.2518 29.5891 12.6656 29.6812 11.0942 29.8977C10.587 30.0022 10.0904 30.1521 9.61011 30.3456C9.03807 30.5183 8.5308 30.7342 7.99114 30.8853C4.54274 32.2236 6.55568 34.4362 8.28257 35.44C9.06117 35.8384 9.81289 36.2873 10.5329 36.7837Z" fill="#101010"/>
<path d="M38.4552 36.3574C38.3052 36.9911 38.0459 37.5937 37.6889 38.1383C37.5486 38.2085 37.5 38.3596 37.4029 38.4189C37.2353 38.6603 37.0552 38.8926 36.8632 39.1151C36.746 39.2207 36.6491 39.3469 36.5772 39.4874C36.4489 39.7558 36.2491 39.9836 35.9998 40.1458C35.9 40.1957 35.8159 40.2723 35.7569 40.3671C35.4709 40.7448 35.0878 41.0848 34.8018 41.414C34.5404 41.6735 34.2305 41.8789 33.8897 42.0184C33.4825 42.1289 33.0824 42.264 32.6917 42.4232C32.3409 42.5779 31.9804 42.7095 31.6124 42.8171L31.1807 42.8765C30.6175 42.8349 30.0677 42.6847 29.5617 42.434C29.4866 42.3847 29.4048 42.3465 29.3188 42.3206C28.8807 42.2184 28.4815 41.9917 28.1694 41.6677C27.8089 41.8852 27.4724 42.1402 27.1656 42.4286C26.9741 42.5493 26.7936 42.6866 26.626 42.8387C26.5884 42.8483 26.5545 42.869 26.5288 42.8981C26.2463 43.2381 25.8715 43.4892 25.4495 43.6212C25.1469 43.7715 24.8174 43.8603 24.4803 43.8825C24.1431 43.9047 23.8049 43.8599 23.4852 43.7507C23.254 43.6491 23.0136 43.5695 22.7674 43.5133C22.1287 43.3677 21.5564 43.0143 21.1404 42.5083C20.7243 42.0024 20.4879 41.3726 20.4685 40.7179C20.3811 39.9606 20.5142 39.1942 20.8516 38.5107C21.1632 37.8267 21.5487 37.1789 22.0011 36.5787C22.0011 36.5301 22.0497 36.4762 22.0982 36.4222C22.7464 35.3787 23.4489 34.3699 24.2029 33.4001C24.7338 32.745 25.3469 32.161 26.0269 31.6624C26.1568 31.5815 26.3019 31.5282 26.4533 31.5059C26.7506 31.407 27.0557 31.333 27.3653 31.2847H27.511C27.8423 31.3453 28.178 31.3796 28.5147 31.3872C28.6052 31.4253 28.7027 31.4437 28.8007 31.4412C29.0436 31.4412 29.2325 31.4412 29.3404 31.6085C29.3678 31.6307 29.4023 31.6422 29.4376 31.6408C29.675 31.6085 29.8693 31.8189 30.1067 31.7866C30.1486 31.7807 30.1913 31.7835 30.2321 31.7946C30.2729 31.8057 30.311 31.825 30.3442 31.8513C30.6538 32.0567 30.9288 32.3099 31.1591 32.6014C31.2076 32.7363 31.2562 32.8281 31.3048 32.963C31.3635 33.1559 31.3524 33.3633 31.2734 33.5488C31.1945 33.7343 31.0527 33.8861 30.873 33.9776C30.4445 34.2494 30.0433 34.562 29.675 34.9112V34.9597C29.1009 35.5349 28.5722 36.1538 28.0938 36.8107C27.9049 37.0752 27.7106 37.291 27.5218 37.5123C27.09 38.052 26.7555 38.624 26.3723 39.2014C26.2266 39.4605 26.0377 39.7411 25.892 39.9408C25.8109 40.033 25.7469 40.139 25.7031 40.2537C25.4292 40.776 25.2345 41.3362 25.1257 41.9159C25.0771 41.9699 25.1257 42.013 25.1257 42.1102C25.1983 42.0621 25.2637 42.0039 25.32 41.9375C25.8102 41.3647 26.3365 40.824 26.8958 40.3185C27.1849 40.0539 27.4291 39.744 27.6189 39.4011C27.7311 39.2292 27.8594 39.0684 28.0021 38.9208C28.2981 38.5492 28.5686 38.158 28.8116 37.7497C29.1515 37.1777 29.4861 36.6057 29.8207 35.9851C29.9955 35.9109 30.1881 35.8892 30.375 35.9227C30.5619 35.9563 30.735 36.0436 30.873 36.1739C30.9702 36.2549 31.0673 36.3359 31.1591 36.4222C31.4421 36.8067 31.5935 37.2723 31.5908 37.7497C31.5792 37.8409 31.5459 37.9279 31.4937 38.0034C31.3048 38.4621 31.0673 38.9748 30.8245 39.4389C30.6871 39.762 30.6387 40.116 30.6842 40.4642C30.7815 40.8574 30.9245 41.2377 31.1105 41.5975C31.1571 41.6664 31.2227 41.7204 31.2993 41.753C31.3759 41.7855 31.4602 41.7953 31.5422 41.781C31.8925 41.6958 32.2313 41.569 32.5514 41.4032C32.8646 41.2168 33.1673 41.0132 33.458 40.7934C33.7926 40.556 34.1326 40.3185 34.5373 40.0271C34.7747 39.7519 35.077 39.5198 35.3036 39.25C35.9242 38.5376 36.8794 36.8269 37.5054 36.12C37.554 36.0606 37.6025 36.0552 37.6457 36.0013C37.951 36.0129 38.2404 36.1403 38.4552 36.3574Z" fill="#101010"/>
<path d="M50.9592 34.3334C50.9592 34.6194 50.8135 34.641 50.8621 34.8731C50.7354 35.5081 50.5437 36.1283 50.2901 36.7241C50.004 37.5336 49.6641 38.3431 49.378 39.1525C48.9463 40.0754 48.5146 40.901 48.0829 41.7753C47.894 42.1368 45.6436 45.3208 45.3846 45.5529C44.7586 46.0925 43.7063 47.4632 43.1288 47.9219C42.4468 48.3626 41.7239 48.7367 40.9702 49.039C40.3623 49.2047 39.7325 49.2757 39.103 49.2495C38.0938 49.2495 36.6098 47.9651 36.1349 47.0909C35.8613 46.721 35.6347 46.3186 35.4603 45.8929C35.2554 45.1433 35.127 44.3748 35.0771 43.5993C35.0771 39.5735 35.5574 38.9313 36.6961 34.8947C36.7933 34.5439 36.8418 34.2525 36.9336 33.9017C37.0031 33.5615 37.1006 33.2275 37.225 32.9033C37.3653 32.3637 37.511 31.824 37.6567 31.2844C37.8942 30.205 39.1408 28.2029 37.9913 28.122C37.6567 28.122 37.3653 28.2083 37.0793 28.0087C36.7933 27.809 36.5073 27.755 36.2158 27.6039C36.0732 27.5169 35.9705 27.3774 35.9298 27.2154C36.0035 27.1614 36.0832 27.1161 36.1673 27.0804C36.8418 26.8484 37.4624 26.6163 38.1316 26.3789C38.5881 26.225 39.053 26.0971 39.5239 25.9957C39.6314 25.961 39.7297 25.9028 39.8119 25.8253C39.894 25.7478 39.9578 25.653 39.9988 25.5478C40.1871 25.153 40.3476 24.7454 40.4791 24.3282C40.9594 23.3514 41.294 22.3477 41.8228 21.4141C42.2568 20.6076 42.7879 19.8574 43.404 19.1799C43.5018 19.0275 43.6139 18.8847 43.7387 18.7535C43.8175 18.6669 43.9132 18.5973 44.0199 18.549C44.1266 18.5008 44.2421 18.4749 44.3592 18.4729C44.6453 18.5323 44.9367 18.3488 45.2713 18.3002C45.3198 18.3002 45.3198 18.3002 45.3684 18.2409C46.0376 18.0034 46.275 18.2409 46.4477 18.7535C46.6844 19.2134 46.7996 19.7261 46.7823 20.243C46.7882 20.4954 46.819 20.7467 46.8741 20.9931C46.9229 21.2153 46.9229 21.4455 46.8741 21.6677C46.8309 21.9105 46.7823 22.1588 46.7337 22.4502C46.6366 22.8495 46.5394 23.2435 46.4477 23.6428C46.4553 23.7742 46.4389 23.9059 46.3992 24.0314C46.5501 24.0919 46.7163 24.1033 46.8741 24.0638L48.6495 23.6698L51.1373 23.3244C51.441 23.3059 51.7456 23.3059 52.0493 23.3244C51.9522 23.4863 51.9036 23.5835 51.8605 23.6428C51.7582 23.7506 51.6441 23.8465 51.5205 23.9288C51.1859 24.1177 50.8027 24.3606 50.4412 24.5548C50.4412 24.598 50.3926 24.6034 50.3926 24.6034C49.8499 24.8103 49.2901 24.9692 48.7197 25.0783C48.372 25.1282 48.0326 25.2244 47.7105 25.3643C47.511 25.4588 47.3033 25.5347 47.0899 25.591C46.7067 25.6935 46.3722 25.7907 46.0106 25.8878C45.92 25.9302 45.8391 25.9909 45.7732 26.0662C45.7072 26.1414 45.6576 26.2295 45.6274 26.3249C45.5789 26.3789 45.5789 26.4275 45.5303 26.4814C44.9529 28.1921 44.1866 29.8327 43.566 31.4948C43.4767 31.6701 43.3974 31.8502 43.3285 32.0345C43.0887 32.5206 42.8953 33.0284 42.7511 33.5509C42.5919 34.0159 42.3839 34.4627 42.1305 34.8839C41.9362 35.2454 41.9848 35.6718 41.7473 36.0387C41.052 38.2402 40.6971 40.5351 40.695 42.8438C40.7499 43.5822 40.9098 44.3091 41.1699 45.0024C41.2856 45.1952 41.4314 45.3682 41.6016 45.5151C41.6502 45.5151 41.6987 45.5529 41.7959 45.5151C42.3987 45.492 42.988 45.3294 43.5174 45.0402C43.8034 44.8081 45.2443 43.459 45.5303 43.1784C46.5966 41.9934 47.5438 40.7064 48.3581 39.336C48.7844 38.4618 49.0273 37.3771 49.4374 36.5514C49.6263 36.0441 50.1066 34.9324 50.344 34.3604C50.6732 34.4198 51.0078 34.1823 50.9592 34.3334ZM43.5552 28.2731C44.0355 27.0103 44.1811 26.0335 42.6 27.2585C42.0603 28.9099 41.8822 30.0432 41.4505 31.5758C40.3982 35.6988 41.9308 32.5148 42.6 30.6476C42.871 29.8378 43.19 29.0449 43.5552 28.2731ZM45.0392 22.5581C45.0878 22.3638 45.1364 22.1156 45.1849 21.8674C45.2335 21.4788 45.3306 21.0849 45.3792 20.6909C45.4118 20.2623 45.3955 19.8314 45.3306 19.4065C45.282 19.2231 45.1363 19.1961 45.0392 19.304C44.8491 19.4401 44.7013 19.6272 44.6129 19.8437C44.4044 20.2615 44.2433 20.7013 44.1326 21.155C44.084 21.3061 43.9869 21.4626 43.9383 21.6137C43.8898 21.7648 43.7494 22.0185 43.6523 22.2721C43.5552 22.7686 43.4634 23.3082 43.3177 23.8533C43.1234 25.1269 44.4672 24.9866 44.7532 24.0854C44.8287 23.5781 44.9259 23.0978 45.0176 22.5581H45.0392Z" fill="#101010"/>
<path d="M54.6501 39.0397C53.8352 39.5793 52.7775 39.6873 52.2541 39.9031C51.6264 39.9523 50.9949 39.8939 50.3868 39.7304C49.1888 39.1908 49.1402 38.8508 48.9028 37.302C48.7866 36.6115 48.869 35.9022 49.1402 35.2567C49.3777 34.1234 51.968 29.79 52.3782 28.7215C52.6177 28.117 52.9046 27.5323 53.2362 26.973C53.3678 26.6913 53.5875 26.4602 53.8622 26.3146C54.1968 26.1203 54.5314 26.0771 54.7689 25.8019C55.4866 25.3216 54.9631 25.0572 55.4434 24.9439C55.6366 24.9009 55.838 24.9136 56.0242 24.9805C56.2105 25.0474 56.374 25.1656 56.4957 25.3216C56.6846 25.3216 56.6846 25.5861 56.8789 25.748C57.0192 25.8235 56.976 26.0232 56.976 26.2121C56.6846 27.4533 55.6323 29.8493 55.3571 31.069C55.1142 31.4359 55.0225 32.7905 54.9254 33.0873C54.844 33.5876 54.6989 34.0755 54.4936 34.539C54.3965 34.9383 54.1591 35.6884 54.3965 35.8449C54.634 36.0014 54.6879 36.8595 54.9739 36.7246C56.1234 35.9421 57.6722 35.683 58.2766 34.8304C58.6598 34.2475 58.9026 34.4526 59.2858 33.9237C59.518 33.6361 59.7104 33.3184 59.8578 32.9794C60.1438 32.3156 60.1924 32.5045 60.4353 31.9432C60.7396 31.287 61.1008 30.6586 61.5146 30.0652C61.6562 29.6387 61.8658 29.2377 62.1352 28.878C62.6154 28.6675 62.5669 28.7215 62.7558 28.7431C63.4789 28.5973 62.8529 28.7431 63.2954 28.9103C63.3926 29.0884 63.2954 29.2935 63.4411 29.3691C63.1065 30.3242 63.058 31.2902 62.6263 32.4019C62.4806 32.7581 62.5777 32.4019 62.2916 32.8822C62.2751 33.2852 62.1603 33.6779 61.9571 34.0263C61.7628 34.485 61.8114 35.0085 61.5253 35.4294C61.1422 37.1131 60.9479 37.9982 60.9479 38.1924C60.8076 38.8346 62.4805 39.0343 64.1858 38.2734C65.2652 37.642 67.2511 35.4995 68.1577 33.8914C68.4977 33.2708 68.7837 32.6556 69.3072 31.8137C69.7875 30.8855 70.1706 32.267 69.9817 32.6286C69.8646 32.8228 69.7687 33.0291 69.6957 33.2438C69.3072 33.5838 68.8809 35.1758 68.5409 35.5103C68.4491 35.6237 68.4977 35.7586 68.2549 35.8881C67.4129 37.0731 66.4684 38.1819 65.4324 39.2016C65.1097 39.3477 64.8038 39.5286 64.5204 39.7412C64.2753 40.035 63.9836 40.2866 63.657 40.486C63.4463 40.5765 63.261 40.7173 63.1173 40.8961C63.0023 40.876 62.884 40.8863 62.7742 40.9261C62.6643 40.9658 62.5668 41.0336 62.4913 41.1228C61.5847 41.7757 57.7046 42.5097 57.4132 40.9177C57.1757 39.466 56.9383 38.6889 57.37 36.9998V36.8055C56.5243 37.6215 55.6148 38.3686 54.6501 39.0397Z" fill="#101010"/>
<path d="M74.2397 32.7792C74.434 32.0344 76.1069 28.3972 76.4415 27.7766C76.7426 27.3098 77.0147 26.825 77.2564 26.3249C77.5441 25.9093 77.8002 25.4728 78.0227 25.0189C78.1792 24.7007 78.4544 24.4565 78.789 24.3389C79.1236 24.2904 79.415 24.204 79.701 24.1663C80.273 24.0853 80.6076 24.4685 80.899 25.0513V25.2402C80.9908 25.85 81.1365 26.503 81.2336 27.1613C81.2985 27.796 81.3148 28.4346 81.2822 29.0717C81.3065 29.5013 81.3065 29.9319 81.2822 30.3615C81.5196 30.4748 81.4711 30.6691 81.5196 30.6151C81.5682 30.5612 81.9514 30.6151 82.0593 30.4964C82.1672 30.3777 82.1996 30.3345 82.2482 30.232C82.463 30.0511 82.6568 29.8466 82.8256 29.6222C82.9659 29.3631 83.1116 29.347 83.3005 29.5574C83.3028 29.6357 83.287 29.7135 83.2542 29.7847C83.2214 29.8558 83.1726 29.9184 83.1116 29.9676C83.0527 30.0477 83.0038 30.1347 82.9659 30.2266C82.9461 30.3048 82.9105 30.3782 82.8613 30.4423C82.8121 30.5063 82.7504 30.5596 82.6799 30.599L82.5342 30.7663C82.491 30.8202 82.3939 30.8796 82.3939 30.9281C82.3939 30.9767 82.2968 30.9875 82.2482 31.0469C82.1842 31.1325 82.1033 31.204 82.0104 31.2569C81.9176 31.3099 81.8148 31.3431 81.7085 31.3545C81.5474 31.4054 81.3998 31.4921 81.2768 31.6081C81.1311 31.7268 80.9854 31.743 80.8936 31.6621C80.5632 31.5583 80.226 31.4771 79.8845 31.4192C79.5891 31.359 79.3164 31.2174 79.0971 31.0105C78.8778 30.8036 78.7206 30.5396 78.6433 30.2482C78.3763 29.3739 78.3263 28.4478 78.4976 27.5499C78.5669 27.1479 78.6155 26.7426 78.6433 26.3357C78.6865 26.0389 78.735 25.7421 78.7836 25.4506C78.8274 25.3685 78.8542 25.2784 78.8625 25.1857C78.8709 25.093 78.8605 24.9996 78.8322 24.911C78.7836 24.911 78.6864 24.884 78.6864 24.9811C78.6139 25.062 78.5505 25.1507 78.4976 25.2456C78.3033 25.6557 78.0658 26.0712 77.8284 26.5353C77.6762 26.8151 77.5774 27.1207 77.537 27.4366C77.5855 27.6254 77.4453 27.7873 77.3967 27.9385C76.9622 28.7875 76.6011 29.6722 76.3174 30.5828C76.0745 31.2843 75.7399 31.9049 75.4539 32.6173C75.0222 33.6966 74.4933 34.668 74.1587 35.7689C74.067 36.1142 73.8727 36.5244 73.727 36.9291C73.2825 37.9835 72.7556 39.0012 72.1512 39.9728C72.1512 40.0699 72.0055 40.1347 71.9084 40.248C71.7119 40.5904 71.4088 40.8591 71.0454 41.013C70.6819 41.167 70.278 41.1978 69.8955 41.1007C69.8037 41.2086 69.7066 41.1007 69.6095 41.0467C68.8431 40.9603 68.46 40.2912 68.2711 39.363C68.1494 38.545 68.1006 37.7179 68.1254 36.8913C68.174 35.6393 68.2225 34.3873 68.3143 33.1137C68.5571 31.6891 68.3628 31.8132 68.746 30.464C69.0806 28.5537 68.8917 28.8451 69.5609 26.9023C69.6547 26.578 69.7664 26.2591 69.8955 25.9471C70.23 25.0405 70.5214 24.231 70.9046 23.4107C71.0935 22.7632 71.2878 22.639 71.7627 22.6714C72.161 22.6317 72.5623 22.6317 72.9607 22.6714C73.3113 22.6766 73.6498 22.8003 73.9213 23.0222C74.295 23.5533 74.7297 24.0387 75.2165 24.4685C75.4334 24.791 75.5684 25.1616 75.6097 25.5481C75.6511 25.9346 75.5976 26.3253 75.4539 26.6864C75.2165 27.6794 75.1193 26.9725 74.8765 28.014C74.2559 30.1133 73.1064 31.851 72.5776 33.7451C71.8436 36.1736 74.0508 33.6156 74.2397 32.7792Z" fill="#101010"/>
<path d="M101.735 38.3971C101.857 38.2788 101.969 38.1507 102.07 38.014C102.642 37.1667 101.924 37.987 102.453 37.0966C102.633 36.7029 102.84 36.3224 103.073 35.9579C103.554 35.1754 103.505 34.5602 104.368 32.7631C105.518 31.02 106.284 29.2392 107.239 27.4745C107.817 26.3952 107.623 25.699 108.535 26.2441C109.112 26.5949 108.346 26.4599 108.346 27.3234C108.68 27.2748 107.768 28.2678 107.865 28.1545C108.151 28.4998 107.963 28.8128 107.768 29.0827C107.337 29.428 107.865 30.4534 107.099 30.3239C106.473 31.3654 105.853 31.6946 105.421 32.7092C105.232 33.5025 104.8 32.8926 105.421 33.4323L104.989 34.0151C104.131 35.2833 104.223 35.3697 104.082 36.109C103.985 36.1702 103.937 36.2241 103.937 36.2709C103.699 36.6379 103.505 36.9509 103.268 37.2746C103.125 37.436 103.027 37.6311 102.982 37.8413C102.833 38.286 102.639 38.7145 102.404 39.1203C102.215 39.4333 102.021 39.7463 101.827 40.0107C101.556 40.4007 101.235 40.7528 100.871 41.0576C100.567 41.3904 100.231 41.6923 99.8677 41.9589C99.2903 42.3258 98.8585 42.7252 98.2865 43.0382C98.2274 43.1459 98.1625 43.2504 98.0922 43.3512C97.6629 43.4222 97.2234 43.402 96.8025 43.2918C95.8419 43.0436 95.7933 43.2378 94.9784 42.396C94.3107 41.9508 93.7563 41.3558 93.3595 40.6583C93.0538 40.1675 92.8263 39.6323 92.6849 39.0717C92.6363 38.9854 92.6363 38.8882 92.5446 38.8558C92.4652 38.7697 92.4064 38.6667 92.3728 38.5545C92.3391 38.4423 92.3314 38.3239 92.3503 38.2083C92.332 37.8421 92.2685 37.4796 92.1614 37.1289C92.0522 36.6994 91.9711 36.2631 91.9186 35.823C91.8563 35.5744 91.8399 35.3165 91.87 35.0621C91.8269 34.9703 91.7297 34.9379 91.7297 34.8408L91.4437 35.17C91.209 35.4917 91.0452 35.8596 90.9634 36.2493C90.8939 36.6619 90.7215 37.0503 90.4621 37.3785C90.2027 37.7068 89.8647 37.9643 89.4793 38.1273C89.2438 38.2253 89.0308 38.3704 88.8533 38.5536C88.6921 38.7155 88.4975 38.8404 88.2832 38.9196C88.0689 38.9988 87.8399 39.0304 87.6121 39.0123C86.9863 38.9651 86.3713 38.8231 85.7881 38.5914C85.3835 38.4469 85.0131 38.2203 84.7001 37.926C84.3872 37.6316 84.1384 37.2757 83.9695 36.8807C83.6761 36.3942 83.5421 35.8281 83.5863 35.2617C83.58 35.0781 83.5473 34.8963 83.4892 34.7221C83.4633 34.5431 83.4633 34.3614 83.4892 34.1824C83.4639 33.5493 83.5128 32.9154 83.6349 32.2936C83.8455 31.0992 84.2083 29.9367 84.7142 28.8344C85.3221 27.6328 86.0605 26.5017 86.916 25.4616C87.8495 24.3322 89.0291 23.4314 90.3644 22.8281C90.6333 22.6787 90.9251 22.5748 91.2278 22.5204C91.3568 22.5089 91.4868 22.5217 91.611 22.5582C91.897 22.6176 92.1884 22.7201 92.4259 22.7849C94.1474 24.8895 93.8128 21.1659 94.5305 19.7142C94.6277 19.5092 94.6762 19.2609 94.7733 19.0559C94.9098 18.7301 95.0217 18.3946 95.108 18.0521C95.2968 17.5934 95.4911 17.1347 95.6476 16.6868C95.7687 16.4267 95.8645 16.1557 95.9336 15.8773C96.3168 15.1541 96.6999 14.3824 97.0129 13.6161C97.3209 13.0437 97.6823 12.5016 98.0922 11.9972C98.5294 11.5943 98.9454 11.1692 99.3388 10.7236C99.5199 10.5422 99.7109 10.3711 99.9109 10.2109C100.328 9.92349 100.728 9.61175 101.109 9.27729C101.36 9.05471 101.671 8.91134 102.003 8.86525C102.336 8.81915 102.674 8.87239 102.976 9.01826C103.408 9.19635 103.694 9.55791 104.174 9.76298C104.268 9.86343 104.335 9.98595 104.368 10.1192C104.455 10.6399 104.471 11.1699 104.417 11.695C104.368 12.0349 104.32 12.3749 104.271 12.7743C104.305 13.1983 104.223 13.6235 104.034 14.0047C103.985 14.1072 104.034 14.1936 103.985 14.2961C103.938 14.5967 103.84 14.887 103.694 15.1541C103.452 15.5474 103.244 15.9609 103.073 16.39C102.935 16.8029 102.774 17.2082 102.593 17.6042C102.495 17.8809 102.415 18.1639 102.356 18.4514C102.22 18.9014 102.026 19.3315 101.778 19.7304C101.422 20.1336 101.16 20.6111 101.012 21.1281C100.868 21.5097 100.619 21.8427 100.294 22.0887C100.05 22.3443 99.8417 22.631 99.6734 22.9414C99.4298 23.6421 99.0645 24.2943 98.5941 24.868C98.211 25.4076 98.4484 25.5101 98.211 26.0228C98.0528 26.1728 97.9516 26.3731 97.925 26.5895C97.8217 26.9949 97.7406 27.4056 97.6821 27.8199C97.6257 28.2258 97.5299 28.6252 97.3961 29.0125C97.4026 29.3191 97.3864 29.6257 97.3475 29.9299C97.3651 29.9908 97.3654 30.0554 97.3482 30.1165C97.331 30.1775 97.2972 30.2325 97.2504 30.2753C97.2261 30.5139 97.2261 30.7544 97.2504 30.9931C97.3225 31.3092 97.3225 31.6375 97.2504 31.9536V33.1949C97.2504 33.292 97.2504 33.3406 97.299 33.3837C97.4447 33.6482 97.3475 33.9234 97.3961 34.231C97.4626 34.8653 97.6076 35.4889 97.8278 36.0874C97.9044 36.1351 97.9697 36.1989 98.0191 36.2744C98.0685 36.3499 98.1008 36.4353 98.1138 36.5245C98.211 36.6594 98.3081 36.8375 98.2595 36.9401C98.2394 37.0505 98.2511 37.1644 98.2931 37.2685C98.3351 37.3727 98.4058 37.4627 98.497 37.5283C98.835 38.0872 99.2942 38.563 99.8407 38.9206C99.695 38.9907 99.5493 38.9638 99.4576 39.1203C99.409 39.0285 99.4576 38.8774 99.3119 38.8019C99.3119 38.7533 99.2633 38.7155 99.1176 38.8289C99.2528 38.8972 99.3694 38.9971 99.4576 39.1203C99.6729 39.2662 99.9181 39.3621 100.175 39.4009C100.188 39.31 100.221 39.2232 100.272 39.1473H100.224C100.77 38.9946 101.283 38.7401 101.735 38.3971ZM89.2797 32.2127C89.1825 32.3692 89.1393 32.5203 89.0422 32.6768C88.7994 33.1409 88.6105 33.5996 88.373 34.1069C88.0968 34.9856 88.1644 35.9364 88.5619 36.7674C88.5619 36.8591 88.6591 36.8969 88.7076 36.9401C89.0433 36.735 89.335 36.4653 89.5657 36.1468C89.9488 35.6071 90.4291 35.0674 90.8608 34.5278C91.1494 34.2034 91.391 33.8401 91.5786 33.4485C91.5786 33.3513 91.6272 33.2488 91.6272 33.1517C91.6757 32.8117 91.6757 32.5257 91.7243 32.1803C91.6757 31.8475 91.6757 31.5094 91.7243 31.1765C92.5392 28.3811 91.8646 27.3989 90.3806 30.0972C89.9342 30.7581 89.5648 31.4679 89.2797 32.2127ZM94.741 41.3221C94.6924 41.2789 94.741 41.1764 94.741 41.1278L94.5953 41.0037L94.5035 41.0684C94.5035 41.117 94.5467 41.1548 94.6438 41.1926C94.6494 41.2261 94.6666 41.2567 94.6924 41.2789C94.7896 41.4084 94.7895 41.5056 94.8867 41.6351C95.3622 42.204 96.0236 42.5863 96.7539 42.7144C96.8025 42.7522 96.9428 42.7144 97.137 42.7144C97.0368 42.605 96.9246 42.5073 96.8025 42.423C96.225 42.0722 95.6044 41.6782 95.027 41.3437C95.6833 41.1503 96.3579 41.0255 97.0399 40.9713L94.741 41.3221ZM96.3599 41.9103L96.4085 41.9481C96.36 41.9103 96.4085 41.9049 96.4085 41.9049V41.8563C96.4013 41.8582 96.3944 41.8615 96.3885 41.8661C96.3826 41.8707 96.3777 41.8765 96.3742 41.8831C96.3706 41.8897 96.3685 41.8969 96.3679 41.9044C96.3673 41.9119 96.3683 41.9194 96.3707 41.9265L96.3599 41.9103ZM96.8996 37.593H96.8079C96.9482 37.62 96.9482 37.62 96.9482 37.6686V37.62L96.8996 37.593ZM97.0453 37.9546V37.906L96.9968 37.9654L97.0453 37.9546ZM97.2342 38.219L97.191 38.273C97.2342 38.3162 97.2342 38.3162 97.2342 38.3594H97.3313C97.3259 38.3378 97.2288 38.3054 97.2288 38.2568L97.2342 38.219ZM98.0491 36.9562H98.1462C98.0976 36.9185 98.0976 36.8699 98.0491 36.8267C97.9621 36.53 97.8502 36.2411 97.7145 35.9633C97.5742 35.6988 97.5742 35.4236 97.2342 35.17C97.3823 35.7181 97.6272 36.2353 97.9573 36.6972C97.9573 36.7458 97.9573 36.8429 98.0491 36.8267C98.1408 36.8105 98.0922 36.9401 98.0599 36.994L98.0491 36.9562ZM98.9611 39.0825C98.847 38.9563 98.7184 38.8439 98.5779 38.7479C98.4208 38.3769 98.1742 38.0506 97.8602 37.7981C97.8116 37.7549 97.8116 37.6578 97.6173 37.7981C98.0005 38.2244 98.2919 38.6616 98.6967 39.0393C98.6967 39.185 98.837 39.212 98.9827 39.2876L98.9611 39.0825ZM100.494 20.3294C100.915 19.7423 101.299 19.1295 101.643 18.4946C101.978 17.6312 102.361 16.8109 102.793 15.942C102.89 15.7078 102.94 15.4564 102.938 15.2027C102.924 14.9864 102.956 14.7695 103.03 14.5659C103.438 13.3846 103.633 12.1404 103.608 10.8909C103.6 10.6062 103.567 10.3227 103.51 10.0436C103.322 9.63886 103.127 9.61728 102.793 9.85473C102.696 9.96266 102.555 10.0328 102.507 10.1839C102.319 10.6136 102.078 11.0179 101.789 11.3874C101.719 11.5288 101.67 11.6797 101.643 11.8353C101.662 12.1756 101.561 12.5117 101.357 12.7851C101.215 13.155 101.002 13.4939 100.731 13.7834C100.63 13.8411 100.546 13.9243 100.487 14.0247C100.429 14.1251 100.397 14.2392 100.397 14.3555C100.435 14.634 100.403 14.9178 100.305 15.1811C100.148 15.5258 100.034 15.8882 99.9649 16.2604C99.6789 17.4531 99.1068 18.4191 98.9611 19.6117C98.6265 21.2307 97.5256 24.5064 99.5331 22.1211C99.8677 21.5059 100.105 20.9501 100.488 20.3672L100.494 20.3294Z" fill="#101010"/>
<path d="M125.107 24.3282C124.959 24.9623 124.699 25.5652 124.341 26.109C124.201 26.1792 124.152 26.3249 124.055 26.3897C123.866 26.6541 123.72 26.8645 123.515 27.0858C123.394 27.1886 123.295 27.3154 123.224 27.4582C123.098 27.7249 122.9 27.9511 122.652 28.1111C122.552 28.163 122.468 28.2414 122.409 28.3378C122.123 28.7156 121.74 29.0556 121.454 29.3793C121.191 29.6386 120.882 29.8456 120.542 29.9892C120.133 30.0947 119.733 30.23 119.344 30.3939C118.994 30.5491 118.633 30.6789 118.265 30.7825L117.833 30.8472C117.269 30.8065 116.719 30.6542 116.214 30.3993C116.138 30.3521 116.057 30.3157 115.971 30.2914C115.534 30.1869 115.135 29.9605 114.822 29.6384C114.461 29.8559 114.125 30.111 113.818 30.3993C113.626 30.5181 113.446 30.6535 113.278 30.804C113.241 30.817 113.207 30.8393 113.181 30.8688C112.906 31.2033 112.541 31.4523 112.129 31.5865C111.826 31.7382 111.497 31.8279 111.16 31.8501C110.822 31.8724 110.484 31.8268 110.164 31.7161C109.933 31.6161 109.693 31.5384 109.447 31.484C108.808 31.3376 108.237 30.9839 107.821 30.4781C107.405 29.9724 107.168 29.3431 107.148 28.6886C107.059 27.9313 107.192 27.1646 107.531 26.4814C107.842 25.7974 108.228 25.1496 108.68 24.5494C108.695 24.4866 108.729 24.43 108.777 24.3875C109.428 23.3457 110.13 22.3371 110.882 21.3655C111.414 20.7116 112.027 20.1278 112.706 19.6278C112.84 19.5506 112.986 19.4976 113.138 19.4713C113.434 19.3742 113.737 19.3002 114.044 19.25H114.19C114.521 19.3114 114.857 19.3439 115.194 19.3471C115.283 19.388 115.382 19.4065 115.48 19.4011C115.723 19.4011 115.912 19.4011 116.02 19.5684C116.032 19.5808 116.048 19.5906 116.064 19.597C116.081 19.6035 116.099 19.6066 116.117 19.6062C116.354 19.5738 116.548 19.7843 116.786 19.7519C116.827 19.7453 116.87 19.7472 116.911 19.7574C116.951 19.7676 116.99 19.7859 117.023 19.8112C117.332 20.0182 117.607 20.2711 117.838 20.5614C117.887 20.7017 117.935 20.788 117.984 20.9283C118.043 21.1212 118.032 21.3286 117.953 21.5141C117.874 21.6997 117.732 21.8514 117.552 21.9429C117.124 22.2147 116.722 22.5274 116.354 22.8765V22.9251C115.781 23.4996 115.253 24.1166 114.773 24.7707C114.596 25.0151 114.405 25.2494 114.201 25.4722C113.769 26.0119 113.435 26.5893 113.051 27.1668C112.906 27.4258 112.717 27.7064 112.571 27.9061C112.49 27.9983 112.426 28.1043 112.382 28.2191C112.107 28.741 111.913 29.3013 111.805 29.8812C111.756 29.9352 111.805 29.973 111.805 30.0701C111.88 30.0252 111.946 29.9667 111.999 29.8974C112.491 29.3259 113.017 28.7852 113.575 28.2785C113.865 28.0169 114.11 27.7086 114.298 27.3664C114.411 27.1938 114.54 27.0312 114.681 26.8807C114.977 26.511 115.248 26.1216 115.491 25.7151C115.831 25.143 116.165 24.571 116.5 23.945C116.679 23.8678 116.876 23.8446 117.068 23.8781C117.259 23.9117 117.437 24.0006 117.579 24.1339L117.865 24.3821C118.148 24.769 118.299 25.2361 118.297 25.7151C118.297 25.8068 118.248 25.8608 118.2 25.9633C118.011 26.422 117.773 26.9347 117.531 27.3988C117.394 27.722 117.345 28.076 117.39 28.4242C117.486 28.8203 117.631 29.2029 117.822 29.5628C117.868 29.6303 117.933 29.683 118.009 29.7146C118.085 29.7462 118.168 29.7553 118.248 29.7409C118.6 29.659 118.939 29.5321 119.257 29.3632C119.571 29.1787 119.873 28.9769 120.164 28.7587C120.504 28.5213 120.839 28.2838 121.243 27.987C121.481 27.7172 121.783 27.4852 122.01 27.2153C122.63 26.503 123.591 24.7923 124.212 24.0799C124.26 24.026 124.309 24.0206 124.357 23.9666C124.643 23.9921 124.909 24.1206 125.107 24.3282Z" fill="#101010"/>
<path d="M144.47 22.0725C144.805 21.5922 145.096 21.1227 145.431 20.5453C145.537 20.3714 145.632 20.1912 145.717 20.0056L145.765 19.9516V20.1459C145.619 20.7881 146.434 20.5291 146.003 21.263C145.644 21.7267 145.324 22.2195 145.047 22.7363C144.999 23.0762 144.232 23.8156 143.968 24.1286C143.769 24.4159 143.607 24.7279 143.488 25.0568C143.196 25.4777 142.948 25.8447 142.624 26.2764C142.372 26.5904 142.148 26.9263 141.955 27.2802C141.79 27.6656 141.562 28.0212 141.281 28.3325C140.611 29.2391 140.563 29.4118 139.845 30.3022C139.511 30.6854 138.841 32.164 138.458 32.5094C138.229 32.747 138.034 33.0159 137.881 33.3081C137.546 33.6859 133.957 35.7689 133.666 36.0064C133.526 36.1683 133.477 36.2708 133.38 36.3302C132.96 36.6125 132.667 37.0485 132.565 37.5444C132.153 38.5679 131.673 39.563 131.13 40.5233C130.778 41.0773 130.457 41.6502 130.169 42.2394C129.943 42.8504 129.583 43.4033 129.117 43.8584C128.734 44.398 128.162 44.8028 127.778 45.4342C126.997 46.2666 126.11 46.9924 125.139 47.5928C124.422 48.0731 123.224 48.1972 122.441 48.2998C119.667 49.3089 115.928 47.4795 115.355 44.8783C115.356 44.612 115.433 44.3514 115.578 44.1276C115.722 43.9037 115.928 43.726 116.17 43.6156C116.71 43.3997 117.25 43.2216 117.752 43.0759C119.6 42.5791 121.372 41.8329 123.019 40.8579C124.2 40.2971 125.351 39.6738 126.467 38.9907C126.955 38.644 127.364 38.1969 127.665 37.6793C128 36.913 129.003 34.5709 129.387 33.8424C132.883 26.7513 131.685 29.7896 127.568 31.6838C126.64 31.5153 125.777 31.0889 125.08 30.4533C124.745 29.9137 122.441 27.1291 122.684 26.3789C122.921 25.4831 123.019 25.8986 122.97 24.6628C123.116 23.2489 123.547 22.569 123.833 20.8852C123.931 20.4373 124.454 19.3634 124.454 18.786C124.837 18.0143 125.22 16.2874 125.701 15.6452C125.96 15.0678 126.265 14.512 126.613 13.983C126.764 13.745 126.945 13.5273 127.152 13.3354C127.298 13.411 127.487 13.5297 127.633 13.6053C127.87 14.0046 128.879 14.4363 129.403 14.6846C129.56 14.8108 129.704 14.9517 129.834 15.1055C129.932 15.235 129.98 15.3699 130.029 15.4131C130.325 15.6081 130.57 15.8709 130.745 16.1796C130.92 16.4884 131.018 16.8342 131.032 17.1886C131.153 17.7084 131.104 18.253 130.892 18.7428C130.649 19.1098 130.509 19.6062 130.169 20.1351C129.932 20.7395 129.548 21.4681 129.214 22.1372C128.871 22.834 128.487 23.5097 128.064 24.1609C127.87 24.4308 127.73 24.7816 127.444 25.2079C121.74 34.6681 134.146 22.4556 135.247 20.5776C135.965 19.3796 135.49 20.038 136.111 18.7806C136.529 18.2669 136.913 17.7261 137.26 17.1616C137.354 16.8778 137.519 16.623 137.74 16.4223C137.978 16.1039 138.075 16.0877 138.312 16.1525C138.696 16.2874 139.273 17.453 139.03 18.16C139.026 18.2765 138.999 18.391 138.95 18.4966C138.901 18.6023 138.831 18.6971 138.744 18.7752C138.494 19.2554 138.271 19.749 138.075 20.2538C138.023 20.6907 137.893 21.1147 137.692 21.5058C137.099 22.7817 136.603 24.1004 136.208 25.4507C136.014 26.244 134.384 30.7286 134.292 31.4139C134.243 33.8154 140.471 26.9672 141.847 25.3806C142.851 24.2581 143.644 23.1896 144.47 22.0725ZM124.357 44.5491C126.224 42.4229 127.562 40.6582 122.738 43.1461C121.659 43.5886 120.536 43.9339 119.43 44.2793C119.087 44.3622 118.751 44.4723 118.426 44.6085C116.44 46.7833 121.95 48.3321 124.346 44.5491H124.357Z" fill="#101010"/>
<path d="M58.1796 71.3324C57.7813 70.9216 57.5586 70.3719 57.5586 69.7997C57.5586 69.2276 57.7813 68.6779 58.1796 68.2671C58.3796 68.0693 58.6175 67.9138 58.879 67.81C59.1405 67.7061 59.4201 67.656 59.7014 67.6627C60.1429 67.6552 60.5761 67.7833 60.9426 68.0297C61.3008 68.2786 61.5664 68.6392 61.6981 69.055H60.4839C60.4158 68.9114 60.3067 68.7911 60.1703 68.7095C60.0339 68.6278 59.8764 68.5885 59.7176 68.5963C59.5645 68.5894 59.4117 68.6152 59.2693 68.6719C59.1269 68.7287 58.9983 68.8151 58.8919 68.9255C58.6994 69.1763 58.595 69.4836 58.595 69.7997C58.595 70.1159 58.6994 70.4232 58.8919 70.674C58.9983 70.7843 59.1269 70.8707 59.2693 70.9275C59.4117 70.9843 59.5645 71.0101 59.7176 71.0032C59.8764 71.011 60.0339 70.9716 60.1703 70.89C60.3067 70.8083 60.4158 70.6881 60.4839 70.5445H61.6981C61.5664 70.9603 61.3008 71.3208 60.9426 71.5698C60.5761 71.8162 60.1429 71.9443 59.7014 71.9368C59.4201 71.9434 59.1405 71.8933 58.879 71.7895C58.6175 71.6856 58.3796 71.5302 58.1796 71.3324Z" fill="#454545"/>
<path d="M67.737 71.9045L67.505 71.1976H66.0047L65.7727 71.9045H64.6934L66.145 67.7114H67.3809L68.8325 71.9045H67.737ZM66.2584 70.4259H67.246L66.7548 68.9364L66.2584 70.4259Z" fill="#454545"/>
<path d="M72.0537 71.9045V67.7222H74.752V68.4939H73.0467V69.3951H74.3257V70.1668H73.0467V71.9045H72.0537Z" fill="#454545"/>
<path d="M80.737 67.7114V68.4831H79.2206V69.3844H80.5589V70.1561H79.2206V71.1274H80.737V71.9045H78.2061V67.7114H80.737Z" fill="#454545"/>
</svg>
