<svg width="140" height="72" viewBox="0 0 140 72" fill="none" xmlns="http://www.w3.org/2000/svg">
<path d="M96.5343 38.3045C96.0947 39.0564 95.7112 39.8399 95.3873 40.6485L95.2277 40.9477C95.2676 40.8579 95.3125 40.7682 95.3474 40.6834C95.3251 40.7411 95.2967 40.7963 95.2626 40.8479L95.2227 40.9527C94.724 41.8803 94.2252 42.8578 93.7764 43.5012C93.4273 43.8553 93.2178 44.0946 92.8587 44.4986C92.2952 45.137 93.2178 43.4064 93.4323 42.9526C92.9335 43.5161 92.36 44.364 91.6568 45.3464L91.4573 45.5958C92.3832 44.2247 93.1859 42.7744 93.8562 41.2619L93.916 41.3616C94.2252 40.6734 94.4447 40.2794 94.6093 39.8405C94.852 39.2922 95.0651 38.7311 95.2476 38.1599V38.11C94.9777 38.5184 94.7599 38.9591 94.5993 39.4216L94.4247 39.8555C97.0455 33.023 96.9024 25.4384 94.0257 18.7096C93.5869 17.6833 93.0873 16.6841 92.5296 15.7173C93.1689 16.6392 93.7583 17.5948 94.2951 18.5799C94.462 18.058 94.4776 17.4994 94.3399 16.969C94.2159 16.3643 94.0287 15.7742 93.7814 15.2086C93.6068 14.8445 93.3974 14.4306 93.143 13.9717C93.0183 13.7373 92.8837 13.473 92.739 13.2336C92.596 12.9554 92.4291 12.6901 92.2403 12.4407C91.8034 11.7978 91.3305 11.18 90.8239 10.5904L90.5895 10.2612L89.4973 8.94459L88.9138 8.25136C88.6994 8.03192 88.47 7.81746 88.2455 7.59304C86.7058 6.39279 85.0844 5.30127 83.393 4.3264L82.3107 3.73292L81.8718 3.41872L80.1064 2.69558L79.2386 2.31655C78.8147 2.14698 78.4057 2.03227 78.0416 1.9026C71.2385 -0.707791 63.6919 -0.600642 56.9656 2.20183C56.3285 2.44549 55.7072 2.72866 55.1053 3.04967C54.5069 3.37384 53.8685 3.62819 53.2999 4.0122L51.5794 5.11937L51.1505 5.40365L50.7515 5.72282L49.9585 6.36119C48.9147 7.20199 47.933 8.11704 47.021 9.0992C46.5672 9.59792 46.1732 10.0966 45.7592 10.5954C45.4899 10.9195 45.2306 11.2487 44.9912 11.5928C44.8519 11.7738 44.722 11.9619 44.6022 12.1564C44.3129 12.4257 43.9339 12.7997 43.4801 13.3034C42.9487 13.9394 42.481 14.6259 42.0836 15.3532C40.5972 17.9103 39.5281 20.6882 38.9168 23.5821L38.7871 24.1257L38.7123 24.6743C38.6657 25.0401 38.6208 25.3992 38.5776 25.7516C38.5327 26.1057 38.4928 26.4548 38.4529 26.7989C38.4279 27.1308 38.4195 27.4637 38.428 27.7964C38.428 28.4597 38.428 29.0831 38.428 29.6666C38.428 30.2501 38.5776 30.7887 38.6574 31.2675C38.6574 31.7064 38.6275 32.1602 38.6275 32.6091C38.6275 33.0579 38.7123 33.4918 38.7671 33.9057C38.8344 34.6063 38.9663 35.2991 39.1611 35.9754C39.5621 37.3816 40.0433 38.7637 40.6024 40.1148L40.6324 40.2046C41.7406 43.3521 43.4326 46.2624 45.6196 48.7827L45.4051 48.4635L45.6894 48.8026C45.8252 48.9889 45.9717 49.1671 46.1283 49.3362C47.2908 50.7008 48.5855 51.9471 49.9934 53.0567L51.2203 53.9195C51.6208 54.2239 52.0406 54.5021 52.4771 54.7524L53.7737 55.5154L54.4121 55.8945C54.6315 56.0092 54.856 56.1089 55.0754 56.2136C56.6441 57.002 58.2882 57.6302 59.9828 58.0888C60.8606 58.2634 61.6885 58.4379 62.4765 58.5876L64.8205 58.9068C65.0399 58.9417 65.2643 58.9616 65.4888 58.9766H65.5436L65.7132 59.0015H65.8578C66.0074 59.0015 66.1571 59.0364 66.3166 59.0464H66.3815C66.7156 59.0763 67.0647 59.1012 67.4238 59.1162C67.0398 59.1162 66.7007 59.0664 66.3915 59.0414L66.4264 58.9965C66.6408 58.9965 66.8553 58.9965 67.0647 59.0264C67.3989 59.0264 67.728 59.0514 68.0622 59.0564C68.1619 59.0564 68.2567 59.0564 68.3614 59.0564L70.3862 59.0264C70.9765 59.0155 71.5658 58.9738 72.1517 58.9018C72.5209 58.8607 72.8925 58.844 73.2639 58.8519C74.1466 58.5128 72.3961 58.812 70.85 59.0065C71.658 58.9068 72.5357 58.7472 73.4384 58.6075C74.3411 58.4679 75.2239 58.1636 76.0966 57.9642L76.4108 57.8894L75.9121 58.0489C75.4078 58.2282 74.8864 58.3552 74.3561 58.428C73.9471 58.5975 74.1117 58.6075 74.6553 58.5227C76.351 58.1686 79.3982 57.1163 79.5378 56.9069C79.852 56.8071 80.1313 56.6924 80.3906 56.6176L81.1238 56.1189L81.4729 55.9892L81.1686 56.074C83.1635 55.0766 85.2133 53.8497 86.4152 52.6478C86.5399 52.4982 86.6247 52.3884 86.6895 52.3037C87.2281 51.9845 86.4651 52.573 86.3255 52.7725C86.6347 52.5381 86.9339 52.3236 87.1932 52.1042L87.8565 51.4658C88.1562 51.195 88.4255 50.8923 88.6595 50.5631L87.5872 51.5256L87.0536 52.0244L86.7344 52.2637C86.8242 52.1291 86.8491 52.0692 86.8342 52.0443C86.9588 51.9246 87.0735 51.7999 87.1833 51.6802C87.4804 51.3273 87.8003 50.9941 88.1408 50.6828C89.4119 49.5855 90.6128 48.4095 91.7366 47.1618C91.7366 47.2117 91.6917 47.2566 91.6718 47.3014L91.3626 47.7054C90.7541 48.4784 89.9362 49.3113 89.622 49.6754L90.9636 48.4086C91.0905 48.232 91.2055 48.047 91.3077 47.855C91.394 47.7293 91.4963 47.6153 91.6119 47.5159C91.6119 47.5159 91.6418 47.5159 91.6718 47.491C91.6744 47.4955 91.6758 47.5007 91.6758 47.5059C91.6758 47.5112 91.6744 47.5163 91.6718 47.5209L91.7366 47.4261L91.8713 47.3114V47.2167L92.37 46.5284C92.37 46.4935 92.37 46.4835 92.37 46.4786C92.5745 46.2741 92.7789 46.0646 93.0034 45.8202C93.4778 45.2036 93.9174 44.561 94.32 43.8952C94.32 43.8952 94.32 43.8303 94.3549 43.7904C94.8557 43.0081 95.3071 42.1953 95.7064 41.3567C95.9315 40.8345 96.0987 40.2893 96.2052 39.7308C96.2052 39.6809 96.2351 39.6411 96.255 39.5912C96.3509 39.2655 96.416 38.9316 96.4495 38.5937C96.4869 38.5002 96.5153 38.4034 96.5343 38.3045ZM91.9511 47.0471V46.9972L92.0309 46.9075L92.1256 46.8077L91.9511 47.0471Z" fill="#C3D8CC"/>
<path d="M95.8962 19.4132L95.7067 18.8696L95.6768 18.8247C95.7366 18.9943 95.8114 19.1888 95.8862 19.4182C95.8912 19.4232 95.8912 19.4132 95.8962 19.4132Z" fill="#C3D8CC"/>
<path d="M95.6767 18.8244C95.6067 18.6644 95.5549 18.4972 95.5221 18.3257C95.2728 17.9267 95.5221 18.6548 95.8164 19.5725C96.2403 20.4901 95.2528 18.186 95.6767 18.8244Z" fill="#C3D8CC"/>
<path d="M95.8408 18.5702C96.0652 19.1387 96.3844 20.0663 96.2148 19.8469L96.6038 20.6349L95.6562 18.0166C95.761 18.5403 96.0253 19.403 95.8956 19.413L96.2846 20.5302C96.0948 19.887 95.9466 19.2323 95.8408 18.5702Z" fill="#C3D8CC"/>
<path d="M97.4767 24.6396C97.4479 24.8046 97.4479 24.9734 97.4767 25.1384C97.5002 24.973 97.5002 24.8051 97.4767 24.6396Z" fill="#C3D8CC"/>
<path d="M97.4669 25.1334C97.3921 25.3429 97.1228 24.2157 97.3173 26.1707C97.2874 25.6222 97.2574 25.0686 97.3721 25.308L97.442 25.8815C97.5118 26.051 97.4868 25.5523 97.4669 25.1334Z" fill="#C3D8CC"/>
<path d="M96.2344 21.1288C96.1845 20.8994 96.1097 20.68 96.0499 20.4556C95.985 20.6052 96.1247 20.9094 96.2094 21.3333C96.3339 21.8153 96.4256 22.3052 96.4837 22.7995L96.6134 23.1936L96.364 21.8221L96.2344 21.1288Z" fill="#C3D8CC"/>
<path d="M90.1354 49.8154L90.0307 49.8803L89.8711 50.1047L90.1354 49.8154Z" fill="#C3D8CC"/>
<path d="M89.0738 50.8082C88.7483 51.0616 88.4432 51.34 88.1611 51.6411C88.6599 51.2471 89.1586 50.863 89.6224 50.4491L89.8718 50.105C89.6383 50.3739 89.37 50.6105 89.0738 50.8082Z" fill="#C3D8CC"/>
<path d="M89.8516 49.99L90.0311 49.8803C90.4525 49.3359 90.9107 48.821 91.4026 48.3392C91.9565 47.6766 92.4759 46.9858 92.9586 46.2695C92.415 46.9278 91.8814 47.6061 91.3826 48.2644C90.8839 48.9227 90.3104 49.4913 89.8516 49.99Z" fill="#C3D8CC"/>
<path d="M4.30009 26.8589V27.0185C4.17244 27.0132 4.04521 27.0364 3.92759 27.0862C3.80998 27.1361 3.7049 27.2115 3.61996 27.3069C3.53502 27.4024 3.47234 27.5155 3.43644 27.6381C3.40054 27.7607 3.39232 27.8898 3.41236 28.0159V32.4546C3.41236 34.9781 2.06082 35.9456 0.320274 36.19L0.275391 36.0254C1.19803 35.6963 2.06082 34.8385 2.06082 32.5344V29.3376C2.06082 27.3427 2.06082 27.0484 1.22795 27.0484V26.8888L4.30009 26.8589Z" fill="#101010"/>
<path d="M17.9355 34.3852H15.1875V34.2256C15.8907 34.2256 15.5615 33.3479 15.4319 33.0487L15.0927 32.1958H12.4196C12.27 32.6247 11.7014 34.2905 13.2973 34.2256V34.3852H10.8037V34.2256C11.1428 34.2256 11.4122 34.2256 12.3946 31.732L14.225 26.8545H14.3646C16.3296 31.5674 17.0477 33.3977 17.0477 33.3977C17.4018 34.2556 17.6462 34.2007 17.9355 34.2207V34.3852ZM15.0279 32.0362L13.7013 28.6998L12.4694 32.0362H15.0279Z" fill="#101010"/>
<path d="M34.3183 34.225V34.3846H31.3259V34.225C31.7748 34.225 32.094 33.9158 32.094 33.1129V27.3177L29.3909 34.4844H29.2313L26.2389 28.001V31.7015C26.2389 32.3199 26.3237 34.225 27.6603 34.225V34.3846H24.5283V34.225C25.9846 34.225 26.0794 32.31 26.0794 31.7015V27.7466C25.9715 27.5226 25.8011 27.3346 25.5887 27.2054C25.3763 27.0761 25.1309 27.0112 24.8824 27.0185V26.8589H27.3012L29.9744 32.5992L32.099 26.8589H34.2385V27.0185C33.7796 27.0185 33.4156 27.2728 33.4156 27.9561V33.1129C33.4206 33.9158 33.8644 34.225 34.3183 34.225Z" fill="#101010"/>
<path d="M44.3078 26.8589V27.0185C43.8489 27.0185 43.4749 27.2529 43.4749 27.9162V33.1678C43.4749 33.8959 43.8589 34.225 44.3078 34.225V34.3846H41.3154V34.225C41.7743 34.225 42.1483 33.8959 42.1483 33.1678V27.9162C42.1483 27.2529 41.7842 27.0185 41.3154 27.0185V26.8589H44.3078Z" fill="#101010"/>
<path d="M57.0058 32.1105V34.3846H51.3203V34.225C51.7692 34.225 51.9188 33.7562 51.9188 33.0281V28.1605C51.9188 27.4972 51.7891 27.0185 51.3203 27.0185V26.8589H56.8811V28.8538H56.7215C56.537 27.0484 54.163 27.0384 53.7292 27.0384H53.2304V30.5295H53.7641C53.9137 30.5295 55.2951 30.5295 55.3799 29.4373H55.5395V31.7913H55.3799C55.2951 30.6891 53.8838 30.6891 53.7641 30.6891H53.2304V34.25H53.6693C54.1381 34.25 56.5021 34.2749 56.8462 32.1354L57.0058 32.1105Z" fill="#101010"/>
<path d="M72.0767 33.1479C72.085 33.487 71.9611 33.8161 71.7313 34.0655C71.5014 34.3149 71.1835 34.4652 70.8448 34.4845C70.8448 34.4845 69.7875 34.5793 69.3487 33.9459L68.7502 33.0731C68.3412 34.29 66.1519 35.1977 65.0796 33.7115C64.0073 32.2253 65.4137 31.0732 66.2566 30.5795L66.7902 30.2603L66.2267 29.4025C65.2292 28.0111 65.8925 26.6745 67.0895 26.47C67.3635 26.3963 67.6524 26.3981 67.9255 26.4754C68.1986 26.5526 68.4457 26.7024 68.6405 26.9089C69.0594 27.4076 69.5282 28.6644 67.9024 29.8214L69.2539 31.8163C69.347 31.5361 69.5076 31.2831 69.7216 31.0796C69.9355 30.8761 70.1963 30.7283 70.4808 30.6493C70.6027 30.6171 70.7302 30.6121 70.8542 30.6345C70.9783 30.6569 71.096 30.7062 71.1989 30.779C71.2627 30.8295 71.3152 30.8926 71.3533 30.9644C71.3914 31.0362 71.4143 31.1151 71.4204 31.1962C71.4264 31.2772 71.4157 31.3587 71.3887 31.4354C71.3618 31.5121 71.3192 31.5824 71.2638 31.6418C71.1572 31.768 71.0049 31.8468 70.8404 31.8608C70.6758 31.8748 70.5124 31.8229 70.386 31.7166C70.3246 31.6659 70.2747 31.6029 70.2394 31.5315C70.2042 31.4602 70.1845 31.3822 70.1815 31.3027C70.1815 31.0782 69.603 31.2478 69.3387 31.941L70.1815 33.1629C70.2811 33.3088 70.4131 33.4296 70.567 33.5161C70.721 33.6027 70.8929 33.6524 71.0693 33.6616C71.4433 33.6616 71.8174 33.5419 71.9021 33.1629L72.0767 33.1479ZM68.6405 32.9085L66.8999 30.4149L66.3613 30.759C66.1736 30.906 66.0188 31.0907 65.9069 31.3011C65.795 31.5116 65.7284 31.7432 65.7115 31.981C65.6946 32.2187 65.7277 32.4574 65.8087 32.6816C65.8897 32.9058 66.0168 33.1105 66.1818 33.2826C66.3431 33.4726 66.5503 33.6182 66.7837 33.7055C67.0172 33.7928 67.2691 33.8189 67.5155 33.7815C67.7619 33.744 67.9946 33.6441 68.1915 33.4913C68.3884 33.3385 68.543 33.1379 68.6405 32.9085ZM67.0496 28.5447L67.8176 29.6818C69.219 28.7592 68.9746 27.627 68.5008 27.0386C68.3585 26.8853 68.176 26.775 67.9741 26.7203C67.7722 26.6657 67.559 26.6688 67.3588 26.7293C66.7802 26.9089 66.5359 27.7767 67.0496 28.5447Z" fill="#101010"/>
<path d="M86.2308 34.3852H83.4829V34.2256C84.1861 34.2256 83.8569 33.3479 83.7272 33.0487L83.3831 32.1958H80.7449C80.5953 32.6247 80.0267 34.2905 81.6176 34.2256V34.3852H79.124V34.2256C79.4632 34.2256 79.7325 34.2256 80.715 31.732L82.5453 26.8545H82.6849C84.6499 31.5674 85.368 33.3977 85.368 33.3977C85.7221 34.2556 85.9665 34.2007 86.2558 34.2207L86.2308 34.3852ZM83.3183 32.0362L81.9917 28.6998L80.7449 32.0362H83.3183Z" fill="#101010"/>
<path d="M101.252 26.8589V27.0185C99.6959 27.0085 99.6959 29.0433 99.6959 29.542V34.3846H99.2371L94.6239 28.5147V31.6815C94.6239 32.1803 94.6239 34.225 96.0602 34.225V34.3846H92.8933V34.225C94.4643 34.225 94.4643 32.1603 94.4643 31.6815V28.3451L94.0354 27.7965C93.3522 26.9437 93.038 27.0384 92.7637 27.0185V26.8589H95.0628L99.5513 32.4945V29.542C99.5513 29.0433 99.5513 27.0085 98.115 27.0185V26.8589H101.252Z" fill="#101010"/>
<path d="M116.334 26.8589V27.0185C114.748 27.0185 114.783 29.0483 114.783 29.542V34.3846H114.324L109.711 28.5147V31.6815C109.711 32.1803 109.711 34.225 111.147 34.225V34.3846H107.98V34.225C109.551 34.225 109.551 32.1603 109.551 31.6815V28.3451L109.122 27.7965C108.439 26.9437 108.125 27.0384 107.851 27.0185V26.8589H110.17L114.658 32.4945V29.542C114.658 29.0433 114.658 27.0085 113.222 27.0185V26.8589H116.334Z" fill="#101010"/>
<path d="M126.323 26.8589V27.0185C126.206 27.0089 126.087 27.026 125.977 27.0686C125.867 27.1113 125.768 27.1783 125.687 27.2646C125.607 27.351 125.547 27.4544 125.512 27.5673C125.477 27.6801 125.468 27.7994 125.486 27.9162V33.1678C125.486 33.8959 125.875 34.225 126.323 34.225V34.3846H123.331V34.225C123.795 34.225 124.169 33.8959 124.169 33.1678V27.9162C124.169 27.2529 123.805 27.0185 123.331 27.0185V26.8589H126.323Z" fill="#101010"/>
<path d="M139.015 32.1105V34.3846H133.314V34.225C133.763 34.225 133.913 33.7562 133.913 33.0281V28.1605C133.913 27.4972 133.788 27.0185 133.314 27.0185V26.8589H138.875V28.8538H138.716C138.536 27.0484 136.162 27.0384 135.723 27.0384H135.225V30.5295H135.758C135.913 30.5295 137.289 30.5295 137.374 29.4373H137.534V31.7913H137.374C137.289 30.6891 135.878 30.6891 135.758 30.6891H135.225V34.25H135.663C136.162 34.25 138.496 34.2749 138.84 32.1354L139.015 32.1105Z" fill="#101010"/>
<path d="M50.3767 71.4352C49.8414 71.4733 49.3068 71.3518 48.8406 71.0861V69.9341H48.9304C49.0251 70.4777 49.3294 71.3505 50.3767 71.3505C51.1497 71.3505 51.3093 70.4079 50.5911 69.8892L49.6386 69.2807C48.9254 68.8219 48.4915 68.2534 48.9703 67.5701C49.1156 67.4022 49.2996 67.2722 49.5064 67.1914C49.7132 67.1106 49.9366 67.0814 50.1572 67.1063C50.6572 67.085 51.1549 67.1842 51.6085 67.3956V68.393H51.5188C51.4849 68.058 51.3259 67.7481 51.0735 67.5253C50.8211 67.3024 50.4939 67.1831 50.1572 67.1911C49.5139 67.1911 49.1598 68.004 49.9877 68.5476L50.9452 69.181C51.7432 69.6797 51.9776 70.363 51.5936 70.9365C51.5936 70.9365 51.3193 71.4352 50.3767 71.4352Z" fill="#101010"/>
<path d="M59.5186 67.1357V68.2728H59.4288C59.3939 67.2454 58.2519 67.2255 58.212 67.2255H57.9776V70.7166C57.9776 71.1156 58.202 71.2801 58.4763 71.2801V71.3699H56.7956V71.2801C57.0499 71.2801 57.2694 71.1156 57.2694 70.7166V67.2255H57.04C56.9452 67.2255 55.863 67.2255 55.828 68.2728H55.7383V67.1357H59.5186Z" fill="#101010"/>
<path d="M63.7234 69.9043V67.7498C63.7234 67.3657 63.5339 67.2261 63.2695 67.2261V67.1363H64.9752V67.2261C64.7158 67.2261 64.4764 67.3059 64.4764 67.7548V69.9392C64.46 70.0864 64.4753 70.2354 64.5213 70.3763C64.5673 70.5171 64.6429 70.6465 64.7431 70.7556C64.8433 70.8648 64.9657 70.9512 65.1021 71.0091C65.2384 71.067 65.3856 71.095 65.5337 71.0912C65.68 71.0878 65.8239 71.0543 65.9566 70.9926C66.0892 70.931 66.2077 70.8426 66.3047 70.7331C66.4016 70.6235 66.4748 70.4951 66.5198 70.3559C66.5648 70.2167 66.5806 70.0697 66.5661 69.9242V68.2186C66.5661 67.9293 66.5661 67.2211 65.803 67.2211V67.1313H67.4887V67.2211C66.6409 67.2211 66.6559 67.9343 66.6559 68.2186V69.9392C66.6783 70.1389 66.6559 70.3412 66.5902 70.5312C66.5246 70.7212 66.4174 70.8942 66.2764 71.0375C66.1355 71.1808 65.9643 71.2909 65.7755 71.3598C65.5866 71.4286 65.3847 71.4544 65.1846 71.4353C64.9838 71.4465 64.7829 71.4139 64.5958 71.3399C64.4087 71.2659 64.2399 71.1523 64.101 71.0067C63.9621 70.8612 63.8564 70.6872 63.7912 70.4969C63.726 70.3066 63.7029 70.1044 63.7234 69.9043Z" fill="#101010"/>
<path d="M72.7645 71.3599H71.3281V71.2702C71.5825 71.2702 71.752 71.0008 71.752 70.5919V67.9038C71.752 67.5347 71.5924 67.2255 71.3281 67.2255V67.1357H72.7645C73.9614 67.1357 75.2132 67.5048 75.2132 69.2603C75.2132 71.0158 73.9813 71.3599 72.7645 71.3599ZM72.7645 67.2255H72.5001V71.2702H72.7645C73.3779 71.2702 74.3255 71.1904 74.3255 69.2753C74.3255 67.3602 73.4078 67.2255 72.7645 67.2255Z" fill="#101010"/>
<path d="M80.9843 67.1357V67.2255C80.9188 67.2204 80.853 67.23 80.7917 67.2537C80.7305 67.2774 80.6753 67.3146 80.6303 67.3625C80.5853 67.4103 80.5517 67.4677 80.5318 67.5303C80.5119 67.5929 80.5063 67.6592 80.5155 67.7242V70.6717C80.5155 71.0756 80.73 71.2652 80.9843 71.2652V71.355H79.3086V71.2652C79.5679 71.2652 79.7774 71.0756 79.7774 70.6717V67.7242C79.7774 67.3552 79.5729 67.2255 79.3086 67.2255V67.1357H80.9843Z" fill="#101010"/>
<path d="M86.9783 71.4354C85.6617 71.4354 84.9834 70.4978 84.9834 69.3058C84.9834 68.1139 85.6766 67.1064 86.9783 67.1064C88.28 67.1064 88.9732 68.1039 88.9732 69.3058C88.9732 70.5077 88.2999 71.4354 86.9783 71.4354ZM86.9783 67.2012C86.2651 67.2012 85.8262 67.66 85.8262 69.3058C85.8262 70.9516 86.2651 71.3506 86.9783 71.3506C87.6915 71.3506 88.1204 70.9516 88.1204 69.3058C88.1204 67.66 87.6865 67.1763 86.9783 67.1763V67.2012Z" fill="#101010"/>
</svg>
