<svg width="76" height="72" viewBox="0 0 76 72" fill="none" xmlns="http://www.w3.org/2000/svg">
<path d="M64.0458 9.0729L62.5708 7.5939C67.7532 3.87847 61.8412 2.41144 60.5496 0.0195312C58.2777 2.36628 55.4828 4.14214 52.3932 5.20199L50.1647 7.42646C37.1089 20.4823 25.548 33.4823 12.1215 45.5295C21.0393 38.0429 29.0761 30.7157 36.9295 22.1447C37.1089 22.4437 37.2325 22.922 37.7268 22.8224C31.2248 33.0199 20.4732 37.8555 13.2337 47.3155L11.7667 45.8485C8.66118 48.639 5.46001 51.3419 2.11135 54.0009C0.863569 55.2486 0.488843 57.0186 0.460938 58.7847C11.8942 52.47 21.3423 42.5038 31.2567 33.9527C27.3619 37.8475 23.2837 42.6712 18.6434 45.8285C12.3288 50.6681 7.69645 56.046 1.5652 59.9487C1.22236 60.1481 0.871546 60.3474 0.520733 60.5387C0.588503 61.336 0.692154 62.0576 0.783844 62.7154C1.52135 65.6734 3.5465 68.8187 7.6247 68.44L9.29106 66.7697C10.2438 67.2799 10.8857 68.1928 11.5235 69.0778C15.51 65.8886 19.4288 62.5798 23.3674 59.3189C28.0755 55.0134 32.9111 50.9472 38.2491 47.6503C33.0945 51.3379 28.207 55.3045 23.3674 59.3189C19.5962 62.7632 15.9087 66.371 12.1175 69.9031C12.8709 70.8997 13.6922 71.6571 15.0197 71.386C17.2441 71.386 20.0307 66.375 22.6299 64.5173C30.2282 59.873 36.5389 52.8248 43.7584 47.8098C48.9409 44.0984 53.035 39.2747 57.1172 34.451C62.503 27.5902 70.6713 22.3878 74.1914 15.9018C77.1933 9.95789 70.3484 6.46573 64.0458 9.0729Z" fill="#C3D8CC"/>
<path d="M21.7254 33.8061L12.9551 21.3004V28.5678C12.9551 30.4295 13.0707 33.5948 16.4712 33.5948V33.8061H9.0563V33.5948C12.2694 33.5948 12.7358 30.4056 12.7358 28.5678V21.0254L11.6435 19.4626C10.2443 17.6249 9.33935 17.6488 8.7334 17.6009V17.4136H16.1603L24.0735 28.8469V22.6279C24.0735 20.4633 23.332 17.6009 20.7447 17.6009V17.4136H27.8009V17.6009C24.9146 17.6009 24.2848 20.4633 24.2848 22.6279V33.7902L21.7254 33.8061Z" fill="#101010"/>
<path d="M42.4193 29.2415V33.8061H28.8213V33.5948C29.802 33.5948 30.1727 32.1995 30.1727 30.6169V20.6267C30.1727 19.1836 29.8458 17.6009 28.8213 17.6009V17.4136H42.1163V22.1974H41.909C41.909 17.6568 35.5306 17.6328 35.5306 17.6328H34.6934V25.4304H36.579C36.603 25.4304 39.0706 25.5022 39.3257 22.6837H39.537V28.3884H39.3257C39.0706 25.5979 36.603 25.6417 36.579 25.6417H34.6934V33.6148H35.5306C35.5306 33.6148 42.1881 33.8699 42.1881 29.2615L42.4193 29.2415Z" fill="#101010"/>
<path d="M70.3324 17.4133V17.6007C69.3996 17.6007 67.9804 18.3223 66.2821 22.4204L62.2079 33.8059H61.3628C59.1941 28.751 57.7988 25.494 56.866 23.3732L53.1426 33.8059H52.3054C46.4373 20.0923 46.1343 19.4863 46.1343 19.4863C45.337 17.6246 45.0181 17.6485 44.4121 17.6007V17.4133H51.6755V17.6007C50.1846 17.6007 51.3726 20.2996 51.3726 20.2996L54.8887 28.2726L56.7504 23.0901C55.3312 19.7853 55.1916 19.4823 55.1916 19.4823C54.3943 17.6206 54.0754 17.6445 53.4695 17.5967V17.4093H60.7329V17.5967C59.2419 17.5967 60.4299 20.2956 60.4299 20.2956L63.9301 28.2965L66.027 22.4084C66.609 20.754 66.0947 17.5887 63.7188 17.5887V17.4014L70.3324 17.4133Z" fill="#101010"/>
<path d="M28.4865 37.5968V37.7841C27.5577 37.7841 26.1345 38.5057 24.4362 42.6038L20.362 53.9893H19.5249C17.3602 48.9344 15.9609 45.6774 15.0321 43.5566L11.3047 53.9893H10.4675C4.59936 40.2757 4.29639 39.6698 4.29639 39.6698C3.49909 37.8081 3.18017 37.832 2.57422 37.7841V37.5968H9.83764V37.7841C8.34669 37.7841 9.53466 40.483 9.53466 40.483L13.0508 48.456L14.9125 43.2736C13.4933 39.9687 13.3537 39.6658 13.3537 39.6658C12.5564 37.8041 12.2375 37.828 11.6316 37.7801V37.5928H18.895V37.7801C17.404 37.7801 18.592 40.479 18.592 40.479L22.0842 48.4879L24.1811 42.5998C24.7631 40.9454 24.2489 37.7801 21.8769 37.7801V37.5928L28.4865 37.5968Z" fill="#101010"/>
<path d="M35.5862 37.5967H35.7018C41.5938 51.103 41.9885 51.8684 41.9885 51.8684C42.8257 53.7301 43.619 53.754 44.0854 53.8018V53.9892H35.937V53.8098C37.7987 53.8098 36.3994 51.087 36.3994 51.087L35.6539 49.4924H31.0934C30.6269 50.5409 31.0655 53.8098 33.856 53.8098V53.9972H27.1348V53.8098C27.8324 53.762 29.0881 53.5786 30.8821 49.4805L35.5862 37.5967ZM33.2341 44.0229L31.1611 49.2612H35.5463L33.2341 44.0229Z" fill="#101010"/>
<path d="M60.4976 37.5967V37.784C59.493 37.784 58.0061 38.5056 56.1882 42.6037L51.6037 53.9892H50.926C44.6871 40.2756 44.3602 39.6697 44.3602 39.6697C43.5231 37.808 43.1643 37.8319 42.5225 37.784V37.5967H50.2762V37.784C48.6816 37.784 49.9493 40.4829 49.9493 40.4829L53.5372 48.5157L55.9291 42.6037C56.6267 40.8816 56.2082 37.784 53.4136 37.784V37.5967H60.4976Z" fill="#101010"/>
<path d="M75.2796 49.4246V53.9892H61.6816V53.7779C62.6583 53.7779 63.0331 52.3826 63.0331 50.8V40.8098C63.0331 39.3667 62.7062 37.784 61.6816 37.784V37.5967H74.9767V42.3805H74.7654C74.7654 37.8438 68.4109 37.8199 68.4109 37.8199H67.5697V45.6175H69.4593C69.4793 45.6175 71.9469 45.6893 72.206 42.8708H72.4133V48.5755H72.206C71.9469 45.785 69.4793 45.8288 69.4593 45.8288H67.5697V53.8018H68.4109C68.4109 53.8018 75.0683 54.057 75.0683 49.4486L75.2796 49.4246Z" fill="#101010"/>
</svg>
