<svg width="88" height="72" viewBox="0 0 88 72" fill="none" xmlns="http://www.w3.org/2000/svg">
<path d="M16.4989 25.2545C18.3599 23.9913 20.3618 22.9492 22.4639 22.1493C23.5419 21.7471 24.6481 21.3448 25.7622 20.9426C26.8764 20.5404 28.0388 20.283 29.1812 19.9571C33.7585 18.6579 38.4003 17.7489 42.4547 16.0797C47.4784 14.0378 52.7552 12.6847 58.1416 12.0574L60.1809 11.7999C60.8647 11.7356 61.5485 11.6954 62.2323 11.6431C63.5972 11.5492 64.9594 11.4701 66.3189 11.4058H70.3774H72.3886L74.3756 11.4983C74.3273 12.5602 73.4022 14.1128 74.2429 14.688C77.6015 16.4497 77.4084 18.5735 77.2716 20.6973C77.1992 21.7591 74.818 20.5726 75.5742 21.6787C74.2789 21.598 72.9785 21.6723 71.7008 21.8999C70.6791 22.1614 70.2769 22.5596 71.4715 23.1066C72.2438 24.1685 75.4938 23.2916 76.1856 24.9126C76.8775 26.5336 75.2163 28.0621 75.888 29.6911C76.6522 29.6911 78.1646 29.856 78.9208 29.9284C79.5724 31.0627 77.8951 33.0417 78.6392 33.11C79.693 33.7616 80.9601 33.9627 82.3236 34.1558C83.6872 34.3489 85.1593 34.4253 86.6154 34.6264C86.5269 35.1493 86.6395 35.7084 86.5631 36.167C86.5362 36.3951 86.431 36.6069 86.2654 36.7663C86.044 36.9784 85.7636 37.1186 85.461 37.1685C72.9919 35.7285 60.1206 36.7904 47.8687 39.6503C35.6168 42.5101 23.8758 47.0875 12.8748 52.7267C10.1557 53.684 10.8637 50.8322 11.9658 48.3344C11.5997 49.163 10.7913 47.7833 10.4212 48.6159C9.93748 47.6891 9.78289 46.6254 9.98278 45.5992C10.0822 44.9681 10.289 44.3586 10.5942 43.7973C10.9372 43.157 11.4147 42.5985 11.9939 42.1602C11.3021 42.5021 10.6465 42.9083 9.98278 43.2945C9.04961 43.218 9.17834 41.9068 8.66751 40.9817C9.34727 40.5794 10.0311 40.1772 9.77363 39.7227L8.7439 37.8604L5.95646 39.4693C6.65232 39.067 7.34817 38.6648 7.08672 38.1942L6.03289 36.3439C7.18728 35.0085 9.91038 34.8557 11.1171 33.6088L10.3931 32.1849C8.67152 32.4987 6.6644 34.0834 5.24453 34.9603C5.7071 34.0754 5.44966 33.6088 4.92676 32.6837C5.40888 32.2576 5.96329 31.9211 6.56383 31.6902C7.15109 31.4368 7.77053 31.2316 8.35778 30.9943C9.61728 30.5912 10.7105 29.7875 11.471 28.7056C10.6907 29.0515 9.93854 29.4498 9.18234 29.848C9.24728 29.1225 9.59557 28.4519 10.1517 27.9816C10.7569 27.515 11.437 27.1546 12.1628 26.9157C13.6833 26.3606 15.3847 25.9584 16.4989 25.2545Z" fill="#C3D8CC"/>
<path d="M2.3928 66.7678C3.1296 66.7389 3.84942 66.9938 4.40394 67.4798C4.66577 67.7084 4.87371 67.9921 5.01281 68.3107C5.1519 68.6292 5.21869 68.9746 5.2084 69.322C5.21793 69.6705 5.15083 70.0168 5.01183 70.3365C4.87282 70.6563 4.6653 70.9415 4.40394 71.1722C3.84982 71.6594 3.13008 71.9156 2.3928 71.8882H0.59082V66.7678H2.3928ZM1.83772 70.939H2.3928C2.60031 70.9502 2.80783 70.9169 3.00139 70.8412C3.19496 70.7656 3.37007 70.6494 3.51501 70.5005C3.78063 70.1667 3.92524 69.7526 3.92524 69.326C3.92524 68.8994 3.78063 68.4854 3.51501 68.1515C3.36945 68.0034 3.19422 67.8878 3.00081 67.8122C2.80739 67.7367 2.60019 67.7029 2.3928 67.7131H1.83772V70.939Z" fill="#101010"/>
<path d="M13.7477 66.752V67.7213H11.8934V68.8234H13.5264V69.7325H11.8934V70.9391H13.7477V71.8884H10.6465V66.752H13.7477Z" fill="#101010"/>
<path d="M21.2209 67.6773C21.0761 67.6681 20.9329 67.7125 20.8187 67.802C20.7681 67.8463 20.7284 67.9016 20.7026 67.9636C20.6768 68.0257 20.6656 68.0929 20.6699 68.16C20.666 68.2284 20.6761 68.2968 20.6996 68.3611C20.7231 68.4255 20.7596 68.4843 20.8066 68.5341C20.9081 68.6355 21.0321 68.7113 21.1686 68.7553C21.3161 68.8089 21.481 68.8572 21.6634 68.9001C21.8473 68.9466 22.0285 69.003 22.2064 69.069C22.381 69.1295 22.5472 69.212 22.7011 69.3144C22.8523 69.4163 22.9754 69.5546 23.0591 69.7166C23.1573 69.9152 23.2056 70.1347 23.1999 70.3562C23.1997 70.5691 23.152 70.7793 23.0601 70.9714C22.9683 71.1634 22.8346 71.3326 22.6689 71.4663C22.2798 71.7902 21.7828 71.9554 21.2772 71.9289C20.781 71.9574 20.29 71.8154 19.8855 71.5267C19.7092 71.3861 19.5691 71.2054 19.4767 70.9997C19.3844 70.794 19.3425 70.5692 19.3546 70.3441H20.6819C20.6886 70.4627 20.7277 70.5772 20.795 70.675C20.8623 70.7729 20.9552 70.8503 21.0636 70.8989C21.172 70.9475 21.2916 70.9653 21.4095 70.9505C21.5273 70.9356 21.6388 70.8887 21.7317 70.8147C21.7825 70.7695 21.8225 70.7135 21.8489 70.6509C21.8753 70.5883 21.8875 70.5206 21.8846 70.4527C21.8876 70.3874 21.877 70.3223 21.8535 70.2613C21.8299 70.2004 21.7939 70.145 21.7478 70.0987C21.6453 69.9987 21.5216 69.9231 21.3858 69.8775C21.237 69.8252 21.0721 69.7769 20.8911 69.7287C20.7068 69.682 20.5254 69.6243 20.3481 69.5557C20.1766 69.4924 20.0122 69.4115 19.8573 69.3144C19.704 69.2138 19.5793 69.0753 19.4954 68.9122C19.3977 68.7163 19.3493 68.4995 19.3546 68.2807C19.3481 68.0617 19.3932 67.8442 19.4861 67.6458C19.579 67.4474 19.7172 67.2736 19.8895 67.1383C20.2778 66.8391 20.7593 66.6867 21.2491 66.7079C21.7241 66.686 22.1936 66.8171 22.5885 67.082C22.7672 67.2259 22.9087 67.4106 23.0011 67.6206C23.0935 67.8306 23.1341 68.0597 23.1194 68.2887H21.7639C21.7557 68.1297 21.6916 67.9787 21.5829 67.8623C21.5385 67.8084 21.4834 67.7641 21.4211 67.7323C21.3588 67.7004 21.2907 67.6817 21.2209 67.6773Z" fill="#101010"/>
<path d="M28.8711 71.8889V66.7686H30.118V71.8889H28.8711Z" fill="#101010"/>
<path d="M36.3406 71.1883C35.8529 70.6855 35.5801 70.0125 35.5801 69.3119C35.5801 68.6114 35.8529 67.9383 36.3406 67.4355C36.5858 67.1939 36.8769 67.0039 37.1968 66.8768C37.5167 66.7497 37.8588 66.688 38.203 66.6954C38.744 66.6859 39.2749 66.8432 39.7234 67.1459C40.1647 67.4476 40.4908 67.89 40.6485 68.4009H39.1603C39.0778 68.2253 38.9451 68.0781 38.779 67.9779C38.6129 67.8776 38.4209 67.8289 38.2271 67.8377C38.0398 67.8287 37.8528 67.8599 37.6786 67.9293C37.5045 67.9987 37.3472 68.1046 37.2175 68.24C36.9777 68.5458 36.8475 68.9233 36.8475 69.3119C36.8475 69.7006 36.9777 70.078 37.2175 70.3839C37.3428 70.5184 37.4958 70.624 37.6659 70.6935C37.8361 70.7629 38.0194 70.7945 38.203 70.7861C38.4636 70.7961 38.72 70.7182 38.931 70.5649C39.1187 70.4138 39.2504 70.2042 39.3051 69.9696H37.8611V69.0203H40.6324V69.9696C40.5178 70.4723 40.2509 70.9273 39.8682 71.2728C39.6539 71.4785 39.401 71.6398 39.1241 71.7474C38.8268 71.8695 38.5082 71.9311 38.1869 71.9284C37.8454 71.9337 37.5063 71.8709 37.1894 71.7439C36.8724 71.6168 36.5839 71.428 36.3406 71.1883Z" fill="#101010"/>
<path d="M49.4498 66.752H50.6887V71.8884H49.4418L47.3582 68.6706V71.8884H46.1113V66.752H47.3582L49.4418 69.9698L49.4498 66.752Z" fill="#101010"/>
<path d="M66.5363 66.7686H67.7832V71.8889H66.5363V69.7652H64.5614V71.8889H63.3145V66.7686H64.5614V68.8159H66.5363V66.7686Z" fill="#101010"/>
<path d="M73.522 69.8215V66.7686H74.7689V69.8215C74.7521 70.0774 74.8325 70.3302 74.9941 70.5294C75.0807 70.6157 75.1847 70.6826 75.2991 70.7256C75.4135 70.7686 75.5358 70.7867 75.6578 70.7788C75.781 70.7866 75.9044 70.7684 76.0202 70.7255C76.1359 70.6825 76.2413 70.6157 76.3295 70.5294C76.4974 70.3333 76.5812 70.0789 76.5628 69.8215V66.7686H77.8097V69.8215C77.822 70.2345 77.7114 70.6418 77.492 70.992C77.3 71.3055 77.0203 71.5558 76.6875 71.7119C76.3574 71.8646 75.9973 71.9415 75.6337 71.9372C75.0796 71.952 74.541 71.7533 74.1293 71.3821C73.9219 71.1809 73.7603 70.9373 73.6555 70.668C73.5507 70.3987 73.5051 70.11 73.522 69.8215Z" fill="#101010"/>
<path d="M83.5426 66.7685H85.7669C86.2128 66.7441 86.653 66.878 87.0098 67.1466C87.1554 67.2606 87.2729 67.4066 87.3531 67.5733C87.4333 67.74 87.4741 67.9229 87.4723 68.1079C87.4723 68.6871 87.1345 69.0813 86.4588 69.2824C86.7706 69.3224 87.0568 69.4756 87.2632 69.7128C87.4652 69.9457 87.5741 70.2451 87.5689 70.5534C87.5744 70.7391 87.537 70.9235 87.4596 71.0924C87.3821 71.2612 87.2667 71.4099 87.1224 71.5268C86.7596 71.7881 86.3177 71.916 85.8715 71.8888H83.5225L83.5426 66.7685ZM84.7895 67.7137V68.8238H85.5939C85.7505 68.8324 85.9049 68.7838 86.0283 68.6871C86.0835 68.6361 86.1269 68.5737 86.1554 68.5042C86.1838 68.4347 86.1968 68.3599 86.1933 68.2849C86.1965 68.2099 86.1834 68.1351 86.155 68.0656C86.1265 67.9962 86.0833 67.9338 86.0283 67.8826C85.9068 67.7817 85.7518 67.73 85.5939 67.7378L84.7895 67.7137ZM84.7895 70.9315H85.7307C85.8858 70.936 86.0368 70.8814 86.1531 70.7787C86.2073 70.7268 86.2503 70.6643 86.2793 70.5951C86.3084 70.5259 86.3229 70.4515 86.322 70.3764C86.3264 70.2975 86.3144 70.2184 86.2867 70.1444C86.259 70.0703 86.2162 70.0028 86.1611 69.9461C86.1081 69.8938 86.0453 69.8527 85.9762 69.8251C85.9071 69.7974 85.8332 69.7839 85.7588 69.7852H84.8016L84.7895 70.9315Z" fill="#101010"/>
<path d="M53.54 24.8963C54.3053 24.131 55.2275 23.5409 56.243 23.1667C56.5535 23.0143 56.9056 22.969 57.2445 23.038C57.7312 23.0581 58.1858 23.2471 58.765 23.3195C58.7449 23.8022 58.3426 24.0797 58.0168 24.3291C56.239 25.938 54.7709 27.8084 53.1137 29.5581C52.9591 29.6962 52.8471 29.8755 52.7908 30.075C52.7346 30.2744 52.7363 30.4858 52.7959 30.6843C52.9849 31.348 53.0453 32.1243 53.2343 32.788C53.3108 33.323 53.4355 33.7654 52.9085 34.1556C52.5787 34.409 52.6873 34.775 52.8321 35.2898C53.0453 34.9118 53.0533 34.6704 53.1619 34.4854C53.6245 34.4291 53.7291 35.3542 53.2987 35.7967C53.2424 35.8932 53.17 35.9133 53.1901 35.9857C53.1177 36.0098 53.0654 36.1023 52.9568 36.2914C53.4837 38.1336 54.0549 40.1166 54.5255 42.0513C54.6556 42.549 54.7471 43.056 54.799 43.5677C54.8513 45.1445 55.4184 46.5724 56.062 47.9922C56.5863 49.0803 57.0404 50.2007 57.4215 51.3468C57.6548 52.1513 57.9605 52.9557 58.1898 53.7602C58.3521 54.3798 58.4784 55.0084 58.5679 55.6426L57.7151 55.168C57.6918 55.2947 57.6455 55.416 57.5784 55.526C57.5397 55.6591 57.5497 55.8017 57.6066 55.9282C57.0394 56.1695 56.2148 56.0891 56.4682 56.97C56.2652 57.0855 56.0379 57.1518 55.8046 57.1636C55.5713 57.1755 55.3385 57.1326 55.1248 57.0384C54.5919 56.8551 54.088 56.5964 53.6285 56.2701C52.1725 54.9469 50.9488 53.3888 50.0085 51.6606C49.924 51.3669 49.6706 51.0411 50.0527 50.6952C50.1251 50.6711 50.0004 50.2326 49.9361 50.0114C49.6223 49.4751 49.3059 48.9281 48.9868 48.3703C47.1446 45.5547 46.0143 42.4576 44.868 39.284C44.687 38.9381 44.51 38.5881 44.3089 38.1698C44.0555 38.4031 43.782 38.572 43.601 38.7691C42.5672 40.181 41.1393 41.0658 39.7556 42.0996C38.6777 42.8035 37.4509 43.5556 36.2804 44.2073C35.1501 45.0117 34.5991 46.4396 34.2692 47.5659C33.6458 50.1321 32.5638 52.5093 31.8961 54.9307C31.7349 55.2879 31.4488 55.5739 31.0917 55.7351C29.4345 56.3707 32.0007 57.2274 30.2872 57.159C26.6872 58.8243 27.6365 56.0046 25.7822 54.5486C26.5223 52.6621 27.3348 50.7596 28.1715 48.9174C28.626 47.9922 29.1006 47.1395 29.5793 46.2868C30.3194 44.9635 29.4707 46.4758 30.078 44.9514C29.7924 44.7945 29.527 44.7101 29.2414 44.5492C28.6179 44.3279 28.0709 44.0906 27.4474 43.8694C27.2251 43.7734 27.0367 43.6128 26.9069 43.4083C26.777 43.2039 26.7117 42.9651 26.7194 42.723C27.1739 42.357 27.6807 42.4495 28.2077 42.6144C29.0041 42.7802 29.8101 42.8957 30.621 42.9604C30.7439 42.9554 30.8639 42.9224 30.972 42.8638C31.0801 42.8053 31.1733 42.7227 31.2445 42.6225C31.8076 41.5083 32.2702 40.3378 32.8534 39.2237C32.9007 38.9865 32.968 38.7537 33.0545 38.5278C34.4181 35.7524 35.0656 32.6995 35.9948 29.8075C37.0768 26.3121 38.0623 22.7685 39.1402 19.2731C39.6187 17.9746 39.715 16.5662 39.4178 15.2146C39.104 13.5534 38.9592 11.9244 38.8104 10.2953C38.7659 7.43077 39.0166 4.56924 39.5586 1.75604C39.7717 0.822867 39.9608 0.682082 40.8497 0.670015C42.0564 0.670015 43.2148 0.553379 44.4054 0.529245C44.8124 0.482158 45.2242 0.557787 45.588 0.74644C46.3577 1.15248 47.1018 1.60516 47.8163 2.10195C48.131 2.40777 48.3945 2.76223 48.5966 3.15176C49.3636 4.66981 49.8112 6.32899 49.9119 8.02679C50.2257 10.2471 50.5193 12.391 50.7606 14.6314C50.825 14.8526 50.833 15.1663 50.9175 15.46C51.3398 17.0784 51.4947 18.755 51.376 20.4235C51.2715 21.7267 51.557 23.0018 51.6898 24.313C51.776 24.844 51.8996 25.3682 52.0598 25.8817L52.2489 25.9863C52.6994 25.6122 53.1579 25.2422 53.54 24.8963ZM42.6034 34.4733C42.7958 34.3366 42.9414 34.144 43.0205 33.9216C43.0997 33.6993 43.1085 33.458 43.0459 33.2304C42.712 32.0519 42.4264 30.7809 42.165 29.5822C40.4797 21.4693 39.7999 26.3644 38.5449 31.8066C35.8058 38.7209 38.0904 39.6661 42.6034 34.4733Z" fill="#454545"/>
</svg>
