<svg width="100" height="72" viewBox="0 0 100 72" fill="none" xmlns="http://www.w3.org/2000/svg">
<path d="M64.7489 15.1468C64.7736 13.6771 64.5086 12.2169 63.9689 10.8496C63.4481 9.54868 62.6945 8.35352 61.7452 7.32272C61.8139 6.93249 61.7971 6.532 61.6959 6.14891C61.5947 5.76582 61.4115 5.40925 61.159 5.10388C60.1897 3.82858 58.98 2.75551 57.5982 1.94521C56.3812 1.17725 54.9192 0.896967 53.5045 1.16038C53.1098 0.889714 52.6702 0.691227 52.2062 0.57417C51.8372 0.49611 51.456 0.49611 51.0871 0.57417C50.6704 0.661373 50.2586 0.763098 49.842 0.864835L48.9603 1.03441H48.8198C48.1173 1.03441 47.4003 1.03441 46.6978 1.03441C46.3393 1.03441 46.0002 1.07317 45.6417 1.12161C45.223 1.1858 44.8088 1.27641 44.4015 1.39291H44.4838C44.2997 1.39291 44.1205 1.42682 43.9412 1.45104C43.0405 1.57126 42.1583 1.80401 41.3155 2.14382C39.4842 3.07883 37.4882 4.24637 36.6016 5.58349C36.0736 6.47974 35.5697 7.23551 35.1483 8.0058C35.129 8.0272 35.1112 8.04987 35.095 8.07363C34.9804 8.1738 34.875 8.28405 34.7801 8.40306C34.6637 8.54233 34.5675 8.69727 34.4942 8.86331C34.5824 8.70552 34.6829 8.55488 34.7946 8.41276L34.8866 8.49026C34.7946 8.66467 34.7122 8.84879 34.6299 9.03289C33.9468 9.94852 33.4284 11.3099 33.0021 11.6054C33.3073 12.177 33.4866 11.2662 33.7675 10.5008C33.6464 10.9029 33.5544 11.3631 33.443 11.8234C33.3315 12.2836 33.2831 12.7923 33.2056 13.2283C33.2056 13.2816 33.2056 13.3301 33.2056 13.3785C33.1813 12.9812 33.0602 12.6809 33.3606 12.2885C33.2589 12.0365 33.1329 12.0947 32.9682 12.3611C32.8374 13.2622 32.5079 14.9675 32.8616 15.0693C32.8079 15.2378 32.7364 15.4002 32.6484 15.5537L32.9537 16.0043C32.9276 16.0688 32.9065 16.1352 32.8907 16.2029C32.9349 16.1476 32.9754 16.0893 33.0118 16.0285C33.1281 17.1912 33.2685 18.4508 33.8257 19.2017C33.9189 19.2544 34.0161 19.2997 34.1164 19.3374C34.0485 19.691 33.8935 19.2259 33.6997 19.1581C33.9177 19.9478 34.1842 20.5098 34.5378 20.6115C34.4119 20.1852 34.2714 19.7685 34.1745 19.3422C34.2616 19.3671 34.3539 19.3671 34.4409 19.3422C34.7655 19.6959 35.0465 19.9672 35.0465 20.1173C35.1725 20.6648 35.2597 21.1589 35.342 21.6337C35.4099 22.0261 35.4729 22.3992 35.5407 22.7625H35.4438C35.183 22.279 34.9469 21.7826 34.7365 21.2752C34.7556 21.6219 34.7993 21.9667 34.8673 22.3071L35.1967 22.5009C35.2219 22.5418 35.2379 22.5876 35.2438 22.6353C35.2496 22.6829 35.2451 22.7313 35.2306 22.7771C35.2306 22.7771 35.2306 22.7771 35.2306 22.8061C35.204 22.8338 35.1729 22.8567 35.1386 22.8739L35.1822 22.9224C35.1681 22.9632 35.1583 23.0055 35.1531 23.0484H35.2694L35.5601 23.3826C35.594 23.3826 35.6085 23.3826 35.6182 23.339C35.5966 23.9913 35.804 24.6306 36.2044 25.1461H36.2528C36.485 25.6307 36.7762 26.0847 37.12 26.4977C37.3751 26.6983 37.6739 26.836 37.9921 26.8998L38.0647 26.9628C38.2617 27.0334 38.4733 27.0534 38.68 27.0209C38.7745 27.0394 38.8723 27.0293 38.961 26.9919C38.7859 26.4356 38.5208 25.912 38.1762 25.4416C38.2149 25.4755 38.2537 25.5191 38.2973 25.553L38.244 25.4658L38.1713 25.4319C37.8772 25.0053 37.6318 24.547 37.4398 24.0657C37.4753 23.7569 37.4947 23.4464 37.4979 23.1356C37.5318 22.593 38.2585 23.1792 38.4668 23.2761C38.4228 22.6885 38.2769 22.1131 38.0357 21.5756C38.486 22.1833 38.9973 22.7434 39.5617 23.247L39.3582 23.4214C39.9057 23.8041 39.7603 24.1965 40.4434 24.555C40.4919 24.1675 40.1867 23.9155 39.959 23.5861C41.6008 24.918 43.5861 25.7578 45.6853 26.0084L48.9457 26.3863C49.4766 26.4439 50.0109 26.4634 50.5445 26.4444C50.0146 26.7198 49.4511 26.925 48.8682 27.0548C48.892 27.6671 49.0812 28.2614 49.4157 28.7747C49.8226 29.3173 50.6026 29.7775 52.0657 29.7824C52.5116 29.7723 52.955 29.7139 53.3883 29.608C54.1109 29.6474 54.8358 29.6051 55.549 29.482C55.7185 29.3367 55.9123 29.1865 56.1206 29.0363C56.3289 28.8861 56.5324 28.7069 56.7553 28.5518C57.2107 28.2321 57.6757 27.8639 58.1311 27.4957C58.3055 27.3601 58.4703 27.2196 58.6156 27.0791L58.9257 26.9919C59.0952 26.7496 59.3811 26.4444 59.6523 26.1295C59.9333 25.8486 60.1949 25.5772 60.4033 25.3399C61.9472 24.061 63.138 22.4082 63.8623 20.5389C64.0319 20.0883 64.1675 19.6232 64.308 19.163C64.4485 18.7027 64.5067 18.228 64.5939 17.7629C64.6811 17.2978 64.6859 16.823 64.7295 16.3579C64.7731 15.8929 64.7489 15.5828 64.7489 15.1468ZM35.4825 22.9951H35.5261C35.5261 23.0532 35.5261 23.1065 35.5261 23.1598C35.5145 23.1041 35.5 23.0492 35.4825 22.9951Z" fill="#C3D8CC"/>
<path d="M48.2244 30.2765C47.9725 30.2765 47.58 30.1844 47.706 30.0149L47.3281 30.1844L48.4569 30.3492C48.268 30.1408 47.9192 29.9761 47.9725 29.7L47.488 29.6079C47.7867 29.764 48.0402 29.9942 48.2244 30.2765Z" fill="#C3D8CC"/>
<path d="M48.4277 29.821C48.6458 29.6223 48.3405 29.5061 47.9433 29.4092C47.5073 29.5303 48.5634 29.3704 48.2146 29.7241C48.3163 29.7338 48.3987 29.7483 48.4277 29.821Z" fill="#C3D8CC"/>
<path d="M48.2141 29.7247C48.1274 29.7158 48.0415 29.6996 47.9574 29.6763C47.9569 29.6843 47.9569 29.6924 47.9574 29.7005L48.1899 29.7489L48.2141 29.7247Z" fill="#C3D8CC"/>
<path d="M45.4912 29.5493C45.5225 29.6404 45.5888 29.7153 45.6753 29.7576C45.6898 29.6995 45.5978 29.6268 45.4912 29.5493Z" fill="#C3D8CC"/>
<path d="M45.1172 28.8086C45.4127 28.9782 45.5677 29.1041 45.4612 29.2931L45.2092 29.2156C45.1462 29.3221 45.3352 29.4481 45.4902 29.5644C45.4418 29.3027 45.965 29.1526 45.1172 28.8086Z" fill="#C3D8CC"/>
<path d="M46.6539 28.5469L46.4746 28.5953L47.584 29.1718C47.5356 28.7116 47.0463 29.0023 46.6539 28.5469Z" fill="#C3D8CC"/>
<path d="M33.932 21.8861L33.9756 21.7892L33.8545 21.6826C33.8787 21.7359 33.8981 21.8037 33.932 21.8861Z" fill="#C3D8CC"/>
<path d="M33.5391 20.4565C33.5635 20.8123 33.6072 21.1665 33.6699 21.5175C33.7355 21.5675 33.797 21.6226 33.854 21.6822C33.6311 21.0331 33.9509 21.1445 33.5391 20.4565Z" fill="#C3D8CC"/>
<path d="M33.9746 21.7891C34.2276 22.0638 34.4089 22.3965 34.5027 22.758C34.6267 23.2234 34.8686 23.6488 35.2051 23.9934C34.8727 23.1732 34.4876 22.3754 34.0521 21.605L33.9746 21.7891Z" fill="#C3D8CC"/>
<path d="M0 59.1548V36.1816H5.59553V59.1548H0Z" fill="#454545"/>
<path d="M11.3745 56.8348C9.67891 55.1295 8.83272 52.8606 8.83595 50.0281C8.83918 47.1956 9.68537 44.9348 11.3745 43.2457C13.0605 41.5533 15.247 40.7087 17.9341 40.7119C19.9479 40.6473 21.9299 41.226 23.5927 42.3639C25.1693 43.5037 26.2659 45.189 26.669 47.0923H20.6181C20.4084 46.5889 20.0493 46.162 19.5892 45.8692C19.1292 45.5763 18.5904 45.4317 18.0456 45.4548C17.5331 45.4211 17.0205 45.5192 16.5566 45.7396C16.0927 45.9601 15.693 46.2957 15.3956 46.7144C14.826 47.7286 14.5269 48.8722 14.5269 50.0354C14.5269 51.1985 14.826 52.3422 15.3956 53.3564C15.6761 53.7655 16.0566 54.096 16.501 54.3165C16.9453 54.537 17.4387 54.6401 17.9341 54.616C18.5024 54.6473 19.0685 54.5234 19.5716 54.2575C20.0335 53.9378 20.3961 53.4945 20.6181 52.9785H26.669C26.2263 54.8594 25.1247 56.5196 23.5636 57.6584C21.9268 58.8356 19.9497 59.4447 17.9341 59.3928C15.2502 59.3863 13.0637 58.5337 11.3745 56.8348Z" fill="#454545"/>
<path d="M30.9421 56.8013C29.0946 55.0766 28.1726 52.8158 28.1758 50.0188C28.179 47.2219 29.0947 44.9611 30.9227 43.2364C32.8112 41.6024 35.2249 40.7031 37.7221 40.7031C40.2193 40.7031 42.6331 41.6024 44.5215 43.2364C46.3431 44.9288 47.2539 47.1896 47.2539 50.0188C47.2539 52.8481 46.348 55.1089 44.5361 56.8013C43.6319 57.658 42.5671 58.3273 41.403 58.7704C40.2389 59.2136 38.9986 59.422 37.7536 59.3835C35.2321 59.4509 32.7853 58.5233 30.9421 56.8013ZM40.4472 53.4101C41.1901 52.6253 41.5599 51.4948 41.5566 50.0188C41.5566 48.5364 41.1787 47.4028 40.4133 46.6276C40.065 46.2568 39.6438 45.962 39.176 45.7619C38.7083 45.5618 38.2042 45.4607 37.6955 45.4649C37.1895 45.4601 36.6881 45.5611 36.2235 45.7613C35.7588 45.9615 35.3411 46.2566 34.997 46.6276C34.2461 47.3979 33.8682 48.5315 33.8682 50.0188C33.8682 51.5061 34.2558 52.6349 35.0309 53.4101C35.3807 53.784 35.8039 54.0815 36.2741 54.2841C36.7443 54.4867 37.2513 54.5899 37.7633 54.5873C38.2671 54.5952 38.7669 54.4961 39.2295 54.2965C39.6922 54.0969 40.1072 53.8014 40.4472 53.4294V53.4101Z" fill="#454545"/>
<path d="M56.1209 40.8957V43.5797C57.2804 41.6612 59.1246 40.702 61.6535 40.702C62.6018 40.6663 63.5467 40.8347 64.4243 41.1957C65.3019 41.5568 66.0917 42.1021 66.7403 42.7948C68.0322 44.1901 68.6782 46.0875 68.6782 48.4872V59.1454H63.1263V49.243C63.1577 48.7485 63.0913 48.2526 62.9308 47.7837C62.7704 47.3149 62.5191 46.8823 62.1912 46.5106C61.4827 45.884 60.5695 45.5381 59.6236 45.5381C58.6777 45.5381 57.7645 45.884 57.0559 46.5106C56.727 46.8815 56.475 47.314 56.3145 47.7831C56.1539 48.2521 56.0882 48.7484 56.1209 49.243V59.1551H50.5254V40.8957H56.1209Z" fill="#454545"/>
<path d="M78.2012 38.8368C77.5797 39.4426 76.7461 39.7816 75.8782 39.7816C75.0104 39.7816 74.1768 39.4426 73.5553 38.8368C72.9462 38.2101 72.6055 37.3707 72.6055 36.4968C72.6055 35.623 72.9462 34.7836 73.5553 34.1569C74.1827 33.5756 75.0113 33.2607 75.8664 33.2786C76.7215 33.2964 77.5363 33.6457 78.1388 34.2527C78.7414 34.8596 79.0847 35.6769 79.0964 36.5321C79.108 37.3873 78.7871 38.2136 78.2012 38.8368ZM73.0999 59.1551V40.8958H78.6857V59.1551H73.0999Z" fill="#454545"/>
<path d="M84.5005 56.8347C82.8081 55.1294 81.9619 52.8605 81.9619 50.028C81.9619 47.1955 82.8081 44.9347 84.5005 43.2456C86.1929 41.5532 88.3794 40.7086 91.0601 40.7118C93.0753 40.6479 95.0587 41.2265 96.7235 42.3638C98.2971 43.5065 99.3928 45.1905 99.7998 47.0922H93.7053C93.4964 46.5892 93.1382 46.1624 92.679 45.8696C92.2198 45.5767 91.6818 45.4319 91.1376 45.4547C90.6249 45.4196 90.1119 45.517 89.6477 45.7376C89.1836 45.9582 88.7841 46.2946 88.4876 46.7143C87.9181 47.7285 87.6189 48.8721 87.6189 50.0353C87.6189 51.1984 87.9181 52.3421 88.4876 53.3563C88.765 53.7674 89.1442 54.0995 89.5883 54.3203C90.0324 54.5411 90.5261 54.6429 91.0213 54.6159C91.5896 54.6477 92.1558 54.5238 92.6588 54.2574C93.1207 53.9377 93.4833 53.4944 93.7053 52.9784H99.761C99.3147 54.859 98.2118 56.5185 96.6508 57.6583C95.0149 58.8375 93.0371 59.4468 91.0213 59.3927C88.3471 59.3862 86.1735 58.5336 84.5005 56.8347Z" fill="#454545"/>
<path d="M23.5493 67.2407V71.8916H22.4157V69.2658L21.3353 71.8916H20.4923L19.4168 69.2658V71.8916H18.2832V67.2407H19.5816L20.9187 70.443L22.2509 67.2407H23.5493Z" fill="#454545"/>
<path d="M30.3909 67.2261V68.0884H28.7098V69.0864H30.1923V69.9487H28.7098V71.0291H30.3909V71.8914H27.5762V67.2261H30.3909Z" fill="#454545"/>
<path d="M37.4244 67.2261H38.558V71.8914H37.4244L35.5301 68.9556V71.8914H34.3965V67.2261H35.5301L37.4244 70.1619V67.2261Z" fill="#454545"/>
<path d="M44.164 68.0688C44.0377 68.0588 43.9125 68.0988 43.8152 68.1802C43.7689 68.22 43.7325 68.2701 43.709 68.3264C43.6855 68.3828 43.6754 68.4438 43.6796 68.5048C43.6757 68.567 43.6849 68.6293 43.7066 68.6877C43.7283 68.7461 43.762 68.7993 43.8055 68.8439C43.8958 68.9357 44.0073 69.004 44.1301 69.0425C44.2658 69.091 44.416 69.1346 44.5807 69.1782C44.7447 69.2197 44.9064 69.2698 45.0651 69.3284C45.2224 69.3839 45.3721 69.4588 45.5109 69.5512C45.6513 69.6448 45.7648 69.7733 45.8403 69.9242C45.9283 70.1051 45.9715 70.3045 45.9662 70.5056C45.966 70.6991 45.9224 70.8901 45.8385 71.0645C45.7547 71.2389 45.6328 71.3923 45.4818 71.5133C45.1275 71.8064 44.6766 71.9567 44.2173 71.9348C43.7651 71.9566 43.319 71.8233 42.9529 71.5569C42.7927 71.4299 42.6652 71.2665 42.581 71.0802C42.4967 70.894 42.4581 70.6904 42.4684 70.4862H43.6699C43.6732 70.597 43.7078 70.7045 43.7697 70.7964C43.8316 70.8883 43.9183 70.9607 44.0198 71.0053C44.1212 71.0499 44.2331 71.0649 44.3427 71.0485C44.4523 71.0321 44.5549 70.9849 44.6388 70.9126C44.6845 70.8709 44.7207 70.82 44.7449 70.7631C44.7691 70.7063 44.7809 70.6449 44.7793 70.5831C44.782 70.4625 44.7367 70.3458 44.6534 70.2585C44.5595 70.1689 44.447 70.1011 44.3239 70.0599C44.1761 70.0071 44.0257 69.9618 43.8734 69.9242C43.7084 69.8841 43.5465 69.8323 43.3889 69.7692C43.2314 69.7108 43.0804 69.6361 42.9384 69.5464C42.7991 69.4549 42.687 69.3278 42.6138 69.1782C42.5247 68.9994 42.4814 68.8013 42.4878 68.6017C42.4817 68.403 42.5224 68.2057 42.6066 68.0256C42.6907 67.8455 42.816 67.6877 42.9723 67.5649C43.3255 67.2936 43.7626 67.1548 44.2076 67.1725C44.6395 67.1528 45.0661 67.2735 45.4236 67.5165C45.5842 67.6442 45.7119 67.8085 45.7962 67.9956C45.8804 68.1826 45.9188 68.3871 45.9081 68.592H44.6776C44.6704 68.4473 44.612 68.31 44.5129 68.2044C44.4678 68.1581 44.4134 68.1221 44.3532 68.0987C44.293 68.0753 44.2285 68.0651 44.164 68.0688Z" fill="#454545"/>
<path d="M55.0639 67.2407H56.2799L54.9816 71.8916H53.6832L52.8693 68.9412L52.0409 71.8916H50.7474L49.4248 67.2407H50.6408L51.445 70.5835L52.2734 67.2407H53.5621L54.3566 70.5302L55.0639 67.2407Z" fill="#454545"/>
<path d="M62.6995 67.2261V68.0884H61.0136V69.0864H62.5009V69.9487H61.0136V71.0291H62.6995V71.8914H59.8848V67.2261H62.6995Z" fill="#454545"/>
<path d="M69.6373 71.8914L69.3757 71.1066H67.7092L67.4524 71.8914H66.2461L67.8593 67.2261H69.2401L70.8485 71.8914H69.6373ZM67.995 70.2443H69.0947L68.5424 68.5922L67.995 70.2443Z" fill="#454545"/>
<path d="M75.5711 70.0794V71.8913H74.4375V67.2404H76.2639C76.7201 67.2134 77.1693 67.3625 77.5187 67.6571C77.6619 67.7827 77.7763 67.9377 77.8541 68.1117C77.9319 68.2856 77.9711 68.4743 77.9692 68.6648C77.9676 68.9445 77.8833 69.2176 77.727 69.4496C77.5365 69.7259 77.2497 69.9211 76.9228 69.997L78.0661 71.8913H76.7484L75.7019 70.0794H75.5711ZM75.5711 68.1028V69.2122H76.2639C76.3382 69.2173 76.4127 69.2063 76.4823 69.1801C76.552 69.1538 76.6151 69.1128 76.6675 69.06C76.7199 69.0071 76.7603 68.9436 76.786 68.8737C76.8116 68.8039 76.8219 68.7293 76.8162 68.6551C76.8194 68.5807 76.8078 68.5064 76.782 68.4365C76.7562 68.3667 76.7168 68.3026 76.666 68.2481C76.6137 68.1955 76.5508 68.1544 76.4815 68.1277C76.4122 68.101 76.3381 68.0892 76.2639 68.0931L75.5711 68.1028Z" fill="#454545"/>
</svg>
