<svg width="180" height="72" viewBox="0 0 180 72" fill="none" xmlns="http://www.w3.org/2000/svg">
<path d="M14.974 22.6274H19.8311V22.8064C18.8585 22.8064 18.9003 23.063 18.9003 24.2803V34.7942C18.9003 36.1487 19.0554 36.4709 20.034 36.4709V36.6499H13.9596V36.4888C14.8964 36.4888 14.974 36.1666 14.974 34.8121V23.1645L9.81846 36.8289H9.63348L3.18314 24.8352V31.3691C3.18314 33.9409 3.91709 36.4709 6.23229 36.4709V36.6499H0.0146484V36.4888C2.14488 36.4888 2.99816 34.0006 2.99816 31.387V24.5548C2.22245 23.1824 1.58398 22.8661 1.02308 22.8243V22.6453H6.70369L11.525 31.8047L14.974 22.6274Z" fill="#454545"/>
<path d="M33.1741 22.6274V22.7646C32.3387 22.7646 31.8792 22.7646 31.8792 24.5547V34.4003C31.8792 36.2919 32.3387 36.4709 33.1741 36.4709V36.6499H26.6104V36.4888C27.4457 36.4888 27.8992 36.3098 27.8992 34.4183V24.5547C27.8992 22.8004 27.4636 22.7646 26.6104 22.7646V22.6035L33.1741 22.6274Z" fill="#454545"/>
<path d="M52.71 31.8706L52.9129 35.8924C51.4448 36.5424 49.8519 36.8622 48.2467 36.8292C43.9862 36.8292 40.2031 34.1381 40.2031 29.6389C40.2031 25.1398 43.9862 22.4785 48.2467 22.4785C50.8185 22.4785 52.4236 23.0155 52.9129 23.3915L52.71 27.4192H52.5489C51.9522 23.296 49.7026 22.6456 48.2467 22.6456C46.0389 22.6456 45.102 24.197 45.102 29.6568C45.102 35.1167 46.0986 36.6681 48.2467 36.6681C49.6012 36.6681 51.8746 35.8506 52.5489 31.8945L52.71 31.8706Z" fill="#454545"/>
<path d="M74.6141 36.4888V36.6678H70.652C69.2378 36.6678 68.7962 35.7728 68.3189 32.0672C68.0623 30.0743 65.6695 30.1936 65.6695 30.1936H64.7387V34.4183C64.7387 36.3695 64.8162 36.4888 65.6516 36.4888V36.6678H59.6846V36.4888C60.5438 36.4888 60.7228 36.447 60.7228 34.4183V24.5547C60.7228 23.3196 60.5617 22.7646 59.6846 22.7646V22.6035H65.3413C69.3034 22.6035 72.8717 23.0809 72.8717 26.4105C72.8717 29.394 70.1209 29.9907 68.2114 29.9907C70.5028 29.9907 71.6544 30.486 72.633 34.0722C73.0447 35.6355 74.0949 36.4291 74.6141 36.4888ZM68.1995 26.4523C68.1995 22.6453 67.6863 22.8243 65.3532 22.8243H64.7565V29.9847H65.3532C67.931 29.9967 68.1995 30.0385 68.1995 26.4344V26.4523Z" fill="#454545"/>
<path d="M95.2067 29.7404C95.2067 33.7025 92.3187 36.8293 87.9389 36.8293C83.5591 36.8293 80.6651 33.7025 80.6651 29.7404C80.6372 28.7681 80.8047 27.8 81.1575 26.8935C81.5104 25.987 82.0415 25.1606 82.7194 24.4629C83.3973 23.7653 84.2083 23.2108 85.1043 22.8321C86.0003 22.4534 86.9632 22.2583 87.9359 22.2583C88.9087 22.2583 89.8715 22.4534 90.7675 22.8321C91.6635 23.2108 92.4745 23.7653 93.1524 24.4629C93.8303 25.1606 94.3614 25.987 94.7143 26.8935C95.0671 27.8 95.2346 28.7681 95.2067 29.7404ZM90.3674 29.7404C90.3674 24.2806 90.2839 22.6277 87.9389 22.6277C85.5939 22.6277 85.4685 24.2806 85.4685 29.7404C85.4685 35.2002 85.564 36.6502 87.9389 36.6502C90.3138 36.6502 90.3674 35.2182 90.3674 29.7404Z" fill="#454545"/>
<path d="M122.887 22.6274V22.7646C122.094 22.7646 120.876 23.3613 119.42 26.8878L115.936 36.626H115.22C113.364 32.3059 112.17 29.5133 111.377 27.6755L108.19 36.626H107.468C102.45 24.8949 102.194 24.3757 102.194 24.3757C101.513 22.7825 101.239 22.8004 100.72 22.7646V22.6035H106.931V22.7646C105.66 22.7646 106.675 25.0739 106.675 25.0739L109.658 31.9061L111.252 27.4607C110.058 24.6323 109.915 24.3757 109.915 24.3757C109.241 22.7825 108.96 22.8004 108.441 22.7646V22.6035H114.659V22.7646C113.382 22.7646 114.396 25.0739 114.396 25.0739L117.38 31.924L119.17 26.8878C119.665 25.4736 119.229 22.7646 117.195 22.7646V22.6035L122.887 22.6274Z" fill="#454545"/>
<path d="M134.476 22.6274H134.578C139.614 34.1796 139.948 34.8359 139.948 34.8359C140.664 36.4291 141.338 36.4471 141.738 36.4888V36.6499H134.763V36.4888C136.356 36.4888 135.162 34.1617 135.162 34.1617L134.524 32.7833H130.621C130.222 33.7022 130.58 36.4888 132.972 36.4888V36.6499H127.244V36.4888C127.841 36.4471 128.921 36.2919 130.454 32.7833L134.476 22.6274ZM132.465 28.135L130.675 32.6162H134.44L132.465 28.135Z" fill="#454545"/>
<path d="M161.297 22.6274V22.7646C160.444 22.7646 159.167 23.3613 157.616 26.8878L153.689 36.626H153.093C147.722 24.8949 147.472 24.3757 147.472 24.3757C146.756 22.7825 146.457 22.8004 145.902 22.7646V22.6035H152.532V22.7646C151.159 22.7646 152.251 25.0739 152.251 25.0739L155.342 31.9419L157.437 26.9416C158.033 25.4677 157.675 22.8184 155.283 22.8184V22.6572L161.297 22.6274Z" fill="#454545"/>
<path d="M179.461 32.7475V36.6499H167.831V36.4888C168.666 36.4888 168.983 35.2954 168.983 33.9409V25.3782C168.983 24.1431 168.702 22.7885 167.831 22.7885V22.6274H179.204V26.7089H179.025C179.025 22.8243 173.583 22.8064 173.583 22.8064H172.867V29.4776H174.478C174.788 29.4792 175.094 29.4194 175.38 29.3018C175.666 29.1843 175.926 29.0111 176.144 28.7925C176.363 28.5739 176.536 28.3141 176.654 28.0281C176.771 27.7422 176.831 27.4357 176.829 27.1266H177.008V32.0076H176.829C176.82 31.3869 176.569 30.7943 176.131 30.3554C175.692 29.9165 175.099 29.6658 174.478 29.6566H172.867V36.4888H173.583C173.583 36.4888 179.282 36.7096 179.282 32.7654L179.461 32.7475Z" fill="#454545"/>
<path d="M47.9707 44.3179H49.3193V49.8493H47.9707V47.558H45.8525V49.8493H44.5039V44.3179H45.8525V46.5316H47.9827L47.9707 44.3179Z" fill="#101010"/>
<path d="M58.647 49.8495L58.3427 48.9187H56.3557L56.0513 49.8495H54.6133L56.5347 44.3062H58.1756L60.091 49.8495H58.647ZM56.6958 47.8983H58.0025L57.3462 45.9292L56.6958 47.8983Z" fill="#101010"/>
<path d="M65.3838 49.8493V44.3179H66.7383V49.8493H65.3838Z" fill="#101010"/>
<path d="M73.8984 47.701V49.8491H72.5498V44.3177H74.7338C75.2779 44.2856 75.8137 44.4628 76.2314 44.8129C76.401 44.962 76.5366 45.1456 76.6292 45.3515C76.7219 45.5573 76.7693 45.7806 76.7685 46.0063C76.7628 46.3402 76.6613 46.6654 76.4761 46.9432C76.248 47.2693 75.9084 47.5007 75.5214 47.5936L76.8759 49.8431H75.3006L74.0535 47.695L73.8984 47.701ZM73.8984 45.344V46.6746H74.7338C74.8649 46.6726 74.9925 46.6324 75.1011 46.5589C75.2097 46.4854 75.2946 46.3819 75.3452 46.261C75.3959 46.14 75.4102 46.0069 75.3864 45.878C75.3625 45.749 75.3016 45.6298 75.2111 45.5349C75.1493 45.4714 75.0749 45.4217 74.9927 45.3888C74.9105 45.3559 74.8223 45.3406 74.7338 45.344H73.8984Z" fill="#101010"/>
<path d="M91.3098 45.3027C91.1602 45.2951 91.0132 45.3441 90.8981 45.4399C90.8431 45.4877 90.7999 45.5476 90.7719 45.6149C90.744 45.6822 90.732 45.7551 90.7369 45.8278C90.7337 45.9019 90.7453 45.9759 90.7709 46.0456C90.7965 46.1152 90.8356 46.1791 90.8861 46.2335C90.9941 46.342 91.1274 46.4219 91.274 46.4662L91.811 46.6273C92.0134 46.6747 92.2127 46.7345 92.4077 46.8063C92.5937 46.8745 92.7717 46.9625 92.9388 47.0689C93.1058 47.1823 93.2413 47.3363 93.3326 47.5164C93.4354 47.7303 93.4865 47.9654 93.4818 48.2026C93.4778 48.4335 93.4221 48.6605 93.3188 48.867C93.2156 49.0736 93.0674 49.2543 92.8851 49.396C92.4629 49.7423 91.9268 49.9189 91.3814 49.8913C90.844 49.9158 90.3142 49.7581 89.8777 49.4438C89.6826 49.2948 89.5265 49.1009 89.4226 48.8785C89.3187 48.6562 89.2701 48.412 89.281 48.1668H90.7131C90.702 48.258 90.7121 48.3506 90.7426 48.4373C90.7732 48.5239 90.8233 48.6024 90.8891 48.6665C90.955 48.7306 91.0347 48.7786 91.1222 48.8068C91.2096 48.835 91.3024 48.8427 91.3933 48.8292C91.4755 48.836 91.5583 48.8258 91.6363 48.7991C91.7144 48.7724 91.7861 48.7298 91.8468 48.674C91.9015 48.6257 91.9449 48.5658 91.9738 48.4988C92.0026 48.4317 92.0163 48.3591 92.0139 48.2862C92.0167 48.2148 92.005 48.1435 91.9793 48.0768C91.9537 48.0101 91.9147 47.9494 91.8647 47.8983C91.7541 47.7932 91.6217 47.7137 91.4769 47.6656C91.3011 47.6015 91.1218 47.5477 90.9398 47.5045C90.7429 47.4508 90.546 47.3911 90.3431 47.3195C90.1551 47.2494 89.975 47.1593 89.8061 47.051C89.6417 46.9413 89.5082 46.7913 89.4182 46.6154C89.314 46.402 89.2628 46.1666 89.2691 45.9292C89.2639 45.6908 89.3153 45.4546 89.419 45.2399C89.5227 45.0252 89.6758 44.8381 89.8658 44.694C90.2879 44.372 90.8091 44.2073 91.3396 44.2286C91.852 44.2051 92.3584 44.3474 92.7837 44.6344C92.9784 44.7849 93.1343 44.98 93.2381 45.2032C93.3419 45.4264 93.3907 45.6713 93.3804 45.9172H91.9184C91.9075 45.7443 91.8381 45.5801 91.7215 45.4518C91.6666 45.4003 91.6018 45.3605 91.531 45.3349C91.4602 45.3092 91.3849 45.2983 91.3098 45.3027Z" fill="#101010"/>
<path d="M102.677 49.8495L102.373 48.9187H100.386L100.076 49.8495H98.6436L100.565 44.3062H102.206L104.121 49.8495H102.677ZM100.75 47.8983H102.057L101.4 45.9292L100.75 47.8983Z" fill="#101010"/>
<path d="M109.414 44.3179H110.763V48.823H112.439V49.8493H109.414V44.3179Z" fill="#101010"/>
<path d="M118.317 49.1037C117.789 48.5592 117.493 47.8305 117.493 47.0719C117.493 46.3133 117.789 45.5846 118.317 45.0401C118.583 44.7793 118.898 44.5743 119.245 44.437C119.591 44.2996 119.961 44.2329 120.334 44.2405C120.705 44.2316 121.075 44.2978 121.421 44.4352C121.766 44.5726 122.08 44.7784 122.345 45.0401C122.871 45.5853 123.166 46.3138 123.166 47.0719C123.166 47.83 122.871 48.5585 122.345 49.1037C122.081 49.365 121.768 49.5705 121.424 49.7078C121.079 49.8452 120.71 49.9117 120.34 49.9032C119.966 49.9117 119.595 49.8454 119.247 49.708C118.9 49.5707 118.584 49.3652 118.317 49.1037ZM121.39 48.2265C121.649 47.8964 121.79 47.4887 121.79 47.0689C121.79 46.6491 121.649 46.2414 121.39 45.9113C121.106 45.6329 120.725 45.4769 120.328 45.4769C119.93 45.4769 119.549 45.6329 119.266 45.9113C119.006 46.2414 118.865 46.6491 118.865 47.0689C118.865 47.4887 119.006 47.8964 119.266 48.2265C119.549 48.5049 119.93 48.6609 120.328 48.6609C120.725 48.6609 121.106 48.5049 121.39 48.2265Z" fill="#101010"/>
<path d="M132.262 44.3062H133.604V49.8495H132.262L129.988 46.3588V49.8495H128.64V44.3062H129.988L132.244 47.7969L132.262 44.3062Z" fill="#101010"/>
<path d="M76.1364 0.811713C78.4111 -0.149935 80.9605 -0.239189 83.2968 0.561072C84.4646 0.965447 85.5679 1.53622 86.5727 2.25572C87.5155 2.90016 88.3151 3.53267 89.0789 4.04583C89.5383 4.33821 89.9858 4.61268 90.4155 4.85136C90.8451 5.09004 91.2688 5.24519 91.6924 5.44806C92.5807 5.76155 93.5049 5.96202 94.4432 6.04477C96.3521 6.20533 98.2707 5.88316 100.022 5.10794C100.106 5.28098 99.9388 5.70466 100.267 5.64499C101.568 5.3526 101.765 5.60324 101.974 5.96126C102.021 6.05076 101.795 6.18798 101.604 6.30732C101.413 6.42666 101.24 6.48633 101.448 6.49229C100.506 7.04126 98.7633 7.64989 99.8792 7.49475C100.256 7.46066 100.622 7.35539 100.959 7.18449C101.297 6.99265 101.671 6.87467 102.057 6.83839C102.534 6.89209 102.009 7.56039 102.493 7.60812C102.966 7.33982 103.422 7.04291 103.859 6.71904C104.307 6.62357 103.859 7.44704 104.211 7.19046C105.583 6.35986 106.721 5.19339 107.517 3.80116C107.601 3.85486 107.732 3.80119 107.803 3.8728C107.875 3.9444 107.905 4.02794 107.672 4.4337C105.956 6.87465 103.55 8.74696 100.762 9.81021C97.9742 10.8735 94.9321 11.0791 92.0266 10.4007C91.0304 10.1659 90.0652 9.81549 89.1505 9.35649C88.2738 8.91692 87.4407 8.39545 86.6622 7.79907C85.4841 6.81491 84.2245 5.93261 82.897 5.16166C81.7849 4.62309 80.5481 4.39429 79.3168 4.49933C78.1045 4.59823 76.9435 5.03204 75.9634 5.75239C74.9669 6.47464 74.1803 7.44866 73.6839 8.57478C73.2305 9.58321 73.0574 8.71206 73.2066 7.71556C73.1648 8.03778 72.8844 7.91245 72.8605 8.2466C72.5979 8.15709 72.3115 7.29787 73.0634 6.06866C72.8484 6.35394 72.6492 6.65074 72.4666 6.95774C72.2101 7.22625 72.2101 6.82048 72.037 6.71904C72.222 6.39086 72.4249 6.08059 72.3473 6.02689L72.0191 5.80611C71.7255 6.2439 71.4681 6.70488 71.2494 7.18449C71.4105 6.8205 71.6074 6.48037 71.5239 6.43264L71.1778 6.23572C71.4881 5.4421 72.407 4.57093 72.9679 3.93843L72.7591 3.72956C72.0135 4.40184 71.4056 5.21243 70.969 6.11637C71.0943 5.69271 71.0167 5.64497 70.8496 5.51967C71.4761 4.32626 72.5741 3.53265 73.4453 2.50035C73.0894 2.77166 72.7507 3.06461 72.4308 3.37753C72.7457 2.73296 73.2606 2.20755 73.8987 1.8798C74.6182 1.47088 75.366 1.11395 76.1364 0.811713Z" fill="#C3D8CC"/>
<path d="M76.1364 61.4608C78.4105 60.4963 80.9609 60.4071 83.2968 61.2102C84.4654 61.6101 85.569 62.179 86.5727 62.8988C87.5155 63.5433 88.3151 64.1817 89.0789 64.6889C89.5383 64.9813 89.9858 65.2856 90.4155 65.4945C90.8451 65.7033 91.2688 65.8943 91.6924 66.0912C92.5807 66.4047 93.5049 66.6051 94.4432 66.6879C96.3521 66.8484 98.2707 66.5263 100.022 65.751C100.106 65.9301 99.9388 66.3478 100.267 66.2881C101.568 65.9957 101.765 66.2463 101.974 66.6103C102.021 66.6938 101.795 66.837 101.604 66.9504C101.413 67.0638 101.24 67.1294 101.448 67.1354C100.506 67.6844 98.7633 68.293 99.8792 68.1438C100.255 68.1043 100.621 67.9972 100.959 67.8276C101.298 67.6385 101.671 67.5207 102.057 67.4815C102.534 67.5352 102.009 68.2035 102.493 68.2572C102.965 67.9847 103.421 67.6859 103.859 67.3621C104.307 67.2667 103.859 68.0901 104.211 67.8336C105.583 67.003 106.721 65.8365 107.517 64.4443C107.601 64.498 107.732 64.4443 107.803 64.5159C107.875 64.5875 107.905 64.671 107.672 65.0827C105.956 67.5237 103.55 69.396 100.762 70.4593C97.9742 71.5225 94.9321 71.7281 92.0266 71.0498C91.0302 70.8131 90.0649 70.4606 89.1505 69.9996C88.2738 69.56 87.4407 69.0386 86.6622 68.4422C85.4841 67.458 84.2245 66.5757 82.897 65.8048C81.7852 65.2654 80.5477 65.0385 79.3168 65.1484C78.1042 65.2415 76.9421 65.6736 75.9634 66.3955C74.9653 67.1185 74.1784 68.095 73.6839 69.2239C73.2305 70.2263 73.0574 69.3551 73.2066 68.3586C73.1648 68.6809 72.8844 68.5556 72.8605 68.8897C72.5979 68.8062 72.3115 67.9469 73.0634 66.7118C72.8484 66.9991 72.6492 67.2979 72.4666 67.6068C72.2101 67.8694 72.2101 67.4636 72.037 67.3621C72.222 67.034 72.4249 66.7237 72.3473 66.67L72.0191 66.4492C71.7268 66.8878 71.4694 67.3486 71.2494 67.8276C71.4105 67.4636 71.6074 67.1235 71.5239 67.0757C71.4403 67.028 71.2613 66.9325 71.1778 66.8788C71.4881 66.0852 72.407 65.214 72.9679 64.5815L72.7591 64.3727C72.0135 65.0449 71.4056 65.8555 70.969 66.7595C71.0943 66.3418 71.0167 66.2881 70.8496 66.1628C71.4761 64.9694 72.5741 64.1758 73.4453 63.1435C73.0894 63.4148 72.7507 63.7077 72.4308 64.0206C72.7457 63.3746 73.2605 62.8473 73.8987 62.5169C74.6173 62.1097 75.3653 61.7566 76.1364 61.4608Z" fill="#C3D8CC"/>
</svg>
