<svg width="118" height="72" viewBox="0 0 118 72" fill="none" xmlns="http://www.w3.org/2000/svg">
<path d="M54.0652 38.9468C54.0652 38.12 54.7595 36.7262 55.3742 37.1554C54.7595 36.7262 54.7595 36.7315 54.8761 35.5655C55.2841 35.8517 55.6763 34.9772 55.936 34.4473C55.3689 34.6752 54.9556 35.2263 54.1235 36.3075C54.362 37.9398 51.6008 39.2065 51.9506 40.807C52.6555 40.2505 53.7366 39.9696 54.0652 38.9468Z" fill="#C3D8CC"/>
<path d="M59.8309 35.9685L59.6825 35.6558L58.9141 37.7439C58.9459 37.2404 59.5023 35.8413 59.8309 35.9685Z" fill="#C3D8CC"/>
<path d="M62.9266 29.6086C63.2764 30.0696 64.1456 29.3171 64.5536 29.6086C63.6156 29.0415 65.3062 28.0186 65.7302 27.176L65.2479 26.3916C64.2198 26.8156 63.128 28.9196 62.0098 30.5466L62.9266 29.6086Z" fill="#C3D8CC"/>
<path d="M64.4265 28.4689L64.3205 27.6475C64.1509 28.1668 63.5573 29.2215 64.4265 28.4689Z" fill="#C3D8CC"/>
<path d="M61.2148 27.9767C60.3032 29.2487 62.031 27.3831 61.3261 28.7982C61.4904 28.2788 61.7925 27.7488 61.2148 27.9767Z" fill="#C3D8CC"/>
<path d="M66.2707 23.4922C65.7408 24.4709 65.2267 25.4566 64.7285 26.4494L65.7885 25.522L66.2707 23.4922Z" fill="#C3D8CC"/>
<path d="M67.8393 24.372C67.5902 24.7218 66.9542 25.0981 67.0655 24.4303C68.2739 23.842 67.9453 22.7132 69.0423 22.1567L68.6607 23.169C69.3073 23.4657 69.3603 20.9801 70.3355 21.7751C70.4892 20.1269 68.8409 21.9977 69.4557 20.1587C68.6597 21.439 67.6973 22.6081 66.5939 23.6353C66.9617 23.427 67.3064 23.18 67.622 22.8987C67.0443 23.7626 66.562 25.1246 65.9473 26.1739C66.9754 26.0786 66.8853 24.9391 67.8393 24.372Z" fill="#C3D8CC"/>
<path d="M71.0673 20.2759C71.804 19.4438 72.8745 18.1242 72.3552 17.3027C71.0885 17.7903 71.5814 18.4687 71.5549 19.1206C71.221 19.2848 70.4949 20.1222 70.373 19.465C70.6327 19.4544 70.4843 20.4561 71.0673 20.2759Z" fill="#C3D8CC"/>
<path d="M73.9291 17.0107L73.8231 15.8501L73.574 16.3589L73.0812 16.0144C73.1342 16.184 73.7065 17.191 72.9434 17.9912C73.6853 17.8216 73.3938 17.3234 73.9291 17.0107Z" fill="#C3D8CC"/>
<path d="M70.9768 14.112C71.7876 13.7781 71.9255 13.2905 72.36 12.4531C71.5545 13.4389 70.3938 14.7691 70.3938 15.2991L70.3461 15.1242C70.0924 15.8317 69.9321 16.5693 69.8691 17.3183C70.1977 15.951 72.36 14.8115 70.9768 14.112Z" fill="#C3D8CC"/>
<path d="M69.8643 15.2993L70.0868 14.2817L69.8643 15.2993Z" fill="#C3D8CC"/>
<path d="M76.0537 14.3398C75.5979 14.679 75.1634 15.0447 74.7129 15.3998L75.1793 15.2673C75.4708 14.9546 75.7516 14.6366 76.0537 14.3398Z" fill="#C3D8CC"/>
<path d="M72.8159 14.1546C73.8494 13.1901 71.809 14.2871 72.7152 13.3119C72.8795 12.9781 71.4168 14.7853 71.6553 15.1351C71.9838 14.9655 72.1905 13.7942 72.8159 14.1546Z" fill="#C3D8CC"/>
<path d="M76.8701 13.5979C77.045 13.1209 77.2146 12.6281 77.4001 12.167C77.2146 12.6493 77.045 13.1209 76.8701 13.5979Z" fill="#C3D8CC"/>
<path d="M79.6313 11.4938L79.5413 10.9638C80.1691 10.5843 80.7568 10.1422 81.2955 9.64417C81.5411 9.40883 81.8312 9.22481 82.1488 9.10287C82.4664 8.98093 82.8051 8.92352 83.1451 8.93399C82.6151 8.6319 82.9172 7.67264 81.8784 8.27151C81.9102 8.6213 81.5763 8.8757 81.8413 9.10889C81.3803 9.33148 81.216 8.9552 80.8503 9.04529C80.474 9.96215 79.2286 10.5769 78.9954 11.3666C79.1809 11.0592 79.3187 11.091 79.5253 10.9638C78.9583 12.506 77.4849 11.3348 77.8983 12.7021C78.0255 12.082 79.2551 12.0821 79.6313 11.4938Z" fill="#C3D8CC"/>
<path d="M77.5055 9.31599L76.4826 10.0474C76.3608 9.34249 77.5426 8.9874 77.373 8.45743C77.0762 8.23484 76.0375 8.9874 76.2124 8.45743C77.0444 9.58628 75.0093 9.69757 76.5515 10.3759C75.4916 11.6108 75.5817 10.0897 74.4316 11.3617L74.6277 12.2202C75.693 10.6197 76.3872 10.8794 77.5055 9.31599Z" fill="#C3D8CC"/>
<path d="M81.3586 6.44351L82.1217 6.47003L81.4752 6.12553C81.9945 5.73947 82.5911 5.47011 83.2241 5.33587C83.8069 5.23754 84.3987 5.20377 84.9889 5.23518C86.1019 5.23518 87.077 5.42595 87.6918 4.89068C88.0086 4.48859 88.4278 4.17923 88.9054 3.99503C89.3619 3.8145 89.8362 3.68302 90.3205 3.60284C90.8133 3.55514 91.3168 3.52335 91.8044 3.45975C92.0485 3.43247 92.2909 3.39177 92.5305 3.33785C92.7766 3.30574 93.0195 3.25255 93.2566 3.17886C94.0886 2.421 92.2496 3.04637 92.0641 2.78669C92.0641 1.61544 93.1559 3.11527 93.3891 2.12421C93.3891 1.71613 92.7955 1.63134 92.0853 1.59424C91.4082 1.67277 90.7258 1.6958 90.0449 1.66312C89.3029 2.01291 89.4195 2.28851 89.3559 2.78669C89.0115 2.4475 88.2006 2.63828 87.8296 2.30969C87.2852 2.79626 86.6244 3.13399 85.9111 3.29015C85.1923 3.41492 84.55 3.81396 84.1198 4.40311C83.3619 4.15402 85.1214 3.65584 84.602 3.87313L83.8389 4.35541L83.9714 4.39251C83.7639 4.69935 83.5016 4.96524 83.1976 5.17687C82.8752 5.42593 82.5291 5.64251 82.1641 5.82344C81.5484 6.12714 80.9016 6.36347 80.235 6.52832C80.8498 6.31103 81.4805 6.45942 81.03 7.0583L80.129 6.86221C79.9329 7.46108 79.7209 8.02813 79.5566 8.62701C80.0442 7.34976 81.9468 7.62005 81.3586 6.44351Z" fill="#C3D8CC"/>
<path d="M79.2073 6.50732C77.4796 7.40298 80.0235 7.16451 78.248 8.24036L79.043 7.50899L79.8751 6.81472L79.2073 6.50732Z" fill="#C3D8CC"/>
<path d="M87.7559 3.17851L88.8158 3.2686C88.659 3.1465 88.461 3.0899 88.2634 3.11065C88.0658 3.1314 87.8839 3.22791 87.7559 3.37991C87.5068 3.6078 87.4591 3.76149 87.7559 3.17851Z" fill="#C3D8CC"/>
<path d="M90.9249 1.96484L90.75 2.96649L91.4019 2.22453L90.9249 1.96484Z" fill="#C3D8CC"/>
<path d="M94.142 2.23986C94.7091 1.64098 93.8505 1.44489 93.082 1.70988C93.8028 1.60918 94.2427 1.91127 94.142 2.23986Z" fill="#C3D8CC"/>
<path d="M99.0396 3.45459C98.34 3.48639 98.6527 3.52878 99.0396 3.66658C99.4264 3.80437 99.7868 4.11176 99.2992 4.49864C99.4423 4.12236 100.163 3.64008 99.0396 3.45459Z" fill="#C3D8CC"/>
<path d="M103.115 5.96629C102.648 6.02459 102.489 5.86029 102.463 5.6377C102.589 5.64046 102.713 5.6714 102.826 5.72825C102.939 5.7851 103.037 5.86644 103.115 5.96629Z" fill="#C3D8CC"/>
<path d="M86.3411 6.35352C86.1994 6.45097 86.0485 6.53441 85.8906 6.60262L86.3411 6.35352Z" fill="#C3D8CC"/>
<path d="M86.6376 6.19385L86.3408 6.35283C86.4359 6.2929 86.535 6.23977 86.6376 6.19385Z" fill="#C3D8CC"/>
<path d="M96.9559 4.8749L96.8447 4.80078L96.9559 4.8749Z" fill="#C3D8CC"/>
<path d="M62.518 32.4917C62.4302 32.7092 62.3201 32.9169 62.1895 33.1118C62.2954 32.9051 62.4067 32.6984 62.5074 32.497L62.518 32.4917Z" fill="#C3D8CC"/>
<path d="M61.0293 32.5024C61.1989 31.1457 62.8842 32.1208 63.6103 30.2129C63.2817 30.9602 62.9054 31.718 62.5079 32.4971C61.1353 32.9794 62.5821 31.4901 61.0293 32.5024Z" fill="#C3D8CC"/>
<path d="M69.6943 18.0602C69.6943 18.0337 69.6943 18.0178 69.6943 17.9861C69.7685 17.8696 69.7526 17.949 69.6943 18.0602Z" fill="#C3D8CC"/>
<path d="M23.2474 69.1499L23.2633 69.399L22.1133 69.1817L23.2474 69.1499Z" fill="#C3D8CC"/>
<path d="M23.4593 69.5791C24.1218 69.6586 24.7843 69.6799 25.4573 69.7276C21.6109 70.575 17.6206 70.5223 13.7979 69.5738L14.2536 69.346C14.2536 69.2877 14.3861 69.293 14.6352 69.346C14.8843 69.399 15.2553 69.4149 15.6951 69.4891C16.135 69.5633 16.6385 69.6905 17.195 69.7276L18.9333 69.9025C21.3129 70.0244 23.6554 69.7434 23.4593 69.5791Z" fill="#C3D8CC"/>
<path d="M23.9473 69.1127C24.8429 67.9044 25.8287 69.2081 26.9628 68.127C26.6403 68.4606 26.3007 68.7772 25.9453 69.0756C25.6085 69.3197 25.1927 69.4294 24.7793 69.383L23.9473 69.1127Z" fill="#C3D8CC"/>
<path d="M27.5557 63.1029C27.6238 63.0647 27.697 63.0361 27.773 63.0181C27.7093 63.0874 27.6491 63.1599 27.5928 63.2354L27.5557 63.1029Z" fill="#C3D8CC"/>
<path d="M27.5935 63.2358L27.6995 63.5803C27.4928 63.5273 27.5034 63.3789 27.5935 63.2358Z" fill="#C3D8CC"/>
<path d="M27.7734 62.9969C27.9404 62.8438 28.0818 62.6649 28.1921 62.467H27.9695C28.2186 62.2974 28.5737 61.8151 28.7751 61.937C28.2451 62.1066 28.314 62.3451 28.4783 62.8167L29.3792 62.4988C29.6654 63.6859 28.5896 62.8486 27.7734 62.9969Z" fill="#C3D8CC"/>
<path d="M32.0549 61.6143C31.9436 61.8951 31.0426 62.2873 31.7157 62.2873C31.6309 62.4781 31.4507 62.547 31.2705 62.6371C31.7899 62.1813 30.8624 61.7627 32.0549 61.6143Z" fill="#C3D8CC"/>
<path d="M31.2711 62.6362C31.1955 62.6989 31.1138 62.754 31.0273 62.8005C31.099 62.7327 31.1814 62.6772 31.2711 62.6362Z" fill="#C3D8CC"/>
<path d="M34.1592 61.1847C34.273 61.1209 34.3827 61.0501 34.4878 60.9727C34.3977 61.0416 34.3182 61.1158 34.244 61.1794L34.1592 61.1847Z" fill="#C3D8CC"/>
<path d="M1.27441 63.1771C1.76447 63.9128 2.29527 64.6206 2.86434 65.297C3.22225 65.6468 3.60288 65.9726 4.00377 66.2721C4.45789 66.6323 4.9502 66.9416 5.47182 67.1943C5.9329 66.4788 6.43108 67.5706 7.06175 66.9081C6.53177 66.5848 6.77557 66.7226 7.39564 67.0883C7.54933 67.1784 7.72422 67.295 7.92561 67.3957L8.60397 67.7031C9.08625 67.9151 9.61623 68.1694 10.1621 68.3814C12.388 69.187 14.7411 69.4414 13.8719 69.0386L13.2254 69.2559C13.501 69.028 13.7554 68.8001 14.0257 68.567C14.5637 68.8923 15.1212 69.1843 15.6951 69.4414C16.278 69.6852 16.8451 69.8654 17.2532 69.6269C17.2532 69.6587 17.1472 69.6746 16.8981 69.6746C16.649 69.6746 16.2939 69.6057 15.8382 69.5368C15.3824 69.4679 14.8842 69.399 14.3489 69.2559L12.6636 68.7789C12.0912 68.6093 11.5506 68.3496 11.0313 68.1536L10.2893 67.8568L9.65865 67.5388C8.88488 67.1413 8.38668 66.9081 8.43968 67.0088C8.37608 66.6855 9.10746 66.8657 10.2045 67.2897C10.7345 67.5017 11.45 67.666 12.1707 67.9151C12.5446 68.0432 12.9271 68.1441 13.3155 68.2172L14.5185 68.4927C15.3347 68.6464 16.172 68.7313 16.9511 68.8426L19.1346 68.9167C20.4278 68.8319 21.3181 68.7524 21.3976 68.6252L21.5725 69.1552C22.287 68.8372 22.9717 68.4558 23.6182 68.0158C24.1567 67.5939 24.7334 67.2231 25.3406 66.9081L25.7752 67.4752C24.7577 67.4752 24.5828 67.9257 23.6023 68.3921C24.2195 68.2362 24.8526 68.1526 25.489 68.143C26.0325 68.1261 26.5696 68.0205 27.079 67.8303C26.8034 67.0247 25.86 67.719 27.3652 66.8392C27.6513 66.9505 27.5877 67.295 27.6248 67.5494C27.6619 67.8038 27.8209 67.9787 28.5311 67.6289C28.8291 67.6024 29.1156 67.5017 29.3646 67.3359C29.6137 67.1702 29.8172 66.9448 29.9567 66.6802C30.1437 66.1639 30.5236 65.7402 31.0167 65.4984L29.9196 65.6309C30.4496 65.3447 31.3506 64.7988 32.0396 64.9366C31.4407 65.191 30.0627 66.2509 30.4125 67.0565C30.9796 66.6007 32.5324 66.3092 33.0624 65.9489L32.9935 66.6537C33.8574 66.8286 33.815 65.9118 34.8219 65.9489C35.3519 65.2334 33.9793 65.4613 34.2442 65.0161C34.4774 65.1115 35.972 64.555 36.2105 63.9562C35.6805 63.5375 35.3784 63.8449 34.9809 64.2053C34.5834 64.5656 34.1224 64.9949 33.391 64.6716C33.8475 64.5202 34.2952 64.3433 34.7318 64.1416C34.7901 63.3838 34.3131 63.6858 33.8097 64.0409C33.3062 64.396 32.7232 64.7246 32.6967 64.1893C32.8557 63.3891 33.4652 63.4156 34.0428 63.3467C34.6205 63.2778 35.2141 63.193 35.1611 62.2867C34.4457 62.3609 32.7497 63.405 32.7391 62.8538C33.5765 62.9121 33.5447 61.8733 34.2495 61.2639C34.6788 61.2162 35.1028 61.1314 35.5374 61.0572C35.7176 60.453 35.3837 60.6809 34.9226 60.7021C35.4161 60.5717 35.8838 60.3585 36.3059 60.0714C36.7616 59.7481 37.228 59.3613 37.7156 58.9638C38.669 58.0655 39.7385 57.299 40.8955 56.6849C41.8335 55.5295 40.6464 56.1549 40.816 55.3917C41.8759 55.344 42.4059 53.9714 42.9359 53.3566C43.1426 53.2082 42.8776 52.3921 42.5013 52.3656C42.1674 52.9803 41.8282 53.5898 41.4413 54.1781C41.3666 54.0709 41.2671 53.9834 41.1513 53.923C41.0355 53.8626 40.9068 53.831 40.7762 53.831C40.6456 53.831 40.5169 53.8626 40.4011 53.923C40.2853 53.9834 40.1858 54.0709 40.1111 54.1781C40.8054 54.5067 40.1535 54.8776 39.4486 55.2698C38.7437 55.662 38.0124 56.1284 38.5053 56.775L38.023 56.2026C37.493 56.8757 37.0054 57.5911 36.433 58.2271H36.555C36.4808 58.1317 36.1469 58.561 35.6699 59.1016C35.1626 59.6752 34.5489 60.145 33.8627 60.4848C34.0535 60.0555 36.0886 58.9479 34.5092 59.0751C35.0657 58.1688 36.9047 57.5434 38.0972 56.0383L37.4824 55.9058C38.4364 54.088 40.9326 52.8955 42.284 51.0618L42.3529 52.0105C43.0843 51.6024 44.1813 51.1572 44.2131 50.1979C43.6142 50.9717 43.6354 50.3358 43.5188 50.0125C44.0488 48.7829 45.5911 47.5163 46.4549 45.8892C46.4549 45.8892 46.5185 46.0482 46.651 46.0429C46.9213 45.46 47.181 44.8452 47.4301 44.2463C48.0501 43.5785 48.5589 43.552 49.2532 43.3453C49.3698 43.0115 49.8521 42.3278 49.338 42.3649C49.2121 42.4657 49.1091 42.5922 49.0359 42.7359C48.967 41.501 49.6136 42.3066 49.9157 41.024C49.9157 42.1688 50.8272 41.2784 51.3042 41.7289C51.8766 40.3722 50.4244 40.987 50.2813 40.669C51.5639 39.4235 52.1416 39.5189 53.2227 38.1039C52.9418 37.8018 52.3059 39.0155 51.8501 38.8936C52.2158 38.5332 52.5019 38.0138 52.4277 37.8336L51.5745 38.5703C53.0028 37.285 54.1317 35.702 54.8815 33.933H54.6219L55.3267 32.873L55.703 33.6627C55.915 32.9737 56.8689 32.6928 56.5669 32.0728L56.3867 32.2582L56.6517 31.3944L56.7948 32.5444C57.6533 31.7813 57.187 29.6561 58.284 28.1827C59.344 28.3947 56.8849 31.0287 57.8547 31.8926C58.3529 31.5004 59.0842 30.7478 58.9889 30.2549C58.655 30.1277 58.4218 30.4881 58.1833 30.8538C58.4642 29.1473 60.6689 27.7163 60.3032 26.2483L59.2645 27.0221C59.9322 25.766 61.5592 25.7607 61.2042 24.9552L61.66 26.5875C61.9196 25.0506 63.0485 23.5931 63.4354 22.2152C62.8365 21.7594 62.3383 23.8316 62.28 23.6673L62.1952 22.8352C63.7852 21.3407 62.9054 22.5915 64.7338 20.7577L64.3416 20.4504C65.4493 20.196 65.6401 17.4825 66.1966 18.9717L65.5394 19.348L66.0694 19.6554L67.5321 17.0426C67.7017 17.5408 68.4967 16.3377 68.7193 17.0055L68.9842 15.8184C69.9594 15.9721 68.5285 18.0178 68.9842 18.5053C69.3128 18.712 69.5937 18.2881 69.705 18.0602C69.3976 19.454 67.8554 19.0724 67.0551 20.0953L67.1081 20.9326L66.5304 20.4663C66.3774 20.9581 66.398 21.4876 66.5887 21.9661C65.0253 22.4166 65.2373 24.2344 63.9971 25.6759C64.5271 24.1231 62.8418 26.1211 62.8259 25.7872C62.3277 26.508 62.2535 29.0201 61.0982 29.1473C60.5258 29.3805 61.2254 27.9654 60.4304 28.8929C60.0806 29.6031 60.1177 30.2655 60.6901 30.0323C59.9375 31.6223 58.6868 33.2705 57.6957 34.8869L57.5208 34.2404C56.5351 35.0247 56.498 36.3603 56.6146 37.1711C56.3602 37.1976 56.4344 37.3566 56.286 37.044C54.7809 37.8707 56.1058 39.2221 54.5954 41.1936C55.2525 41.4639 55.9203 40.563 56.0634 39.7203L56.5934 40.3245C57.7981 38.5748 58.7657 36.6734 59.4711 34.6696L59.5347 35.6607C61.2413 34.9558 59.2433 34.198 61.024 33.6521C61.3473 32.5921 60.2714 34.0761 60.4092 33.2281C61.0028 32.6981 61.4692 34.1185 62.174 33.1009C60.0223 37.24 57.1711 41.7236 54.5 45.8204C54.5689 45.9847 54.7596 45.8204 54.9504 45.619C54.9133 46.6153 52.3641 49.562 49.8097 52.2702C47.2552 54.9784 44.7007 57.4268 45.2784 58.3066C44.8915 58.2748 45.2042 57.4586 44.4993 58.2483C44.5417 58.4179 44.4993 58.7783 44.8809 58.7783C43.5241 59.34 42.4271 60.4371 41.2188 61.5554C40.0616 62.7633 38.6905 63.7462 37.175 64.4543C37.4347 64.6981 36.9577 65.2758 37.069 65.4772C36.3387 65.5255 35.646 65.8187 35.1028 66.3092C34.5781 66.7509 33.9603 67.068 33.2956 67.2367L33.7832 67.4381L33.0306 67.8303L32.2516 68.1642C31.7216 68.3868 31.1916 68.6199 30.6934 68.8266C30.651 69.0068 31.0856 68.8266 31.3559 68.7789C31.2786 68.8645 31.1807 68.9288 31.0714 68.9657C30.9622 69.0026 30.8453 69.0107 30.732 68.9895C30.6187 68.9682 30.5128 68.9182 30.4243 68.8442C30.3359 68.7702 30.268 68.6747 30.227 68.567L29.0558 69.8866C26.6974 69.8389 24.3814 70.5967 21.7686 70.9995C19.1558 71.4023 16.3045 71.5295 13.819 70.406C13.3875 70.6238 12.9176 70.7552 12.4357 70.7929C12.1766 70.8162 11.9158 70.8162 11.6566 70.7929C11.35 70.7252 11.0475 70.6402 10.7504 70.5384L11.3228 70.9943C9.76992 70.9943 11.3704 70.6339 10.1303 70.4643C9.18165 70.5438 9.47845 71.3281 10.708 71.4076C11.3016 71.9005 10.8087 71.9376 10.2522 71.9376C9.72224 71.7044 9.19227 71.4712 8.66229 71.2221C8.13231 70.9731 7.66061 70.6286 7.17833 70.3265L6.46818 69.8654C6.24029 69.7064 6.0283 69.5156 5.81101 69.3354C5.38703 68.975 4.97364 68.6146 4.57616 68.2489C3.84801 67.5002 3.1816 66.6938 2.58344 65.8376C2.08132 64.9846 1.64376 64.0953 1.27441 63.1771Z" fill="#C3D8CC"/>
<path d="M111.276 12.2464C111.276 11.7906 112.299 12.9937 112.336 11.9602C112.259 11.5915 112.132 11.2349 111.96 10.9003C111.747 10.5727 111.513 10.2593 111.26 9.96221C111.133 9.80322 110.995 9.64422 110.852 9.49053L110.364 9.08777C110.025 8.82808 109.691 8.5578 109.304 8.29281C107.81 7.31765 106.124 6.63396 104.725 5.64291C104.225 5.15334 103.653 4.74237 103.029 4.42397C102.991 4.54903 102.976 4.68035 102.987 4.81084C102.542 4.71544 101.927 4.69955 101.349 4.62006C100.791 4.59033 100.237 4.49425 99.7011 4.33386C99.4362 4.47166 99.2507 5.00163 99.7383 4.89033C99.1389 5.0366 98.5072 4.96913 97.9522 4.69955C97.4223 4.47166 96.9241 4.22787 96.5531 4.51405C97.2686 4.76844 95.9542 5.12352 96.781 5.28782C95.3871 5.5793 95.191 3.61839 93.9297 3.69789C93.8873 3.86218 93.8502 4.02647 94.0993 4.01587C93.6892 3.90903 93.2586 3.90903 92.8486 4.01587C92.4081 4.14171 91.9761 4.29572 91.5554 4.47695C90.7233 4.76844 90.0556 5.06523 89.7323 4.47695L89.4355 5.20303C88.72 5.04404 88.7095 4.67306 87.729 4.96984C87.2308 5.46272 87.9728 5.40442 87.8509 5.69591C87.6071 5.51572 87.1195 5.69591 86.5524 5.8602C86.0162 6.11623 85.4229 6.22942 84.83 6.18878C84.5809 5.839 85.0526 5.8867 85.6091 5.892C85.885 5.90541 86.1615 5.88043 86.4305 5.81779C86.5501 5.79643 86.662 5.74407 86.755 5.66595C86.848 5.58784 86.9188 5.48669 86.9605 5.37261C86.9022 5.20832 86.775 5.21892 86.616 5.27722C87.0912 5.065 87.5778 4.87923 88.0735 4.72075C88.5559 4.59157 89.0463 4.49419 89.5415 4.42926C90.4671 4.30648 91.4016 4.26393 92.3345 4.30207C93.2196 4.30207 94.0834 4.40807 94.8837 4.33917C95.6937 4.36234 96.5022 4.2568 97.2792 4.02648C98.0317 4.58296 98.5193 3.99468 98.8426 3.39051C98.2543 3.16262 96.4365 2.68034 96.5425 3.92048L95.403 3.31101C95.0215 3.42231 94.8201 2.25106 94.6028 2.08146C95.3818 2.08146 96.145 0.825421 94.9844 0.560433C96.0443 0.337843 95.9542 0.984414 95.8376 1.62039C95.721 2.25636 95.5938 2.86582 96.4524 2.59024L96.622 1.69988C96.3358 2.16626 97.9098 2.47365 98.4716 2.15036L98.2225 1.99667C100.907 2.06005 103.575 2.43713 106.172 3.12021C108.906 3.86002 111.472 5.1196 113.73 6.83007C113.673 7.06991 113.672 7.31972 113.728 7.55979C113.784 7.79985 113.895 8.02358 114.053 8.2133C114.378 8.53932 114.733 8.83387 115.113 9.09304C115.511 9.34062 115.878 9.6361 116.205 9.97282C116.341 10.1483 116.43 10.3566 116.462 10.5769C116.493 10.7972 116.467 11.022 116.385 11.2289C116.947 11.5416 116.523 10.1106 117.376 10.8844C117.441 10.9378 117.49 11.0076 117.519 11.0866C117.548 11.1655 117.555 11.2508 117.54 11.3334C117.525 11.4161 117.488 11.4933 117.433 11.5569C117.378 11.6205 117.307 11.6683 117.227 11.6952L117.662 12.0238C116.915 12.726 115.931 13.1198 114.906 13.1262C114.339 13.1339 113.773 13.0608 113.226 12.9089L112.781 12.7711C112.617 12.734 112.452 12.6863 112.288 12.6386C111.943 12.5276 111.605 12.3967 111.276 12.2464Z" fill="#C3D8CC"/>
<path d="M6.02809 24.7962V27.4143C7.15517 25.5382 8.95533 24.6001 11.4286 24.6001C12.3552 24.566 13.2785 24.7309 14.136 25.0838C14.9936 25.4367 15.7655 25.9693 16.3997 26.6458C17.6611 28.0096 18.2935 29.8628 18.2971 32.2053V42.6193H12.8648V32.9419C12.9205 31.9742 12.5952 31.023 11.9585 30.292C11.2624 29.6873 10.3713 29.3543 9.4491 29.3543C8.52695 29.3543 7.63582 29.6873 6.93967 30.292C6.30106 31.0222 5.97382 31.9734 6.02809 32.9419V42.6193H0.569336V24.7962H6.02809Z" fill="#454545"/>
<path d="M23.6661 40.287C22.1381 38.4441 21.3018 36.1253 21.3018 33.7312C21.3018 31.3372 22.1381 29.0183 23.6661 27.1754C24.3835 26.3542 25.2706 25.6987 26.2662 25.254C27.2617 24.8093 28.342 24.586 29.4323 24.5997C30.4454 24.5495 31.4548 24.7546 32.3679 25.1964C33.281 25.6381 34.0684 26.3022 34.6579 27.1277V24.7958H40.1219V42.6189H34.6579V40.0326C34.0859 40.9129 33.2993 41.6332 32.3721 42.1255C31.4449 42.6179 30.4077 42.8661 29.3581 42.8468C28.2808 42.856 27.2144 42.632 26.2319 42.1901C25.2494 41.7482 24.3741 41.099 23.6661 40.287ZM33.476 36.9641C33.8864 36.5312 34.2031 36.0183 34.4065 35.4575C34.6098 34.8967 34.6954 34.3 34.6579 33.7047C34.696 33.1125 34.6106 32.5189 34.4071 31.9615C34.2037 31.404 33.8866 30.895 33.476 30.4666C33.1208 30.1066 32.6974 29.8209 32.2307 29.6262C31.7639 29.4314 31.263 29.3316 30.7572 29.3324C30.2508 29.3316 29.7495 29.4331 29.2832 29.6307C28.8169 29.8284 28.3954 30.1181 28.0438 30.4825C27.6323 30.9147 27.3149 31.4274 27.1114 31.9884C26.908 32.5493 26.8231 33.1464 26.8619 33.7418C26.8211 34.3342 26.9053 34.9286 27.1089 35.4864C27.3125 36.0443 27.631 36.5531 28.0438 36.98C28.3976 37.3416 28.8202 37.629 29.2866 37.8252C29.753 38.0214 30.2539 38.1224 30.7599 38.1224C31.2659 38.1224 31.7668 38.0214 32.2332 37.8252C32.6996 37.629 33.1222 37.3416 33.476 36.98V36.9641Z" fill="#454545"/>
<path d="M52.1628 37.9875H54.1132V42.6195H51.3149C49.3169 42.6195 47.764 42.1796 46.667 41.2945C45.5699 40.4095 45.0241 38.8937 45.0241 36.742V29.3224H43.3652V24.7858H45.0294V20.4399H50.4934V24.7858H54.0708V29.3224H50.4934V36.742C50.504 37.5582 51.0552 37.9875 52.1628 37.9875Z" fill="#454545"/>
<path d="M69.6411 24.7964H75.0998V42.6195H69.6411V40.0014C68.5069 41.8775 66.7068 42.8156 64.2406 42.8156C63.3138 42.8504 62.3904 42.6858 61.5327 42.3329C60.6751 41.98 59.9032 41.4469 59.2694 40.7699C58.001 39.4096 57.3686 37.5565 57.3721 35.2104V24.7964H62.8043V34.4738C62.7486 35.4415 63.0739 36.3927 63.7106 37.1237C64.4053 37.7316 65.297 38.0666 66.22 38.0666C67.1431 38.0666 68.0348 37.7316 68.7295 37.1237C69.3681 36.3935 69.6953 35.4423 69.6411 34.4738V24.7964Z" fill="#454545"/>
<path d="M85.0373 24.7962V28.1192C86.3128 25.7767 88.0175 24.6036 90.1516 24.6001V30.1384H88.8054C87.7835 30.0611 86.7713 30.382 85.9806 31.034C85.3517 31.6311 85.0373 32.6752 85.0373 34.1662V42.5981H79.5732V24.7962H85.0373Z" fill="#454545"/>
<path d="M93.8556 40.2875C92.3275 38.4446 91.4912 36.1258 91.4912 33.7317C91.4912 31.3377 92.3275 29.0188 93.8556 27.1759C94.573 26.3547 95.4601 25.6992 96.4556 25.2545C97.4512 24.8098 98.5315 24.5865 99.6217 24.6002C100.635 24.5499 101.644 24.7551 102.557 25.1969C103.47 25.6386 104.258 26.3027 104.847 27.1282V24.7963H110.306V42.6194H104.842V40.0331C104.27 40.9134 103.483 41.6337 102.556 42.126C101.629 42.6184 100.592 42.8666 99.5422 42.8473C98.4659 42.8557 97.4004 42.6313 96.4189 42.1895C95.4374 41.7476 94.563 41.0989 93.8556 40.2875ZM103.66 36.9646C104.072 36.5327 104.391 36.0201 104.595 35.4591C104.799 34.8982 104.885 34.301 104.847 33.7052C104.887 33.1124 104.802 32.5178 104.598 31.96C104.393 31.4021 104.074 30.8935 103.66 30.4671C103.307 30.1055 102.885 29.8183 102.419 29.6222C101.953 29.4261 101.452 29.325 100.947 29.325C100.441 29.325 99.9406 29.4261 99.4747 29.6222C99.0087 29.8183 98.5866 30.1055 98.2332 30.4671C97.8218 30.8992 97.5043 31.412 97.3009 31.9729C97.0975 32.5339 97.0125 33.131 97.0513 33.7264C97.0106 34.3188 97.0948 34.9132 97.2983 35.471C97.5019 36.0288 97.8204 36.5377 98.2332 36.9646C98.5866 37.3261 99.0087 37.6133 99.4747 37.8095C99.9406 38.0056 100.441 38.1066 100.947 38.1066C101.452 38.1066 101.953 38.0056 102.419 37.8095C102.885 37.6133 103.307 37.3261 103.66 36.9646Z" fill="#454545"/>
<path d="M6.45715 45.7407V51.1041H5.57741V47.4313L3.93976 51.1041H3.33031L1.68736 47.4313V51.1041H0.807617V45.7407H1.75626L3.63767 49.9487L5.51381 45.7407H6.45715Z" fill="#101010"/>
<path d="M12.5469 51.1041V45.7407H13.4267V51.1041H12.5469Z" fill="#101010"/>
<path d="M23.0515 45.7358H23.9313V51.1045H23.0515L20.4017 47.0979V51.1045H19.5166V45.7358H20.3963L23.0462 49.7319L23.0515 45.7358Z" fill="#101010"/>
<path d="M32.9881 45.7363V46.42H30.9V48.047H32.7655V48.7307H30.9106V50.416H32.9987V51.105H30.0361V45.7363H32.9881Z" fill="#101010"/>
<path d="M39.8827 48.9259V51.1041H39.0029V45.7408H40.8525C41.3607 45.709 41.8621 45.8698 42.257 46.1912C42.4176 46.3357 42.5449 46.5134 42.6301 46.712C42.7152 46.9106 42.7561 47.1253 42.7499 47.3413C42.7518 47.6914 42.6382 48.0323 42.4266 48.3111C42.173 48.6178 41.8137 48.8183 41.4196 48.8729L42.8347 51.1041H41.7747L40.4338 48.9259H39.8827ZM39.8827 46.4297V48.2422H40.8525C41.1247 48.2626 41.3943 48.1772 41.6051 48.0038C41.7583 47.8149 41.8419 47.5792 41.8419 47.336C41.8419 47.0928 41.7583 46.8571 41.6051 46.6682C41.3943 46.4948 41.1247 46.4094 40.8525 46.4297H39.8827Z" fill="#101010"/>
<path d="M52.4334 51.105L52.0518 50.0079H49.8047L49.4178 51.105H48.501L50.4195 45.7363H51.4423L53.3609 51.105H52.4334ZM50.0432 49.3243H51.808L50.9336 46.8016L50.0432 49.3243Z" fill="#101010"/>
<path d="M59.1318 45.7407H60.0116V50.431H61.8241V51.1041H59.1318V45.7407Z" fill="#101010"/>
<path d="M80.7868 45.7416H81.7249L80.135 51.105H79.1386L78.0098 47.0454L76.8173 51.105H75.8263L74.3105 45.7363H75.2433L76.3509 50.1033L77.554 45.7363H78.5451L79.6633 50.0821L80.7868 45.7416Z" fill="#101010"/>
<path d="M91.01 51.105L90.6231 50.0079H88.376L87.9945 51.105H87.0723L88.9961 45.7363H90.0031L91.9216 51.105H91.01ZM88.6145 49.3243H90.3846L89.5049 46.8016L88.6145 49.3243Z" fill="#101010"/>
<path d="M97.4229 46.4297V45.7407H101.164V46.4297H99.7388V51.1041H98.8591V46.4297H97.4229Z" fill="#101010"/>
<path d="M109.957 45.7363V46.42H107.874V48.047H109.724V48.7307H107.874V50.416H109.957V51.105H106.994V45.7363H109.957Z" fill="#101010"/>
</svg>
