<svg width="70" height="72" viewBox="0 0 70 72" fill="none" xmlns="http://www.w3.org/2000/svg">
<path d="M60.8154 70.6873C60.7675 70.6593 60.8833 70.6074 61.0909 70.5396C60.7195 70.6474 60.5438 70.7153 60.8154 70.6873Z" fill="#C3D8CC"/>
<path d="M61.0996 70.5396L61.4231 70.4478C61.2913 70.4797 61.1875 70.5156 61.0996 70.5396Z" fill="#C3D8CC"/>
<path d="M61.1592 69.9128L61.3588 69.8449C61.3348 69.8375 61.312 69.8268 61.291 69.813C61.2151 69.8529 61.1712 69.8849 61.1592 69.9128Z" fill="#C3D8CC"/>
<path d="M69.5767 8.45125C69.5767 7.95608 69.5767 7.46491 69.5767 6.97373C69.5966 6.38613 69.578 5.79784 69.5208 5.21268C69.4661 4.67558 69.3413 4.14796 69.1494 3.64331C68.9557 3.1482 68.6951 2.68197 68.3747 2.25764C67.7409 1.42208 66.8861 0.780304 65.9069 0.404746C64.9533 0.0696751 63.937 -0.0489966 62.9319 0.0573305L61.4543 0.193101L60.9112 0.245016L60.5119 0.292934L58.9865 0.46864C57.6168 0.664312 56.5905 0.42072 55.4125 0.324881C50.1094 0.840017 43.3407 1.15549 37.3588 1.75049H37.6543C34.4596 2.01804 32.0636 1.79442 28.9608 2.06197C28.9608 2.1658 28.5016 2.20573 28.27 2.27361C27.699 1.81838 10.0286 4.49788 8.91047 4.27026C8.44326 4.33016 7.92812 4.3661 7.42896 4.43798C6.03771 4.50073 4.722 5.08866 3.74713 6.08322C3.26045 6.58356 2.87532 7.17346 2.61304 7.82031C2.35485 8.47905 2.20255 9.1745 2.16179 9.88085L2.10988 10.5717C2.10988 10.7953 2.07793 11.0709 2.06196 11.1787L1.97012 12.0572L1.79042 13.8023C1.67328 14.9603 1.5588 16.1011 1.44699 17.2245C1.23534 19.4728 1.0836 21.6172 1.04766 23.6498C1.25132 24.8797 1.42303 26.2654 1.65863 27.3036C1.42303 28.298 1.83035 28.5016 1.7425 29.6996C0.680284 32.7305 1.05166 34.5315 1.43901 32.9621C1.51089 35.4779 1.36313 37.9977 1.34716 40.2299C1.39907 41.2682 1.45099 42.2985 1.5029 43.3447C1.58642 43.9724 1.4675 44.6103 1.16347 45.1657C1.24733 47.4418 1.01971 46.763 0.863971 49.159C0.504574 49.726 1.2633 55.1489 1.14749 55.8118L1.10757 55.4125C1.03263 56.6374 0.872508 57.8557 0.628367 59.0584C0.524542 59.6254 0.424709 60.1925 0.340849 60.7835C0.300916 61.079 0.264973 61.3785 0.23702 61.6939L0.217058 61.9295C0.217058 62.0414 0.217058 62.1532 0.217058 62.269C0.217058 62.5485 0.193103 62.832 0.185117 63.1235C0.115819 63.9137 0.133217 64.7091 0.23702 65.4956C0.397201 66.6297 0.908535 67.6851 1.69923 68.5138C2.48992 69.3424 3.52027 69.9027 4.64563 70.1158C5.45457 70.259 6.27684 70.3125 7.09752 70.2755H8.98236H11.8735C15.7151 70.2556 19.4847 70.2236 22.9509 70.2755C23.0188 69.9161 21.4215 70.3554 21.3536 69.8762C25.4387 69.9361 29.5558 70.3873 33.6769 70.4473C34.3514 70.5308 35.0188 70.6643 35.6736 70.8466C36.9914 70.9784 36.4723 70.6709 37.4147 70.7188L37.5464 71.0462C38.9561 70.7787 39.607 71.4056 40.9328 71.2739C41.0007 71.1421 41.4878 71.1221 41.9591 71.1341C41.983 71.4815 43.4086 71.1101 43.3407 71.4256V71.4016C43.6182 71.3885 43.8964 71.4018 44.1713 71.4416C44.7144 71.3218 49.7619 70.3714 50.321 70.2436L50.5766 70.3035C51.3313 70.3035 51.6548 70.0359 51.2155 69.9721L52.1499 69.992L52.0421 70.016H52.9686C53.1403 70.0439 53.332 70.2076 53.0684 70.3594C53.6061 70.2271 54.1622 70.1852 54.7136 70.2356C53.2481 70.02 51.4311 69.7165 49.9017 69.3691C50.5327 69.2493 51.6668 69.433 52.3496 69.397C53.5994 69.6623 54.8633 69.8556 56.1353 69.976C56.4228 69.9561 56.6185 69.5767 57.2694 69.7404C57.5848 70.008 58.0001 69.7404 58.5392 69.9241C57.9269 70.0253 57.3041 70.0468 56.6863 69.988C56.7941 70.3035 58.2158 70.2037 58.7109 70.2915C58.9465 70.1917 60.1565 70.2915 60.9192 70.2077C60.7036 70.4033 61.031 70.4273 61.4144 70.4632L61.6221 70.4113L61.4224 70.4632C61.6133 70.4748 61.8022 70.5083 61.9854 70.5631C62.5006 70.599 62.828 70.4792 62.6204 70.3714C62.6563 70.2995 62.5765 70.2516 62.4407 70.2116C63.6387 69.9281 65.0643 69.6326 64.7688 69.6246C64.6051 69.5967 64.5971 69.5488 64.633 69.4968C64.6689 69.4449 64.7328 69.4449 64.7169 69.405C64.7888 69.3331 64.8407 69.2692 64.613 69.2373L64.4094 69.3171C62.1492 69.2373 66.406 67.5162 63.7824 67.4163C64.9125 67.8157 63.4031 67.8157 62.2171 67.8636C62.1013 67.7278 61.5741 67.5321 60.7236 67.4323C59.9848 67.4643 60.2883 67.5761 60.1485 67.6759C59.7492 67.5881 58.9505 67.5122 59.0583 67.3045C58.4833 67.5521 58.1399 67.1488 57.461 67.2326C56.854 67.3484 57.501 67.3405 57.0617 67.4603C56.1512 67.4323 54.8694 67.3964 54.1426 67.3524C53.9629 67.2247 53.5356 67.037 53.4318 66.8373H53.9948C53.931 66.9132 53.9948 66.9651 54.5419 66.9371C54.5009 66.9113 54.4656 66.8773 54.4381 66.8373H64.7688L65.1122 53.1083C65.2959 54.8374 65.5115 56.3549 65.9109 56.9978C65.9109 60.46 66.2663 61.8497 66.3781 65.248C66.7774 64.3814 66.7415 68.5544 67.0729 66.8932C67.6479 64.657 67.2087 64.5212 67.6759 62.6204L67.5481 62.6763C68.3468 53.7752 68.8739 44.8582 69.2732 35.8253C69.1095 29.7875 69.5328 23.2544 69.5927 16.9849C69.6007 14.1697 69.6007 11.2745 69.5767 8.45125ZM63.3511 68.9178C63.6427 68.9178 63.5628 69.0137 63.3112 69.1335C63.2947 69.1189 63.2821 69.1002 63.2749 69.0793C63.2677 69.0584 63.266 69.036 63.2701 69.0143C63.2741 68.9926 63.2837 68.9723 63.2979 68.9554C63.3121 68.9385 63.3304 68.9255 63.3511 68.9178ZM61.5781 69.7564L61.3585 69.8283C61.9103 69.9165 62.4709 69.9366 63.0277 69.8882C63.0277 69.7604 62.852 69.7444 62.864 69.6845C63.0621 69.6323 63.2636 69.5936 63.467 69.5687L63.6826 69.5488L63.8144 69.5767C63.9728 69.5472 64.1328 69.5272 64.2936 69.5168C64.3988 69.5184 64.5023 69.5429 64.5971 69.5887C64.4185 69.6175 64.2365 69.6175 64.058 69.5887C64.4573 69.5887 63.419 69.8842 62.4007 70.1557C61.9655 70.0519 61.079 70.0479 61.1588 69.8842L61.0231 69.9361L60.7036 69.8642C60.9917 69.8072 61.2844 69.7765 61.5781 69.7724V69.7564Z" fill="#C3D8CC"/>
<path d="M16.9851 24.5923H17.1089C23.3465 38.8883 23.7657 39.7029 23.7657 39.7029C24.6523 41.6756 25.4909 41.6996 25.982 41.7475V41.9472H17.3565V41.7635C19.3292 41.7635 17.8477 38.8803 17.8477 38.8803L17.049 37.1792H12.2171C11.722 38.3133 12.1652 41.7635 15.1242 41.7635V41.9631H8.03613V41.7635C8.77489 41.7156 10.1087 41.5199 12.0055 37.1792L16.9851 24.5923ZM14.4933 31.3809L12.297 36.9316H16.9572L14.4933 31.3809Z" fill="white"/>
<path d="M32.2708 41.7637V41.9633H26.1052V41.7637C27.0436 41.4961 27.0675 40.4579 27.0675 39.176V26.3974C27.0675 25.5349 26.772 25.1994 25.7617 24.8201V24.5925L31.2645 23.5542V39.16C31.2645 40.5177 31.3843 41.5041 32.2708 41.7637Z" fill="white"/>
<path d="M39.1004 41.7639V41.9635H32.9387V41.7639C33.8731 41.4963 33.8971 40.4341 33.8971 39.1762V33.1463C33.8971 32.2838 33.6255 31.9483 32.6152 31.569V31.3813L38.0901 30.347V39.1722C38.0901 40.518 38.2138 41.5043 39.1004 41.7639ZM33.3819 27.388C33.3798 27.0801 33.4389 26.7748 33.5557 26.49C33.6726 26.2051 33.8449 25.9463 34.0626 25.7286C34.2803 25.5108 34.5391 25.3386 34.824 25.2217C35.1089 25.1049 35.4141 25.0458 35.722 25.0479C36.186 25.0471 36.6397 25.184 37.0258 25.4413C37.4119 25.6986 37.713 26.0646 37.8909 26.4931C38.0688 26.9216 38.1155 27.3932 38.0252 27.8483C37.9349 28.3034 37.7116 28.7214 37.3835 29.0495C37.0554 29.3775 36.6374 29.6009 36.1823 29.6912C35.7273 29.7815 35.2556 29.7348 34.8271 29.5568C34.3986 29.3789 34.0326 29.0779 33.7753 28.6918C33.5181 28.3057 33.3812 27.8519 33.3819 27.388Z" fill="white"/>
<path d="M48.1489 40.8372C48.1489 40.8372 47.2105 42.167 44.3513 42.167C41.3683 42.167 39.9586 41.3324 39.9586 41.3324V38.1018H40.1823C40.6734 40.3939 42.722 41.9473 44.3473 41.9473C46.0963 41.9473 46.4917 39.8988 44.6188 38.6688L42.127 37.1634C39.8109 35.6339 39.1959 33.194 40.6974 31.5168C40.6974 31.5168 41.6119 30.3188 44.4231 30.3188C47.2344 30.3188 48.4364 31.0257 48.4364 31.0257V33.5414H48.2128C47.7695 31.3212 45.8487 30.5584 44.4191 30.5584C42.8218 30.5584 42.0511 32.1558 44.1955 33.5135L46.6833 35.0669C48.9356 36.4246 49.5026 39.2119 48.1489 40.8372Z" fill="white"/>
<path d="M62.4731 40.3701C62.1257 41.4523 60.8438 42.1671 59.2785 42.1671C59.2785 42.1671 56.543 42.1671 56.3194 39.9508C55.9999 41.2326 54.742 42.1671 52.993 42.1671C52.0545 42.1671 49.9102 41.7478 49.9102 39.6553C49.9102 37.1874 51.9068 36.7202 56.2994 35.6859V34.1086C56.2994 31.5409 54.8459 30.1632 53.1447 31.0497C53.1447 31.0497 52.6017 31.3692 53.4402 31.6647C53.6452 31.7508 53.8299 31.8788 53.9825 32.0403C54.1352 32.2019 54.2524 32.3936 54.3267 32.6031C54.4175 32.8156 54.4651 33.0439 54.4669 33.275C54.4687 33.506 54.4246 33.7351 54.3372 33.9489C54.2497 34.1627 54.1207 34.3571 53.9576 34.5207C53.7944 34.6843 53.6004 34.8139 53.3868 34.9019C53.1732 34.9899 52.9443 35.0347 52.7132 35.0335C52.4822 35.0324 52.2537 34.9854 52.041 34.8952C51.8283 34.8051 51.6356 34.6736 51.4741 34.5084C51.3126 34.3432 51.1855 34.1476 51.1002 33.9329C50.9776 33.6315 50.9403 33.3021 50.9924 32.9809C51.0446 32.6598 51.184 32.3591 51.3957 32.1119C51.8648 31.5963 52.4236 31.1701 53.0449 30.854C53.7631 30.4908 54.5605 30.3124 55.365 30.3349C58.5916 30.3349 60.3926 32.3555 60.3926 35.2666V38.9405C60.3926 38.9405 60.3926 40.7135 61.5906 40.6656C61.5906 40.6656 62.2095 40.6656 62.3333 40.2463L62.4731 40.3701ZM56.3074 35.9295C54.2868 36.3768 54.3108 37.8783 54.3108 39.0363C54.3108 39.0363 54.2868 40.6656 55.2732 40.6656C55.6725 40.6656 56.0359 40.3182 56.3074 39.7271V35.9295Z" fill="white"/>
<path d="M16.8652 45.689H18.207C18.4748 45.6754 18.739 45.756 18.9537 45.9166C19.065 46.0037 19.1485 46.1213 19.194 46.2551C19.2395 46.3889 19.245 46.533 19.2098 46.6699C19.1747 46.8068 19.1004 46.9304 18.996 47.0257C18.8917 47.121 18.7618 47.1838 18.6223 47.2064C18.8143 47.2272 18.9912 47.3199 19.1175 47.466C19.2395 47.6048 19.305 47.7844 19.3011 47.9691C19.306 48.0812 19.2843 48.1927 19.2378 48.2947C19.1913 48.3968 19.1213 48.4864 19.0336 48.5562C18.8134 48.7108 18.5475 48.7867 18.2789 48.7718H16.8652V45.689ZM17.616 46.26V46.9269H18.1071C18.2014 46.9304 18.2942 46.9023 18.3707 46.847C18.4043 46.8148 18.4302 46.7755 18.4468 46.732C18.4634 46.6885 18.4701 46.6419 18.4666 46.5954C18.4698 46.5497 18.4629 46.5037 18.4463 46.4609C18.4298 46.4181 18.4039 46.3795 18.3707 46.3479C18.2962 46.288 18.2027 46.2568 18.1071 46.26H17.616ZM17.616 48.2008H18.183C18.2296 48.2032 18.2762 48.1963 18.32 48.1805C18.3639 48.1648 18.4042 48.1404 18.4386 48.1089C18.4732 48.0764 18.5001 48.0366 18.5173 47.9924C18.5346 47.9482 18.5418 47.9007 18.5384 47.8533C18.5408 47.8064 18.5335 47.7596 18.517 47.7156C18.5005 47.6717 18.4752 47.6315 18.4426 47.5978C18.4102 47.5641 18.371 47.5379 18.3276 47.5206C18.2842 47.5034 18.2376 47.4957 18.191 47.4979H17.616V48.2008Z" fill="white"/>
<path d="M22.1154 48.3567C21.8209 48.0534 21.6562 47.6473 21.6562 47.2246C21.6562 46.8019 21.8209 46.3958 22.1154 46.0925C22.4186 45.8058 22.8202 45.646 23.2375 45.646C23.6549 45.646 24.0564 45.8058 24.3596 46.0925C24.6531 46.3963 24.8172 46.8022 24.8172 47.2246C24.8172 47.647 24.6531 48.0529 24.3596 48.3567C24.0575 48.6441 23.6565 48.8043 23.2395 48.8043C22.8225 48.8043 22.4215 48.6441 22.1194 48.3567H22.1154ZM23.8285 47.8695C23.971 47.684 24.0482 47.4566 24.0482 47.2226C24.0482 46.9887 23.971 46.7612 23.8285 46.5757C23.7522 46.4956 23.6596 46.4328 23.557 46.3914C23.4543 46.3501 23.344 46.3312 23.2335 46.3361C23.1235 46.331 23.0138 46.3498 22.9118 46.3912C22.8097 46.4325 22.7179 46.4955 22.6425 46.5757C22.4974 46.7601 22.4185 46.988 22.4185 47.2226C22.4185 47.4573 22.4974 47.6851 22.6425 47.8695C22.7179 47.9497 22.8097 48.0127 22.9118 48.0541C23.0138 48.0954 23.1235 48.1142 23.2335 48.1091C23.344 48.114 23.4543 48.0951 23.557 48.0538C23.6596 48.0125 23.7522 47.9496 23.8285 47.8695Z" fill="white"/>
<path d="M27.2954 47.5304V45.6895H28.0462V47.5304C28.0356 47.6849 28.0842 47.8376 28.1819 47.9577C28.234 48.0095 28.2966 48.0496 28.3655 48.0751C28.4344 48.1006 28.508 48.1109 28.5813 48.1054C28.6545 48.1102 28.7278 48.0994 28.7966 48.074C28.8654 48.0485 28.9281 48.0089 28.9806 47.9577C29.0813 47.839 29.1314 47.6856 29.1204 47.5304V45.6895H29.8711V47.5304C29.8785 47.7792 29.8133 48.0248 29.6834 48.2372C29.565 48.4226 29.3978 48.5718 29.2002 48.6685C29.0013 48.7604 28.7844 48.8068 28.5653 48.8042C28.2312 48.8133 27.9065 48.6932 27.6588 48.4688C27.5338 48.3481 27.4366 48.2016 27.3738 48.0396C27.3111 47.8775 27.2843 47.7038 27.2954 47.5304Z" fill="white"/>
<path d="M32.3193 46.2605V45.6895H34.7512V46.2605H33.9087V48.7723H33.1579V46.2605H32.3193Z" fill="white"/>
<path d="M37.2109 48.7723V45.6895H37.9617V48.7723H37.2109Z" fill="white"/>
<path d="M42.0471 48.8042C41.8396 48.8085 41.6334 48.7712 41.4406 48.6944C41.2479 48.6176 41.0725 48.5028 40.925 48.3569C40.6305 48.0536 40.4658 47.6475 40.4658 47.2248C40.4658 46.8021 40.6305 46.396 40.925 46.0927C41.073 45.9463 41.249 45.8313 41.4425 45.7544C41.636 45.6776 41.843 45.6405 42.0511 45.6455C42.2592 45.6411 42.4661 45.6789 42.6592 45.7567C42.8524 45.8345 43.0277 45.9506 43.1748 46.098C43.3218 46.2454 43.4375 46.421 43.5147 46.6144C43.592 46.8077 43.6293 47.0147 43.6244 47.2228C43.6279 47.4686 43.5746 47.7118 43.4687 47.9336C43.3699 48.1428 43.2236 48.3261 43.0414 48.4687L43.6684 49.2674H42.7619L42.3865 48.7562C42.2753 48.7837 42.1616 48.7997 42.0471 48.8042ZM41.4521 46.5759C41.3096 46.7614 41.2324 46.9889 41.2324 47.2228C41.2324 47.4568 41.3096 47.6842 41.4521 47.8697C41.5284 47.9498 41.621 48.0127 41.7236 48.054C41.8263 48.0953 41.9365 48.1142 42.0471 48.1093C42.157 48.1144 42.2668 48.0956 42.3688 48.0543C42.4708 48.0129 42.5627 47.9499 42.6381 47.8697C42.7832 47.6853 42.8621 47.4575 42.8621 47.2228C42.8621 46.9882 42.7832 46.7603 42.6381 46.5759C42.5627 46.4957 42.4708 46.4327 42.3688 46.3914C42.2668 46.35 42.157 46.3312 42.0471 46.3363C41.9339 46.3291 41.8205 46.3468 41.715 46.3882C41.6094 46.4296 41.5142 46.4937 41.4361 46.5759H41.4521Z" fill="white"/>
<path d="M46.1157 47.5304V45.6895H46.8665V47.5304C46.856 47.6849 46.9045 47.8376 47.0022 47.9577C47.0543 48.0095 47.1169 48.0496 47.1858 48.0751C47.2547 48.1006 47.3283 48.1109 47.4016 48.1054C47.4748 48.1102 47.5482 48.0994 47.617 48.074C47.6857 48.0485 47.7484 48.0089 47.8009 47.9577C47.903 47.8396 47.9547 47.6861 47.9447 47.5304V45.6895H48.6954V47.5304C48.7016 47.7796 48.635 48.0252 48.5037 48.2372C48.3868 48.4238 48.2192 48.5734 48.0205 48.6685C47.8216 48.7604 47.6047 48.8068 47.3856 48.8042C47.0517 48.8125 46.7272 48.6924 46.4791 48.4688C46.3541 48.3481 46.2569 48.2016 46.1941 48.0396C46.1314 47.8775 46.1046 47.7038 46.1157 47.5304Z" fill="white"/>
<path d="M53.2284 45.6812V46.2522H52.1143V46.9151H53.0966V47.4861H52.1143V48.2009H53.2284V48.772H51.3516V45.6812H53.2284Z" fill="white"/>
</svg>
